G75*
%MOIN*%
%OFA0B0*%
%FSLAX25Y25*%
%IPPOS*%
%LPD*%
%AMOC8*
5,1,8,0,0,1.08239X$1,22.5*
%
%ADD10C,0.00600*%
%ADD11C,0.00875*%
%ADD12R,0.05500X0.05500*%
%ADD13C,0.00750*%
%ADD14R,0.06299X0.01181*%
%ADD15R,0.07677X0.06299*%
%ADD16R,0.06500X0.06500*%
%ADD17C,0.06500*%
%ADD18R,0.09843X0.03937*%
%ADD19R,0.03150X0.01969*%
%ADD20R,0.03500X0.04500*%
%ADD21R,0.04500X0.04000*%
%ADD22C,0.01000*%
%ADD23C,0.02400*%
%ADD24C,0.00800*%
%ADD25C,0.03200*%
%ADD26C,0.02578*%
%ADD27C,0.01200*%
%ADD28C,0.01500*%
%ADD29C,0.02000*%
D10*
X0008065Y0019400D02*
X0008065Y0165069D01*
X0129265Y0165069D01*
X0140865Y0176669D01*
X0190365Y0176669D01*
X0201665Y0165069D01*
X0319089Y0165069D01*
X0319089Y0019400D01*
X0201965Y0019400D01*
X0190365Y0007800D01*
X0140865Y0007800D01*
X0129265Y0019400D01*
X0008065Y0019400D01*
D11*
X0066113Y0046708D02*
X0068739Y0046708D01*
X0068739Y0044082D01*
X0066113Y0044082D01*
X0066113Y0046708D01*
X0066113Y0044956D02*
X0068739Y0044956D01*
X0068739Y0045830D02*
X0066113Y0045830D01*
X0066113Y0046704D02*
X0068739Y0046704D01*
X0072113Y0046708D02*
X0074739Y0046708D01*
X0074739Y0044082D01*
X0072113Y0044082D01*
X0072113Y0046708D01*
X0072113Y0044956D02*
X0074739Y0044956D01*
X0074739Y0045830D02*
X0072113Y0045830D01*
X0072113Y0046704D02*
X0074739Y0046704D01*
X0074739Y0052408D02*
X0072113Y0052408D01*
X0074739Y0052408D02*
X0074739Y0049782D01*
X0072113Y0049782D01*
X0072113Y0052408D01*
X0072113Y0050656D02*
X0074739Y0050656D01*
X0074739Y0051530D02*
X0072113Y0051530D01*
X0072113Y0052404D02*
X0074739Y0052404D01*
X0074739Y0058108D02*
X0072113Y0058108D01*
X0074739Y0058108D02*
X0074739Y0055482D01*
X0072113Y0055482D01*
X0072113Y0058108D01*
X0072113Y0056356D02*
X0074739Y0056356D01*
X0074739Y0057230D02*
X0072113Y0057230D01*
X0072113Y0058104D02*
X0074739Y0058104D01*
X0074739Y0063708D02*
X0072113Y0063708D01*
X0074739Y0063708D02*
X0074739Y0061082D01*
X0072113Y0061082D01*
X0072113Y0063708D01*
X0072113Y0061956D02*
X0074739Y0061956D01*
X0074739Y0062830D02*
X0072113Y0062830D01*
X0072113Y0063704D02*
X0074739Y0063704D01*
X0068739Y0063708D02*
X0066113Y0063708D01*
X0068739Y0063708D02*
X0068739Y0061082D01*
X0066113Y0061082D01*
X0066113Y0063708D01*
X0066113Y0061956D02*
X0068739Y0061956D01*
X0068739Y0062830D02*
X0066113Y0062830D01*
X0066113Y0063704D02*
X0068739Y0063704D01*
X0068739Y0058108D02*
X0066113Y0058108D01*
X0068739Y0058108D02*
X0068739Y0055482D01*
X0066113Y0055482D01*
X0066113Y0058108D01*
X0066113Y0056356D02*
X0068739Y0056356D01*
X0068739Y0057230D02*
X0066113Y0057230D01*
X0066113Y0058104D02*
X0068739Y0058104D01*
X0068739Y0052408D02*
X0066113Y0052408D01*
X0068739Y0052408D02*
X0068739Y0049782D01*
X0066113Y0049782D01*
X0066113Y0052408D01*
X0066113Y0050656D02*
X0068739Y0050656D01*
X0068739Y0051530D02*
X0066113Y0051530D01*
X0066113Y0052404D02*
X0068739Y0052404D01*
X0082957Y0060848D02*
X0082957Y0063474D01*
X0085583Y0063474D01*
X0085583Y0060848D01*
X0082957Y0060848D01*
X0082957Y0061722D02*
X0085583Y0061722D01*
X0085583Y0062596D02*
X0082957Y0062596D01*
X0082957Y0063470D02*
X0085583Y0063470D01*
X0082957Y0066848D02*
X0082957Y0069474D01*
X0085583Y0069474D01*
X0085583Y0066848D01*
X0082957Y0066848D01*
X0082957Y0067722D02*
X0085583Y0067722D01*
X0085583Y0068596D02*
X0082957Y0068596D01*
X0082957Y0069470D02*
X0085583Y0069470D01*
X0104157Y0069474D02*
X0104157Y0066848D01*
X0104157Y0069474D02*
X0106783Y0069474D01*
X0106783Y0066848D01*
X0104157Y0066848D01*
X0104157Y0067722D02*
X0106783Y0067722D01*
X0106783Y0068596D02*
X0104157Y0068596D01*
X0104157Y0069470D02*
X0106783Y0069470D01*
X0104157Y0063474D02*
X0104157Y0060848D01*
X0104157Y0063474D02*
X0106783Y0063474D01*
X0106783Y0060848D01*
X0104157Y0060848D01*
X0104157Y0061722D02*
X0106783Y0061722D01*
X0106783Y0062596D02*
X0104157Y0062596D01*
X0104157Y0063470D02*
X0106783Y0063470D01*
X0101117Y0052792D02*
X0098491Y0052792D01*
X0098491Y0055418D01*
X0101117Y0055418D01*
X0101117Y0052792D01*
X0101117Y0053666D02*
X0098491Y0053666D01*
X0098491Y0054540D02*
X0101117Y0054540D01*
X0101117Y0055414D02*
X0098491Y0055414D01*
X0095117Y0052792D02*
X0092491Y0052792D01*
X0092491Y0055418D01*
X0095117Y0055418D01*
X0095117Y0052792D01*
X0095117Y0053666D02*
X0092491Y0053666D01*
X0092491Y0054540D02*
X0095117Y0054540D01*
X0095117Y0055414D02*
X0092491Y0055414D01*
X0113291Y0052792D02*
X0115917Y0052792D01*
X0113291Y0052792D02*
X0113291Y0055418D01*
X0115917Y0055418D01*
X0115917Y0052792D01*
X0115917Y0053666D02*
X0113291Y0053666D01*
X0113291Y0054540D02*
X0115917Y0054540D01*
X0115917Y0055414D02*
X0113291Y0055414D01*
X0119291Y0052792D02*
X0121917Y0052792D01*
X0119291Y0052792D02*
X0119291Y0055418D01*
X0121917Y0055418D01*
X0121917Y0052792D01*
X0121917Y0053666D02*
X0119291Y0053666D01*
X0119291Y0054540D02*
X0121917Y0054540D01*
X0121917Y0055414D02*
X0119291Y0055414D01*
X0122757Y0060848D02*
X0122757Y0063474D01*
X0125383Y0063474D01*
X0125383Y0060848D01*
X0122757Y0060848D01*
X0122757Y0061722D02*
X0125383Y0061722D01*
X0125383Y0062596D02*
X0122757Y0062596D01*
X0122757Y0063470D02*
X0125383Y0063470D01*
X0122757Y0066848D02*
X0122757Y0069474D01*
X0125383Y0069474D01*
X0125383Y0066848D01*
X0122757Y0066848D01*
X0122757Y0067722D02*
X0125383Y0067722D01*
X0125383Y0068596D02*
X0122757Y0068596D01*
X0122757Y0069470D02*
X0125383Y0069470D01*
X0141657Y0069474D02*
X0141657Y0066848D01*
X0141657Y0069474D02*
X0144283Y0069474D01*
X0144283Y0066848D01*
X0141657Y0066848D01*
X0141657Y0067722D02*
X0144283Y0067722D01*
X0144283Y0068596D02*
X0141657Y0068596D01*
X0141657Y0069470D02*
X0144283Y0069470D01*
X0141657Y0063474D02*
X0141657Y0060848D01*
X0141657Y0063474D02*
X0144283Y0063474D01*
X0144283Y0060848D01*
X0141657Y0060848D01*
X0141657Y0061722D02*
X0144283Y0061722D01*
X0144283Y0062596D02*
X0141657Y0062596D01*
X0141657Y0063470D02*
X0144283Y0063470D01*
X0140817Y0052792D02*
X0138191Y0052792D01*
X0138191Y0055418D01*
X0140817Y0055418D01*
X0140817Y0052792D01*
X0140817Y0053666D02*
X0138191Y0053666D01*
X0138191Y0054540D02*
X0140817Y0054540D01*
X0140817Y0055414D02*
X0138191Y0055414D01*
X0134817Y0052792D02*
X0132191Y0052792D01*
X0132191Y0055418D01*
X0134817Y0055418D01*
X0134817Y0052792D01*
X0134817Y0053666D02*
X0132191Y0053666D01*
X0132191Y0054540D02*
X0134817Y0054540D01*
X0134817Y0055414D02*
X0132191Y0055414D01*
X0150791Y0052792D02*
X0153417Y0052792D01*
X0150791Y0052792D02*
X0150791Y0055418D01*
X0153417Y0055418D01*
X0153417Y0052792D01*
X0153417Y0053666D02*
X0150791Y0053666D01*
X0150791Y0054540D02*
X0153417Y0054540D01*
X0153417Y0055414D02*
X0150791Y0055414D01*
X0156791Y0052792D02*
X0159417Y0052792D01*
X0156791Y0052792D02*
X0156791Y0055418D01*
X0159417Y0055418D01*
X0159417Y0052792D01*
X0159417Y0053666D02*
X0156791Y0053666D01*
X0156791Y0054540D02*
X0159417Y0054540D01*
X0159417Y0055414D02*
X0156791Y0055414D01*
X0160157Y0060848D02*
X0160157Y0063474D01*
X0162783Y0063474D01*
X0162783Y0060848D01*
X0160157Y0060848D01*
X0160157Y0061722D02*
X0162783Y0061722D01*
X0162783Y0062596D02*
X0160157Y0062596D01*
X0160157Y0063470D02*
X0162783Y0063470D01*
X0160157Y0066848D02*
X0160157Y0069474D01*
X0162783Y0069474D01*
X0162783Y0066848D01*
X0160157Y0066848D01*
X0160157Y0067722D02*
X0162783Y0067722D01*
X0162783Y0068596D02*
X0160157Y0068596D01*
X0160157Y0069470D02*
X0162783Y0069470D01*
X0178757Y0069474D02*
X0178757Y0066848D01*
X0178757Y0069474D02*
X0181383Y0069474D01*
X0181383Y0066848D01*
X0178757Y0066848D01*
X0178757Y0067722D02*
X0181383Y0067722D01*
X0181383Y0068596D02*
X0178757Y0068596D01*
X0178757Y0069470D02*
X0181383Y0069470D01*
X0178757Y0063474D02*
X0178757Y0060848D01*
X0178757Y0063474D02*
X0181383Y0063474D01*
X0181383Y0060848D01*
X0178757Y0060848D01*
X0178757Y0061722D02*
X0181383Y0061722D01*
X0181383Y0062596D02*
X0178757Y0062596D01*
X0178757Y0063470D02*
X0181383Y0063470D01*
X0178017Y0052792D02*
X0175391Y0052792D01*
X0175391Y0055418D01*
X0178017Y0055418D01*
X0178017Y0052792D01*
X0178017Y0053666D02*
X0175391Y0053666D01*
X0175391Y0054540D02*
X0178017Y0054540D01*
X0178017Y0055414D02*
X0175391Y0055414D01*
X0172017Y0052792D02*
X0169391Y0052792D01*
X0169391Y0055418D01*
X0172017Y0055418D01*
X0172017Y0052792D01*
X0172017Y0053666D02*
X0169391Y0053666D01*
X0169391Y0054540D02*
X0172017Y0054540D01*
X0172017Y0055414D02*
X0169391Y0055414D01*
X0188091Y0052792D02*
X0190717Y0052792D01*
X0188091Y0052792D02*
X0188091Y0055418D01*
X0190717Y0055418D01*
X0190717Y0052792D01*
X0190717Y0053666D02*
X0188091Y0053666D01*
X0188091Y0054540D02*
X0190717Y0054540D01*
X0190717Y0055414D02*
X0188091Y0055414D01*
X0194091Y0052792D02*
X0196717Y0052792D01*
X0194091Y0052792D02*
X0194091Y0055418D01*
X0196717Y0055418D01*
X0196717Y0052792D01*
X0196717Y0053666D02*
X0194091Y0053666D01*
X0194091Y0054540D02*
X0196717Y0054540D01*
X0196717Y0055414D02*
X0194091Y0055414D01*
X0197557Y0060848D02*
X0197557Y0063474D01*
X0200183Y0063474D01*
X0200183Y0060848D01*
X0197557Y0060848D01*
X0197557Y0061722D02*
X0200183Y0061722D01*
X0200183Y0062596D02*
X0197557Y0062596D01*
X0197557Y0063470D02*
X0200183Y0063470D01*
X0197557Y0066848D02*
X0197557Y0069474D01*
X0200183Y0069474D01*
X0200183Y0066848D01*
X0197557Y0066848D01*
X0197557Y0067722D02*
X0200183Y0067722D01*
X0200183Y0068596D02*
X0197557Y0068596D01*
X0197557Y0069470D02*
X0200183Y0069470D01*
X0206891Y0052792D02*
X0209517Y0052792D01*
X0206891Y0052792D02*
X0206891Y0055418D01*
X0209517Y0055418D01*
X0209517Y0052792D01*
X0209517Y0053666D02*
X0206891Y0053666D01*
X0206891Y0054540D02*
X0209517Y0054540D01*
X0209517Y0055414D02*
X0206891Y0055414D01*
X0212891Y0052792D02*
X0215517Y0052792D01*
X0212891Y0052792D02*
X0212891Y0055418D01*
X0215517Y0055418D01*
X0215517Y0052792D01*
X0215517Y0053666D02*
X0212891Y0053666D01*
X0212891Y0054540D02*
X0215517Y0054540D01*
X0215517Y0055414D02*
X0212891Y0055414D01*
X0185117Y0090492D02*
X0182491Y0090492D01*
X0182491Y0093118D01*
X0185117Y0093118D01*
X0185117Y0090492D01*
X0185117Y0091366D02*
X0182491Y0091366D01*
X0182491Y0092240D02*
X0185117Y0092240D01*
X0185117Y0093114D02*
X0182491Y0093114D01*
X0179117Y0090492D02*
X0176491Y0090492D01*
X0176491Y0093118D01*
X0179117Y0093118D01*
X0179117Y0090492D01*
X0179117Y0091366D02*
X0176491Y0091366D01*
X0176491Y0092240D02*
X0179117Y0092240D01*
X0179117Y0093114D02*
X0176491Y0093114D01*
X0170357Y0104048D02*
X0170357Y0106674D01*
X0172983Y0106674D01*
X0172983Y0104048D01*
X0170357Y0104048D01*
X0170357Y0104922D02*
X0172983Y0104922D01*
X0172983Y0105796D02*
X0170357Y0105796D01*
X0170357Y0106670D02*
X0172983Y0106670D01*
X0170357Y0110048D02*
X0170357Y0112674D01*
X0172983Y0112674D01*
X0172983Y0110048D01*
X0170357Y0110048D01*
X0170357Y0110922D02*
X0172983Y0110922D01*
X0172983Y0111796D02*
X0170357Y0111796D01*
X0170357Y0112670D02*
X0172983Y0112670D01*
X0178091Y0116892D02*
X0180717Y0116892D01*
X0178091Y0116892D02*
X0178091Y0119518D01*
X0180717Y0119518D01*
X0180717Y0116892D01*
X0180717Y0117766D02*
X0178091Y0117766D01*
X0178091Y0118640D02*
X0180717Y0118640D01*
X0180717Y0119514D02*
X0178091Y0119514D01*
X0184091Y0116892D02*
X0186717Y0116892D01*
X0184091Y0116892D02*
X0184091Y0119518D01*
X0186717Y0119518D01*
X0186717Y0116892D01*
X0186717Y0117766D02*
X0184091Y0117766D01*
X0184091Y0118640D02*
X0186717Y0118640D01*
X0186717Y0119514D02*
X0184091Y0119514D01*
X0102057Y0138448D02*
X0102057Y0141074D01*
X0104683Y0141074D01*
X0104683Y0138448D01*
X0102057Y0138448D01*
X0102057Y0139322D02*
X0104683Y0139322D01*
X0104683Y0140196D02*
X0102057Y0140196D01*
X0102057Y0141070D02*
X0104683Y0141070D01*
X0102057Y0144448D02*
X0102057Y0147074D01*
X0104683Y0147074D01*
X0104683Y0144448D01*
X0102057Y0144448D01*
X0102057Y0145322D02*
X0104683Y0145322D01*
X0104683Y0146196D02*
X0102057Y0146196D01*
X0102057Y0147070D02*
X0104683Y0147070D01*
X0081757Y0143674D02*
X0081757Y0141048D01*
X0081757Y0143674D02*
X0084383Y0143674D01*
X0084383Y0141048D01*
X0081757Y0141048D01*
X0081757Y0141922D02*
X0084383Y0141922D01*
X0084383Y0142796D02*
X0081757Y0142796D01*
X0081757Y0143670D02*
X0084383Y0143670D01*
X0081757Y0137674D02*
X0081757Y0135048D01*
X0081757Y0137674D02*
X0084383Y0137674D01*
X0084383Y0135048D01*
X0081757Y0135048D01*
X0081757Y0135922D02*
X0084383Y0135922D01*
X0084383Y0136796D02*
X0081757Y0136796D01*
X0081757Y0137670D02*
X0084383Y0137670D01*
X0077539Y0157908D02*
X0074913Y0157908D01*
X0077539Y0157908D02*
X0077539Y0155282D01*
X0074913Y0155282D01*
X0074913Y0157908D01*
X0074913Y0156156D02*
X0077539Y0156156D01*
X0077539Y0157030D02*
X0074913Y0157030D01*
X0074913Y0157904D02*
X0077539Y0157904D01*
X0071539Y0157908D02*
X0068913Y0157908D01*
X0071539Y0157908D02*
X0071539Y0155282D01*
X0068913Y0155282D01*
X0068913Y0157908D01*
X0068913Y0156156D02*
X0071539Y0156156D01*
X0071539Y0157030D02*
X0068913Y0157030D01*
X0068913Y0157904D02*
X0071539Y0157904D01*
X0052057Y0143674D02*
X0052057Y0141048D01*
X0052057Y0143674D02*
X0054683Y0143674D01*
X0054683Y0141048D01*
X0052057Y0141048D01*
X0052057Y0141922D02*
X0054683Y0141922D01*
X0054683Y0142796D02*
X0052057Y0142796D01*
X0052057Y0143670D02*
X0054683Y0143670D01*
X0046357Y0143674D02*
X0046357Y0141048D01*
X0046357Y0143674D02*
X0048983Y0143674D01*
X0048983Y0141048D01*
X0046357Y0141048D01*
X0046357Y0141922D02*
X0048983Y0141922D01*
X0048983Y0142796D02*
X0046357Y0142796D01*
X0046357Y0143670D02*
X0048983Y0143670D01*
X0040657Y0143674D02*
X0040657Y0141048D01*
X0040657Y0143674D02*
X0043283Y0143674D01*
X0043283Y0141048D01*
X0040657Y0141048D01*
X0040657Y0141922D02*
X0043283Y0141922D01*
X0043283Y0142796D02*
X0040657Y0142796D01*
X0040657Y0143670D02*
X0043283Y0143670D01*
X0040657Y0137674D02*
X0040657Y0135048D01*
X0040657Y0137674D02*
X0043283Y0137674D01*
X0043283Y0135048D01*
X0040657Y0135048D01*
X0040657Y0135922D02*
X0043283Y0135922D01*
X0043283Y0136796D02*
X0040657Y0136796D01*
X0040657Y0137670D02*
X0043283Y0137670D01*
X0046357Y0137674D02*
X0046357Y0135048D01*
X0046357Y0137674D02*
X0048983Y0137674D01*
X0048983Y0135048D01*
X0046357Y0135048D01*
X0046357Y0135922D02*
X0048983Y0135922D01*
X0048983Y0136796D02*
X0046357Y0136796D01*
X0046357Y0137670D02*
X0048983Y0137670D01*
X0052057Y0137674D02*
X0052057Y0135048D01*
X0052057Y0137674D02*
X0054683Y0137674D01*
X0054683Y0135048D01*
X0052057Y0135048D01*
X0052057Y0135922D02*
X0054683Y0135922D01*
X0054683Y0136796D02*
X0052057Y0136796D01*
X0052057Y0137670D02*
X0054683Y0137670D01*
X0063013Y0112008D02*
X0065639Y0112008D01*
X0065639Y0109382D01*
X0063013Y0109382D01*
X0063013Y0112008D01*
X0063013Y0110256D02*
X0065639Y0110256D01*
X0065639Y0111130D02*
X0063013Y0111130D01*
X0063013Y0112004D02*
X0065639Y0112004D01*
X0069013Y0112008D02*
X0071639Y0112008D01*
X0071639Y0109382D01*
X0069013Y0109382D01*
X0069013Y0112008D01*
X0069013Y0110256D02*
X0071639Y0110256D01*
X0071639Y0111130D02*
X0069013Y0111130D01*
X0069013Y0112004D02*
X0071639Y0112004D01*
X0075057Y0112174D02*
X0075057Y0109548D01*
X0075057Y0112174D02*
X0077683Y0112174D01*
X0077683Y0109548D01*
X0075057Y0109548D01*
X0075057Y0110422D02*
X0077683Y0110422D01*
X0077683Y0111296D02*
X0075057Y0111296D01*
X0075057Y0112170D02*
X0077683Y0112170D01*
X0075057Y0106174D02*
X0075057Y0103548D01*
X0075057Y0106174D02*
X0077683Y0106174D01*
X0077683Y0103548D01*
X0075057Y0103548D01*
X0075057Y0104422D02*
X0077683Y0104422D01*
X0077683Y0105296D02*
X0075057Y0105296D01*
X0075057Y0106170D02*
X0077683Y0106170D01*
X0071639Y0106308D02*
X0069013Y0106308D01*
X0071639Y0106308D02*
X0071639Y0103682D01*
X0069013Y0103682D01*
X0069013Y0106308D01*
X0069013Y0104556D02*
X0071639Y0104556D01*
X0071639Y0105430D02*
X0069013Y0105430D01*
X0069013Y0106304D02*
X0071639Y0106304D01*
X0065639Y0106308D02*
X0063013Y0106308D01*
X0065639Y0106308D02*
X0065639Y0103682D01*
X0063013Y0103682D01*
X0063013Y0106308D01*
X0063013Y0104556D02*
X0065639Y0104556D01*
X0065639Y0105430D02*
X0063013Y0105430D01*
X0063013Y0106304D02*
X0065639Y0106304D01*
D12*
X0068360Y0136339D03*
X0076260Y0136339D03*
X0060270Y0136361D03*
X0060270Y0149361D03*
X0068360Y0149339D03*
X0076260Y0149339D03*
D13*
X0176679Y0096630D02*
X0178929Y0096630D01*
X0176679Y0096630D02*
X0176679Y0099380D01*
X0178929Y0099380D01*
X0178929Y0096630D01*
X0178929Y0097379D02*
X0176679Y0097379D01*
X0176679Y0098128D02*
X0178929Y0098128D01*
X0178929Y0098877D02*
X0176679Y0098877D01*
X0182679Y0096630D02*
X0184929Y0096630D01*
X0182679Y0096630D02*
X0182679Y0099380D01*
X0184929Y0099380D01*
X0184929Y0096630D01*
X0184929Y0097379D02*
X0182679Y0097379D01*
X0182679Y0098128D02*
X0184929Y0098128D01*
X0184929Y0098877D02*
X0182679Y0098877D01*
D14*
X0047632Y0098887D03*
X0047632Y0100855D03*
X0047632Y0102824D03*
X0047632Y0104792D03*
X0047632Y0106761D03*
X0047632Y0108729D03*
X0047632Y0110698D03*
X0047632Y0112666D03*
X0047632Y0114635D03*
X0047632Y0116603D03*
X0047632Y0096918D03*
X0047632Y0094950D03*
X0047632Y0092981D03*
X0047632Y0091013D03*
X0047632Y0089044D03*
X0047632Y0087076D03*
X0047632Y0085107D03*
X0047632Y0083139D03*
X0047632Y0081170D03*
X0047632Y0079202D03*
X0047632Y0077233D03*
X0047632Y0075265D03*
X0047632Y0073296D03*
X0047632Y0071328D03*
D15*
X0034837Y0062863D03*
X0034837Y0125068D03*
D16*
X0185565Y0171469D03*
X0145565Y0013000D03*
D17*
X0155565Y0013000D03*
X0165565Y0013000D03*
X0175565Y0013000D03*
X0185565Y0013000D03*
X0175565Y0171469D03*
X0165565Y0171469D03*
X0155565Y0171469D03*
X0145565Y0171469D03*
D18*
X0093826Y0148201D03*
X0093826Y0137390D03*
D19*
X0062170Y0051020D03*
X0062170Y0045902D03*
X0053508Y0048461D03*
D20*
X0090086Y0068195D03*
X0097566Y0068195D03*
X0093826Y0060195D03*
X0110886Y0068195D03*
X0118366Y0068195D03*
X0114626Y0060195D03*
X0129786Y0068195D03*
X0137266Y0068195D03*
X0133526Y0060195D03*
X0148386Y0068195D03*
X0155866Y0068195D03*
X0152126Y0060195D03*
X0166986Y0068095D03*
X0174466Y0068095D03*
X0185686Y0068095D03*
X0193166Y0068095D03*
X0204486Y0068095D03*
X0211966Y0068095D03*
X0208226Y0060095D03*
X0189426Y0060095D03*
X0170726Y0060095D03*
D21*
X0177470Y0104820D03*
X0185470Y0108561D03*
X0177470Y0112301D03*
D22*
X0185470Y0108561D02*
X0185470Y0104395D01*
X0217765Y0072100D01*
X0217765Y0057900D01*
X0214204Y0054339D01*
X0214204Y0054105D01*
X0214204Y0049561D01*
X0214265Y0049500D01*
X0208226Y0054126D02*
X0208204Y0054105D01*
X0175565Y0021465D01*
X0175565Y0013000D01*
X0165565Y0013000D02*
X0165565Y0030265D01*
X0189404Y0054105D01*
X0189426Y0054126D01*
X0189426Y0060095D01*
X0192665Y0064300D02*
X0193166Y0064801D01*
X0193166Y0064799D01*
X0193665Y0064300D01*
X0196765Y0064300D01*
X0196765Y0064265D01*
X0198870Y0062161D01*
X0199026Y0062161D01*
X0201065Y0064200D01*
X0208071Y0064200D01*
X0211966Y0068095D01*
X0211966Y0068799D01*
X0208226Y0060095D02*
X0208226Y0054126D01*
X0195465Y0054044D02*
X0195465Y0049500D01*
X0195465Y0054044D02*
X0195404Y0054105D01*
X0182209Y0064300D02*
X0180070Y0062161D01*
X0180004Y0062161D01*
X0177865Y0064300D01*
X0175165Y0064300D01*
X0174466Y0064999D01*
X0174466Y0065100D01*
X0173666Y0064300D01*
X0163609Y0064300D01*
X0161470Y0062161D01*
X0159330Y0064300D01*
X0156865Y0064300D01*
X0156065Y0065100D01*
X0155866Y0065100D01*
X0155765Y0065100D01*
X0154965Y0064300D01*
X0145065Y0064300D01*
X0142970Y0062205D01*
X0142970Y0062161D01*
X0140830Y0064300D01*
X0138066Y0064300D01*
X0137266Y0065100D01*
X0136466Y0064300D01*
X0126365Y0064300D01*
X0124226Y0062161D01*
X0124070Y0062161D01*
X0121930Y0064300D01*
X0119365Y0064300D01*
X0118365Y0065300D01*
X0117365Y0064300D01*
X0107665Y0064300D01*
X0105526Y0062161D01*
X0105470Y0062161D01*
X0103230Y0064400D01*
X0098365Y0064400D01*
X0097465Y0065300D01*
X0096565Y0064400D01*
X0086565Y0064400D01*
X0086509Y0064400D01*
X0084270Y0062161D01*
X0093804Y0060174D02*
X0093804Y0054105D01*
X0089370Y0054105D01*
X0089365Y0054100D01*
X0093804Y0060174D02*
X0093826Y0060195D01*
X0096565Y0064400D02*
X0097465Y0064400D01*
X0097465Y0065300D01*
X0097465Y0068094D01*
X0097566Y0068195D01*
X0097465Y0064400D02*
X0098365Y0064400D01*
X0099804Y0054105D02*
X0104409Y0049500D01*
X0119865Y0049500D01*
X0120604Y0050239D01*
X0120604Y0050161D01*
X0121265Y0049500D01*
X0139465Y0049500D01*
X0139504Y0049539D01*
X0139504Y0054105D01*
X0133526Y0054126D02*
X0133504Y0054105D01*
X0133300Y0053900D01*
X0129065Y0053900D01*
X0133526Y0054126D02*
X0133526Y0060195D01*
X0136466Y0064300D02*
X0137465Y0064300D01*
X0137266Y0064499D01*
X0137266Y0065100D01*
X0137266Y0068195D01*
X0137465Y0064300D02*
X0138066Y0064300D01*
X0152126Y0060195D02*
X0152126Y0054126D01*
X0152104Y0054105D01*
X0145565Y0047565D01*
X0145565Y0013000D01*
X0155565Y0013000D02*
X0155565Y0038965D01*
X0170704Y0054105D01*
X0170726Y0054126D01*
X0170726Y0060095D01*
X0173666Y0064300D02*
X0174465Y0064300D01*
X0174466Y0064301D01*
X0174466Y0064999D01*
X0174466Y0065100D02*
X0174466Y0068095D01*
X0174465Y0064300D02*
X0175165Y0064300D01*
X0182209Y0064300D02*
X0192665Y0064300D01*
X0193165Y0064300D01*
X0193166Y0064301D01*
X0193166Y0064799D01*
X0193166Y0064801D02*
X0193166Y0068095D01*
X0193165Y0064300D02*
X0193665Y0064300D01*
X0176704Y0054105D02*
X0176704Y0049561D01*
X0176765Y0049500D01*
X0158265Y0049500D02*
X0158104Y0049661D01*
X0158104Y0054105D01*
X0156865Y0064300D02*
X0155865Y0064300D01*
X0155866Y0064301D01*
X0155866Y0065100D01*
X0155866Y0068195D01*
X0155865Y0064300D02*
X0154965Y0064300D01*
X0119365Y0064300D02*
X0118365Y0064300D01*
X0118365Y0065300D01*
X0118365Y0068194D01*
X0118366Y0068195D01*
X0118365Y0064300D02*
X0117365Y0064300D01*
X0114626Y0060195D02*
X0114626Y0054126D01*
X0114604Y0054105D01*
X0114400Y0053900D01*
X0110265Y0053900D01*
X0120604Y0054105D02*
X0120604Y0050239D01*
X0120604Y0050161D02*
X0120604Y0049739D01*
X0120365Y0049500D01*
X0119865Y0049500D01*
X0120365Y0049500D02*
X0121265Y0049500D01*
X0067426Y0051095D02*
X0067350Y0051020D01*
X0062170Y0051020D01*
X0060265Y0052924D01*
X0060265Y0063800D01*
X0060265Y0064621D01*
X0060265Y0067800D01*
X0052801Y0075265D01*
X0047632Y0075265D01*
X0047632Y0077233D02*
X0053632Y0077233D01*
X0062865Y0068000D01*
X0062865Y0061356D01*
X0067426Y0056795D01*
X0067321Y0062500D02*
X0067321Y0066844D01*
X0054964Y0079202D01*
X0047632Y0079202D01*
X0047632Y0073296D02*
X0051761Y0073296D01*
X0051765Y0073300D01*
X0057865Y0067200D01*
X0057865Y0047000D01*
X0058964Y0045902D01*
X0062170Y0045902D01*
X0066919Y0045902D01*
X0067426Y0045395D01*
X0053508Y0048461D02*
X0034604Y0048461D01*
X0026565Y0056500D01*
X0026565Y0136300D01*
X0050365Y0160100D01*
X0073865Y0160100D01*
X0076260Y0157705D01*
X0076260Y0156561D01*
X0076260Y0136339D02*
X0076260Y0132795D01*
X0054163Y0110698D01*
X0047632Y0110698D01*
X0047632Y0112666D02*
X0043399Y0112666D01*
X0041965Y0114100D01*
X0041965Y0136356D01*
X0041970Y0136361D01*
X0047632Y0136323D02*
X0047632Y0116603D01*
X0047632Y0114635D02*
X0051700Y0114635D01*
X0053370Y0116305D01*
X0053370Y0136361D01*
X0053365Y0136356D01*
X0047670Y0136361D02*
X0047632Y0136323D01*
X0076260Y0136339D02*
X0076265Y0136335D01*
X0083049Y0136339D02*
X0083070Y0136361D01*
X0171670Y0105361D02*
X0171965Y0105065D01*
X0177470Y0104820D02*
X0177470Y0098339D01*
X0177804Y0098005D01*
X0183804Y0098005D02*
X0183804Y0091805D01*
D23*
X0193965Y0079500D03*
X0197665Y0076700D03*
X0202365Y0073500D03*
X0189365Y0071600D03*
X0186165Y0074100D03*
X0170665Y0071700D03*
X0167565Y0074500D03*
X0151965Y0072200D03*
X0142965Y0072400D03*
X0133465Y0072100D03*
X0124165Y0072400D03*
X0114465Y0072600D03*
X0093765Y0072000D03*
X0076965Y0067300D03*
X0069265Y0071600D03*
X0062665Y0076200D03*
X0054065Y0063600D03*
X0043565Y0054100D03*
X0037665Y0053900D03*
X0079465Y0055400D03*
X0089365Y0054100D03*
X0079465Y0045300D03*
X0105165Y0057400D03*
X0110265Y0053900D03*
X0125665Y0057200D03*
X0129065Y0053900D03*
X0139465Y0049500D03*
X0145765Y0056300D03*
X0158265Y0049500D03*
X0163965Y0054100D03*
X0176765Y0049500D03*
X0182765Y0054000D03*
X0195465Y0049500D03*
X0201565Y0053900D03*
X0214265Y0049500D03*
X0198865Y0036600D03*
X0180265Y0037400D03*
X0161765Y0037400D03*
X0149665Y0037200D03*
X0136865Y0037400D03*
X0132565Y0091300D03*
X0139865Y0091400D03*
X0155265Y0091100D03*
X0116865Y0092000D03*
X0109865Y0092200D03*
X0103665Y0092200D03*
X0097965Y0092300D03*
X0091765Y0092400D03*
X0081765Y0092900D03*
X0082865Y0110100D03*
X0085765Y0120700D03*
X0071665Y0120300D03*
X0056865Y0120200D03*
X0056265Y0131600D03*
X0050565Y0131500D03*
X0044765Y0131500D03*
X0053065Y0149100D03*
X0060665Y0156200D03*
X0083665Y0156500D03*
X0093365Y0156100D03*
X0104565Y0156300D03*
X0115265Y0156300D03*
X0128265Y0156300D03*
X0139565Y0156300D03*
X0080765Y0131400D03*
X0103265Y0118400D03*
X0117465Y0118000D03*
X0134165Y0117800D03*
X0150465Y0117500D03*
X0160865Y0117700D03*
X0173165Y0117800D03*
D24*
X0182554Y0117995D02*
X0096526Y0117995D01*
X0096526Y0118793D02*
X0182554Y0118793D01*
X0182554Y0119592D02*
X0096526Y0119592D01*
X0096526Y0120390D02*
X0182704Y0120390D01*
X0182704Y0120304D02*
X0182554Y0120154D01*
X0182554Y0116255D01*
X0182704Y0116105D01*
X0182704Y0111601D01*
X0182120Y0111016D01*
X0182120Y0106105D01*
X0182764Y0105461D01*
X0183870Y0105461D01*
X0183870Y0103733D01*
X0216165Y0071437D01*
X0216165Y0058563D01*
X0214557Y0056955D01*
X0212255Y0056955D01*
X0211354Y0056054D01*
X0211354Y0052155D01*
X0212255Y0051255D01*
X0212604Y0051255D01*
X0212604Y0051092D01*
X0211965Y0050453D01*
X0211965Y0048547D01*
X0213312Y0047200D01*
X0215218Y0047200D01*
X0216565Y0048547D01*
X0216565Y0050453D01*
X0215804Y0051213D01*
X0215804Y0051255D01*
X0216154Y0051255D01*
X0217054Y0052155D01*
X0217054Y0054927D01*
X0218428Y0056300D01*
X0219365Y0057237D01*
X0219365Y0072763D01*
X0187070Y0105058D01*
X0187070Y0105461D01*
X0188175Y0105461D01*
X0188820Y0106105D01*
X0188820Y0111016D01*
X0188175Y0111661D01*
X0188104Y0111661D01*
X0188104Y0116105D01*
X0188254Y0116255D01*
X0188254Y0120154D01*
X0188104Y0120304D01*
X0188104Y0167119D01*
X0189271Y0167119D01*
X0189915Y0167764D01*
X0189915Y0173262D01*
X0199369Y0163557D01*
X0199376Y0163540D01*
X0199743Y0163173D01*
X0200106Y0162801D01*
X0200123Y0162793D01*
X0200136Y0162780D01*
X0200615Y0162582D01*
X0201093Y0162377D01*
X0201111Y0162376D01*
X0201128Y0162369D01*
X0201647Y0162369D01*
X0202167Y0162363D01*
X0202184Y0162369D01*
X0316389Y0162369D01*
X0316389Y0022100D01*
X0201428Y0022100D01*
X0200436Y0021689D01*
X0189247Y0010500D01*
X0179217Y0010500D01*
X0179253Y0010536D01*
X0179915Y0012135D01*
X0179915Y0013865D01*
X0179253Y0015464D01*
X0178029Y0016688D01*
X0177165Y0017046D01*
X0177165Y0020803D01*
X0207617Y0051255D01*
X0210154Y0051255D01*
X0211054Y0052155D01*
X0211054Y0056054D01*
X0210363Y0056745D01*
X0210431Y0056745D01*
X0211076Y0057390D01*
X0211076Y0062801D01*
X0210431Y0063445D01*
X0209579Y0063445D01*
X0210879Y0064745D01*
X0214172Y0064745D01*
X0214816Y0065390D01*
X0214816Y0070801D01*
X0214172Y0071445D01*
X0209760Y0071445D01*
X0209116Y0070801D01*
X0209116Y0067508D01*
X0207408Y0065800D01*
X0207336Y0065800D01*
X0207336Y0070801D01*
X0206691Y0071445D01*
X0202280Y0071445D01*
X0201636Y0070801D01*
X0201636Y0070194D01*
X0200819Y0071011D01*
X0198141Y0071011D01*
X0185312Y0083840D01*
X0184433Y0084719D01*
X0080168Y0084719D01*
X0067700Y0097187D01*
X0071100Y0097187D01*
X0074064Y0100151D01*
X0075924Y0102011D01*
X0078319Y0102011D01*
X0078469Y0102161D01*
X0171707Y0102161D01*
X0172552Y0102511D01*
X0173619Y0102511D01*
X0173769Y0102661D01*
X0174120Y0102661D01*
X0174120Y0102365D01*
X0174764Y0101720D01*
X0175870Y0101720D01*
X0175870Y0100656D01*
X0175204Y0099991D01*
X0175204Y0096019D01*
X0176068Y0095155D01*
X0179540Y0095155D01*
X0180404Y0096019D01*
X0180404Y0099991D01*
X0179540Y0100855D01*
X0179070Y0100855D01*
X0179070Y0101720D01*
X0180175Y0101720D01*
X0180820Y0102365D01*
X0180820Y0107276D01*
X0180175Y0107920D01*
X0177805Y0107920D01*
X0177467Y0108061D01*
X0173769Y0108061D01*
X0173619Y0108211D01*
X0169720Y0108211D01*
X0169070Y0107561D01*
X0099244Y0107561D01*
X0096526Y0110279D01*
X0096526Y0134321D01*
X0099203Y0134321D01*
X0099571Y0134690D01*
X0101536Y0134690D01*
X0102528Y0135101D01*
X0104338Y0136911D01*
X0105319Y0136911D01*
X0106220Y0137811D01*
X0106220Y0141710D01*
X0105319Y0142611D01*
X0101420Y0142611D01*
X0100520Y0141710D01*
X0100520Y0140729D01*
X0099881Y0140090D01*
X0099571Y0140090D01*
X0099203Y0140458D01*
X0088449Y0140458D01*
X0087804Y0139814D01*
X0087804Y0134966D01*
X0088449Y0134321D01*
X0091126Y0134321D01*
X0091126Y0110279D01*
X0088407Y0107561D01*
X0078469Y0107561D01*
X0078319Y0107711D01*
X0074420Y0107711D01*
X0073520Y0106810D01*
X0073520Y0104415D01*
X0071660Y0102555D01*
X0066685Y0102555D01*
X0067176Y0103046D01*
X0067176Y0106945D01*
X0066275Y0107845D01*
X0063588Y0107845D01*
X0066275Y0107845D01*
X0067176Y0108746D01*
X0067176Y0112645D01*
X0066275Y0113545D01*
X0062376Y0113545D01*
X0061476Y0112645D01*
X0061476Y0110229D01*
X0055957Y0110229D01*
X0077860Y0132133D01*
X0077860Y0132489D01*
X0079466Y0132489D01*
X0080110Y0133134D01*
X0080110Y0134489D01*
X0080220Y0134489D01*
X0080220Y0134411D01*
X0081120Y0133511D01*
X0085019Y0133511D01*
X0085920Y0134411D01*
X0085920Y0138310D01*
X0085019Y0139211D01*
X0081120Y0139211D01*
X0080220Y0138310D01*
X0080220Y0138189D01*
X0080110Y0138189D01*
X0080110Y0139545D01*
X0079466Y0140189D01*
X0073055Y0140189D01*
X0072410Y0139545D01*
X0072410Y0133134D01*
X0073055Y0132489D01*
X0073692Y0132489D01*
X0053500Y0112298D01*
X0051882Y0112298D01*
X0051882Y0113035D01*
X0052362Y0113035D01*
X0054970Y0115642D01*
X0054970Y0133511D01*
X0055319Y0133511D01*
X0056220Y0134411D01*
X0056220Y0134511D01*
X0056420Y0134511D01*
X0056420Y0133155D01*
X0057064Y0132511D01*
X0063475Y0132511D01*
X0064120Y0133155D01*
X0064120Y0139566D01*
X0063475Y0140211D01*
X0057064Y0140211D01*
X0056420Y0139566D01*
X0056420Y0138211D01*
X0056220Y0138211D01*
X0056220Y0138310D01*
X0055319Y0139211D01*
X0051420Y0139211D01*
X0050520Y0138310D01*
X0050520Y0134411D01*
X0051420Y0133511D01*
X0051770Y0133511D01*
X0051770Y0117761D01*
X0051237Y0118294D01*
X0049232Y0118294D01*
X0049232Y0133511D01*
X0049619Y0133511D01*
X0050520Y0134411D01*
X0050520Y0138310D01*
X0049619Y0139211D01*
X0045720Y0139211D01*
X0044820Y0138310D01*
X0044820Y0134411D01*
X0045720Y0133511D01*
X0046032Y0133511D01*
X0046032Y0118294D01*
X0044027Y0118294D01*
X0043565Y0117832D01*
X0043565Y0133511D01*
X0043919Y0133511D01*
X0044820Y0134411D01*
X0044820Y0138310D01*
X0043919Y0139211D01*
X0040020Y0139211D01*
X0039120Y0138310D01*
X0039120Y0134411D01*
X0040020Y0133511D01*
X0040365Y0133511D01*
X0040365Y0113437D01*
X0042736Y0111066D01*
X0043382Y0111066D01*
X0043382Y0103746D01*
X0044027Y0103102D01*
X0051237Y0103102D01*
X0051428Y0103292D01*
X0061476Y0103292D01*
X0061476Y0103046D01*
X0061967Y0102555D01*
X0046928Y0102555D01*
X0046918Y0102546D01*
X0044027Y0102546D01*
X0043382Y0101901D01*
X0043382Y0070281D01*
X0044027Y0069637D01*
X0051237Y0069637D01*
X0051882Y0070281D01*
X0051882Y0070921D01*
X0056265Y0066537D01*
X0056265Y0046337D01*
X0057202Y0045400D01*
X0057202Y0045400D01*
X0057364Y0045239D01*
X0058301Y0044302D01*
X0059655Y0044302D01*
X0060139Y0043817D01*
X0064200Y0043817D01*
X0064576Y0044193D01*
X0064576Y0043446D01*
X0065476Y0042545D01*
X0069375Y0042545D01*
X0070276Y0043446D01*
X0070276Y0047345D01*
X0069375Y0048245D01*
X0065476Y0048245D01*
X0064733Y0047502D01*
X0064685Y0047502D01*
X0064200Y0047986D01*
X0060139Y0047986D01*
X0059655Y0047502D01*
X0059626Y0047502D01*
X0059465Y0047663D01*
X0059465Y0051462D01*
X0059495Y0051432D01*
X0059495Y0049580D01*
X0060139Y0048935D01*
X0064200Y0048935D01*
X0064576Y0049311D01*
X0064576Y0049146D01*
X0065476Y0048245D01*
X0069375Y0048245D01*
X0070276Y0049146D01*
X0070276Y0053045D01*
X0069375Y0053945D01*
X0065476Y0053945D01*
X0064576Y0053045D01*
X0064576Y0052728D01*
X0064200Y0053104D01*
X0062348Y0053104D01*
X0061865Y0053587D01*
X0061865Y0060093D01*
X0064576Y0057383D01*
X0064576Y0054846D01*
X0065476Y0053945D01*
X0069375Y0053945D01*
X0070276Y0054846D01*
X0070276Y0058745D01*
X0069425Y0059595D01*
X0070276Y0060446D01*
X0070276Y0064345D01*
X0069375Y0065245D01*
X0068921Y0065245D01*
X0068921Y0067507D01*
X0055626Y0080802D01*
X0051882Y0080802D01*
X0051882Y0083607D01*
X0064309Y0083607D01*
X0074318Y0073598D01*
X0074318Y0073598D01*
X0075197Y0072719D01*
X0077590Y0072719D01*
X0081420Y0068889D01*
X0081420Y0066211D01*
X0082320Y0065311D01*
X0084176Y0065311D01*
X0084176Y0065011D01*
X0082320Y0065011D01*
X0081420Y0064110D01*
X0081420Y0060211D01*
X0082320Y0059311D01*
X0086219Y0059311D01*
X0087120Y0060211D01*
X0087120Y0062011D01*
X0087555Y0062011D01*
X0088344Y0062800D01*
X0090976Y0062800D01*
X0090976Y0057490D01*
X0091620Y0056845D01*
X0091746Y0056845D01*
X0090954Y0056054D01*
X0090954Y0055763D01*
X0090318Y0056400D01*
X0088412Y0056400D01*
X0087065Y0055053D01*
X0087065Y0053147D01*
X0088412Y0051800D01*
X0090318Y0051800D01*
X0090954Y0052437D01*
X0090954Y0052155D01*
X0091855Y0051255D01*
X0095754Y0051255D01*
X0096654Y0052155D01*
X0096654Y0056054D01*
X0095863Y0056845D01*
X0096031Y0056845D01*
X0096676Y0057490D01*
X0096676Y0062800D01*
X0102568Y0062800D01*
X0102620Y0062748D01*
X0102620Y0060211D01*
X0103520Y0059311D01*
X0107419Y0059311D01*
X0108320Y0060211D01*
X0108320Y0062692D01*
X0108328Y0062700D01*
X0111776Y0062700D01*
X0111776Y0057490D01*
X0112420Y0056845D01*
X0112546Y0056845D01*
X0111754Y0056054D01*
X0111754Y0055663D01*
X0111218Y0056200D01*
X0109312Y0056200D01*
X0107965Y0054853D01*
X0107965Y0052947D01*
X0109312Y0051600D01*
X0111218Y0051600D01*
X0111764Y0052146D01*
X0112655Y0051255D01*
X0116554Y0051255D01*
X0117454Y0052155D01*
X0117454Y0056054D01*
X0116663Y0056845D01*
X0116831Y0056845D01*
X0117476Y0057490D01*
X0117476Y0062700D01*
X0121220Y0062700D01*
X0121220Y0060211D01*
X0122120Y0059311D01*
X0126019Y0059311D01*
X0126920Y0060211D01*
X0126920Y0062592D01*
X0127028Y0062700D01*
X0130676Y0062700D01*
X0130676Y0057490D01*
X0131320Y0056845D01*
X0131446Y0056845D01*
X0130654Y0056054D01*
X0130654Y0055563D01*
X0130018Y0056200D01*
X0128112Y0056200D01*
X0126765Y0054853D01*
X0126765Y0052947D01*
X0128112Y0051600D01*
X0130018Y0051600D01*
X0130654Y0052237D01*
X0130654Y0052155D01*
X0131555Y0051255D01*
X0135454Y0051255D01*
X0136354Y0052155D01*
X0136354Y0056054D01*
X0135563Y0056845D01*
X0135731Y0056845D01*
X0136376Y0057490D01*
X0136376Y0062700D01*
X0140120Y0062700D01*
X0140120Y0060211D01*
X0141020Y0059311D01*
X0144919Y0059311D01*
X0145820Y0060211D01*
X0145820Y0062700D01*
X0149276Y0062700D01*
X0149276Y0057490D01*
X0149920Y0056845D01*
X0150046Y0056845D01*
X0149254Y0056054D01*
X0149254Y0053517D01*
X0144902Y0049165D01*
X0143965Y0048228D01*
X0143965Y0017350D01*
X0141859Y0017350D01*
X0141215Y0016706D01*
X0141215Y0011268D01*
X0130795Y0021689D01*
X0129802Y0022100D01*
X0010765Y0022100D01*
X0010765Y0162369D01*
X0129802Y0162369D01*
X0130795Y0162780D01*
X0141828Y0173814D01*
X0141215Y0172335D01*
X0141215Y0170604D01*
X0141877Y0169005D01*
X0143101Y0167782D01*
X0144700Y0167119D01*
X0146430Y0167119D01*
X0148029Y0167782D01*
X0149253Y0169005D01*
X0149915Y0170604D01*
X0149915Y0172335D01*
X0149253Y0173933D01*
X0149217Y0173969D01*
X0151913Y0173969D01*
X0151877Y0173933D01*
X0151215Y0172335D01*
X0151215Y0170604D01*
X0151877Y0169005D01*
X0153101Y0167782D01*
X0154700Y0167119D01*
X0156430Y0167119D01*
X0158029Y0167782D01*
X0159253Y0169005D01*
X0159915Y0170604D01*
X0159915Y0172335D01*
X0159253Y0173933D01*
X0159217Y0173969D01*
X0161913Y0173969D01*
X0161877Y0173933D01*
X0161215Y0172335D01*
X0161215Y0170604D01*
X0161877Y0169005D01*
X0163101Y0167782D01*
X0164700Y0167119D01*
X0166430Y0167119D01*
X0168029Y0167782D01*
X0169253Y0169005D01*
X0169915Y0170604D01*
X0169915Y0172335D01*
X0169253Y0173933D01*
X0169217Y0173969D01*
X0181215Y0173969D01*
X0181215Y0167764D01*
X0181859Y0167119D01*
X0182704Y0167119D01*
X0182704Y0120304D01*
X0182704Y0121189D02*
X0096526Y0121189D01*
X0096526Y0121987D02*
X0182704Y0121987D01*
X0182704Y0122786D02*
X0096526Y0122786D01*
X0096526Y0123584D02*
X0182704Y0123584D01*
X0182704Y0124383D02*
X0096526Y0124383D01*
X0096526Y0125181D02*
X0182704Y0125181D01*
X0182704Y0125980D02*
X0096526Y0125980D01*
X0096526Y0126778D02*
X0182704Y0126778D01*
X0182704Y0127577D02*
X0096526Y0127577D01*
X0096526Y0128375D02*
X0182704Y0128375D01*
X0182704Y0129174D02*
X0096526Y0129174D01*
X0096526Y0129972D02*
X0182704Y0129972D01*
X0182704Y0130771D02*
X0096526Y0130771D01*
X0096526Y0131569D02*
X0182704Y0131569D01*
X0182704Y0132368D02*
X0096526Y0132368D01*
X0096526Y0133166D02*
X0182704Y0133166D01*
X0182704Y0133965D02*
X0096526Y0133965D01*
X0101714Y0134763D02*
X0182704Y0134763D01*
X0182704Y0135562D02*
X0102989Y0135562D01*
X0103788Y0136360D02*
X0182704Y0136360D01*
X0182704Y0137159D02*
X0105567Y0137159D01*
X0106220Y0137957D02*
X0182704Y0137957D01*
X0182704Y0138756D02*
X0106220Y0138756D01*
X0106220Y0139554D02*
X0182704Y0139554D01*
X0182704Y0140353D02*
X0106220Y0140353D01*
X0106220Y0141151D02*
X0182704Y0141151D01*
X0182704Y0141950D02*
X0105980Y0141950D01*
X0100760Y0141950D02*
X0034478Y0141950D01*
X0035276Y0142748D02*
X0182704Y0142748D01*
X0182704Y0143547D02*
X0036075Y0143547D01*
X0036873Y0144345D02*
X0182704Y0144345D01*
X0182704Y0145144D02*
X0099214Y0145144D01*
X0099203Y0145132D02*
X0099847Y0145777D01*
X0099847Y0150625D01*
X0099203Y0151269D01*
X0093727Y0151269D01*
X0093557Y0151439D01*
X0080110Y0151439D01*
X0080110Y0152545D01*
X0079466Y0153189D01*
X0078360Y0153189D01*
X0078360Y0153931D01*
X0079076Y0154646D01*
X0079076Y0158545D01*
X0078175Y0159445D01*
X0076783Y0159445D01*
X0074528Y0161700D01*
X0049702Y0161700D01*
X0024965Y0136963D01*
X0024965Y0055837D01*
X0025902Y0054900D01*
X0033942Y0046861D01*
X0050994Y0046861D01*
X0051478Y0046376D01*
X0055539Y0046376D01*
X0056183Y0047021D01*
X0056183Y0049901D01*
X0055539Y0050545D01*
X0051478Y0050545D01*
X0050994Y0050061D01*
X0035267Y0050061D01*
X0028165Y0057163D01*
X0028165Y0135637D01*
X0051028Y0158500D01*
X0067376Y0158500D01*
X0067376Y0154646D01*
X0068126Y0153896D01*
X0068126Y0153189D01*
X0065155Y0153189D01*
X0064510Y0152545D01*
X0064510Y0151439D01*
X0064120Y0151439D01*
X0064120Y0152566D01*
X0063475Y0153211D01*
X0057064Y0153211D01*
X0056420Y0152566D01*
X0056420Y0146155D01*
X0057064Y0145511D01*
X0063475Y0145511D01*
X0064120Y0146155D01*
X0064120Y0147239D01*
X0064510Y0147239D01*
X0064510Y0146134D01*
X0065155Y0145489D01*
X0071566Y0145489D01*
X0072210Y0146134D01*
X0072210Y0150220D01*
X0072326Y0150335D01*
X0072326Y0153896D01*
X0073076Y0154646D01*
X0073076Y0158500D01*
X0073202Y0158500D01*
X0073376Y0158327D01*
X0073376Y0154646D01*
X0074160Y0153861D01*
X0074160Y0153189D01*
X0073055Y0153189D01*
X0072410Y0152545D01*
X0072410Y0146134D01*
X0073055Y0145489D01*
X0079466Y0145489D01*
X0080110Y0146134D01*
X0080110Y0147239D01*
X0087804Y0147239D01*
X0087804Y0145777D01*
X0088449Y0145132D01*
X0099203Y0145132D01*
X0099847Y0145942D02*
X0182704Y0145942D01*
X0182704Y0146741D02*
X0099847Y0146741D01*
X0099847Y0147539D02*
X0182704Y0147539D01*
X0182704Y0148338D02*
X0099847Y0148338D01*
X0099847Y0149137D02*
X0182704Y0149137D01*
X0182704Y0149935D02*
X0099847Y0149935D01*
X0099738Y0150734D02*
X0182704Y0150734D01*
X0182704Y0151532D02*
X0080110Y0151532D01*
X0080110Y0152331D02*
X0182704Y0152331D01*
X0182704Y0153129D02*
X0079526Y0153129D01*
X0078360Y0153928D02*
X0182704Y0153928D01*
X0182704Y0154726D02*
X0079076Y0154726D01*
X0079076Y0155525D02*
X0182704Y0155525D01*
X0182704Y0156323D02*
X0079076Y0156323D01*
X0079076Y0157122D02*
X0182704Y0157122D01*
X0182704Y0157920D02*
X0079076Y0157920D01*
X0078902Y0158719D02*
X0182704Y0158719D01*
X0182704Y0159517D02*
X0076711Y0159517D01*
X0075912Y0160316D02*
X0182704Y0160316D01*
X0182704Y0161114D02*
X0075114Y0161114D01*
X0073376Y0157920D02*
X0073076Y0157920D01*
X0073076Y0157122D02*
X0073376Y0157122D01*
X0073376Y0156323D02*
X0073076Y0156323D01*
X0073076Y0155525D02*
X0073376Y0155525D01*
X0073376Y0154726D02*
X0073076Y0154726D01*
X0072357Y0153928D02*
X0074094Y0153928D01*
X0072994Y0153129D02*
X0072326Y0153129D01*
X0072326Y0152331D02*
X0072410Y0152331D01*
X0072410Y0151532D02*
X0072326Y0151532D01*
X0072326Y0150734D02*
X0072410Y0150734D01*
X0072410Y0149935D02*
X0072210Y0149935D01*
X0072210Y0149137D02*
X0072410Y0149137D01*
X0072410Y0148338D02*
X0072210Y0148338D01*
X0072210Y0147539D02*
X0072410Y0147539D01*
X0072410Y0146741D02*
X0072210Y0146741D01*
X0072019Y0145942D02*
X0072602Y0145942D01*
X0079919Y0145942D02*
X0087804Y0145942D01*
X0087804Y0146741D02*
X0080110Y0146741D01*
X0088437Y0145144D02*
X0037672Y0145144D01*
X0038470Y0145942D02*
X0056632Y0145942D01*
X0056420Y0146741D02*
X0039269Y0146741D01*
X0040067Y0147539D02*
X0056420Y0147539D01*
X0056420Y0148338D02*
X0040866Y0148338D01*
X0041664Y0149137D02*
X0056420Y0149137D01*
X0056420Y0149935D02*
X0042463Y0149935D01*
X0043261Y0150734D02*
X0056420Y0150734D01*
X0056420Y0151532D02*
X0044060Y0151532D01*
X0044858Y0152331D02*
X0056420Y0152331D01*
X0056983Y0153129D02*
X0045657Y0153129D01*
X0046455Y0153928D02*
X0068094Y0153928D01*
X0067376Y0154726D02*
X0047254Y0154726D01*
X0048052Y0155525D02*
X0067376Y0155525D01*
X0067376Y0156323D02*
X0048851Y0156323D01*
X0049649Y0157122D02*
X0067376Y0157122D01*
X0067376Y0157920D02*
X0050448Y0157920D01*
X0048318Y0160316D02*
X0010765Y0160316D01*
X0010765Y0161114D02*
X0049117Y0161114D01*
X0047520Y0159517D02*
X0010765Y0159517D01*
X0010765Y0158719D02*
X0046721Y0158719D01*
X0045922Y0157920D02*
X0010765Y0157920D01*
X0010765Y0157122D02*
X0045124Y0157122D01*
X0044325Y0156323D02*
X0010765Y0156323D01*
X0010765Y0155525D02*
X0043527Y0155525D01*
X0042728Y0154726D02*
X0010765Y0154726D01*
X0010765Y0153928D02*
X0041930Y0153928D01*
X0041131Y0153129D02*
X0010765Y0153129D01*
X0010765Y0152331D02*
X0040333Y0152331D01*
X0039534Y0151532D02*
X0010765Y0151532D01*
X0010765Y0150734D02*
X0038736Y0150734D01*
X0037937Y0149935D02*
X0010765Y0149935D01*
X0010765Y0149137D02*
X0037139Y0149137D01*
X0036340Y0148338D02*
X0010765Y0148338D01*
X0010765Y0147539D02*
X0035542Y0147539D01*
X0034743Y0146741D02*
X0010765Y0146741D01*
X0010765Y0145942D02*
X0033945Y0145942D01*
X0033146Y0145144D02*
X0010765Y0145144D01*
X0010765Y0144345D02*
X0032348Y0144345D01*
X0031549Y0143547D02*
X0010765Y0143547D01*
X0010765Y0142748D02*
X0030751Y0142748D01*
X0029952Y0141950D02*
X0010765Y0141950D01*
X0010765Y0141151D02*
X0029154Y0141151D01*
X0028355Y0140353D02*
X0010765Y0140353D01*
X0010765Y0139554D02*
X0027557Y0139554D01*
X0026758Y0138756D02*
X0010765Y0138756D01*
X0010765Y0137957D02*
X0025960Y0137957D01*
X0025161Y0137159D02*
X0010765Y0137159D01*
X0010765Y0136360D02*
X0024965Y0136360D01*
X0024965Y0135562D02*
X0010765Y0135562D01*
X0010765Y0134763D02*
X0024965Y0134763D01*
X0024965Y0133965D02*
X0010765Y0133965D01*
X0010765Y0133166D02*
X0024965Y0133166D01*
X0024965Y0132368D02*
X0010765Y0132368D01*
X0010765Y0131569D02*
X0024965Y0131569D01*
X0024965Y0130771D02*
X0010765Y0130771D01*
X0010765Y0129972D02*
X0024965Y0129972D01*
X0024965Y0129174D02*
X0010765Y0129174D01*
X0010765Y0128375D02*
X0024965Y0128375D01*
X0024965Y0127577D02*
X0010765Y0127577D01*
X0010765Y0126778D02*
X0024965Y0126778D01*
X0024965Y0125980D02*
X0010765Y0125980D01*
X0010765Y0125181D02*
X0024965Y0125181D01*
X0024965Y0124383D02*
X0010765Y0124383D01*
X0010765Y0123584D02*
X0024965Y0123584D01*
X0024965Y0122786D02*
X0010765Y0122786D01*
X0010765Y0121987D02*
X0024965Y0121987D01*
X0024965Y0121189D02*
X0010765Y0121189D01*
X0010765Y0120390D02*
X0024965Y0120390D01*
X0024965Y0119592D02*
X0010765Y0119592D01*
X0010765Y0118793D02*
X0024965Y0118793D01*
X0024965Y0117995D02*
X0010765Y0117995D01*
X0010765Y0117196D02*
X0024965Y0117196D01*
X0024965Y0116398D02*
X0010765Y0116398D01*
X0010765Y0115599D02*
X0024965Y0115599D01*
X0024965Y0114801D02*
X0010765Y0114801D01*
X0010765Y0114002D02*
X0024965Y0114002D01*
X0024965Y0113203D02*
X0010765Y0113203D01*
X0010765Y0112405D02*
X0024965Y0112405D01*
X0024965Y0111606D02*
X0010765Y0111606D01*
X0010765Y0110808D02*
X0024965Y0110808D01*
X0024965Y0110009D02*
X0010765Y0110009D01*
X0010765Y0109211D02*
X0024965Y0109211D01*
X0024965Y0108412D02*
X0010765Y0108412D01*
X0010765Y0107614D02*
X0024965Y0107614D01*
X0024965Y0106815D02*
X0010765Y0106815D01*
X0010765Y0106017D02*
X0024965Y0106017D01*
X0024965Y0105218D02*
X0010765Y0105218D01*
X0010765Y0104420D02*
X0024965Y0104420D01*
X0024965Y0103621D02*
X0010765Y0103621D01*
X0010765Y0102823D02*
X0024965Y0102823D01*
X0024965Y0102024D02*
X0010765Y0102024D01*
X0010765Y0101226D02*
X0024965Y0101226D01*
X0024965Y0100427D02*
X0010765Y0100427D01*
X0010765Y0099629D02*
X0024965Y0099629D01*
X0024965Y0098830D02*
X0010765Y0098830D01*
X0010765Y0098032D02*
X0024965Y0098032D01*
X0024965Y0097233D02*
X0010765Y0097233D01*
X0010765Y0096435D02*
X0024965Y0096435D01*
X0024965Y0095636D02*
X0010765Y0095636D01*
X0010765Y0094838D02*
X0024965Y0094838D01*
X0024965Y0094039D02*
X0010765Y0094039D01*
X0010765Y0093241D02*
X0024965Y0093241D01*
X0024965Y0092442D02*
X0010765Y0092442D01*
X0010765Y0091644D02*
X0024965Y0091644D01*
X0024965Y0090845D02*
X0010765Y0090845D01*
X0010765Y0090047D02*
X0024965Y0090047D01*
X0024965Y0089248D02*
X0010765Y0089248D01*
X0010765Y0088450D02*
X0024965Y0088450D01*
X0024965Y0087651D02*
X0010765Y0087651D01*
X0010765Y0086853D02*
X0024965Y0086853D01*
X0024965Y0086054D02*
X0010765Y0086054D01*
X0010765Y0085256D02*
X0024965Y0085256D01*
X0024965Y0084457D02*
X0010765Y0084457D01*
X0010765Y0083659D02*
X0024965Y0083659D01*
X0024965Y0082860D02*
X0010765Y0082860D01*
X0010765Y0082062D02*
X0024965Y0082062D01*
X0024965Y0081263D02*
X0010765Y0081263D01*
X0010765Y0080465D02*
X0024965Y0080465D01*
X0024965Y0079666D02*
X0010765Y0079666D01*
X0010765Y0078868D02*
X0024965Y0078868D01*
X0024965Y0078069D02*
X0010765Y0078069D01*
X0010765Y0077270D02*
X0024965Y0077270D01*
X0024965Y0076472D02*
X0010765Y0076472D01*
X0010765Y0075673D02*
X0024965Y0075673D01*
X0024965Y0074875D02*
X0010765Y0074875D01*
X0010765Y0074076D02*
X0024965Y0074076D01*
X0024965Y0073278D02*
X0010765Y0073278D01*
X0010765Y0072479D02*
X0024965Y0072479D01*
X0024965Y0071681D02*
X0010765Y0071681D01*
X0010765Y0070882D02*
X0024965Y0070882D01*
X0024965Y0070084D02*
X0010765Y0070084D01*
X0010765Y0069285D02*
X0024965Y0069285D01*
X0024965Y0068487D02*
X0010765Y0068487D01*
X0010765Y0067688D02*
X0024965Y0067688D01*
X0024965Y0066890D02*
X0010765Y0066890D01*
X0010765Y0066091D02*
X0024965Y0066091D01*
X0024965Y0065293D02*
X0010765Y0065293D01*
X0010765Y0064494D02*
X0024965Y0064494D01*
X0024965Y0063696D02*
X0010765Y0063696D01*
X0010765Y0062897D02*
X0024965Y0062897D01*
X0024965Y0062099D02*
X0010765Y0062099D01*
X0010765Y0061300D02*
X0024965Y0061300D01*
X0024965Y0060502D02*
X0010765Y0060502D01*
X0010765Y0059703D02*
X0024965Y0059703D01*
X0024965Y0058905D02*
X0010765Y0058905D01*
X0010765Y0058106D02*
X0024965Y0058106D01*
X0024965Y0057308D02*
X0010765Y0057308D01*
X0010765Y0056509D02*
X0024965Y0056509D01*
X0025092Y0055711D02*
X0010765Y0055711D01*
X0010765Y0054912D02*
X0025890Y0054912D01*
X0026689Y0054114D02*
X0010765Y0054114D01*
X0010765Y0053315D02*
X0027487Y0053315D01*
X0028286Y0052517D02*
X0010765Y0052517D01*
X0010765Y0051718D02*
X0029084Y0051718D01*
X0029883Y0050920D02*
X0010765Y0050920D01*
X0010765Y0050121D02*
X0030681Y0050121D01*
X0031480Y0049323D02*
X0010765Y0049323D01*
X0010765Y0048524D02*
X0032278Y0048524D01*
X0033077Y0047726D02*
X0010765Y0047726D01*
X0010765Y0046927D02*
X0033875Y0046927D01*
X0035207Y0050121D02*
X0051054Y0050121D01*
X0055963Y0050121D02*
X0056265Y0050121D01*
X0056265Y0049323D02*
X0056183Y0049323D01*
X0056183Y0048524D02*
X0056265Y0048524D01*
X0056265Y0047726D02*
X0056183Y0047726D01*
X0056265Y0046927D02*
X0056090Y0046927D01*
X0056474Y0046129D02*
X0010765Y0046129D01*
X0010765Y0045330D02*
X0057272Y0045330D01*
X0058071Y0044532D02*
X0010765Y0044532D01*
X0010765Y0043733D02*
X0064576Y0043733D01*
X0065087Y0042934D02*
X0010765Y0042934D01*
X0010765Y0042136D02*
X0143965Y0042136D01*
X0143965Y0042934D02*
X0069764Y0042934D01*
X0070276Y0043733D02*
X0143965Y0043733D01*
X0143965Y0044532D02*
X0070276Y0044532D01*
X0070276Y0045330D02*
X0143965Y0045330D01*
X0143965Y0046129D02*
X0070276Y0046129D01*
X0070276Y0046927D02*
X0143965Y0046927D01*
X0143965Y0047726D02*
X0140943Y0047726D01*
X0140418Y0047200D02*
X0141765Y0048547D01*
X0141765Y0050453D01*
X0141104Y0051113D01*
X0141104Y0051255D01*
X0141454Y0051255D01*
X0142354Y0052155D01*
X0142354Y0056054D01*
X0141454Y0056955D01*
X0137555Y0056955D01*
X0136654Y0056054D01*
X0136654Y0052155D01*
X0137555Y0051255D01*
X0137904Y0051255D01*
X0137904Y0051192D01*
X0137812Y0051100D01*
X0122204Y0051100D01*
X0122204Y0051255D01*
X0122554Y0051255D01*
X0123454Y0052155D01*
X0123454Y0056054D01*
X0122554Y0056955D01*
X0118655Y0056955D01*
X0117754Y0056054D01*
X0117754Y0052155D01*
X0118655Y0051255D01*
X0119004Y0051255D01*
X0119004Y0051100D01*
X0105072Y0051100D01*
X0102654Y0053517D01*
X0102654Y0056054D01*
X0101754Y0056955D01*
X0097855Y0056955D01*
X0096954Y0056054D01*
X0096954Y0052155D01*
X0097855Y0051255D01*
X0100392Y0051255D01*
X0102809Y0048837D01*
X0103746Y0047900D01*
X0137812Y0047900D01*
X0138512Y0047200D01*
X0140418Y0047200D01*
X0141742Y0048524D02*
X0144261Y0048524D01*
X0145060Y0049323D02*
X0141765Y0049323D01*
X0141765Y0050121D02*
X0145858Y0050121D01*
X0146657Y0050920D02*
X0141298Y0050920D01*
X0141917Y0051718D02*
X0147455Y0051718D01*
X0148254Y0052517D02*
X0142354Y0052517D01*
X0142354Y0053315D02*
X0149052Y0053315D01*
X0149254Y0054114D02*
X0142354Y0054114D01*
X0142354Y0054912D02*
X0149254Y0054912D01*
X0149254Y0055711D02*
X0142354Y0055711D01*
X0141899Y0056509D02*
X0149710Y0056509D01*
X0149458Y0057308D02*
X0136194Y0057308D01*
X0136376Y0058106D02*
X0149276Y0058106D01*
X0149276Y0058905D02*
X0136376Y0058905D01*
X0136376Y0059703D02*
X0140628Y0059703D01*
X0140120Y0060502D02*
X0136376Y0060502D01*
X0136376Y0061300D02*
X0140120Y0061300D01*
X0140120Y0062099D02*
X0136376Y0062099D01*
X0134416Y0065900D02*
X0132636Y0065900D01*
X0132636Y0070901D01*
X0131991Y0071545D01*
X0127580Y0071545D01*
X0126936Y0070901D01*
X0126936Y0069661D01*
X0126920Y0069661D01*
X0126920Y0070110D01*
X0126019Y0071011D01*
X0123341Y0071011D01*
X0117133Y0077219D01*
X0131790Y0077219D01*
X0137464Y0071545D01*
X0135060Y0071545D01*
X0134416Y0070901D01*
X0134416Y0065900D01*
X0134416Y0066091D02*
X0132636Y0066091D01*
X0132636Y0066890D02*
X0134416Y0066890D01*
X0134416Y0067688D02*
X0132636Y0067688D01*
X0132636Y0068487D02*
X0134416Y0068487D01*
X0134416Y0069285D02*
X0132636Y0069285D01*
X0132636Y0070084D02*
X0134416Y0070084D01*
X0134416Y0070882D02*
X0132636Y0070882D01*
X0135731Y0073278D02*
X0121074Y0073278D01*
X0121872Y0072479D02*
X0136530Y0072479D01*
X0137328Y0071681D02*
X0122671Y0071681D01*
X0126147Y0070882D02*
X0126936Y0070882D01*
X0126920Y0070084D02*
X0126936Y0070084D01*
X0129751Y0068161D02*
X0124070Y0068161D01*
X0115012Y0077219D01*
X0077061Y0077219D01*
X0065236Y0089044D01*
X0047632Y0089044D01*
X0047632Y0087076D02*
X0065083Y0087076D01*
X0076440Y0075719D01*
X0097912Y0075719D01*
X0105470Y0068161D01*
X0110851Y0068161D01*
X0110886Y0068195D01*
X0113736Y0068487D02*
X0115516Y0068487D01*
X0115516Y0069285D02*
X0113736Y0069285D01*
X0113736Y0070084D02*
X0115516Y0070084D01*
X0115516Y0070882D02*
X0113736Y0070882D01*
X0113736Y0070901D02*
X0113091Y0071545D01*
X0108680Y0071545D01*
X0108036Y0070901D01*
X0108036Y0070394D01*
X0107419Y0071011D01*
X0104741Y0071011D01*
X0100033Y0075719D01*
X0114390Y0075719D01*
X0118564Y0071545D01*
X0116160Y0071545D01*
X0115516Y0070901D01*
X0115516Y0065900D01*
X0113736Y0065900D01*
X0113736Y0070901D01*
X0116831Y0073278D02*
X0102474Y0073278D01*
X0103272Y0072479D02*
X0117630Y0072479D01*
X0118428Y0071681D02*
X0104071Y0071681D01*
X0102224Y0069285D02*
X0100416Y0069285D01*
X0100416Y0068487D02*
X0102620Y0068487D01*
X0102620Y0068889D02*
X0102620Y0066211D01*
X0102831Y0066000D01*
X0100416Y0066000D01*
X0100416Y0070901D01*
X0099772Y0071545D01*
X0095360Y0071545D01*
X0094716Y0070901D01*
X0094716Y0066000D01*
X0092936Y0066000D01*
X0092936Y0070901D01*
X0092291Y0071545D01*
X0087880Y0071545D01*
X0087236Y0070901D01*
X0087236Y0069661D01*
X0087120Y0069661D01*
X0087120Y0070110D01*
X0086219Y0071011D01*
X0083541Y0071011D01*
X0080333Y0074219D01*
X0097290Y0074219D01*
X0102620Y0068889D01*
X0102620Y0067688D02*
X0100416Y0067688D01*
X0100416Y0066890D02*
X0102620Y0066890D01*
X0102740Y0066091D02*
X0100416Y0066091D01*
X0100416Y0070084D02*
X0101425Y0070084D01*
X0100627Y0070882D02*
X0100416Y0070882D01*
X0099828Y0071681D02*
X0082871Y0071681D01*
X0082072Y0072479D02*
X0099030Y0072479D01*
X0098231Y0073278D02*
X0081274Y0073278D01*
X0080475Y0074076D02*
X0097433Y0074076D01*
X0100078Y0075673D02*
X0114436Y0075673D01*
X0115234Y0074875D02*
X0100877Y0074875D01*
X0101675Y0074076D02*
X0116033Y0074076D01*
X0117880Y0076472D02*
X0132537Y0076472D01*
X0133336Y0075673D02*
X0118678Y0075673D01*
X0119477Y0074875D02*
X0134134Y0074875D01*
X0134933Y0074076D02*
X0120275Y0074076D01*
X0115516Y0067688D02*
X0113736Y0067688D01*
X0113736Y0066890D02*
X0115516Y0066890D01*
X0115516Y0066091D02*
X0113736Y0066091D01*
X0111776Y0062099D02*
X0108320Y0062099D01*
X0108320Y0061300D02*
X0111776Y0061300D01*
X0111776Y0060502D02*
X0108320Y0060502D01*
X0107812Y0059703D02*
X0111776Y0059703D01*
X0111776Y0058905D02*
X0096676Y0058905D01*
X0096676Y0059703D02*
X0103128Y0059703D01*
X0102620Y0060502D02*
X0096676Y0060502D01*
X0096676Y0061300D02*
X0102620Y0061300D01*
X0102620Y0062099D02*
X0096676Y0062099D01*
X0096676Y0058106D02*
X0111776Y0058106D01*
X0111958Y0057308D02*
X0096494Y0057308D01*
X0096199Y0056509D02*
X0097410Y0056509D01*
X0096954Y0055711D02*
X0096654Y0055711D01*
X0096654Y0054912D02*
X0096954Y0054912D01*
X0096954Y0054114D02*
X0096654Y0054114D01*
X0096654Y0053315D02*
X0096954Y0053315D01*
X0096954Y0052517D02*
X0096654Y0052517D01*
X0096217Y0051718D02*
X0097392Y0051718D01*
X0100727Y0050920D02*
X0070276Y0050920D01*
X0070276Y0051718D02*
X0091392Y0051718D01*
X0087696Y0052517D02*
X0070276Y0052517D01*
X0070005Y0053315D02*
X0087065Y0053315D01*
X0087065Y0054114D02*
X0069543Y0054114D01*
X0070276Y0054912D02*
X0087065Y0054912D01*
X0087723Y0055711D02*
X0070276Y0055711D01*
X0070276Y0056509D02*
X0091410Y0056509D01*
X0091158Y0057308D02*
X0070276Y0057308D01*
X0070276Y0058106D02*
X0090976Y0058106D01*
X0090976Y0058905D02*
X0070116Y0058905D01*
X0069533Y0059703D02*
X0081928Y0059703D01*
X0081420Y0060502D02*
X0070276Y0060502D01*
X0070276Y0061300D02*
X0081420Y0061300D01*
X0081420Y0062099D02*
X0070276Y0062099D01*
X0070276Y0062897D02*
X0081420Y0062897D01*
X0081420Y0063696D02*
X0070276Y0063696D01*
X0070126Y0064494D02*
X0081804Y0064494D01*
X0081540Y0066091D02*
X0068921Y0066091D01*
X0068921Y0065293D02*
X0084176Y0065293D01*
X0084270Y0068161D02*
X0078212Y0074219D01*
X0075818Y0074219D01*
X0064930Y0085107D01*
X0047632Y0085107D01*
X0043382Y0085256D02*
X0028165Y0085256D01*
X0028165Y0086054D02*
X0043382Y0086054D01*
X0043382Y0086853D02*
X0028165Y0086853D01*
X0028165Y0087651D02*
X0043382Y0087651D01*
X0043382Y0088450D02*
X0028165Y0088450D01*
X0028165Y0089248D02*
X0043382Y0089248D01*
X0043382Y0090047D02*
X0028165Y0090047D01*
X0028165Y0090845D02*
X0043382Y0090845D01*
X0043382Y0091644D02*
X0028165Y0091644D01*
X0028165Y0092442D02*
X0043382Y0092442D01*
X0043382Y0093241D02*
X0028165Y0093241D01*
X0028165Y0094039D02*
X0043382Y0094039D01*
X0043382Y0094838D02*
X0028165Y0094838D01*
X0028165Y0095636D02*
X0043382Y0095636D01*
X0043382Y0096435D02*
X0028165Y0096435D01*
X0028165Y0097233D02*
X0043382Y0097233D01*
X0043382Y0098032D02*
X0028165Y0098032D01*
X0028165Y0098830D02*
X0043382Y0098830D01*
X0043382Y0099629D02*
X0028165Y0099629D01*
X0028165Y0100427D02*
X0043382Y0100427D01*
X0043382Y0101226D02*
X0028165Y0101226D01*
X0028165Y0102024D02*
X0043505Y0102024D01*
X0043507Y0103621D02*
X0028165Y0103621D01*
X0028165Y0102823D02*
X0061699Y0102823D01*
X0064123Y0104792D02*
X0047632Y0104792D01*
X0043382Y0104420D02*
X0028165Y0104420D01*
X0028165Y0105218D02*
X0043382Y0105218D01*
X0043382Y0106017D02*
X0028165Y0106017D01*
X0028165Y0106815D02*
X0043382Y0106815D01*
X0043382Y0107614D02*
X0028165Y0107614D01*
X0028165Y0108412D02*
X0043382Y0108412D01*
X0043382Y0109211D02*
X0028165Y0109211D01*
X0028165Y0110009D02*
X0043382Y0110009D01*
X0043382Y0110808D02*
X0028165Y0110808D01*
X0028165Y0111606D02*
X0042196Y0111606D01*
X0041397Y0112405D02*
X0028165Y0112405D01*
X0028165Y0113203D02*
X0040599Y0113203D01*
X0040365Y0114002D02*
X0028165Y0114002D01*
X0028165Y0114801D02*
X0040365Y0114801D01*
X0040365Y0115599D02*
X0028165Y0115599D01*
X0028165Y0116398D02*
X0040365Y0116398D01*
X0040365Y0117196D02*
X0028165Y0117196D01*
X0028165Y0117995D02*
X0040365Y0117995D01*
X0040365Y0118793D02*
X0028165Y0118793D01*
X0028165Y0119592D02*
X0040365Y0119592D01*
X0040365Y0120390D02*
X0028165Y0120390D01*
X0028165Y0121189D02*
X0040365Y0121189D01*
X0040365Y0121987D02*
X0028165Y0121987D01*
X0028165Y0122786D02*
X0040365Y0122786D01*
X0040365Y0123584D02*
X0028165Y0123584D01*
X0028165Y0124383D02*
X0040365Y0124383D01*
X0040365Y0125181D02*
X0028165Y0125181D01*
X0028165Y0125980D02*
X0040365Y0125980D01*
X0040365Y0126778D02*
X0028165Y0126778D01*
X0028165Y0127577D02*
X0040365Y0127577D01*
X0040365Y0128375D02*
X0028165Y0128375D01*
X0028165Y0129174D02*
X0040365Y0129174D01*
X0040365Y0129972D02*
X0028165Y0129972D01*
X0028165Y0130771D02*
X0040365Y0130771D01*
X0040365Y0131569D02*
X0028165Y0131569D01*
X0028165Y0132368D02*
X0040365Y0132368D01*
X0040365Y0133166D02*
X0028165Y0133166D01*
X0028165Y0133965D02*
X0039566Y0133965D01*
X0039120Y0134763D02*
X0028165Y0134763D01*
X0028165Y0135562D02*
X0039120Y0135562D01*
X0039120Y0136360D02*
X0028888Y0136360D01*
X0029687Y0137159D02*
X0039120Y0137159D01*
X0039120Y0137957D02*
X0030485Y0137957D01*
X0031284Y0138756D02*
X0039566Y0138756D01*
X0044374Y0138756D02*
X0045266Y0138756D01*
X0044820Y0137957D02*
X0044820Y0137957D01*
X0044820Y0137159D02*
X0044820Y0137159D01*
X0044820Y0136360D02*
X0044820Y0136360D01*
X0044820Y0135562D02*
X0044820Y0135562D01*
X0044820Y0134763D02*
X0044820Y0134763D01*
X0044373Y0133965D02*
X0045266Y0133965D01*
X0046032Y0133166D02*
X0043565Y0133166D01*
X0043565Y0132368D02*
X0046032Y0132368D01*
X0046032Y0131569D02*
X0043565Y0131569D01*
X0043565Y0130771D02*
X0046032Y0130771D01*
X0046032Y0129972D02*
X0043565Y0129972D01*
X0043565Y0129174D02*
X0046032Y0129174D01*
X0046032Y0128375D02*
X0043565Y0128375D01*
X0043565Y0127577D02*
X0046032Y0127577D01*
X0046032Y0126778D02*
X0043565Y0126778D01*
X0043565Y0125980D02*
X0046032Y0125980D01*
X0046032Y0125181D02*
X0043565Y0125181D01*
X0043565Y0124383D02*
X0046032Y0124383D01*
X0046032Y0123584D02*
X0043565Y0123584D01*
X0043565Y0122786D02*
X0046032Y0122786D01*
X0046032Y0121987D02*
X0043565Y0121987D01*
X0043565Y0121189D02*
X0046032Y0121189D01*
X0046032Y0120390D02*
X0043565Y0120390D01*
X0043565Y0119592D02*
X0046032Y0119592D01*
X0046032Y0118793D02*
X0043565Y0118793D01*
X0043565Y0117995D02*
X0043728Y0117995D01*
X0049232Y0118793D02*
X0051770Y0118793D01*
X0051770Y0117995D02*
X0051536Y0117995D01*
X0051770Y0119592D02*
X0049232Y0119592D01*
X0049232Y0120390D02*
X0051770Y0120390D01*
X0051770Y0121189D02*
X0049232Y0121189D01*
X0049232Y0121987D02*
X0051770Y0121987D01*
X0051770Y0122786D02*
X0049232Y0122786D01*
X0049232Y0123584D02*
X0051770Y0123584D01*
X0051770Y0124383D02*
X0049232Y0124383D01*
X0049232Y0125181D02*
X0051770Y0125181D01*
X0051770Y0125980D02*
X0049232Y0125980D01*
X0049232Y0126778D02*
X0051770Y0126778D01*
X0051770Y0127577D02*
X0049232Y0127577D01*
X0049232Y0128375D02*
X0051770Y0128375D01*
X0051770Y0129174D02*
X0049232Y0129174D01*
X0049232Y0129972D02*
X0051770Y0129972D01*
X0051770Y0130771D02*
X0049232Y0130771D01*
X0049232Y0131569D02*
X0051770Y0131569D01*
X0051770Y0132368D02*
X0049232Y0132368D01*
X0049232Y0133166D02*
X0051770Y0133166D01*
X0050966Y0133965D02*
X0050073Y0133965D01*
X0050520Y0134763D02*
X0050520Y0134763D01*
X0050520Y0135562D02*
X0050520Y0135562D01*
X0050520Y0136360D02*
X0050520Y0136360D01*
X0050520Y0137159D02*
X0050520Y0137159D01*
X0050520Y0137957D02*
X0050520Y0137957D01*
X0050074Y0138756D02*
X0050966Y0138756D01*
X0055774Y0138756D02*
X0056420Y0138756D01*
X0056420Y0139554D02*
X0032082Y0139554D01*
X0032881Y0140353D02*
X0088343Y0140353D01*
X0087804Y0139554D02*
X0080101Y0139554D01*
X0080110Y0138756D02*
X0080666Y0138756D01*
X0085474Y0138756D02*
X0087804Y0138756D01*
X0087804Y0137957D02*
X0085920Y0137957D01*
X0085920Y0137159D02*
X0087804Y0137159D01*
X0087804Y0136360D02*
X0085920Y0136360D01*
X0085920Y0135562D02*
X0087804Y0135562D01*
X0088007Y0134763D02*
X0085920Y0134763D01*
X0085473Y0133965D02*
X0091126Y0133965D01*
X0091126Y0133166D02*
X0080110Y0133166D01*
X0080110Y0133965D02*
X0080666Y0133965D01*
X0077860Y0132368D02*
X0091126Y0132368D01*
X0091126Y0131569D02*
X0077297Y0131569D01*
X0076499Y0130771D02*
X0091126Y0130771D01*
X0091126Y0129972D02*
X0075700Y0129972D01*
X0074902Y0129174D02*
X0091126Y0129174D01*
X0091126Y0128375D02*
X0074103Y0128375D01*
X0073305Y0127577D02*
X0091126Y0127577D01*
X0091126Y0126778D02*
X0072506Y0126778D01*
X0071707Y0125980D02*
X0091126Y0125980D01*
X0091126Y0125181D02*
X0070909Y0125181D01*
X0070110Y0124383D02*
X0091126Y0124383D01*
X0091126Y0123584D02*
X0069312Y0123584D01*
X0068513Y0122786D02*
X0091126Y0122786D01*
X0091126Y0121987D02*
X0067715Y0121987D01*
X0066916Y0121189D02*
X0091126Y0121189D01*
X0091126Y0120390D02*
X0066118Y0120390D01*
X0065319Y0119592D02*
X0091126Y0119592D01*
X0091126Y0118793D02*
X0064521Y0118793D01*
X0063722Y0117995D02*
X0091126Y0117995D01*
X0091126Y0117196D02*
X0062924Y0117196D01*
X0062125Y0116398D02*
X0091126Y0116398D01*
X0091126Y0115599D02*
X0061327Y0115599D01*
X0060528Y0114801D02*
X0091126Y0114801D01*
X0091126Y0114002D02*
X0059730Y0114002D01*
X0058931Y0113203D02*
X0062035Y0113203D01*
X0061476Y0112405D02*
X0058133Y0112405D01*
X0057334Y0111606D02*
X0061476Y0111606D01*
X0061476Y0110808D02*
X0056536Y0110808D01*
X0054406Y0113203D02*
X0052531Y0113203D01*
X0051882Y0112405D02*
X0053607Y0112405D01*
X0053330Y0114002D02*
X0055204Y0114002D01*
X0056003Y0114801D02*
X0054128Y0114801D01*
X0054927Y0115599D02*
X0056801Y0115599D01*
X0057600Y0116398D02*
X0054970Y0116398D01*
X0054970Y0117196D02*
X0058398Y0117196D01*
X0059197Y0117995D02*
X0054970Y0117995D01*
X0054970Y0118793D02*
X0059995Y0118793D01*
X0060794Y0119592D02*
X0054970Y0119592D01*
X0054970Y0120390D02*
X0061592Y0120390D01*
X0062391Y0121189D02*
X0054970Y0121189D01*
X0054970Y0121987D02*
X0063189Y0121987D01*
X0063988Y0122786D02*
X0054970Y0122786D01*
X0054970Y0123584D02*
X0064787Y0123584D01*
X0065585Y0124383D02*
X0054970Y0124383D01*
X0054970Y0125181D02*
X0066384Y0125181D01*
X0067182Y0125980D02*
X0054970Y0125980D01*
X0054970Y0126778D02*
X0067981Y0126778D01*
X0068779Y0127577D02*
X0054970Y0127577D01*
X0054970Y0128375D02*
X0069578Y0128375D01*
X0070376Y0129174D02*
X0054970Y0129174D01*
X0054970Y0129972D02*
X0071175Y0129972D01*
X0071973Y0130771D02*
X0054970Y0130771D01*
X0054970Y0131569D02*
X0072772Y0131569D01*
X0073570Y0132368D02*
X0054970Y0132368D01*
X0054970Y0133166D02*
X0056420Y0133166D01*
X0056420Y0133965D02*
X0055773Y0133965D01*
X0064120Y0133965D02*
X0072410Y0133965D01*
X0072410Y0134763D02*
X0064120Y0134763D01*
X0064120Y0135562D02*
X0072410Y0135562D01*
X0072410Y0136360D02*
X0064120Y0136360D01*
X0064120Y0137159D02*
X0072410Y0137159D01*
X0072410Y0137957D02*
X0064120Y0137957D01*
X0064120Y0138756D02*
X0072410Y0138756D01*
X0072420Y0139554D02*
X0064120Y0139554D01*
X0064120Y0133166D02*
X0072410Y0133166D01*
X0064702Y0145942D02*
X0063907Y0145942D01*
X0064120Y0146741D02*
X0064510Y0146741D01*
X0064510Y0151532D02*
X0064120Y0151532D01*
X0064120Y0152331D02*
X0064510Y0152331D01*
X0065094Y0153129D02*
X0063557Y0153129D01*
X0033679Y0141151D02*
X0100520Y0141151D01*
X0100144Y0140353D02*
X0099308Y0140353D01*
X0130628Y0162711D02*
X0182704Y0162711D01*
X0182704Y0161913D02*
X0010765Y0161913D01*
X0066617Y0113203D02*
X0091126Y0113203D01*
X0091126Y0112405D02*
X0067176Y0112405D01*
X0067176Y0111606D02*
X0091126Y0111606D01*
X0091126Y0110808D02*
X0067176Y0110808D01*
X0067176Y0110009D02*
X0090856Y0110009D01*
X0090058Y0109211D02*
X0067176Y0109211D01*
X0066842Y0108412D02*
X0089259Y0108412D01*
X0088461Y0107614D02*
X0078416Y0107614D01*
X0074324Y0107614D02*
X0066506Y0107614D01*
X0067176Y0106815D02*
X0073525Y0106815D01*
X0073520Y0106017D02*
X0067176Y0106017D01*
X0067176Y0105218D02*
X0073520Y0105218D01*
X0073520Y0104420D02*
X0067176Y0104420D01*
X0067176Y0103621D02*
X0072726Y0103621D01*
X0071928Y0102823D02*
X0066953Y0102823D01*
X0064326Y0104995D02*
X0064123Y0104792D01*
X0064321Y0105000D02*
X0064326Y0104995D01*
X0063588Y0107845D02*
X0063588Y0107845D01*
X0062350Y0108729D02*
X0064321Y0110700D01*
X0064326Y0110695D01*
X0062350Y0108729D02*
X0047632Y0108729D01*
X0047632Y0096918D02*
X0065847Y0096918D01*
X0079546Y0083219D01*
X0183812Y0083219D01*
X0198870Y0068161D01*
X0204420Y0068161D01*
X0204486Y0068095D01*
X0207336Y0068487D02*
X0209116Y0068487D01*
X0209116Y0069285D02*
X0207336Y0069285D01*
X0207336Y0070084D02*
X0209116Y0070084D01*
X0209197Y0070882D02*
X0207254Y0070882D01*
X0207336Y0067688D02*
X0209116Y0067688D01*
X0208498Y0066890D02*
X0207336Y0066890D01*
X0207336Y0066091D02*
X0207699Y0066091D01*
X0209829Y0063696D02*
X0216165Y0063696D01*
X0216165Y0064494D02*
X0210628Y0064494D01*
X0210979Y0062897D02*
X0216165Y0062897D01*
X0216165Y0062099D02*
X0211076Y0062099D01*
X0211076Y0061300D02*
X0216165Y0061300D01*
X0216165Y0060502D02*
X0211076Y0060502D01*
X0211076Y0059703D02*
X0216165Y0059703D01*
X0216165Y0058905D02*
X0211076Y0058905D01*
X0211076Y0058106D02*
X0215709Y0058106D01*
X0214910Y0057308D02*
X0210994Y0057308D01*
X0210599Y0056509D02*
X0211810Y0056509D01*
X0211354Y0055711D02*
X0211054Y0055711D01*
X0211054Y0054912D02*
X0211354Y0054912D01*
X0211354Y0054114D02*
X0211054Y0054114D01*
X0211054Y0053315D02*
X0211354Y0053315D01*
X0211354Y0052517D02*
X0211054Y0052517D01*
X0210617Y0051718D02*
X0211792Y0051718D01*
X0212432Y0050920D02*
X0207282Y0050920D01*
X0206484Y0050121D02*
X0211965Y0050121D01*
X0211965Y0049323D02*
X0205685Y0049323D01*
X0204887Y0048524D02*
X0211988Y0048524D01*
X0212787Y0047726D02*
X0204088Y0047726D01*
X0203290Y0046927D02*
X0316389Y0046927D01*
X0316389Y0046129D02*
X0202491Y0046129D01*
X0201693Y0045330D02*
X0316389Y0045330D01*
X0316389Y0044532D02*
X0200894Y0044532D01*
X0200095Y0043733D02*
X0316389Y0043733D01*
X0316389Y0042934D02*
X0199297Y0042934D01*
X0198498Y0042136D02*
X0316389Y0042136D01*
X0316389Y0041337D02*
X0197700Y0041337D01*
X0196901Y0040539D02*
X0316389Y0040539D01*
X0316389Y0039740D02*
X0196103Y0039740D01*
X0195304Y0038942D02*
X0316389Y0038942D01*
X0316389Y0038143D02*
X0194506Y0038143D01*
X0193707Y0037345D02*
X0316389Y0037345D01*
X0316389Y0036546D02*
X0192909Y0036546D01*
X0192110Y0035748D02*
X0316389Y0035748D01*
X0316389Y0034949D02*
X0191312Y0034949D01*
X0190513Y0034151D02*
X0316389Y0034151D01*
X0316389Y0033352D02*
X0189715Y0033352D01*
X0188916Y0032554D02*
X0316389Y0032554D01*
X0316389Y0031755D02*
X0188118Y0031755D01*
X0187319Y0030957D02*
X0316389Y0030957D01*
X0316389Y0030158D02*
X0186521Y0030158D01*
X0185722Y0029360D02*
X0316389Y0029360D01*
X0316389Y0028561D02*
X0184924Y0028561D01*
X0184125Y0027763D02*
X0316389Y0027763D01*
X0316389Y0026964D02*
X0183327Y0026964D01*
X0182528Y0026166D02*
X0316389Y0026166D01*
X0316389Y0025367D02*
X0181730Y0025367D01*
X0180931Y0024569D02*
X0316389Y0024569D01*
X0316389Y0023770D02*
X0180133Y0023770D01*
X0179334Y0022972D02*
X0316389Y0022972D01*
X0316389Y0022173D02*
X0178536Y0022173D01*
X0177737Y0021375D02*
X0200121Y0021375D01*
X0199323Y0020576D02*
X0177165Y0020576D01*
X0177165Y0019778D02*
X0198524Y0019778D01*
X0197726Y0018979D02*
X0177165Y0018979D01*
X0177165Y0018181D02*
X0196927Y0018181D01*
X0196129Y0017382D02*
X0177165Y0017382D01*
X0178133Y0016584D02*
X0195330Y0016584D01*
X0194532Y0015785D02*
X0178932Y0015785D01*
X0179451Y0014987D02*
X0193733Y0014987D01*
X0192935Y0014188D02*
X0179781Y0014188D01*
X0179915Y0013390D02*
X0192136Y0013390D01*
X0191338Y0012591D02*
X0179915Y0012591D01*
X0179773Y0011793D02*
X0190539Y0011793D01*
X0189741Y0010994D02*
X0179443Y0010994D01*
X0171913Y0010500D02*
X0169217Y0010500D01*
X0169253Y0010536D01*
X0169915Y0012135D01*
X0169915Y0013865D01*
X0169253Y0015464D01*
X0168029Y0016688D01*
X0167165Y0017046D01*
X0167165Y0029603D01*
X0188817Y0051255D01*
X0191354Y0051255D01*
X0192254Y0052155D01*
X0192254Y0056054D01*
X0191563Y0056745D01*
X0191631Y0056745D01*
X0192276Y0057390D01*
X0192276Y0062700D01*
X0196020Y0062700D01*
X0196020Y0060211D01*
X0196920Y0059311D01*
X0200819Y0059311D01*
X0201720Y0060211D01*
X0201720Y0062592D01*
X0201728Y0062600D01*
X0205376Y0062600D01*
X0205376Y0057390D01*
X0206020Y0056745D01*
X0206046Y0056745D01*
X0205354Y0056054D01*
X0205354Y0053517D01*
X0174902Y0023065D01*
X0173965Y0022128D01*
X0173965Y0017046D01*
X0173101Y0016688D01*
X0171877Y0015464D01*
X0171215Y0013865D01*
X0171215Y0012135D01*
X0171877Y0010536D01*
X0171913Y0010500D01*
X0171688Y0010994D02*
X0169443Y0010994D01*
X0169773Y0011793D02*
X0171357Y0011793D01*
X0171215Y0012591D02*
X0169915Y0012591D01*
X0169915Y0013390D02*
X0171215Y0013390D01*
X0171349Y0014188D02*
X0169781Y0014188D01*
X0169451Y0014987D02*
X0171680Y0014987D01*
X0172198Y0015785D02*
X0168932Y0015785D01*
X0168133Y0016584D02*
X0172997Y0016584D01*
X0173965Y0017382D02*
X0167165Y0017382D01*
X0167165Y0018181D02*
X0173965Y0018181D01*
X0173965Y0018979D02*
X0167165Y0018979D01*
X0167165Y0019778D02*
X0173965Y0019778D01*
X0173965Y0020576D02*
X0167165Y0020576D01*
X0167165Y0021375D02*
X0173965Y0021375D01*
X0174010Y0022173D02*
X0167165Y0022173D01*
X0167165Y0022972D02*
X0174809Y0022972D01*
X0175607Y0023770D02*
X0167165Y0023770D01*
X0167165Y0024569D02*
X0176406Y0024569D01*
X0177204Y0025367D02*
X0167165Y0025367D01*
X0167165Y0026166D02*
X0178003Y0026166D01*
X0178801Y0026964D02*
X0167165Y0026964D01*
X0167165Y0027763D02*
X0179600Y0027763D01*
X0180398Y0028561D02*
X0167165Y0028561D01*
X0167165Y0029360D02*
X0181197Y0029360D01*
X0181995Y0030158D02*
X0167721Y0030158D01*
X0168519Y0030957D02*
X0182794Y0030957D01*
X0183592Y0031755D02*
X0169318Y0031755D01*
X0170116Y0032554D02*
X0184391Y0032554D01*
X0185189Y0033352D02*
X0170915Y0033352D01*
X0171713Y0034151D02*
X0185988Y0034151D01*
X0186786Y0034949D02*
X0172512Y0034949D01*
X0173310Y0035748D02*
X0187585Y0035748D01*
X0188383Y0036546D02*
X0174109Y0036546D01*
X0174907Y0037345D02*
X0189182Y0037345D01*
X0189980Y0038143D02*
X0175706Y0038143D01*
X0176504Y0038942D02*
X0190779Y0038942D01*
X0191577Y0039740D02*
X0177303Y0039740D01*
X0178101Y0040539D02*
X0192376Y0040539D01*
X0193174Y0041337D02*
X0178900Y0041337D01*
X0179698Y0042136D02*
X0193973Y0042136D01*
X0194772Y0042934D02*
X0180497Y0042934D01*
X0181295Y0043733D02*
X0195570Y0043733D01*
X0196369Y0044532D02*
X0182094Y0044532D01*
X0182893Y0045330D02*
X0197167Y0045330D01*
X0197966Y0046129D02*
X0183691Y0046129D01*
X0184490Y0046927D02*
X0198764Y0046927D01*
X0199563Y0047726D02*
X0196943Y0047726D01*
X0196418Y0047200D02*
X0197765Y0048547D01*
X0197765Y0050453D01*
X0197065Y0051153D01*
X0197065Y0051255D01*
X0197354Y0051255D01*
X0198254Y0052155D01*
X0198254Y0056054D01*
X0197354Y0056955D01*
X0193455Y0056955D01*
X0192554Y0056054D01*
X0192554Y0052155D01*
X0193455Y0051255D01*
X0193865Y0051255D01*
X0193865Y0051153D01*
X0193165Y0050453D01*
X0193165Y0048547D01*
X0194512Y0047200D01*
X0196418Y0047200D01*
X0197742Y0048524D02*
X0200361Y0048524D01*
X0201160Y0049323D02*
X0197765Y0049323D01*
X0197765Y0050121D02*
X0201958Y0050121D01*
X0202757Y0050920D02*
X0197298Y0050920D01*
X0197817Y0051718D02*
X0203555Y0051718D01*
X0204354Y0052517D02*
X0198254Y0052517D01*
X0198254Y0053315D02*
X0205152Y0053315D01*
X0205354Y0054114D02*
X0198254Y0054114D01*
X0198254Y0054912D02*
X0205354Y0054912D01*
X0205354Y0055711D02*
X0198254Y0055711D01*
X0197799Y0056509D02*
X0205810Y0056509D01*
X0205458Y0057308D02*
X0192194Y0057308D01*
X0192276Y0058106D02*
X0205376Y0058106D01*
X0205376Y0058905D02*
X0192276Y0058905D01*
X0192276Y0059703D02*
X0196528Y0059703D01*
X0196020Y0060502D02*
X0192276Y0060502D01*
X0192276Y0061300D02*
X0196020Y0061300D01*
X0196020Y0062099D02*
X0192276Y0062099D01*
X0190316Y0065900D02*
X0188536Y0065900D01*
X0188536Y0070801D01*
X0187891Y0071445D01*
X0183480Y0071445D01*
X0182836Y0070801D01*
X0182836Y0070194D01*
X0182019Y0071011D01*
X0179341Y0071011D01*
X0168633Y0081719D01*
X0183190Y0081719D01*
X0193464Y0071445D01*
X0190960Y0071445D01*
X0190316Y0070801D01*
X0190316Y0065900D01*
X0190316Y0066091D02*
X0188536Y0066091D01*
X0188536Y0066890D02*
X0190316Y0066890D01*
X0190316Y0067688D02*
X0188536Y0067688D01*
X0188536Y0068487D02*
X0190316Y0068487D01*
X0190316Y0069285D02*
X0188536Y0069285D01*
X0188536Y0070084D02*
X0190316Y0070084D01*
X0190397Y0070882D02*
X0188454Y0070882D01*
X0191631Y0073278D02*
X0177074Y0073278D01*
X0177872Y0072479D02*
X0192430Y0072479D01*
X0193228Y0071681D02*
X0178671Y0071681D01*
X0182147Y0070882D02*
X0182917Y0070882D01*
X0185620Y0068161D02*
X0180070Y0068161D01*
X0166512Y0081719D01*
X0078925Y0081719D01*
X0065694Y0094950D01*
X0047632Y0094950D01*
X0047632Y0092981D02*
X0065541Y0092981D01*
X0078304Y0080219D01*
X0149412Y0080219D01*
X0161470Y0068161D01*
X0166920Y0068161D01*
X0166986Y0068095D01*
X0169836Y0068487D02*
X0171616Y0068487D01*
X0171616Y0069285D02*
X0169836Y0069285D01*
X0169836Y0070084D02*
X0171616Y0070084D01*
X0171616Y0070801D02*
X0171616Y0065900D01*
X0169836Y0065900D01*
X0169836Y0070801D01*
X0169191Y0071445D01*
X0164780Y0071445D01*
X0164136Y0070801D01*
X0164136Y0070294D01*
X0163419Y0071011D01*
X0160741Y0071011D01*
X0151533Y0080219D01*
X0165890Y0080219D01*
X0174664Y0071445D01*
X0172260Y0071445D01*
X0171616Y0070801D01*
X0171697Y0070882D02*
X0169754Y0070882D01*
X0172831Y0073278D02*
X0158474Y0073278D01*
X0159272Y0072479D02*
X0173630Y0072479D01*
X0174428Y0071681D02*
X0160071Y0071681D01*
X0155964Y0071545D02*
X0153660Y0071545D01*
X0153016Y0070901D01*
X0153016Y0065900D01*
X0151236Y0065900D01*
X0151236Y0070901D01*
X0150591Y0071545D01*
X0146180Y0071545D01*
X0145536Y0070901D01*
X0145536Y0070394D01*
X0144919Y0071011D01*
X0142241Y0071011D01*
X0134533Y0078719D01*
X0148790Y0078719D01*
X0155964Y0071545D01*
X0155828Y0071681D02*
X0141571Y0071681D01*
X0140772Y0072479D02*
X0155030Y0072479D01*
X0154231Y0073278D02*
X0139974Y0073278D01*
X0139175Y0074076D02*
X0153433Y0074076D01*
X0152634Y0074875D02*
X0138377Y0074875D01*
X0137578Y0075673D02*
X0151836Y0075673D01*
X0151037Y0076472D02*
X0136780Y0076472D01*
X0135981Y0077270D02*
X0150239Y0077270D01*
X0149440Y0078069D02*
X0135183Y0078069D01*
X0132412Y0078719D02*
X0142970Y0068161D01*
X0148351Y0068161D01*
X0148386Y0068195D01*
X0151236Y0068487D02*
X0153016Y0068487D01*
X0153016Y0069285D02*
X0151236Y0069285D01*
X0151236Y0070084D02*
X0153016Y0070084D01*
X0153016Y0070882D02*
X0151236Y0070882D01*
X0151236Y0067688D02*
X0153016Y0067688D01*
X0153016Y0066890D02*
X0151236Y0066890D01*
X0151236Y0066091D02*
X0153016Y0066091D01*
X0154976Y0062700D02*
X0158620Y0062700D01*
X0158620Y0060211D01*
X0159520Y0059311D01*
X0163419Y0059311D01*
X0164320Y0060211D01*
X0164320Y0062700D01*
X0167876Y0062700D01*
X0167876Y0057390D01*
X0168520Y0056745D01*
X0168546Y0056745D01*
X0167854Y0056054D01*
X0167854Y0053517D01*
X0154902Y0040565D01*
X0153965Y0039628D01*
X0153965Y0017046D01*
X0153101Y0016688D01*
X0151877Y0015464D01*
X0151215Y0013865D01*
X0151215Y0012135D01*
X0151877Y0010536D01*
X0151913Y0010500D01*
X0149915Y0010500D01*
X0149915Y0016706D01*
X0149271Y0017350D01*
X0147165Y0017350D01*
X0147165Y0046903D01*
X0151517Y0051255D01*
X0154054Y0051255D01*
X0154954Y0052155D01*
X0154954Y0056054D01*
X0154163Y0056845D01*
X0154331Y0056845D01*
X0154976Y0057490D01*
X0154976Y0062700D01*
X0154976Y0062099D02*
X0158620Y0062099D01*
X0158620Y0061300D02*
X0154976Y0061300D01*
X0154976Y0060502D02*
X0158620Y0060502D01*
X0159128Y0059703D02*
X0154976Y0059703D01*
X0154976Y0058905D02*
X0167876Y0058905D01*
X0167876Y0059703D02*
X0163812Y0059703D01*
X0164320Y0060502D02*
X0167876Y0060502D01*
X0167876Y0061300D02*
X0164320Y0061300D01*
X0164320Y0062099D02*
X0167876Y0062099D01*
X0167876Y0058106D02*
X0154976Y0058106D01*
X0154794Y0057308D02*
X0167958Y0057308D01*
X0168310Y0056509D02*
X0160499Y0056509D01*
X0160054Y0056955D02*
X0160954Y0056054D01*
X0160954Y0052155D01*
X0160054Y0051255D01*
X0159763Y0051255D01*
X0160565Y0050453D01*
X0160565Y0048547D01*
X0159218Y0047200D01*
X0157312Y0047200D01*
X0155965Y0048547D01*
X0155965Y0050453D01*
X0156504Y0050992D01*
X0156504Y0051255D01*
X0156155Y0051255D01*
X0155254Y0052155D01*
X0155254Y0056054D01*
X0156155Y0056955D01*
X0160054Y0056955D01*
X0160954Y0055711D02*
X0167854Y0055711D01*
X0167854Y0054912D02*
X0160954Y0054912D01*
X0160954Y0054114D02*
X0167854Y0054114D01*
X0167652Y0053315D02*
X0160954Y0053315D01*
X0160954Y0052517D02*
X0166854Y0052517D01*
X0166055Y0051718D02*
X0160517Y0051718D01*
X0160098Y0050920D02*
X0165257Y0050920D01*
X0164458Y0050121D02*
X0160565Y0050121D01*
X0160565Y0049323D02*
X0163660Y0049323D01*
X0162861Y0048524D02*
X0160542Y0048524D01*
X0159743Y0047726D02*
X0162063Y0047726D01*
X0161264Y0046927D02*
X0147190Y0046927D01*
X0147165Y0046129D02*
X0160466Y0046129D01*
X0159667Y0045330D02*
X0147165Y0045330D01*
X0147165Y0044532D02*
X0158869Y0044532D01*
X0158070Y0043733D02*
X0147165Y0043733D01*
X0147165Y0042934D02*
X0157272Y0042934D01*
X0156473Y0042136D02*
X0147165Y0042136D01*
X0147165Y0041337D02*
X0155674Y0041337D01*
X0154876Y0040539D02*
X0147165Y0040539D01*
X0147165Y0039740D02*
X0154077Y0039740D01*
X0153965Y0038942D02*
X0147165Y0038942D01*
X0147165Y0038143D02*
X0153965Y0038143D01*
X0153965Y0037345D02*
X0147165Y0037345D01*
X0147165Y0036546D02*
X0153965Y0036546D01*
X0153965Y0035748D02*
X0147165Y0035748D01*
X0147165Y0034949D02*
X0153965Y0034949D01*
X0153965Y0034151D02*
X0147165Y0034151D01*
X0147165Y0033352D02*
X0153965Y0033352D01*
X0153965Y0032554D02*
X0147165Y0032554D01*
X0147165Y0031755D02*
X0153965Y0031755D01*
X0153965Y0030957D02*
X0147165Y0030957D01*
X0147165Y0030158D02*
X0153965Y0030158D01*
X0153965Y0029360D02*
X0147165Y0029360D01*
X0147165Y0028561D02*
X0153965Y0028561D01*
X0153965Y0027763D02*
X0147165Y0027763D01*
X0147165Y0026964D02*
X0153965Y0026964D01*
X0153965Y0026166D02*
X0147165Y0026166D01*
X0147165Y0025367D02*
X0153965Y0025367D01*
X0153965Y0024569D02*
X0147165Y0024569D01*
X0147165Y0023770D02*
X0153965Y0023770D01*
X0153965Y0022972D02*
X0147165Y0022972D01*
X0147165Y0022173D02*
X0153965Y0022173D01*
X0153965Y0021375D02*
X0147165Y0021375D01*
X0147165Y0020576D02*
X0153965Y0020576D01*
X0153965Y0019778D02*
X0147165Y0019778D01*
X0147165Y0018979D02*
X0153965Y0018979D01*
X0153965Y0018181D02*
X0147165Y0018181D01*
X0147165Y0017382D02*
X0153965Y0017382D01*
X0152997Y0016584D02*
X0149915Y0016584D01*
X0149915Y0015785D02*
X0152198Y0015785D01*
X0151680Y0014987D02*
X0149915Y0014987D01*
X0149915Y0014188D02*
X0151349Y0014188D01*
X0151215Y0013390D02*
X0149915Y0013390D01*
X0149915Y0012591D02*
X0151215Y0012591D01*
X0151357Y0011793D02*
X0149915Y0011793D01*
X0149915Y0010994D02*
X0151688Y0010994D01*
X0159217Y0010500D02*
X0159253Y0010536D01*
X0159915Y0012135D01*
X0159915Y0013865D01*
X0159253Y0015464D01*
X0158029Y0016688D01*
X0157165Y0017046D01*
X0157165Y0038303D01*
X0170117Y0051255D01*
X0172654Y0051255D01*
X0173554Y0052155D01*
X0173554Y0056054D01*
X0172863Y0056745D01*
X0172931Y0056745D01*
X0173576Y0057390D01*
X0173576Y0062700D01*
X0177202Y0062700D01*
X0177220Y0062683D01*
X0177220Y0060211D01*
X0178120Y0059311D01*
X0182019Y0059311D01*
X0182920Y0060211D01*
X0182920Y0062700D01*
X0186576Y0062700D01*
X0186576Y0057390D01*
X0187220Y0056745D01*
X0187246Y0056745D01*
X0186554Y0056054D01*
X0186554Y0053517D01*
X0164902Y0031865D01*
X0163965Y0030928D01*
X0163965Y0017046D01*
X0163101Y0016688D01*
X0161877Y0015464D01*
X0161215Y0013865D01*
X0161215Y0012135D01*
X0161877Y0010536D01*
X0161913Y0010500D01*
X0159217Y0010500D01*
X0159443Y0010994D02*
X0161688Y0010994D01*
X0161357Y0011793D02*
X0159773Y0011793D01*
X0159915Y0012591D02*
X0161215Y0012591D01*
X0161215Y0013390D02*
X0159915Y0013390D01*
X0159781Y0014188D02*
X0161349Y0014188D01*
X0161680Y0014987D02*
X0159451Y0014987D01*
X0158932Y0015785D02*
X0162198Y0015785D01*
X0162997Y0016584D02*
X0158133Y0016584D01*
X0157165Y0017382D02*
X0163965Y0017382D01*
X0163965Y0018181D02*
X0157165Y0018181D01*
X0157165Y0018979D02*
X0163965Y0018979D01*
X0163965Y0019778D02*
X0157165Y0019778D01*
X0157165Y0020576D02*
X0163965Y0020576D01*
X0163965Y0021375D02*
X0157165Y0021375D01*
X0157165Y0022173D02*
X0163965Y0022173D01*
X0163965Y0022972D02*
X0157165Y0022972D01*
X0157165Y0023770D02*
X0163965Y0023770D01*
X0163965Y0024569D02*
X0157165Y0024569D01*
X0157165Y0025367D02*
X0163965Y0025367D01*
X0163965Y0026166D02*
X0157165Y0026166D01*
X0157165Y0026964D02*
X0163965Y0026964D01*
X0163965Y0027763D02*
X0157165Y0027763D01*
X0157165Y0028561D02*
X0163965Y0028561D01*
X0163965Y0029360D02*
X0157165Y0029360D01*
X0157165Y0030158D02*
X0163965Y0030158D01*
X0163994Y0030957D02*
X0157165Y0030957D01*
X0157165Y0031755D02*
X0164792Y0031755D01*
X0165591Y0032554D02*
X0157165Y0032554D01*
X0157165Y0033352D02*
X0166389Y0033352D01*
X0167188Y0034151D02*
X0157165Y0034151D01*
X0157165Y0034949D02*
X0167986Y0034949D01*
X0168785Y0035748D02*
X0157165Y0035748D01*
X0157165Y0036546D02*
X0169583Y0036546D01*
X0170382Y0037345D02*
X0157165Y0037345D01*
X0157165Y0038143D02*
X0171180Y0038143D01*
X0171979Y0038942D02*
X0157804Y0038942D01*
X0158603Y0039740D02*
X0172777Y0039740D01*
X0173576Y0040539D02*
X0159401Y0040539D01*
X0160200Y0041337D02*
X0174374Y0041337D01*
X0175173Y0042136D02*
X0160998Y0042136D01*
X0161797Y0042934D02*
X0175972Y0042934D01*
X0176770Y0043733D02*
X0162595Y0043733D01*
X0163394Y0044532D02*
X0177569Y0044532D01*
X0178367Y0045330D02*
X0164193Y0045330D01*
X0164991Y0046129D02*
X0179166Y0046129D01*
X0179964Y0046927D02*
X0165790Y0046927D01*
X0166588Y0047726D02*
X0175287Y0047726D01*
X0175812Y0047200D02*
X0177718Y0047200D01*
X0179065Y0048547D01*
X0179065Y0050453D01*
X0178304Y0051213D01*
X0178304Y0051255D01*
X0178654Y0051255D01*
X0179554Y0052155D01*
X0179554Y0056054D01*
X0178654Y0056955D01*
X0174755Y0056955D01*
X0173854Y0056054D01*
X0173854Y0052155D01*
X0174755Y0051255D01*
X0175104Y0051255D01*
X0175104Y0051092D01*
X0174465Y0050453D01*
X0174465Y0048547D01*
X0175812Y0047200D01*
X0174488Y0048524D02*
X0167387Y0048524D01*
X0168185Y0049323D02*
X0174465Y0049323D01*
X0174465Y0050121D02*
X0168984Y0050121D01*
X0169782Y0050920D02*
X0174932Y0050920D01*
X0174292Y0051718D02*
X0173117Y0051718D01*
X0173554Y0052517D02*
X0173854Y0052517D01*
X0173854Y0053315D02*
X0173554Y0053315D01*
X0173554Y0054114D02*
X0173854Y0054114D01*
X0173854Y0054912D02*
X0173554Y0054912D01*
X0173554Y0055711D02*
X0173854Y0055711D01*
X0174310Y0056509D02*
X0173099Y0056509D01*
X0173494Y0057308D02*
X0186658Y0057308D01*
X0186576Y0058106D02*
X0173576Y0058106D01*
X0173576Y0058905D02*
X0186576Y0058905D01*
X0186576Y0059703D02*
X0182412Y0059703D01*
X0182920Y0060502D02*
X0186576Y0060502D01*
X0186576Y0061300D02*
X0182920Y0061300D01*
X0182920Y0062099D02*
X0186576Y0062099D01*
X0187010Y0056509D02*
X0179099Y0056509D01*
X0179554Y0055711D02*
X0186554Y0055711D01*
X0186554Y0054912D02*
X0179554Y0054912D01*
X0179554Y0054114D02*
X0186554Y0054114D01*
X0186352Y0053315D02*
X0179554Y0053315D01*
X0179554Y0052517D02*
X0185554Y0052517D01*
X0184755Y0051718D02*
X0179117Y0051718D01*
X0178598Y0050920D02*
X0183957Y0050920D01*
X0183158Y0050121D02*
X0179065Y0050121D01*
X0179065Y0049323D02*
X0182360Y0049323D01*
X0181561Y0048524D02*
X0179042Y0048524D01*
X0178243Y0047726D02*
X0180763Y0047726D01*
X0185288Y0047726D02*
X0193987Y0047726D01*
X0193188Y0048524D02*
X0186087Y0048524D01*
X0186885Y0049323D02*
X0193165Y0049323D01*
X0193165Y0050121D02*
X0187684Y0050121D01*
X0188482Y0050920D02*
X0193632Y0050920D01*
X0192992Y0051718D02*
X0191817Y0051718D01*
X0192254Y0052517D02*
X0192554Y0052517D01*
X0192554Y0053315D02*
X0192254Y0053315D01*
X0192254Y0054114D02*
X0192554Y0054114D01*
X0192554Y0054912D02*
X0192254Y0054912D01*
X0192254Y0055711D02*
X0192554Y0055711D01*
X0193010Y0056509D02*
X0191799Y0056509D01*
X0201212Y0059703D02*
X0205376Y0059703D01*
X0205376Y0060502D02*
X0201720Y0060502D01*
X0201720Y0061300D02*
X0205376Y0061300D01*
X0205376Y0062099D02*
X0201720Y0062099D01*
X0201717Y0070882D02*
X0200947Y0070882D01*
X0197471Y0071681D02*
X0215921Y0071681D01*
X0216165Y0070882D02*
X0214734Y0070882D01*
X0214816Y0070084D02*
X0216165Y0070084D01*
X0216165Y0069285D02*
X0214816Y0069285D01*
X0214816Y0068487D02*
X0216165Y0068487D01*
X0216165Y0067688D02*
X0214816Y0067688D01*
X0214816Y0066890D02*
X0216165Y0066890D01*
X0216165Y0066091D02*
X0214816Y0066091D01*
X0214719Y0065293D02*
X0216165Y0065293D01*
X0219365Y0065293D02*
X0316389Y0065293D01*
X0316389Y0066091D02*
X0219365Y0066091D01*
X0219365Y0066890D02*
X0316389Y0066890D01*
X0316389Y0067688D02*
X0219365Y0067688D01*
X0219365Y0068487D02*
X0316389Y0068487D01*
X0316389Y0069285D02*
X0219365Y0069285D01*
X0219365Y0070084D02*
X0316389Y0070084D01*
X0316389Y0070882D02*
X0219365Y0070882D01*
X0219365Y0071681D02*
X0316389Y0071681D01*
X0316389Y0072479D02*
X0219365Y0072479D01*
X0218850Y0073278D02*
X0316389Y0073278D01*
X0316389Y0074076D02*
X0218051Y0074076D01*
X0217253Y0074875D02*
X0316389Y0074875D01*
X0316389Y0075673D02*
X0216454Y0075673D01*
X0215656Y0076472D02*
X0316389Y0076472D01*
X0316389Y0077270D02*
X0214857Y0077270D01*
X0214059Y0078069D02*
X0316389Y0078069D01*
X0316389Y0078868D02*
X0213260Y0078868D01*
X0212462Y0079666D02*
X0316389Y0079666D01*
X0316389Y0080465D02*
X0211663Y0080465D01*
X0210865Y0081263D02*
X0316389Y0081263D01*
X0316389Y0082062D02*
X0210066Y0082062D01*
X0209268Y0082860D02*
X0316389Y0082860D01*
X0316389Y0083659D02*
X0208469Y0083659D01*
X0207671Y0084457D02*
X0316389Y0084457D01*
X0316389Y0085256D02*
X0206872Y0085256D01*
X0206074Y0086054D02*
X0316389Y0086054D01*
X0316389Y0086853D02*
X0205275Y0086853D01*
X0204477Y0087651D02*
X0316389Y0087651D01*
X0316389Y0088450D02*
X0203678Y0088450D01*
X0202880Y0089248D02*
X0316389Y0089248D01*
X0316389Y0090047D02*
X0202081Y0090047D01*
X0201283Y0090845D02*
X0316389Y0090845D01*
X0316389Y0091644D02*
X0200484Y0091644D01*
X0199686Y0092442D02*
X0316389Y0092442D01*
X0316389Y0093241D02*
X0198887Y0093241D01*
X0198089Y0094039D02*
X0316389Y0094039D01*
X0316389Y0094838D02*
X0197290Y0094838D01*
X0196492Y0095636D02*
X0316389Y0095636D01*
X0316389Y0096435D02*
X0195693Y0096435D01*
X0194895Y0097233D02*
X0316389Y0097233D01*
X0316389Y0098032D02*
X0194096Y0098032D01*
X0193298Y0098830D02*
X0316389Y0098830D01*
X0316389Y0099629D02*
X0192499Y0099629D01*
X0191701Y0100427D02*
X0316389Y0100427D01*
X0316389Y0101226D02*
X0190902Y0101226D01*
X0190103Y0102024D02*
X0316389Y0102024D01*
X0316389Y0102823D02*
X0189305Y0102823D01*
X0188506Y0103621D02*
X0316389Y0103621D01*
X0316389Y0104420D02*
X0187708Y0104420D01*
X0187070Y0105218D02*
X0316389Y0105218D01*
X0316389Y0106017D02*
X0188732Y0106017D01*
X0188820Y0106815D02*
X0316389Y0106815D01*
X0316389Y0107614D02*
X0188820Y0107614D01*
X0188820Y0108412D02*
X0316389Y0108412D01*
X0316389Y0109211D02*
X0188820Y0109211D01*
X0188820Y0110009D02*
X0316389Y0110009D01*
X0316389Y0110808D02*
X0188820Y0110808D01*
X0188230Y0111606D02*
X0316389Y0111606D01*
X0316389Y0112405D02*
X0188104Y0112405D01*
X0188104Y0113203D02*
X0316389Y0113203D01*
X0316389Y0114002D02*
X0188104Y0114002D01*
X0188104Y0114801D02*
X0316389Y0114801D01*
X0316389Y0115599D02*
X0188104Y0115599D01*
X0188254Y0116398D02*
X0316389Y0116398D01*
X0316389Y0117196D02*
X0188254Y0117196D01*
X0188254Y0117995D02*
X0316389Y0117995D01*
X0316389Y0118793D02*
X0188254Y0118793D01*
X0188254Y0119592D02*
X0316389Y0119592D01*
X0316389Y0120390D02*
X0188104Y0120390D01*
X0188104Y0121189D02*
X0316389Y0121189D01*
X0316389Y0121987D02*
X0188104Y0121987D01*
X0188104Y0122786D02*
X0316389Y0122786D01*
X0316389Y0123584D02*
X0188104Y0123584D01*
X0188104Y0124383D02*
X0316389Y0124383D01*
X0316389Y0125181D02*
X0188104Y0125181D01*
X0188104Y0125980D02*
X0316389Y0125980D01*
X0316389Y0126778D02*
X0188104Y0126778D01*
X0188104Y0127577D02*
X0316389Y0127577D01*
X0316389Y0128375D02*
X0188104Y0128375D01*
X0188104Y0129174D02*
X0316389Y0129174D01*
X0316389Y0129972D02*
X0188104Y0129972D01*
X0188104Y0130771D02*
X0316389Y0130771D01*
X0316389Y0131569D02*
X0188104Y0131569D01*
X0188104Y0132368D02*
X0316389Y0132368D01*
X0316389Y0133166D02*
X0188104Y0133166D01*
X0188104Y0133965D02*
X0316389Y0133965D01*
X0316389Y0134763D02*
X0188104Y0134763D01*
X0188104Y0135562D02*
X0316389Y0135562D01*
X0316389Y0136360D02*
X0188104Y0136360D01*
X0188104Y0137159D02*
X0316389Y0137159D01*
X0316389Y0137957D02*
X0188104Y0137957D01*
X0188104Y0138756D02*
X0316389Y0138756D01*
X0316389Y0139554D02*
X0188104Y0139554D01*
X0188104Y0140353D02*
X0316389Y0140353D01*
X0316389Y0141151D02*
X0188104Y0141151D01*
X0188104Y0141950D02*
X0316389Y0141950D01*
X0316389Y0142748D02*
X0188104Y0142748D01*
X0188104Y0143547D02*
X0316389Y0143547D01*
X0316389Y0144345D02*
X0188104Y0144345D01*
X0188104Y0145144D02*
X0316389Y0145144D01*
X0316389Y0145942D02*
X0188104Y0145942D01*
X0188104Y0146741D02*
X0316389Y0146741D01*
X0316389Y0147539D02*
X0188104Y0147539D01*
X0188104Y0148338D02*
X0316389Y0148338D01*
X0316389Y0149137D02*
X0188104Y0149137D01*
X0188104Y0149935D02*
X0316389Y0149935D01*
X0316389Y0150734D02*
X0188104Y0150734D01*
X0188104Y0151532D02*
X0316389Y0151532D01*
X0316389Y0152331D02*
X0188104Y0152331D01*
X0188104Y0153129D02*
X0316389Y0153129D01*
X0316389Y0153928D02*
X0188104Y0153928D01*
X0188104Y0154726D02*
X0316389Y0154726D01*
X0316389Y0155525D02*
X0188104Y0155525D01*
X0188104Y0156323D02*
X0316389Y0156323D01*
X0316389Y0157122D02*
X0188104Y0157122D01*
X0188104Y0157920D02*
X0316389Y0157920D01*
X0316389Y0158719D02*
X0188104Y0158719D01*
X0188104Y0159517D02*
X0316389Y0159517D01*
X0316389Y0160316D02*
X0188104Y0160316D01*
X0188104Y0161114D02*
X0316389Y0161114D01*
X0316389Y0161913D02*
X0188104Y0161913D01*
X0188104Y0162711D02*
X0200303Y0162711D01*
X0199406Y0163510D02*
X0188104Y0163510D01*
X0188104Y0164308D02*
X0198637Y0164308D01*
X0197859Y0165107D02*
X0188104Y0165107D01*
X0188104Y0165905D02*
X0197081Y0165905D01*
X0196304Y0166704D02*
X0188104Y0166704D01*
X0189654Y0167502D02*
X0195526Y0167502D01*
X0194748Y0168301D02*
X0189915Y0168301D01*
X0189915Y0169099D02*
X0193970Y0169099D01*
X0193192Y0169898D02*
X0189915Y0169898D01*
X0189915Y0170696D02*
X0192414Y0170696D01*
X0191636Y0171495D02*
X0189915Y0171495D01*
X0189915Y0172293D02*
X0190859Y0172293D01*
X0190081Y0173092D02*
X0189915Y0173092D01*
X0181215Y0173092D02*
X0169601Y0173092D01*
X0169915Y0172293D02*
X0181215Y0172293D01*
X0181215Y0171495D02*
X0169915Y0171495D01*
X0169915Y0170696D02*
X0181215Y0170696D01*
X0181215Y0169898D02*
X0169623Y0169898D01*
X0169292Y0169099D02*
X0181215Y0169099D01*
X0181215Y0168301D02*
X0168548Y0168301D01*
X0167355Y0167502D02*
X0181476Y0167502D01*
X0182704Y0166704D02*
X0134718Y0166704D01*
X0135516Y0167502D02*
X0143775Y0167502D01*
X0142582Y0168301D02*
X0136315Y0168301D01*
X0137113Y0169099D02*
X0141838Y0169099D01*
X0141508Y0169898D02*
X0137912Y0169898D01*
X0138710Y0170696D02*
X0141215Y0170696D01*
X0141215Y0171495D02*
X0139509Y0171495D01*
X0140307Y0172293D02*
X0141215Y0172293D01*
X0141106Y0173092D02*
X0141529Y0173092D01*
X0149271Y0173890D02*
X0151860Y0173890D01*
X0151529Y0173092D02*
X0149601Y0173092D01*
X0149915Y0172293D02*
X0151215Y0172293D01*
X0151215Y0171495D02*
X0149915Y0171495D01*
X0149915Y0170696D02*
X0151215Y0170696D01*
X0151508Y0169898D02*
X0149623Y0169898D01*
X0149292Y0169099D02*
X0151838Y0169099D01*
X0152582Y0168301D02*
X0148548Y0168301D01*
X0147355Y0167502D02*
X0153775Y0167502D01*
X0157355Y0167502D02*
X0163775Y0167502D01*
X0162582Y0168301D02*
X0158548Y0168301D01*
X0159292Y0169099D02*
X0161838Y0169099D01*
X0161508Y0169898D02*
X0159623Y0169898D01*
X0159915Y0170696D02*
X0161215Y0170696D01*
X0161215Y0171495D02*
X0159915Y0171495D01*
X0159915Y0172293D02*
X0161215Y0172293D01*
X0161529Y0173092D02*
X0159601Y0173092D01*
X0159271Y0173890D02*
X0161860Y0173890D01*
X0169271Y0173890D02*
X0181215Y0173890D01*
X0182704Y0165905D02*
X0133919Y0165905D01*
X0133121Y0165107D02*
X0182704Y0165107D01*
X0182704Y0164308D02*
X0132322Y0164308D01*
X0131524Y0163510D02*
X0182704Y0163510D01*
X0182554Y0117196D02*
X0096526Y0117196D01*
X0096526Y0116398D02*
X0182554Y0116398D01*
X0182704Y0115599D02*
X0096526Y0115599D01*
X0096526Y0114801D02*
X0182704Y0114801D01*
X0182704Y0114002D02*
X0096526Y0114002D01*
X0096526Y0113203D02*
X0182704Y0113203D01*
X0182704Y0112405D02*
X0096526Y0112405D01*
X0096526Y0111606D02*
X0182704Y0111606D01*
X0182120Y0110808D02*
X0096526Y0110808D01*
X0096795Y0110009D02*
X0182120Y0110009D01*
X0182120Y0109211D02*
X0097594Y0109211D01*
X0098392Y0108412D02*
X0182120Y0108412D01*
X0182120Y0107614D02*
X0180482Y0107614D01*
X0180820Y0106815D02*
X0182120Y0106815D01*
X0182208Y0106017D02*
X0180820Y0106017D01*
X0180820Y0105218D02*
X0183870Y0105218D01*
X0183870Y0104420D02*
X0180820Y0104420D01*
X0180820Y0103621D02*
X0183981Y0103621D01*
X0184780Y0102823D02*
X0180820Y0102823D01*
X0180479Y0102024D02*
X0185578Y0102024D01*
X0186377Y0101226D02*
X0179070Y0101226D01*
X0179968Y0100427D02*
X0181641Y0100427D01*
X0182068Y0100855D02*
X0181204Y0099991D01*
X0181204Y0096019D01*
X0182068Y0095155D01*
X0182204Y0095155D01*
X0182204Y0094655D01*
X0181855Y0094655D01*
X0180954Y0093754D01*
X0180954Y0089855D01*
X0181855Y0088955D01*
X0185754Y0088955D01*
X0186654Y0089855D01*
X0186654Y0093754D01*
X0185754Y0094655D01*
X0185404Y0094655D01*
X0185404Y0095155D01*
X0185540Y0095155D01*
X0186404Y0096019D01*
X0186404Y0099991D01*
X0185540Y0100855D01*
X0182068Y0100855D01*
X0181204Y0099629D02*
X0180404Y0099629D01*
X0180404Y0098830D02*
X0181204Y0098830D01*
X0181204Y0098032D02*
X0180404Y0098032D01*
X0180404Y0097233D02*
X0181204Y0097233D01*
X0181204Y0096435D02*
X0180404Y0096435D01*
X0180022Y0095636D02*
X0181587Y0095636D01*
X0182204Y0094838D02*
X0070049Y0094838D01*
X0070847Y0094039D02*
X0181240Y0094039D01*
X0180954Y0093241D02*
X0071646Y0093241D01*
X0072444Y0092442D02*
X0180954Y0092442D01*
X0180954Y0091644D02*
X0073243Y0091644D01*
X0074041Y0090845D02*
X0180954Y0090845D01*
X0180954Y0090047D02*
X0074840Y0090047D01*
X0075638Y0089248D02*
X0181562Y0089248D01*
X0186047Y0089248D02*
X0198354Y0089248D01*
X0197556Y0090047D02*
X0186654Y0090047D01*
X0186654Y0090845D02*
X0196757Y0090845D01*
X0195959Y0091644D02*
X0186654Y0091644D01*
X0186654Y0092442D02*
X0195160Y0092442D01*
X0194362Y0093241D02*
X0186654Y0093241D01*
X0186369Y0094039D02*
X0193563Y0094039D01*
X0192765Y0094838D02*
X0185404Y0094838D01*
X0186022Y0095636D02*
X0191966Y0095636D01*
X0191168Y0096435D02*
X0186404Y0096435D01*
X0186404Y0097233D02*
X0190369Y0097233D01*
X0189571Y0098032D02*
X0186404Y0098032D01*
X0186404Y0098830D02*
X0188772Y0098830D01*
X0187974Y0099629D02*
X0186404Y0099629D01*
X0185968Y0100427D02*
X0187175Y0100427D01*
X0175870Y0101226D02*
X0075139Y0101226D01*
X0074341Y0100427D02*
X0175641Y0100427D01*
X0175204Y0099629D02*
X0073542Y0099629D01*
X0072744Y0098830D02*
X0175204Y0098830D01*
X0175204Y0098032D02*
X0071945Y0098032D01*
X0071147Y0097233D02*
X0175204Y0097233D01*
X0175204Y0096435D02*
X0068452Y0096435D01*
X0069250Y0095636D02*
X0175587Y0095636D01*
X0174460Y0102024D02*
X0078333Y0102024D01*
X0065388Y0091013D02*
X0077682Y0078719D01*
X0132412Y0078719D01*
X0145047Y0070882D02*
X0145536Y0070882D01*
X0154481Y0077270D02*
X0168839Y0077270D01*
X0169637Y0076472D02*
X0155280Y0076472D01*
X0156078Y0075673D02*
X0170436Y0075673D01*
X0171234Y0074875D02*
X0156877Y0074875D01*
X0157675Y0074076D02*
X0172033Y0074076D01*
X0173880Y0076472D02*
X0188437Y0076472D01*
X0187639Y0077270D02*
X0173081Y0077270D01*
X0172283Y0078069D02*
X0186840Y0078069D01*
X0186042Y0078868D02*
X0171484Y0078868D01*
X0170686Y0079666D02*
X0185243Y0079666D01*
X0184445Y0080465D02*
X0169887Y0080465D01*
X0169089Y0081263D02*
X0183646Y0081263D01*
X0185493Y0083659D02*
X0203944Y0083659D01*
X0203145Y0084457D02*
X0184695Y0084457D01*
X0186292Y0082860D02*
X0204742Y0082860D01*
X0205541Y0082062D02*
X0187090Y0082062D01*
X0187889Y0081263D02*
X0206339Y0081263D01*
X0207138Y0080465D02*
X0188687Y0080465D01*
X0189486Y0079666D02*
X0207936Y0079666D01*
X0208735Y0078868D02*
X0190284Y0078868D01*
X0191083Y0078069D02*
X0209533Y0078069D01*
X0210332Y0077270D02*
X0191881Y0077270D01*
X0192680Y0076472D02*
X0211130Y0076472D01*
X0211929Y0075673D02*
X0193478Y0075673D01*
X0194277Y0074875D02*
X0212727Y0074875D01*
X0213526Y0074076D02*
X0195075Y0074076D01*
X0195874Y0073278D02*
X0214324Y0073278D01*
X0215123Y0072479D02*
X0196672Y0072479D01*
X0190833Y0074076D02*
X0176275Y0074076D01*
X0175477Y0074875D02*
X0190034Y0074875D01*
X0189236Y0075673D02*
X0174678Y0075673D01*
X0168040Y0078069D02*
X0153683Y0078069D01*
X0152884Y0078868D02*
X0167242Y0078868D01*
X0166443Y0079666D02*
X0152086Y0079666D01*
X0163547Y0070882D02*
X0164217Y0070882D01*
X0169836Y0067688D02*
X0171616Y0067688D01*
X0171616Y0066890D02*
X0169836Y0066890D01*
X0169836Y0066091D02*
X0171616Y0066091D01*
X0173576Y0062099D02*
X0177220Y0062099D01*
X0177220Y0061300D02*
X0173576Y0061300D01*
X0173576Y0060502D02*
X0177220Y0060502D01*
X0177728Y0059703D02*
X0173576Y0059703D01*
X0185620Y0068161D02*
X0185686Y0068095D01*
X0155710Y0056509D02*
X0154499Y0056509D01*
X0154954Y0055711D02*
X0155254Y0055711D01*
X0155254Y0054912D02*
X0154954Y0054912D01*
X0154954Y0054114D02*
X0155254Y0054114D01*
X0155254Y0053315D02*
X0154954Y0053315D01*
X0154954Y0052517D02*
X0155254Y0052517D01*
X0155692Y0051718D02*
X0154517Y0051718D01*
X0156432Y0050920D02*
X0151182Y0050920D01*
X0150384Y0050121D02*
X0155965Y0050121D01*
X0155965Y0049323D02*
X0149585Y0049323D01*
X0148787Y0048524D02*
X0155988Y0048524D01*
X0156787Y0047726D02*
X0147988Y0047726D01*
X0143965Y0041337D02*
X0010765Y0041337D01*
X0010765Y0040539D02*
X0143965Y0040539D01*
X0143965Y0039740D02*
X0010765Y0039740D01*
X0010765Y0038942D02*
X0143965Y0038942D01*
X0143965Y0038143D02*
X0010765Y0038143D01*
X0010765Y0037345D02*
X0143965Y0037345D01*
X0143965Y0036546D02*
X0010765Y0036546D01*
X0010765Y0035748D02*
X0143965Y0035748D01*
X0143965Y0034949D02*
X0010765Y0034949D01*
X0010765Y0034151D02*
X0143965Y0034151D01*
X0143965Y0033352D02*
X0010765Y0033352D01*
X0010765Y0032554D02*
X0143965Y0032554D01*
X0143965Y0031755D02*
X0010765Y0031755D01*
X0010765Y0030957D02*
X0143965Y0030957D01*
X0143965Y0030158D02*
X0010765Y0030158D01*
X0010765Y0029360D02*
X0143965Y0029360D01*
X0143965Y0028561D02*
X0010765Y0028561D01*
X0010765Y0027763D02*
X0143965Y0027763D01*
X0143965Y0026964D02*
X0010765Y0026964D01*
X0010765Y0026166D02*
X0143965Y0026166D01*
X0143965Y0025367D02*
X0010765Y0025367D01*
X0010765Y0024569D02*
X0143965Y0024569D01*
X0143965Y0023770D02*
X0010765Y0023770D01*
X0010765Y0022972D02*
X0143965Y0022972D01*
X0143965Y0022173D02*
X0010765Y0022173D01*
X0034408Y0050920D02*
X0056265Y0050920D01*
X0056265Y0051718D02*
X0033610Y0051718D01*
X0032811Y0052517D02*
X0056265Y0052517D01*
X0056265Y0053315D02*
X0032013Y0053315D01*
X0031214Y0054114D02*
X0056265Y0054114D01*
X0056265Y0054912D02*
X0030416Y0054912D01*
X0029617Y0055711D02*
X0056265Y0055711D01*
X0056265Y0056509D02*
X0028819Y0056509D01*
X0028165Y0057308D02*
X0056265Y0057308D01*
X0056265Y0058106D02*
X0028165Y0058106D01*
X0028165Y0058905D02*
X0056265Y0058905D01*
X0056265Y0059703D02*
X0028165Y0059703D01*
X0028165Y0060502D02*
X0056265Y0060502D01*
X0056265Y0061300D02*
X0028165Y0061300D01*
X0028165Y0062099D02*
X0056265Y0062099D01*
X0056265Y0062897D02*
X0028165Y0062897D01*
X0028165Y0063696D02*
X0056265Y0063696D01*
X0056265Y0064494D02*
X0028165Y0064494D01*
X0028165Y0065293D02*
X0056265Y0065293D01*
X0056265Y0066091D02*
X0028165Y0066091D01*
X0028165Y0066890D02*
X0055913Y0066890D01*
X0055114Y0067688D02*
X0028165Y0067688D01*
X0028165Y0068487D02*
X0054315Y0068487D01*
X0053517Y0069285D02*
X0028165Y0069285D01*
X0028165Y0070084D02*
X0043580Y0070084D01*
X0043382Y0070882D02*
X0028165Y0070882D01*
X0028165Y0071681D02*
X0043382Y0071681D01*
X0043382Y0072479D02*
X0028165Y0072479D01*
X0028165Y0073278D02*
X0043382Y0073278D01*
X0043382Y0074076D02*
X0028165Y0074076D01*
X0028165Y0074875D02*
X0043382Y0074875D01*
X0043382Y0075673D02*
X0028165Y0075673D01*
X0028165Y0076472D02*
X0043382Y0076472D01*
X0043382Y0077270D02*
X0028165Y0077270D01*
X0028165Y0078069D02*
X0043382Y0078069D01*
X0043382Y0078868D02*
X0028165Y0078868D01*
X0028165Y0079666D02*
X0043382Y0079666D01*
X0043382Y0080465D02*
X0028165Y0080465D01*
X0028165Y0081263D02*
X0043382Y0081263D01*
X0043382Y0082062D02*
X0028165Y0082062D01*
X0028165Y0082860D02*
X0043382Y0082860D01*
X0043382Y0083659D02*
X0028165Y0083659D01*
X0028165Y0084457D02*
X0043382Y0084457D01*
X0051882Y0082860D02*
X0065056Y0082860D01*
X0065854Y0082062D02*
X0051882Y0082062D01*
X0051882Y0081263D02*
X0066653Y0081263D01*
X0067451Y0080465D02*
X0055963Y0080465D01*
X0056762Y0079666D02*
X0068250Y0079666D01*
X0069048Y0078868D02*
X0057560Y0078868D01*
X0058359Y0078069D02*
X0069847Y0078069D01*
X0070645Y0077270D02*
X0059157Y0077270D01*
X0059956Y0076472D02*
X0071444Y0076472D01*
X0072242Y0075673D02*
X0060754Y0075673D01*
X0061553Y0074875D02*
X0073041Y0074875D01*
X0073839Y0074076D02*
X0062351Y0074076D01*
X0063150Y0073278D02*
X0074638Y0073278D01*
X0077830Y0072479D02*
X0063948Y0072479D01*
X0064747Y0071681D02*
X0078628Y0071681D01*
X0079427Y0070882D02*
X0065545Y0070882D01*
X0066344Y0070084D02*
X0080225Y0070084D01*
X0081024Y0069285D02*
X0067142Y0069285D01*
X0067941Y0068487D02*
X0081420Y0068487D01*
X0081420Y0067688D02*
X0068739Y0067688D01*
X0068921Y0066890D02*
X0081420Y0066890D01*
X0084270Y0068161D02*
X0090051Y0068161D01*
X0090086Y0068195D01*
X0092936Y0068487D02*
X0094716Y0068487D01*
X0094716Y0069285D02*
X0092936Y0069285D01*
X0092936Y0070084D02*
X0094716Y0070084D01*
X0094716Y0070882D02*
X0092936Y0070882D01*
X0092936Y0067688D02*
X0094716Y0067688D01*
X0094716Y0066890D02*
X0092936Y0066890D01*
X0092936Y0066091D02*
X0094716Y0066091D01*
X0090976Y0062099D02*
X0087642Y0062099D01*
X0087120Y0061300D02*
X0090976Y0061300D01*
X0090976Y0060502D02*
X0087120Y0060502D01*
X0086612Y0059703D02*
X0090976Y0059703D01*
X0102199Y0056509D02*
X0112210Y0056509D01*
X0111754Y0055711D02*
X0111707Y0055711D01*
X0108823Y0055711D02*
X0102654Y0055711D01*
X0102654Y0054912D02*
X0108025Y0054912D01*
X0107965Y0054114D02*
X0102654Y0054114D01*
X0102857Y0053315D02*
X0107965Y0053315D01*
X0108396Y0052517D02*
X0103655Y0052517D01*
X0104454Y0051718D02*
X0109194Y0051718D01*
X0111336Y0051718D02*
X0112192Y0051718D01*
X0117017Y0051718D02*
X0118192Y0051718D01*
X0117754Y0052517D02*
X0117454Y0052517D01*
X0117454Y0053315D02*
X0117754Y0053315D01*
X0117754Y0054114D02*
X0117454Y0054114D01*
X0117454Y0054912D02*
X0117754Y0054912D01*
X0117754Y0055711D02*
X0117454Y0055711D01*
X0116999Y0056509D02*
X0118210Y0056509D01*
X0117294Y0057308D02*
X0130858Y0057308D01*
X0130676Y0058106D02*
X0117476Y0058106D01*
X0117476Y0058905D02*
X0130676Y0058905D01*
X0130676Y0059703D02*
X0126412Y0059703D01*
X0126920Y0060502D02*
X0130676Y0060502D01*
X0130676Y0061300D02*
X0126920Y0061300D01*
X0126920Y0062099D02*
X0130676Y0062099D01*
X0131110Y0056509D02*
X0122999Y0056509D01*
X0123454Y0055711D02*
X0127623Y0055711D01*
X0126825Y0054912D02*
X0123454Y0054912D01*
X0123454Y0054114D02*
X0126765Y0054114D01*
X0126765Y0053315D02*
X0123454Y0053315D01*
X0123454Y0052517D02*
X0127196Y0052517D01*
X0127994Y0051718D02*
X0123017Y0051718D01*
X0130136Y0051718D02*
X0131092Y0051718D01*
X0130654Y0055711D02*
X0130507Y0055711D01*
X0135899Y0056509D02*
X0137110Y0056509D01*
X0136654Y0055711D02*
X0136354Y0055711D01*
X0136354Y0054912D02*
X0136654Y0054912D01*
X0136654Y0054114D02*
X0136354Y0054114D01*
X0136354Y0053315D02*
X0136654Y0053315D01*
X0136654Y0052517D02*
X0136354Y0052517D01*
X0135917Y0051718D02*
X0137092Y0051718D01*
X0137987Y0047726D02*
X0069895Y0047726D01*
X0069654Y0048524D02*
X0103122Y0048524D01*
X0102324Y0049323D02*
X0070276Y0049323D01*
X0070276Y0050121D02*
X0101525Y0050121D01*
X0117476Y0059703D02*
X0121728Y0059703D01*
X0121220Y0060502D02*
X0117476Y0060502D01*
X0117476Y0061300D02*
X0121220Y0061300D01*
X0121220Y0062099D02*
X0117476Y0062099D01*
X0129751Y0068161D02*
X0129786Y0068195D01*
X0145820Y0062099D02*
X0149276Y0062099D01*
X0149276Y0061300D02*
X0145820Y0061300D01*
X0145820Y0060502D02*
X0149276Y0060502D01*
X0149276Y0059703D02*
X0145312Y0059703D01*
X0108036Y0070882D02*
X0107547Y0070882D01*
X0087236Y0070882D02*
X0086347Y0070882D01*
X0087120Y0070084D02*
X0087236Y0070084D01*
X0067426Y0062395D02*
X0067321Y0062500D01*
X0062865Y0061356D02*
X0062865Y0064835D01*
X0062255Y0059703D02*
X0061865Y0059703D01*
X0061865Y0058905D02*
X0063054Y0058905D01*
X0063852Y0058106D02*
X0061865Y0058106D01*
X0061865Y0057308D02*
X0064576Y0057308D01*
X0064576Y0056509D02*
X0061865Y0056509D01*
X0061865Y0055711D02*
X0064576Y0055711D01*
X0064576Y0054912D02*
X0061865Y0054912D01*
X0061865Y0054114D02*
X0065308Y0054114D01*
X0064846Y0053315D02*
X0062137Y0053315D01*
X0059495Y0050920D02*
X0059465Y0050920D01*
X0059465Y0050121D02*
X0059495Y0050121D01*
X0059465Y0049323D02*
X0059752Y0049323D01*
X0059465Y0048524D02*
X0065198Y0048524D01*
X0064957Y0047726D02*
X0064461Y0047726D01*
X0059879Y0047726D02*
X0059465Y0047726D01*
X0067421Y0056800D02*
X0067426Y0056795D01*
X0052718Y0070084D02*
X0051684Y0070084D01*
X0051882Y0070882D02*
X0051920Y0070882D01*
X0078832Y0086054D02*
X0201548Y0086054D01*
X0200750Y0086853D02*
X0078034Y0086853D01*
X0077235Y0087651D02*
X0199951Y0087651D01*
X0199153Y0088450D02*
X0076437Y0088450D01*
X0079631Y0085256D02*
X0202347Y0085256D01*
X0219365Y0064494D02*
X0316389Y0064494D01*
X0316389Y0063696D02*
X0219365Y0063696D01*
X0219365Y0062897D02*
X0316389Y0062897D01*
X0316389Y0062099D02*
X0219365Y0062099D01*
X0219365Y0061300D02*
X0316389Y0061300D01*
X0316389Y0060502D02*
X0219365Y0060502D01*
X0219365Y0059703D02*
X0316389Y0059703D01*
X0316389Y0058905D02*
X0219365Y0058905D01*
X0219365Y0058106D02*
X0316389Y0058106D01*
X0316389Y0057308D02*
X0219365Y0057308D01*
X0218637Y0056509D02*
X0316389Y0056509D01*
X0316389Y0055711D02*
X0217839Y0055711D01*
X0217054Y0054912D02*
X0316389Y0054912D01*
X0316389Y0054114D02*
X0217054Y0054114D01*
X0217054Y0053315D02*
X0316389Y0053315D01*
X0316389Y0052517D02*
X0217054Y0052517D01*
X0216617Y0051718D02*
X0316389Y0051718D01*
X0316389Y0050920D02*
X0216098Y0050920D01*
X0216565Y0050121D02*
X0316389Y0050121D01*
X0316389Y0049323D02*
X0216565Y0049323D01*
X0216542Y0048524D02*
X0316389Y0048524D01*
X0316389Y0047726D02*
X0215743Y0047726D01*
X0143965Y0021375D02*
X0131109Y0021375D01*
X0131907Y0020576D02*
X0143965Y0020576D01*
X0143965Y0019778D02*
X0132706Y0019778D01*
X0133504Y0018979D02*
X0143965Y0018979D01*
X0143965Y0018181D02*
X0134303Y0018181D01*
X0135101Y0017382D02*
X0143965Y0017382D01*
X0141215Y0016584D02*
X0135900Y0016584D01*
X0136698Y0015785D02*
X0141215Y0015785D01*
X0141215Y0014987D02*
X0137497Y0014987D01*
X0138295Y0014188D02*
X0141215Y0014188D01*
X0141215Y0013390D02*
X0139094Y0013390D01*
X0139892Y0012591D02*
X0141215Y0012591D01*
X0141215Y0011793D02*
X0140691Y0011793D01*
X0065388Y0091013D02*
X0047632Y0091013D01*
X0099191Y0107614D02*
X0169124Y0107614D01*
D25*
X0171670Y0105361D02*
X0171170Y0104861D01*
X0098126Y0104861D01*
X0093826Y0109161D01*
X0093826Y0105500D01*
X0094465Y0104861D01*
X0089526Y0104861D01*
X0076370Y0104861D01*
X0089526Y0104861D02*
X0093826Y0109161D01*
X0093826Y0137390D01*
X0100999Y0137390D01*
X0103370Y0139761D01*
X0098126Y0104861D02*
X0094465Y0104861D01*
X0171670Y0105361D02*
X0176930Y0105361D01*
X0177470Y0104820D01*
X0185404Y0108626D02*
X0185470Y0108561D01*
X0185404Y0108626D02*
X0185404Y0118205D01*
X0185404Y0171309D01*
X0185565Y0171469D01*
D26*
X0086565Y0104961D03*
X0086565Y0064400D03*
D27*
X0070396Y0098887D02*
X0047632Y0098887D01*
X0047632Y0100855D02*
X0072364Y0100855D01*
X0070396Y0098887D01*
X0072364Y0100855D02*
X0076370Y0104861D01*
X0086565Y0104961D02*
X0089426Y0104961D01*
X0089526Y0104861D01*
D28*
X0083049Y0136339D02*
X0076260Y0136339D01*
X0060270Y0136361D02*
X0053370Y0136361D01*
D29*
X0060291Y0149339D02*
X0068360Y0149339D01*
X0070226Y0151205D01*
X0070226Y0156595D01*
X0076226Y0156595D02*
X0076260Y0156561D01*
X0076260Y0149339D01*
X0092687Y0149339D01*
X0093826Y0148201D01*
X0060291Y0149339D02*
X0060270Y0149361D01*
M02*
