%
M48
M72
T01C0.01200
T02C0.01378
T03C0.03500
%
T01
X37665Y38546
X43565Y38746
X54065Y48246
X69265Y56246
X62665Y60846
X53965Y64946
X76965Y51946
X79465Y40046
X79465Y29946
X98065Y44846
X106865Y38646
X110565Y44846
X127265Y38746
X128865Y44846
X133465Y56746
X129465Y59446
X142965Y61646
X147465Y57746
X160665Y62646
X165465Y58246
X178065Y64346
X183565Y59846
X193065Y66246
X197665Y61346
X202365Y58146
X201765Y38946
X195465Y34146
X188565Y30246
X176765Y34146
X170365Y31246
X163965Y38746
X158265Y34146
X145565Y38946
X139465Y34146
X129765Y23046
X119965Y24046
X109365Y24446
X149665Y21846
X155465Y21746
X182865Y39046
X206065Y29546
X214265Y34146
X230665Y57046
X230865Y64646
X230865Y73546
X145565Y84346
X119765Y78546
X109965Y78746
X95165Y78846
X95365Y72146
X79265Y79146
X59565Y90946
X76965Y103246
X85265Y103246
X98965Y96746
X108665Y96846
X120165Y96646
X120265Y125446
X130265Y125946
X109865Y125546
X100765Y126346
X81265Y127046
X73365Y120346
X59865Y124346
X46065Y124646
X31865Y124846
X19665Y124546
X44065Y113046
X52665Y113046
X49665Y105646
X109465Y58146
X93765Y56646
T02
X86565Y49046
X86565Y89606
T03
X104601Y140761
X114601Y140761
X124601Y140761
X134601Y140761
X144601Y140761
X144601Y13000
X134601Y13000
X124601Y13000
X114601Y13000
X104601Y13000
M30
