G75*
%MOIN*%
%OFA0B0*%
%FSLAX25Y25*%
%IPPOS*%
%LPD*%
%AMOC8*
5,1,8,0,0,1.08239X$1,22.5*
%
%ADD10C,0.00600*%
%ADD11C,0.00875*%
%ADD12R,0.05500X0.05500*%
%ADD13C,0.00750*%
%ADD14R,0.06299X0.01181*%
%ADD15R,0.07677X0.06299*%
%ADD16R,0.06500X0.06500*%
%ADD17C,0.06500*%
%ADD18R,0.09843X0.03937*%
%ADD19R,0.03150X0.01969*%
%ADD20R,0.03500X0.04500*%
%ADD21R,0.04500X0.04000*%
%ADD22C,0.01000*%
%ADD23C,0.02400*%
%ADD24C,0.00800*%
%ADD25C,0.03200*%
%ADD26C,0.02578*%
%ADD27C,0.01200*%
%ADD28C,0.01500*%
D10*
X0008065Y0019400D02*
X0008065Y0134361D01*
X0088320Y0134361D01*
X0099920Y0145961D01*
X0149420Y0145961D01*
X0161020Y0134361D01*
X0241136Y0134361D01*
X0241136Y0019400D01*
X0161020Y0019400D01*
X0149420Y0007800D01*
X0099920Y0007800D01*
X0088320Y0019400D01*
X0008065Y0019400D01*
D11*
X0066113Y0031354D02*
X0068739Y0031354D01*
X0068739Y0028728D01*
X0066113Y0028728D01*
X0066113Y0031354D01*
X0066113Y0029602D02*
X0068739Y0029602D01*
X0068739Y0030476D02*
X0066113Y0030476D01*
X0066113Y0031350D02*
X0068739Y0031350D01*
X0072113Y0031354D02*
X0074739Y0031354D01*
X0074739Y0028728D01*
X0072113Y0028728D01*
X0072113Y0031354D01*
X0072113Y0029602D02*
X0074739Y0029602D01*
X0074739Y0030476D02*
X0072113Y0030476D01*
X0072113Y0031350D02*
X0074739Y0031350D01*
X0074739Y0037054D02*
X0072113Y0037054D01*
X0074739Y0037054D02*
X0074739Y0034428D01*
X0072113Y0034428D01*
X0072113Y0037054D01*
X0072113Y0035302D02*
X0074739Y0035302D01*
X0074739Y0036176D02*
X0072113Y0036176D01*
X0072113Y0037050D02*
X0074739Y0037050D01*
X0074739Y0042754D02*
X0072113Y0042754D01*
X0074739Y0042754D02*
X0074739Y0040128D01*
X0072113Y0040128D01*
X0072113Y0042754D01*
X0072113Y0041002D02*
X0074739Y0041002D01*
X0074739Y0041876D02*
X0072113Y0041876D01*
X0072113Y0042750D02*
X0074739Y0042750D01*
X0074739Y0048354D02*
X0072113Y0048354D01*
X0074739Y0048354D02*
X0074739Y0045728D01*
X0072113Y0045728D01*
X0072113Y0048354D01*
X0072113Y0046602D02*
X0074739Y0046602D01*
X0074739Y0047476D02*
X0072113Y0047476D01*
X0072113Y0048350D02*
X0074739Y0048350D01*
X0068739Y0048354D02*
X0066113Y0048354D01*
X0068739Y0048354D02*
X0068739Y0045728D01*
X0066113Y0045728D01*
X0066113Y0048354D01*
X0066113Y0046602D02*
X0068739Y0046602D01*
X0068739Y0047476D02*
X0066113Y0047476D01*
X0066113Y0048350D02*
X0068739Y0048350D01*
X0068739Y0042754D02*
X0066113Y0042754D01*
X0068739Y0042754D02*
X0068739Y0040128D01*
X0066113Y0040128D01*
X0066113Y0042754D01*
X0066113Y0041002D02*
X0068739Y0041002D01*
X0068739Y0041876D02*
X0066113Y0041876D01*
X0066113Y0042750D02*
X0068739Y0042750D01*
X0068739Y0037054D02*
X0066113Y0037054D01*
X0068739Y0037054D02*
X0068739Y0034428D01*
X0066113Y0034428D01*
X0066113Y0037054D01*
X0066113Y0035302D02*
X0068739Y0035302D01*
X0068739Y0036176D02*
X0066113Y0036176D01*
X0066113Y0037050D02*
X0068739Y0037050D01*
X0082957Y0045493D02*
X0082957Y0048119D01*
X0085583Y0048119D01*
X0085583Y0045493D01*
X0082957Y0045493D01*
X0082957Y0046367D02*
X0085583Y0046367D01*
X0085583Y0047241D02*
X0082957Y0047241D01*
X0082957Y0048115D02*
X0085583Y0048115D01*
X0082957Y0051493D02*
X0082957Y0054119D01*
X0085583Y0054119D01*
X0085583Y0051493D01*
X0082957Y0051493D01*
X0082957Y0052367D02*
X0085583Y0052367D01*
X0085583Y0053241D02*
X0082957Y0053241D01*
X0082957Y0054115D02*
X0085583Y0054115D01*
X0104157Y0054119D02*
X0104157Y0051493D01*
X0104157Y0054119D02*
X0106783Y0054119D01*
X0106783Y0051493D01*
X0104157Y0051493D01*
X0104157Y0052367D02*
X0106783Y0052367D01*
X0106783Y0053241D02*
X0104157Y0053241D01*
X0104157Y0054115D02*
X0106783Y0054115D01*
X0104157Y0048119D02*
X0104157Y0045493D01*
X0104157Y0048119D02*
X0106783Y0048119D01*
X0106783Y0045493D01*
X0104157Y0045493D01*
X0104157Y0046367D02*
X0106783Y0046367D01*
X0106783Y0047241D02*
X0104157Y0047241D01*
X0104157Y0048115D02*
X0106783Y0048115D01*
X0101117Y0037437D02*
X0098491Y0037437D01*
X0098491Y0040063D01*
X0101117Y0040063D01*
X0101117Y0037437D01*
X0101117Y0038311D02*
X0098491Y0038311D01*
X0098491Y0039185D02*
X0101117Y0039185D01*
X0101117Y0040059D02*
X0098491Y0040059D01*
X0095117Y0037437D02*
X0092491Y0037437D01*
X0092491Y0040063D01*
X0095117Y0040063D01*
X0095117Y0037437D01*
X0095117Y0038311D02*
X0092491Y0038311D01*
X0092491Y0039185D02*
X0095117Y0039185D01*
X0095117Y0040059D02*
X0092491Y0040059D01*
X0113291Y0037437D02*
X0115917Y0037437D01*
X0113291Y0037437D02*
X0113291Y0040063D01*
X0115917Y0040063D01*
X0115917Y0037437D01*
X0115917Y0038311D02*
X0113291Y0038311D01*
X0113291Y0039185D02*
X0115917Y0039185D01*
X0115917Y0040059D02*
X0113291Y0040059D01*
X0119291Y0037437D02*
X0121917Y0037437D01*
X0119291Y0037437D02*
X0119291Y0040063D01*
X0121917Y0040063D01*
X0121917Y0037437D01*
X0121917Y0038311D02*
X0119291Y0038311D01*
X0119291Y0039185D02*
X0121917Y0039185D01*
X0121917Y0040059D02*
X0119291Y0040059D01*
X0122757Y0045493D02*
X0122757Y0048119D01*
X0125383Y0048119D01*
X0125383Y0045493D01*
X0122757Y0045493D01*
X0122757Y0046367D02*
X0125383Y0046367D01*
X0125383Y0047241D02*
X0122757Y0047241D01*
X0122757Y0048115D02*
X0125383Y0048115D01*
X0122757Y0051493D02*
X0122757Y0054119D01*
X0125383Y0054119D01*
X0125383Y0051493D01*
X0122757Y0051493D01*
X0122757Y0052367D02*
X0125383Y0052367D01*
X0125383Y0053241D02*
X0122757Y0053241D01*
X0122757Y0054115D02*
X0125383Y0054115D01*
X0141657Y0054119D02*
X0141657Y0051493D01*
X0141657Y0054119D02*
X0144283Y0054119D01*
X0144283Y0051493D01*
X0141657Y0051493D01*
X0141657Y0052367D02*
X0144283Y0052367D01*
X0144283Y0053241D02*
X0141657Y0053241D01*
X0141657Y0054115D02*
X0144283Y0054115D01*
X0141657Y0048119D02*
X0141657Y0045493D01*
X0141657Y0048119D02*
X0144283Y0048119D01*
X0144283Y0045493D01*
X0141657Y0045493D01*
X0141657Y0046367D02*
X0144283Y0046367D01*
X0144283Y0047241D02*
X0141657Y0047241D01*
X0141657Y0048115D02*
X0144283Y0048115D01*
X0140817Y0037437D02*
X0138191Y0037437D01*
X0138191Y0040063D01*
X0140817Y0040063D01*
X0140817Y0037437D01*
X0140817Y0038311D02*
X0138191Y0038311D01*
X0138191Y0039185D02*
X0140817Y0039185D01*
X0140817Y0040059D02*
X0138191Y0040059D01*
X0134817Y0037437D02*
X0132191Y0037437D01*
X0132191Y0040063D01*
X0134817Y0040063D01*
X0134817Y0037437D01*
X0134817Y0038311D02*
X0132191Y0038311D01*
X0132191Y0039185D02*
X0134817Y0039185D01*
X0134817Y0040059D02*
X0132191Y0040059D01*
X0150791Y0037437D02*
X0153417Y0037437D01*
X0150791Y0037437D02*
X0150791Y0040063D01*
X0153417Y0040063D01*
X0153417Y0037437D01*
X0153417Y0038311D02*
X0150791Y0038311D01*
X0150791Y0039185D02*
X0153417Y0039185D01*
X0153417Y0040059D02*
X0150791Y0040059D01*
X0156791Y0037437D02*
X0159417Y0037437D01*
X0156791Y0037437D02*
X0156791Y0040063D01*
X0159417Y0040063D01*
X0159417Y0037437D01*
X0159417Y0038311D02*
X0156791Y0038311D01*
X0156791Y0039185D02*
X0159417Y0039185D01*
X0159417Y0040059D02*
X0156791Y0040059D01*
X0160157Y0045493D02*
X0160157Y0048119D01*
X0162783Y0048119D01*
X0162783Y0045493D01*
X0160157Y0045493D01*
X0160157Y0046367D02*
X0162783Y0046367D01*
X0162783Y0047241D02*
X0160157Y0047241D01*
X0160157Y0048115D02*
X0162783Y0048115D01*
X0160157Y0051493D02*
X0160157Y0054119D01*
X0162783Y0054119D01*
X0162783Y0051493D01*
X0160157Y0051493D01*
X0160157Y0052367D02*
X0162783Y0052367D01*
X0162783Y0053241D02*
X0160157Y0053241D01*
X0160157Y0054115D02*
X0162783Y0054115D01*
X0178757Y0054119D02*
X0178757Y0051493D01*
X0178757Y0054119D02*
X0181383Y0054119D01*
X0181383Y0051493D01*
X0178757Y0051493D01*
X0178757Y0052367D02*
X0181383Y0052367D01*
X0181383Y0053241D02*
X0178757Y0053241D01*
X0178757Y0054115D02*
X0181383Y0054115D01*
X0178757Y0048119D02*
X0178757Y0045493D01*
X0178757Y0048119D02*
X0181383Y0048119D01*
X0181383Y0045493D01*
X0178757Y0045493D01*
X0178757Y0046367D02*
X0181383Y0046367D01*
X0181383Y0047241D02*
X0178757Y0047241D01*
X0178757Y0048115D02*
X0181383Y0048115D01*
X0178017Y0037437D02*
X0175391Y0037437D01*
X0175391Y0040063D01*
X0178017Y0040063D01*
X0178017Y0037437D01*
X0178017Y0038311D02*
X0175391Y0038311D01*
X0175391Y0039185D02*
X0178017Y0039185D01*
X0178017Y0040059D02*
X0175391Y0040059D01*
X0172017Y0037437D02*
X0169391Y0037437D01*
X0169391Y0040063D01*
X0172017Y0040063D01*
X0172017Y0037437D01*
X0172017Y0038311D02*
X0169391Y0038311D01*
X0169391Y0039185D02*
X0172017Y0039185D01*
X0172017Y0040059D02*
X0169391Y0040059D01*
X0188091Y0037437D02*
X0190717Y0037437D01*
X0188091Y0037437D02*
X0188091Y0040063D01*
X0190717Y0040063D01*
X0190717Y0037437D01*
X0190717Y0038311D02*
X0188091Y0038311D01*
X0188091Y0039185D02*
X0190717Y0039185D01*
X0190717Y0040059D02*
X0188091Y0040059D01*
X0194091Y0037437D02*
X0196717Y0037437D01*
X0194091Y0037437D02*
X0194091Y0040063D01*
X0196717Y0040063D01*
X0196717Y0037437D01*
X0196717Y0038311D02*
X0194091Y0038311D01*
X0194091Y0039185D02*
X0196717Y0039185D01*
X0196717Y0040059D02*
X0194091Y0040059D01*
X0197557Y0045493D02*
X0197557Y0048119D01*
X0200183Y0048119D01*
X0200183Y0045493D01*
X0197557Y0045493D01*
X0197557Y0046367D02*
X0200183Y0046367D01*
X0200183Y0047241D02*
X0197557Y0047241D01*
X0197557Y0048115D02*
X0200183Y0048115D01*
X0197557Y0051493D02*
X0197557Y0054119D01*
X0200183Y0054119D01*
X0200183Y0051493D01*
X0197557Y0051493D01*
X0197557Y0052367D02*
X0200183Y0052367D01*
X0200183Y0053241D02*
X0197557Y0053241D01*
X0197557Y0054115D02*
X0200183Y0054115D01*
X0206891Y0037437D02*
X0209517Y0037437D01*
X0206891Y0037437D02*
X0206891Y0040063D01*
X0209517Y0040063D01*
X0209517Y0037437D01*
X0209517Y0038311D02*
X0206891Y0038311D01*
X0206891Y0039185D02*
X0209517Y0039185D01*
X0209517Y0040059D02*
X0206891Y0040059D01*
X0212891Y0037437D02*
X0215517Y0037437D01*
X0212891Y0037437D02*
X0212891Y0040063D01*
X0215517Y0040063D01*
X0215517Y0037437D01*
X0215517Y0038311D02*
X0212891Y0038311D01*
X0212891Y0039185D02*
X0215517Y0039185D01*
X0215517Y0040059D02*
X0212891Y0040059D01*
X0129057Y0075793D02*
X0129057Y0078419D01*
X0131683Y0078419D01*
X0131683Y0075793D01*
X0129057Y0075793D01*
X0129057Y0076667D02*
X0131683Y0076667D01*
X0131683Y0077541D02*
X0129057Y0077541D01*
X0129057Y0078415D02*
X0131683Y0078415D01*
X0129057Y0081793D02*
X0129057Y0084419D01*
X0131683Y0084419D01*
X0131683Y0081793D01*
X0129057Y0081793D01*
X0129057Y0082667D02*
X0131683Y0082667D01*
X0131683Y0083541D02*
X0129057Y0083541D01*
X0129057Y0084415D02*
X0131683Y0084415D01*
X0129157Y0088593D02*
X0129157Y0091219D01*
X0131783Y0091219D01*
X0131783Y0088593D01*
X0129157Y0088593D01*
X0129157Y0089467D02*
X0131783Y0089467D01*
X0131783Y0090341D02*
X0129157Y0090341D01*
X0129157Y0091215D02*
X0131783Y0091215D01*
X0129157Y0094593D02*
X0129157Y0097219D01*
X0131783Y0097219D01*
X0131783Y0094593D01*
X0129157Y0094593D01*
X0129157Y0095467D02*
X0131783Y0095467D01*
X0131783Y0096341D02*
X0129157Y0096341D01*
X0129157Y0097215D02*
X0131783Y0097215D01*
X0136891Y0101437D02*
X0139517Y0101437D01*
X0136891Y0101437D02*
X0136891Y0104063D01*
X0139517Y0104063D01*
X0139517Y0101437D01*
X0139517Y0102311D02*
X0136891Y0102311D01*
X0136891Y0103185D02*
X0139517Y0103185D01*
X0139517Y0104059D02*
X0136891Y0104059D01*
X0142891Y0101437D02*
X0145517Y0101437D01*
X0142891Y0101437D02*
X0142891Y0104063D01*
X0145517Y0104063D01*
X0145517Y0101437D01*
X0145517Y0102311D02*
X0142891Y0102311D01*
X0142891Y0103185D02*
X0145517Y0103185D01*
X0145517Y0104059D02*
X0142891Y0104059D01*
X0122157Y0105093D02*
X0122157Y0107719D01*
X0124783Y0107719D01*
X0124783Y0105093D01*
X0122157Y0105093D01*
X0122157Y0105967D02*
X0124783Y0105967D01*
X0124783Y0106841D02*
X0122157Y0106841D01*
X0122157Y0107715D02*
X0124783Y0107715D01*
X0122157Y0111093D02*
X0122157Y0113719D01*
X0124783Y0113719D01*
X0124783Y0111093D01*
X0122157Y0111093D01*
X0122157Y0111967D02*
X0124783Y0111967D01*
X0124783Y0112841D02*
X0122157Y0112841D01*
X0122157Y0113715D02*
X0124783Y0113715D01*
X0102557Y0113193D02*
X0102557Y0115819D01*
X0105183Y0115819D01*
X0105183Y0113193D01*
X0102557Y0113193D01*
X0102557Y0114067D02*
X0105183Y0114067D01*
X0105183Y0114941D02*
X0102557Y0114941D01*
X0102557Y0115815D02*
X0105183Y0115815D01*
X0102557Y0109819D02*
X0102557Y0107193D01*
X0102557Y0109819D02*
X0105183Y0109819D01*
X0105183Y0107193D01*
X0102557Y0107193D01*
X0102557Y0108067D02*
X0105183Y0108067D01*
X0105183Y0108941D02*
X0102557Y0108941D01*
X0102557Y0109815D02*
X0105183Y0109815D01*
X0097139Y0128854D02*
X0094513Y0128854D01*
X0097139Y0128854D02*
X0097139Y0126228D01*
X0094513Y0126228D01*
X0094513Y0128854D01*
X0094513Y0127102D02*
X0097139Y0127102D01*
X0097139Y0127976D02*
X0094513Y0127976D01*
X0094513Y0128850D02*
X0097139Y0128850D01*
X0091139Y0128854D02*
X0088513Y0128854D01*
X0091139Y0128854D02*
X0091139Y0126228D01*
X0088513Y0126228D01*
X0088513Y0128854D01*
X0088513Y0127102D02*
X0091139Y0127102D01*
X0091139Y0127976D02*
X0088513Y0127976D01*
X0088513Y0128850D02*
X0091139Y0128850D01*
X0072857Y0115819D02*
X0072857Y0113193D01*
X0072857Y0115819D02*
X0075483Y0115819D01*
X0075483Y0113193D01*
X0072857Y0113193D01*
X0072857Y0114067D02*
X0075483Y0114067D01*
X0075483Y0114941D02*
X0072857Y0114941D01*
X0072857Y0115815D02*
X0075483Y0115815D01*
X0067157Y0115819D02*
X0067157Y0113193D01*
X0067157Y0115819D02*
X0069783Y0115819D01*
X0069783Y0113193D01*
X0067157Y0113193D01*
X0067157Y0114067D02*
X0069783Y0114067D01*
X0069783Y0114941D02*
X0067157Y0114941D01*
X0067157Y0115815D02*
X0069783Y0115815D01*
X0061457Y0115819D02*
X0061457Y0113193D01*
X0061457Y0115819D02*
X0064083Y0115819D01*
X0064083Y0113193D01*
X0061457Y0113193D01*
X0061457Y0114067D02*
X0064083Y0114067D01*
X0064083Y0114941D02*
X0061457Y0114941D01*
X0061457Y0115815D02*
X0064083Y0115815D01*
X0061457Y0109819D02*
X0061457Y0107193D01*
X0061457Y0109819D02*
X0064083Y0109819D01*
X0064083Y0107193D01*
X0061457Y0107193D01*
X0061457Y0108067D02*
X0064083Y0108067D01*
X0064083Y0108941D02*
X0061457Y0108941D01*
X0061457Y0109815D02*
X0064083Y0109815D01*
X0067157Y0109819D02*
X0067157Y0107193D01*
X0067157Y0109819D02*
X0069783Y0109819D01*
X0069783Y0107193D01*
X0067157Y0107193D01*
X0067157Y0108067D02*
X0069783Y0108067D01*
X0069783Y0108941D02*
X0067157Y0108941D01*
X0067157Y0109815D02*
X0069783Y0109815D01*
X0072857Y0109819D02*
X0072857Y0107193D01*
X0072857Y0109819D02*
X0075483Y0109819D01*
X0075483Y0107193D01*
X0072857Y0107193D01*
X0072857Y0108067D02*
X0075483Y0108067D01*
X0075483Y0108941D02*
X0072857Y0108941D01*
X0072857Y0109815D02*
X0075483Y0109815D01*
X0075057Y0096819D02*
X0075057Y0094193D01*
X0075057Y0096819D02*
X0077683Y0096819D01*
X0077683Y0094193D01*
X0075057Y0094193D01*
X0075057Y0095067D02*
X0077683Y0095067D01*
X0077683Y0095941D02*
X0075057Y0095941D01*
X0075057Y0096815D02*
X0077683Y0096815D01*
X0075057Y0090819D02*
X0075057Y0088193D01*
X0075057Y0090819D02*
X0077683Y0090819D01*
X0077683Y0088193D01*
X0075057Y0088193D01*
X0075057Y0089067D02*
X0077683Y0089067D01*
X0077683Y0089941D02*
X0075057Y0089941D01*
X0075057Y0090815D02*
X0077683Y0090815D01*
X0071639Y0090954D02*
X0069013Y0090954D01*
X0071639Y0090954D02*
X0071639Y0088328D01*
X0069013Y0088328D01*
X0069013Y0090954D01*
X0069013Y0089202D02*
X0071639Y0089202D01*
X0071639Y0090076D02*
X0069013Y0090076D01*
X0069013Y0090950D02*
X0071639Y0090950D01*
X0071639Y0096654D02*
X0069013Y0096654D01*
X0071639Y0096654D02*
X0071639Y0094028D01*
X0069013Y0094028D01*
X0069013Y0096654D01*
X0069013Y0094902D02*
X0071639Y0094902D01*
X0071639Y0095776D02*
X0069013Y0095776D01*
X0069013Y0096650D02*
X0071639Y0096650D01*
X0065639Y0096654D02*
X0063013Y0096654D01*
X0065639Y0096654D02*
X0065639Y0094028D01*
X0063013Y0094028D01*
X0063013Y0096654D01*
X0063013Y0094902D02*
X0065639Y0094902D01*
X0065639Y0095776D02*
X0063013Y0095776D01*
X0063013Y0096650D02*
X0065639Y0096650D01*
X0065639Y0090954D02*
X0063013Y0090954D01*
X0065639Y0090954D02*
X0065639Y0088328D01*
X0063013Y0088328D01*
X0063013Y0090954D01*
X0063013Y0089202D02*
X0065639Y0089202D01*
X0065639Y0090076D02*
X0063013Y0090076D01*
X0063013Y0090950D02*
X0065639Y0090950D01*
D12*
X0081070Y0108506D03*
X0089160Y0108485D03*
X0097060Y0108485D03*
X0097060Y0121485D03*
X0089160Y0121485D03*
X0081070Y0121506D03*
D13*
X0135195Y0084231D02*
X0135195Y0081981D01*
X0135195Y0084231D02*
X0137945Y0084231D01*
X0137945Y0081981D01*
X0135195Y0081981D01*
X0135195Y0082730D02*
X0137945Y0082730D01*
X0137945Y0083479D02*
X0135195Y0083479D01*
X0135195Y0084228D02*
X0137945Y0084228D01*
X0135195Y0078231D02*
X0135195Y0075981D01*
X0135195Y0078231D02*
X0137945Y0078231D01*
X0137945Y0075981D01*
X0135195Y0075981D01*
X0135195Y0076730D02*
X0137945Y0076730D01*
X0137945Y0077479D02*
X0135195Y0077479D01*
X0135195Y0078228D02*
X0137945Y0078228D01*
D14*
X0047632Y0079046D03*
X0047632Y0081014D03*
X0047632Y0082983D03*
X0047632Y0084951D03*
X0047632Y0086920D03*
X0047632Y0088888D03*
X0047632Y0090857D03*
X0047632Y0092825D03*
X0047632Y0094794D03*
X0047632Y0096762D03*
X0047632Y0098731D03*
X0047632Y0077077D03*
X0047632Y0075109D03*
X0047632Y0073140D03*
X0047632Y0071172D03*
X0047632Y0069203D03*
X0047632Y0067235D03*
X0047632Y0065266D03*
X0047632Y0063298D03*
X0047632Y0061329D03*
X0047632Y0059361D03*
X0047632Y0057392D03*
X0047632Y0055424D03*
X0047632Y0053455D03*
D15*
X0034837Y0044991D03*
X0034837Y0107195D03*
D16*
X0144601Y0140761D03*
X0104601Y0013000D03*
D17*
X0114601Y0013000D03*
X0124601Y0013000D03*
X0134601Y0013000D03*
X0144601Y0013000D03*
X0134601Y0140761D03*
X0124601Y0140761D03*
X0114601Y0140761D03*
X0104601Y0140761D03*
D18*
X0113526Y0115246D03*
X0113526Y0104435D03*
D19*
X0062170Y0035665D03*
X0053508Y0033106D03*
X0062170Y0030547D03*
D20*
X0093826Y0044841D03*
X0097566Y0052841D03*
X0090086Y0052841D03*
X0110886Y0052841D03*
X0118366Y0052841D03*
X0114626Y0044841D03*
X0129786Y0052841D03*
X0137266Y0052841D03*
X0133526Y0044841D03*
X0148386Y0052841D03*
X0155866Y0052841D03*
X0166986Y0052741D03*
X0174466Y0052741D03*
X0170726Y0044741D03*
X0185686Y0052741D03*
X0193166Y0052741D03*
X0189426Y0044741D03*
X0204486Y0052741D03*
X0211966Y0052741D03*
X0208226Y0044741D03*
X0152126Y0044841D03*
D21*
X0136270Y0089366D03*
X0144270Y0093106D03*
X0136270Y0096846D03*
D22*
X0130470Y0089906D02*
X0130765Y0089611D01*
X0136904Y0083441D02*
X0136570Y0083106D01*
X0136570Y0077106D02*
X0130370Y0077106D01*
X0097060Y0103141D02*
X0093965Y0100046D01*
X0060965Y0100046D01*
X0053745Y0092825D01*
X0047632Y0092825D01*
X0047632Y0090857D02*
X0054576Y0090857D01*
X0059065Y0095346D01*
X0064321Y0095346D01*
X0064326Y0089641D02*
X0061604Y0086920D01*
X0047632Y0086920D01*
X0047632Y0094794D02*
X0044163Y0094794D01*
X0041970Y0096987D01*
X0041970Y0105550D01*
X0044921Y0108502D01*
X0062765Y0108502D01*
X0062770Y0108506D01*
X0065865Y0103846D02*
X0059065Y0103846D01*
X0053950Y0098731D01*
X0047632Y0098731D01*
X0047632Y0096762D02*
X0054782Y0096762D01*
X0060165Y0102146D01*
X0068365Y0102146D01*
X0074165Y0107946D01*
X0074165Y0108502D01*
X0074170Y0108506D01*
X0068470Y0108506D02*
X0068432Y0108469D01*
X0068432Y0106413D01*
X0065865Y0103846D01*
X0097060Y0103141D02*
X0097060Y0108485D01*
X0097065Y0108480D01*
X0103849Y0108485D02*
X0103870Y0108506D01*
X0056782Y0061329D02*
X0047632Y0061329D01*
X0047632Y0059361D02*
X0054650Y0059361D01*
X0062865Y0051146D01*
X0062865Y0046002D01*
X0067426Y0041441D01*
X0067426Y0035741D02*
X0067350Y0035665D01*
X0062170Y0035665D01*
X0060265Y0037570D01*
X0060265Y0050746D01*
X0053619Y0057392D01*
X0047632Y0057392D01*
X0047632Y0055424D02*
X0047710Y0055346D01*
X0052365Y0055346D01*
X0057865Y0049846D01*
X0057865Y0031646D01*
X0058964Y0030547D01*
X0062170Y0030547D01*
X0066919Y0030547D01*
X0067426Y0030041D01*
X0067426Y0047041D02*
X0067426Y0050685D01*
X0056782Y0061329D01*
X0084270Y0046806D02*
X0086509Y0049046D01*
X0086565Y0049046D01*
X0096565Y0049046D01*
X0097465Y0049946D01*
X0098365Y0049046D01*
X0103230Y0049046D01*
X0105470Y0046806D01*
X0105526Y0046806D01*
X0107665Y0048946D01*
X0117365Y0048946D01*
X0118365Y0049946D01*
X0119365Y0048946D01*
X0121930Y0048946D01*
X0124070Y0046806D01*
X0124226Y0046806D01*
X0126365Y0048946D01*
X0136466Y0048946D01*
X0137266Y0049746D01*
X0138066Y0048946D01*
X0140830Y0048946D01*
X0142970Y0046806D01*
X0142970Y0046850D01*
X0145065Y0048946D01*
X0154965Y0048946D01*
X0155765Y0049746D01*
X0155866Y0049746D01*
X0156065Y0049746D01*
X0156865Y0048946D01*
X0159330Y0048946D01*
X0161470Y0046806D01*
X0163609Y0048946D01*
X0173666Y0048946D01*
X0174466Y0049746D01*
X0174466Y0049645D01*
X0175165Y0048946D01*
X0177865Y0048946D01*
X0180004Y0046806D01*
X0180070Y0046806D01*
X0182209Y0048946D01*
X0192665Y0048946D01*
X0193166Y0049446D01*
X0193166Y0049445D01*
X0193665Y0048946D01*
X0196765Y0048946D01*
X0196765Y0048911D01*
X0198870Y0046806D01*
X0199026Y0046806D01*
X0201065Y0048846D01*
X0208071Y0048846D01*
X0211966Y0052741D01*
X0211966Y0053445D01*
X0208226Y0044741D02*
X0208226Y0038772D01*
X0208204Y0038750D01*
X0195400Y0025946D01*
X0140665Y0025946D01*
X0134601Y0019881D01*
X0134601Y0013000D01*
X0124601Y0013000D02*
X0124601Y0022381D01*
X0129865Y0027646D01*
X0178300Y0027646D01*
X0189404Y0038750D01*
X0189426Y0038772D01*
X0189426Y0044741D01*
X0192665Y0048946D02*
X0193165Y0048946D01*
X0193166Y0048946D01*
X0193166Y0049445D01*
X0193166Y0049446D02*
X0193166Y0052741D01*
X0193165Y0048946D02*
X0193665Y0048946D01*
X0195404Y0038750D02*
X0195465Y0038690D01*
X0195465Y0034146D01*
X0176765Y0034146D02*
X0176704Y0034206D01*
X0176704Y0038750D01*
X0170726Y0038772D02*
X0170704Y0038750D01*
X0161300Y0029346D01*
X0120065Y0029346D01*
X0114601Y0023881D01*
X0114601Y0013000D01*
X0104601Y0013000D02*
X0104601Y0025481D01*
X0110165Y0031046D01*
X0144400Y0031046D01*
X0152104Y0038750D01*
X0152126Y0038772D01*
X0152126Y0044841D01*
X0154965Y0048946D02*
X0155865Y0048946D01*
X0155866Y0048946D01*
X0155866Y0049746D01*
X0155866Y0052841D01*
X0155865Y0048946D02*
X0156865Y0048946D01*
X0158104Y0038750D02*
X0158104Y0034306D01*
X0158265Y0034146D01*
X0170726Y0038772D02*
X0170726Y0044741D01*
X0173666Y0048946D02*
X0174465Y0048946D01*
X0174466Y0048946D01*
X0174466Y0049645D01*
X0174466Y0049746D02*
X0174466Y0052741D01*
X0174465Y0048946D02*
X0175165Y0048946D01*
X0139504Y0038750D02*
X0139504Y0034185D01*
X0139465Y0034146D01*
X0121265Y0034146D01*
X0120604Y0034806D01*
X0120604Y0034885D01*
X0119865Y0034146D01*
X0104409Y0034146D01*
X0099804Y0038750D01*
X0093804Y0038750D02*
X0093804Y0044820D01*
X0093826Y0044841D01*
X0098060Y0044841D01*
X0098065Y0044846D01*
X0098365Y0049046D02*
X0097465Y0049046D01*
X0097465Y0049946D01*
X0097465Y0052740D01*
X0097566Y0052841D01*
X0097465Y0049046D02*
X0096565Y0049046D01*
X0110565Y0044846D02*
X0110570Y0044841D01*
X0114626Y0044841D01*
X0114626Y0038772D01*
X0114604Y0038750D01*
X0120604Y0038750D02*
X0120604Y0034885D01*
X0120604Y0034806D02*
X0120604Y0034385D01*
X0120365Y0034146D01*
X0119865Y0034146D01*
X0120365Y0034146D02*
X0121265Y0034146D01*
X0133504Y0038750D02*
X0133526Y0038772D01*
X0133526Y0044841D01*
X0128870Y0044841D01*
X0128865Y0044846D01*
X0136466Y0048946D02*
X0137465Y0048946D01*
X0137266Y0049145D01*
X0137266Y0049746D01*
X0137266Y0052841D01*
X0137465Y0048946D02*
X0138066Y0048946D01*
X0119365Y0048946D02*
X0118365Y0048946D01*
X0118365Y0049946D01*
X0118365Y0052840D01*
X0118366Y0052841D01*
X0118365Y0048946D02*
X0117365Y0048946D01*
X0214204Y0038985D02*
X0214204Y0038750D01*
X0214204Y0034206D01*
X0214265Y0034146D01*
D23*
X0214265Y0034146D03*
X0206065Y0029546D03*
X0195465Y0034146D03*
X0201765Y0038946D03*
X0188565Y0030246D03*
X0176765Y0034146D03*
X0170365Y0031246D03*
X0163965Y0038746D03*
X0158265Y0034146D03*
X0145565Y0038946D03*
X0139465Y0034146D03*
X0127265Y0038746D03*
X0128865Y0044846D03*
X0133465Y0056746D03*
X0129465Y0059446D03*
X0142965Y0061646D03*
X0147465Y0057746D03*
X0160665Y0062646D03*
X0165465Y0058246D03*
X0178065Y0064346D03*
X0183565Y0059846D03*
X0193065Y0066246D03*
X0197665Y0061346D03*
X0202365Y0058146D03*
X0182865Y0039046D03*
X0155465Y0021746D03*
X0149665Y0021846D03*
X0129765Y0023046D03*
X0119965Y0024046D03*
X0109365Y0024446D03*
X0106865Y0038646D03*
X0110565Y0044846D03*
X0098065Y0044846D03*
X0093765Y0056646D03*
X0109465Y0058146D03*
X0095365Y0072146D03*
X0095165Y0078846D03*
X0109965Y0078746D03*
X0119765Y0078546D03*
X0120165Y0096646D03*
X0108665Y0096846D03*
X0098965Y0096746D03*
X0085265Y0103246D03*
X0076965Y0103246D03*
X0059565Y0090946D03*
X0079265Y0079146D03*
X0053965Y0064946D03*
X0062665Y0060846D03*
X0069265Y0056246D03*
X0076965Y0051946D03*
X0079465Y0040046D03*
X0079465Y0029946D03*
X0054065Y0048246D03*
X0043565Y0038746D03*
X0037665Y0038546D03*
X0049665Y0105646D03*
X0052665Y0113046D03*
X0044065Y0113046D03*
X0059865Y0124346D03*
X0046065Y0124646D03*
X0031865Y0124846D03*
X0019665Y0124546D03*
X0073365Y0120346D03*
X0081265Y0127046D03*
X0100765Y0126346D03*
X0109865Y0125546D03*
X0120265Y0125446D03*
X0130265Y0125946D03*
X0145565Y0084346D03*
X0230865Y0073546D03*
X0230865Y0064646D03*
X0230665Y0057046D03*
D24*
X0238436Y0057125D02*
X0218265Y0057125D01*
X0218265Y0057350D02*
X0203369Y0072246D01*
X0167535Y0072246D01*
X0147620Y0092160D01*
X0147620Y0095562D01*
X0146975Y0096206D01*
X0146904Y0096206D01*
X0146904Y0100651D01*
X0147054Y0100801D01*
X0147054Y0104700D01*
X0146904Y0104850D01*
X0146904Y0136411D01*
X0148306Y0136411D01*
X0148951Y0137055D01*
X0148951Y0142612D01*
X0159491Y0132072D01*
X0160483Y0131661D01*
X0238436Y0131661D01*
X0238436Y0022100D01*
X0160483Y0022100D01*
X0159491Y0021689D01*
X0148302Y0010500D01*
X0138252Y0010500D01*
X0138288Y0010536D01*
X0138951Y0012135D01*
X0138951Y0013865D01*
X0138288Y0015464D01*
X0137065Y0016688D01*
X0136201Y0017046D01*
X0136201Y0019218D01*
X0141328Y0024346D01*
X0196062Y0024346D01*
X0197000Y0025283D01*
X0207617Y0035900D01*
X0210154Y0035900D01*
X0211054Y0036801D01*
X0211054Y0040700D01*
X0210363Y0041391D01*
X0210431Y0041391D01*
X0211076Y0042035D01*
X0211076Y0047447D01*
X0210431Y0048091D01*
X0209579Y0048091D01*
X0210879Y0049391D01*
X0214172Y0049391D01*
X0214816Y0050035D01*
X0214816Y0055447D01*
X0214172Y0056091D01*
X0209760Y0056091D01*
X0209116Y0055447D01*
X0209116Y0052154D01*
X0207408Y0050446D01*
X0207336Y0050446D01*
X0207336Y0055447D01*
X0206691Y0056091D01*
X0202280Y0056091D01*
X0201636Y0055447D01*
X0201636Y0054840D01*
X0200819Y0055656D01*
X0198141Y0055656D01*
X0185312Y0068486D01*
X0184952Y0068846D01*
X0201961Y0068846D01*
X0214865Y0055941D01*
X0214865Y0041815D01*
X0214650Y0041600D01*
X0212255Y0041600D01*
X0211354Y0040700D01*
X0211354Y0036801D01*
X0212255Y0035900D01*
X0212604Y0035900D01*
X0212604Y0035738D01*
X0211965Y0035098D01*
X0211965Y0033193D01*
X0213312Y0031846D01*
X0215218Y0031846D01*
X0216565Y0033193D01*
X0216565Y0035098D01*
X0215804Y0035859D01*
X0215804Y0035900D01*
X0216154Y0035900D01*
X0217054Y0036801D01*
X0217054Y0039196D01*
X0218265Y0040407D01*
X0218265Y0057350D01*
X0217691Y0057924D02*
X0238436Y0057924D01*
X0238436Y0058722D02*
X0216893Y0058722D01*
X0216094Y0059521D02*
X0238436Y0059521D01*
X0238436Y0060319D02*
X0215296Y0060319D01*
X0214497Y0061118D02*
X0238436Y0061118D01*
X0238436Y0061916D02*
X0213699Y0061916D01*
X0212900Y0062715D02*
X0238436Y0062715D01*
X0238436Y0063513D02*
X0212102Y0063513D01*
X0211303Y0064312D02*
X0238436Y0064312D01*
X0238436Y0065110D02*
X0210505Y0065110D01*
X0209706Y0065909D02*
X0238436Y0065909D01*
X0238436Y0066707D02*
X0208908Y0066707D01*
X0208109Y0067506D02*
X0238436Y0067506D01*
X0238436Y0068304D02*
X0207311Y0068304D01*
X0206512Y0069103D02*
X0238436Y0069103D01*
X0238436Y0069901D02*
X0205714Y0069901D01*
X0204915Y0070700D02*
X0238436Y0070700D01*
X0238436Y0071498D02*
X0204117Y0071498D01*
X0202502Y0068304D02*
X0185493Y0068304D01*
X0186292Y0067506D02*
X0203301Y0067506D01*
X0204099Y0066707D02*
X0187090Y0066707D01*
X0187889Y0065909D02*
X0204898Y0065909D01*
X0205696Y0065110D02*
X0188687Y0065110D01*
X0189486Y0064312D02*
X0206495Y0064312D01*
X0207293Y0063513D02*
X0190284Y0063513D01*
X0191083Y0062715D02*
X0208092Y0062715D01*
X0208890Y0061916D02*
X0191881Y0061916D01*
X0192680Y0061118D02*
X0209689Y0061118D01*
X0210487Y0060319D02*
X0193478Y0060319D01*
X0194277Y0059521D02*
X0211286Y0059521D01*
X0212084Y0058722D02*
X0195075Y0058722D01*
X0195874Y0057924D02*
X0212883Y0057924D01*
X0213682Y0057125D02*
X0196672Y0057125D01*
X0197471Y0056327D02*
X0214480Y0056327D01*
X0214734Y0055528D02*
X0214865Y0055528D01*
X0214865Y0054730D02*
X0214816Y0054730D01*
X0214816Y0053931D02*
X0214865Y0053931D01*
X0214865Y0053133D02*
X0214816Y0053133D01*
X0214816Y0052334D02*
X0214865Y0052334D01*
X0214865Y0051536D02*
X0214816Y0051536D01*
X0214816Y0050737D02*
X0214865Y0050737D01*
X0214865Y0049938D02*
X0214719Y0049938D01*
X0214865Y0049140D02*
X0210628Y0049140D01*
X0209829Y0048341D02*
X0214865Y0048341D01*
X0214865Y0047543D02*
X0210979Y0047543D01*
X0211076Y0046744D02*
X0214865Y0046744D01*
X0214865Y0045946D02*
X0211076Y0045946D01*
X0211076Y0045147D02*
X0214865Y0045147D01*
X0214865Y0044349D02*
X0211076Y0044349D01*
X0211076Y0043550D02*
X0214865Y0043550D01*
X0214865Y0042752D02*
X0211076Y0042752D01*
X0210994Y0041953D02*
X0214865Y0041953D01*
X0211810Y0041155D02*
X0210599Y0041155D01*
X0211054Y0040356D02*
X0211354Y0040356D01*
X0211354Y0039558D02*
X0211054Y0039558D01*
X0211054Y0038759D02*
X0211354Y0038759D01*
X0211354Y0037961D02*
X0211054Y0037961D01*
X0211054Y0037162D02*
X0211354Y0037162D01*
X0211792Y0036364D02*
X0210617Y0036364D01*
X0212432Y0035565D02*
X0207282Y0035565D01*
X0206484Y0034767D02*
X0211965Y0034767D01*
X0211965Y0033968D02*
X0205685Y0033968D01*
X0204887Y0033170D02*
X0211988Y0033170D01*
X0212787Y0032371D02*
X0204088Y0032371D01*
X0203290Y0031573D02*
X0238436Y0031573D01*
X0238436Y0032371D02*
X0215743Y0032371D01*
X0216542Y0033170D02*
X0238436Y0033170D01*
X0238436Y0033968D02*
X0216565Y0033968D01*
X0216565Y0034767D02*
X0238436Y0034767D01*
X0238436Y0035565D02*
X0216098Y0035565D01*
X0216617Y0036364D02*
X0238436Y0036364D01*
X0238436Y0037162D02*
X0217054Y0037162D01*
X0217054Y0037961D02*
X0238436Y0037961D01*
X0238436Y0038759D02*
X0217054Y0038759D01*
X0217416Y0039558D02*
X0238436Y0039558D01*
X0238436Y0040356D02*
X0218215Y0040356D01*
X0218265Y0041155D02*
X0238436Y0041155D01*
X0238436Y0041953D02*
X0218265Y0041953D01*
X0218265Y0042752D02*
X0238436Y0042752D01*
X0238436Y0043550D02*
X0218265Y0043550D01*
X0218265Y0044349D02*
X0238436Y0044349D01*
X0238436Y0045147D02*
X0218265Y0045147D01*
X0218265Y0045946D02*
X0238436Y0045946D01*
X0238436Y0046744D02*
X0218265Y0046744D01*
X0218265Y0047543D02*
X0238436Y0047543D01*
X0238436Y0048341D02*
X0218265Y0048341D01*
X0218265Y0049140D02*
X0238436Y0049140D01*
X0238436Y0049938D02*
X0218265Y0049938D01*
X0218265Y0050737D02*
X0238436Y0050737D01*
X0238436Y0051536D02*
X0218265Y0051536D01*
X0218265Y0052334D02*
X0238436Y0052334D01*
X0238436Y0053133D02*
X0218265Y0053133D01*
X0218265Y0053931D02*
X0238436Y0053931D01*
X0238436Y0054730D02*
X0218265Y0054730D01*
X0218265Y0055528D02*
X0238436Y0055528D01*
X0238436Y0056327D02*
X0218265Y0056327D01*
X0209197Y0055528D02*
X0207254Y0055528D01*
X0207336Y0054730D02*
X0209116Y0054730D01*
X0209116Y0053931D02*
X0207336Y0053931D01*
X0207336Y0053133D02*
X0209116Y0053133D01*
X0209116Y0052334D02*
X0207336Y0052334D01*
X0207336Y0051536D02*
X0208498Y0051536D01*
X0207699Y0050737D02*
X0207336Y0050737D01*
X0204486Y0052741D02*
X0204420Y0052806D01*
X0198870Y0052806D01*
X0183812Y0067865D01*
X0079546Y0067865D01*
X0068365Y0079046D01*
X0047632Y0079046D01*
X0047632Y0077077D02*
X0068212Y0077077D01*
X0078925Y0066365D01*
X0166512Y0066365D01*
X0180070Y0052806D01*
X0185620Y0052806D01*
X0185686Y0052741D01*
X0188536Y0053133D02*
X0190316Y0053133D01*
X0190316Y0053931D02*
X0188536Y0053931D01*
X0188536Y0054730D02*
X0190316Y0054730D01*
X0190316Y0055447D02*
X0190316Y0050546D01*
X0188536Y0050546D01*
X0188536Y0055447D01*
X0187891Y0056091D01*
X0183480Y0056091D01*
X0182836Y0055447D01*
X0182836Y0054840D01*
X0182019Y0055656D01*
X0179341Y0055656D01*
X0168633Y0066365D01*
X0183190Y0066365D01*
X0193464Y0056091D01*
X0190960Y0056091D01*
X0190316Y0055447D01*
X0190397Y0055528D02*
X0188454Y0055528D01*
X0188536Y0052334D02*
X0190316Y0052334D01*
X0190316Y0051536D02*
X0188536Y0051536D01*
X0188536Y0050737D02*
X0190316Y0050737D01*
X0192276Y0047346D02*
X0196020Y0047346D01*
X0196020Y0044857D01*
X0196920Y0043956D01*
X0200819Y0043956D01*
X0201720Y0044857D01*
X0201720Y0047238D01*
X0201728Y0047246D01*
X0205376Y0047246D01*
X0205376Y0042035D01*
X0206020Y0041391D01*
X0206046Y0041391D01*
X0205354Y0040700D01*
X0205354Y0038163D01*
X0194737Y0027546D01*
X0180462Y0027546D01*
X0188817Y0035900D01*
X0191354Y0035900D01*
X0192254Y0036801D01*
X0192254Y0040700D01*
X0191563Y0041391D01*
X0191631Y0041391D01*
X0192276Y0042035D01*
X0192276Y0047346D01*
X0192276Y0046744D02*
X0196020Y0046744D01*
X0196020Y0045946D02*
X0192276Y0045946D01*
X0192276Y0045147D02*
X0196020Y0045147D01*
X0196528Y0044349D02*
X0192276Y0044349D01*
X0192276Y0043550D02*
X0205376Y0043550D01*
X0205376Y0042752D02*
X0192276Y0042752D01*
X0192194Y0041953D02*
X0205458Y0041953D01*
X0205810Y0041155D02*
X0197799Y0041155D01*
X0197354Y0041600D02*
X0198254Y0040700D01*
X0198254Y0036801D01*
X0197354Y0035900D01*
X0197065Y0035900D01*
X0197065Y0035798D01*
X0197765Y0035098D01*
X0197765Y0033193D01*
X0196418Y0031846D01*
X0194512Y0031846D01*
X0193165Y0033193D01*
X0193165Y0035098D01*
X0193865Y0035798D01*
X0193865Y0035900D01*
X0193455Y0035900D01*
X0192554Y0036801D01*
X0192554Y0040700D01*
X0193455Y0041600D01*
X0197354Y0041600D01*
X0198254Y0040356D02*
X0205354Y0040356D01*
X0205354Y0039558D02*
X0198254Y0039558D01*
X0198254Y0038759D02*
X0205354Y0038759D01*
X0205152Y0037961D02*
X0198254Y0037961D01*
X0198254Y0037162D02*
X0204354Y0037162D01*
X0203555Y0036364D02*
X0197817Y0036364D01*
X0197298Y0035565D02*
X0202757Y0035565D01*
X0201958Y0034767D02*
X0197765Y0034767D01*
X0197765Y0033968D02*
X0201160Y0033968D01*
X0200361Y0033170D02*
X0197742Y0033170D01*
X0196943Y0032371D02*
X0199563Y0032371D01*
X0198764Y0031573D02*
X0184490Y0031573D01*
X0185288Y0032371D02*
X0193987Y0032371D01*
X0193188Y0033170D02*
X0186087Y0033170D01*
X0186885Y0033968D02*
X0193165Y0033968D01*
X0193165Y0034767D02*
X0187684Y0034767D01*
X0188482Y0035565D02*
X0193632Y0035565D01*
X0192992Y0036364D02*
X0191817Y0036364D01*
X0192254Y0037162D02*
X0192554Y0037162D01*
X0192554Y0037961D02*
X0192254Y0037961D01*
X0192254Y0038759D02*
X0192554Y0038759D01*
X0192554Y0039558D02*
X0192254Y0039558D01*
X0192254Y0040356D02*
X0192554Y0040356D01*
X0193010Y0041155D02*
X0191799Y0041155D01*
X0187246Y0041391D02*
X0186554Y0040700D01*
X0186554Y0038163D01*
X0177637Y0029246D01*
X0163462Y0029246D01*
X0170117Y0035900D01*
X0172654Y0035900D01*
X0173554Y0036801D01*
X0173554Y0040700D01*
X0172863Y0041391D01*
X0172931Y0041391D01*
X0173576Y0042035D01*
X0173576Y0047346D01*
X0177202Y0047346D01*
X0177220Y0047328D01*
X0177220Y0044857D01*
X0178120Y0043956D01*
X0182019Y0043956D01*
X0182920Y0044857D01*
X0182920Y0047346D01*
X0186576Y0047346D01*
X0186576Y0042035D01*
X0187220Y0041391D01*
X0187246Y0041391D01*
X0187010Y0041155D02*
X0179099Y0041155D01*
X0178654Y0041600D02*
X0174755Y0041600D01*
X0173854Y0040700D01*
X0173854Y0036801D01*
X0174755Y0035900D01*
X0175104Y0035900D01*
X0175104Y0035738D01*
X0174465Y0035098D01*
X0174465Y0033193D01*
X0175812Y0031846D01*
X0177718Y0031846D01*
X0179065Y0033193D01*
X0179065Y0035098D01*
X0178304Y0035859D01*
X0178304Y0035900D01*
X0178654Y0035900D01*
X0179554Y0036801D01*
X0179554Y0040700D01*
X0178654Y0041600D01*
X0179554Y0040356D02*
X0186554Y0040356D01*
X0186554Y0039558D02*
X0179554Y0039558D01*
X0179554Y0038759D02*
X0186554Y0038759D01*
X0186352Y0037961D02*
X0179554Y0037961D01*
X0179554Y0037162D02*
X0185554Y0037162D01*
X0184755Y0036364D02*
X0179117Y0036364D01*
X0178598Y0035565D02*
X0183957Y0035565D01*
X0183158Y0034767D02*
X0179065Y0034767D01*
X0179065Y0033968D02*
X0182360Y0033968D01*
X0181561Y0033170D02*
X0179042Y0033170D01*
X0178243Y0032371D02*
X0180763Y0032371D01*
X0179964Y0031573D02*
X0165790Y0031573D01*
X0166588Y0032371D02*
X0175287Y0032371D01*
X0174488Y0033170D02*
X0167387Y0033170D01*
X0168185Y0033968D02*
X0174465Y0033968D01*
X0174465Y0034767D02*
X0168984Y0034767D01*
X0169782Y0035565D02*
X0174932Y0035565D01*
X0174292Y0036364D02*
X0173117Y0036364D01*
X0173554Y0037162D02*
X0173854Y0037162D01*
X0173854Y0037961D02*
X0173554Y0037961D01*
X0173554Y0038759D02*
X0173854Y0038759D01*
X0173854Y0039558D02*
X0173554Y0039558D01*
X0173554Y0040356D02*
X0173854Y0040356D01*
X0174310Y0041155D02*
X0173099Y0041155D01*
X0173494Y0041953D02*
X0186658Y0041953D01*
X0186576Y0042752D02*
X0173576Y0042752D01*
X0173576Y0043550D02*
X0186576Y0043550D01*
X0186576Y0044349D02*
X0182412Y0044349D01*
X0182920Y0045147D02*
X0186576Y0045147D01*
X0186576Y0045946D02*
X0182920Y0045946D01*
X0182920Y0046744D02*
X0186576Y0046744D01*
X0177728Y0044349D02*
X0173576Y0044349D01*
X0173576Y0045147D02*
X0177220Y0045147D01*
X0177220Y0045946D02*
X0173576Y0045946D01*
X0173576Y0046744D02*
X0177220Y0046744D01*
X0171616Y0050546D02*
X0169836Y0050546D01*
X0169836Y0055447D01*
X0169191Y0056091D01*
X0164780Y0056091D01*
X0164136Y0055447D01*
X0164136Y0054940D01*
X0163419Y0055656D01*
X0160741Y0055656D01*
X0151533Y0064865D01*
X0165890Y0064865D01*
X0174664Y0056091D01*
X0172260Y0056091D01*
X0171616Y0055447D01*
X0171616Y0050546D01*
X0171616Y0050737D02*
X0169836Y0050737D01*
X0169836Y0051536D02*
X0171616Y0051536D01*
X0171616Y0052334D02*
X0169836Y0052334D01*
X0169836Y0053133D02*
X0171616Y0053133D01*
X0171616Y0053931D02*
X0169836Y0053931D01*
X0169836Y0054730D02*
X0171616Y0054730D01*
X0171697Y0055528D02*
X0169754Y0055528D01*
X0172831Y0057924D02*
X0158474Y0057924D01*
X0157675Y0058722D02*
X0172033Y0058722D01*
X0171234Y0059521D02*
X0156877Y0059521D01*
X0156078Y0060319D02*
X0170436Y0060319D01*
X0169637Y0061118D02*
X0155280Y0061118D01*
X0154481Y0061916D02*
X0168839Y0061916D01*
X0168040Y0062715D02*
X0153683Y0062715D01*
X0152884Y0063513D02*
X0167242Y0063513D01*
X0166443Y0064312D02*
X0152086Y0064312D01*
X0149412Y0064865D02*
X0161470Y0052806D01*
X0166920Y0052806D01*
X0166986Y0052741D01*
X0164217Y0055528D02*
X0163547Y0055528D01*
X0160071Y0056327D02*
X0174428Y0056327D01*
X0173630Y0057125D02*
X0159272Y0057125D01*
X0155964Y0056191D02*
X0153660Y0056191D01*
X0153016Y0055547D01*
X0153016Y0050546D01*
X0151236Y0050546D01*
X0151236Y0055547D01*
X0150591Y0056191D01*
X0146180Y0056191D01*
X0145536Y0055547D01*
X0145536Y0055040D01*
X0144919Y0055656D01*
X0142241Y0055656D01*
X0134533Y0063365D01*
X0148790Y0063365D01*
X0155964Y0056191D01*
X0155828Y0056327D02*
X0141571Y0056327D01*
X0140772Y0057125D02*
X0155030Y0057125D01*
X0154231Y0057924D02*
X0139974Y0057924D01*
X0139175Y0058722D02*
X0153433Y0058722D01*
X0152634Y0059521D02*
X0138377Y0059521D01*
X0137578Y0060319D02*
X0151836Y0060319D01*
X0151037Y0061118D02*
X0136780Y0061118D01*
X0135981Y0061916D02*
X0150239Y0061916D01*
X0149440Y0062715D02*
X0135183Y0062715D01*
X0132412Y0063365D02*
X0142970Y0052806D01*
X0148351Y0052806D01*
X0148386Y0052841D01*
X0151236Y0053133D02*
X0153016Y0053133D01*
X0153016Y0053931D02*
X0151236Y0053931D01*
X0151236Y0054730D02*
X0153016Y0054730D01*
X0153016Y0055528D02*
X0151236Y0055528D01*
X0151236Y0052334D02*
X0153016Y0052334D01*
X0153016Y0051536D02*
X0151236Y0051536D01*
X0151236Y0050737D02*
X0153016Y0050737D01*
X0154976Y0047346D02*
X0158620Y0047346D01*
X0158620Y0044857D01*
X0159520Y0043956D01*
X0163419Y0043956D01*
X0164320Y0044857D01*
X0164320Y0047346D01*
X0167876Y0047346D01*
X0167876Y0042035D01*
X0168520Y0041391D01*
X0168546Y0041391D01*
X0167854Y0040700D01*
X0167854Y0038163D01*
X0160637Y0030946D01*
X0146562Y0030946D01*
X0151517Y0035900D01*
X0154054Y0035900D01*
X0154954Y0036801D01*
X0154954Y0040700D01*
X0154163Y0041491D01*
X0154331Y0041491D01*
X0154976Y0042135D01*
X0154976Y0047346D01*
X0154976Y0046744D02*
X0158620Y0046744D01*
X0158620Y0045946D02*
X0154976Y0045946D01*
X0154976Y0045147D02*
X0158620Y0045147D01*
X0159128Y0044349D02*
X0154976Y0044349D01*
X0154976Y0043550D02*
X0167876Y0043550D01*
X0167876Y0042752D02*
X0154976Y0042752D01*
X0154794Y0041953D02*
X0167958Y0041953D01*
X0168310Y0041155D02*
X0160499Y0041155D01*
X0160054Y0041600D02*
X0160954Y0040700D01*
X0160954Y0036801D01*
X0160054Y0035900D01*
X0159763Y0035900D01*
X0160565Y0035098D01*
X0160565Y0033193D01*
X0159218Y0031846D01*
X0157312Y0031846D01*
X0155965Y0033193D01*
X0155965Y0035098D01*
X0156504Y0035638D01*
X0156504Y0035900D01*
X0156155Y0035900D01*
X0155254Y0036801D01*
X0155254Y0040700D01*
X0156155Y0041600D01*
X0160054Y0041600D01*
X0160954Y0040356D02*
X0167854Y0040356D01*
X0167854Y0039558D02*
X0160954Y0039558D01*
X0160954Y0038759D02*
X0167854Y0038759D01*
X0167652Y0037961D02*
X0160954Y0037961D01*
X0160954Y0037162D02*
X0166854Y0037162D01*
X0166055Y0036364D02*
X0160517Y0036364D01*
X0160098Y0035565D02*
X0165257Y0035565D01*
X0164458Y0034767D02*
X0160565Y0034767D01*
X0160565Y0033968D02*
X0163660Y0033968D01*
X0162861Y0033170D02*
X0160542Y0033170D01*
X0159743Y0032371D02*
X0162063Y0032371D01*
X0161264Y0031573D02*
X0147190Y0031573D01*
X0147988Y0032371D02*
X0156787Y0032371D01*
X0155988Y0033170D02*
X0148787Y0033170D01*
X0149585Y0033968D02*
X0155965Y0033968D01*
X0155965Y0034767D02*
X0150384Y0034767D01*
X0151182Y0035565D02*
X0156432Y0035565D01*
X0155692Y0036364D02*
X0154517Y0036364D01*
X0154954Y0037162D02*
X0155254Y0037162D01*
X0155254Y0037961D02*
X0154954Y0037961D01*
X0154954Y0038759D02*
X0155254Y0038759D01*
X0155254Y0039558D02*
X0154954Y0039558D01*
X0154954Y0040356D02*
X0155254Y0040356D01*
X0155710Y0041155D02*
X0154499Y0041155D01*
X0150046Y0041491D02*
X0149254Y0040700D01*
X0149254Y0038163D01*
X0143737Y0032646D01*
X0141218Y0032646D01*
X0141765Y0033193D01*
X0141765Y0035098D01*
X0141104Y0035759D01*
X0141104Y0035900D01*
X0141454Y0035900D01*
X0142354Y0036801D01*
X0142354Y0040700D01*
X0141454Y0041600D01*
X0137555Y0041600D01*
X0136654Y0040700D01*
X0136654Y0036801D01*
X0137555Y0035900D01*
X0137904Y0035900D01*
X0137904Y0035838D01*
X0137812Y0035746D01*
X0122204Y0035746D01*
X0122204Y0035900D01*
X0122554Y0035900D01*
X0123454Y0036801D01*
X0123454Y0040700D01*
X0122554Y0041600D01*
X0118655Y0041600D01*
X0117754Y0040700D01*
X0117754Y0036801D01*
X0118655Y0035900D01*
X0119004Y0035900D01*
X0119004Y0035746D01*
X0105072Y0035746D01*
X0102654Y0038163D01*
X0102654Y0040700D01*
X0101754Y0041600D01*
X0097855Y0041600D01*
X0096954Y0040700D01*
X0096954Y0036801D01*
X0097855Y0035900D01*
X0100392Y0035900D01*
X0102809Y0033483D01*
X0102809Y0033483D01*
X0103746Y0032546D01*
X0109402Y0032546D01*
X0103938Y0027081D01*
X0103001Y0026144D01*
X0103001Y0017350D01*
X0100895Y0017350D01*
X0100251Y0016706D01*
X0100251Y0011288D01*
X0089850Y0021689D01*
X0088857Y0022100D01*
X0010765Y0022100D01*
X0010765Y0131661D01*
X0075676Y0131661D01*
X0064061Y0120046D01*
X0028761Y0120046D01*
X0025861Y0117146D01*
X0024865Y0116150D01*
X0024865Y0040441D01*
X0025861Y0039446D01*
X0033900Y0031406D01*
X0051094Y0031406D01*
X0051478Y0031022D01*
X0055539Y0031022D01*
X0056183Y0031666D01*
X0056183Y0034546D01*
X0055539Y0035191D01*
X0051478Y0035191D01*
X0051094Y0034806D01*
X0035309Y0034806D01*
X0028265Y0041850D01*
X0028265Y0114741D01*
X0030169Y0116646D01*
X0065469Y0116646D01*
X0066465Y0117641D01*
X0077969Y0129146D01*
X0086976Y0129146D01*
X0086976Y0125592D01*
X0087232Y0125335D01*
X0085955Y0125335D01*
X0085310Y0124691D01*
X0085310Y0123185D01*
X0084920Y0123185D01*
X0084920Y0124712D01*
X0084275Y0125356D01*
X0077864Y0125356D01*
X0077220Y0124712D01*
X0077220Y0118301D01*
X0077864Y0117656D01*
X0084275Y0117656D01*
X0084920Y0118301D01*
X0084920Y0119785D01*
X0085310Y0119785D01*
X0085310Y0118279D01*
X0085955Y0117635D01*
X0092366Y0117635D01*
X0093010Y0118279D01*
X0093010Y0124691D01*
X0092393Y0125308D01*
X0092676Y0125592D01*
X0092676Y0128287D01*
X0092976Y0127987D01*
X0092976Y0125592D01*
X0093544Y0125024D01*
X0093210Y0124691D01*
X0093210Y0118279D01*
X0093855Y0117635D01*
X0100266Y0117635D01*
X0100910Y0118279D01*
X0100910Y0119635D01*
X0106521Y0119635D01*
X0107995Y0118161D01*
X0107504Y0117671D01*
X0107504Y0112822D01*
X0108149Y0112178D01*
X0118903Y0112178D01*
X0119547Y0112822D01*
X0119547Y0117671D01*
X0118903Y0118315D01*
X0113073Y0118315D01*
X0109137Y0122251D01*
X0108053Y0123335D01*
X0100910Y0123335D01*
X0100910Y0124691D01*
X0100266Y0125335D01*
X0098910Y0125335D01*
X0098910Y0127073D01*
X0098676Y0127307D01*
X0098676Y0129490D01*
X0097775Y0130391D01*
X0095380Y0130391D01*
X0094221Y0131550D01*
X0093225Y0132546D01*
X0090324Y0132546D01*
X0100849Y0143071D01*
X0100251Y0141626D01*
X0100251Y0139895D01*
X0100913Y0138297D01*
X0102136Y0137073D01*
X0103735Y0136411D01*
X0105466Y0136411D01*
X0107065Y0137073D01*
X0108288Y0138297D01*
X0108951Y0139895D01*
X0108951Y0141626D01*
X0108288Y0143225D01*
X0108252Y0143261D01*
X0110949Y0143261D01*
X0110913Y0143225D01*
X0110251Y0141626D01*
X0110251Y0139895D01*
X0110913Y0138297D01*
X0112136Y0137073D01*
X0113735Y0136411D01*
X0115466Y0136411D01*
X0117065Y0137073D01*
X0118288Y0138297D01*
X0118951Y0139895D01*
X0118951Y0141626D01*
X0118288Y0143225D01*
X0118252Y0143261D01*
X0120949Y0143261D01*
X0120913Y0143225D01*
X0120251Y0141626D01*
X0120251Y0139895D01*
X0120913Y0138297D01*
X0122136Y0137073D01*
X0123735Y0136411D01*
X0125466Y0136411D01*
X0127065Y0137073D01*
X0128288Y0138297D01*
X0128951Y0139895D01*
X0128951Y0141626D01*
X0128288Y0143225D01*
X0128252Y0143261D01*
X0140251Y0143261D01*
X0140251Y0137055D01*
X0140895Y0136411D01*
X0141504Y0136411D01*
X0141504Y0104850D01*
X0141354Y0104700D01*
X0141354Y0100801D01*
X0141504Y0100651D01*
X0141504Y0096147D01*
X0140920Y0095562D01*
X0140920Y0090651D01*
X0141564Y0090006D01*
X0144966Y0090006D01*
X0165607Y0069365D01*
X0080168Y0069365D01*
X0069400Y0080132D01*
X0070550Y0081283D01*
X0071787Y0082519D01*
X0071787Y0082519D01*
X0075924Y0086656D01*
X0078319Y0086656D01*
X0078469Y0086806D01*
X0129191Y0086806D01*
X0129433Y0086706D01*
X0130507Y0086706D01*
X0131352Y0087056D01*
X0132419Y0087056D01*
X0132569Y0087206D01*
X0132920Y0087206D01*
X0132920Y0086910D01*
X0133564Y0086266D01*
X0134720Y0086266D01*
X0134720Y0085706D01*
X0134584Y0085706D01*
X0133720Y0084842D01*
X0133720Y0081370D01*
X0134584Y0080506D01*
X0138556Y0080506D01*
X0139420Y0081370D01*
X0139420Y0084842D01*
X0138556Y0085706D01*
X0138420Y0085706D01*
X0138420Y0086266D01*
X0138975Y0086266D01*
X0139620Y0086910D01*
X0139620Y0091822D01*
X0138975Y0092466D01*
X0136605Y0092466D01*
X0136267Y0092606D01*
X0132569Y0092606D01*
X0132419Y0092756D01*
X0128520Y0092756D01*
X0127970Y0092206D01*
X0118583Y0092206D01*
X0117326Y0093464D01*
X0117326Y0101367D01*
X0118903Y0101367D01*
X0119271Y0101735D01*
X0122036Y0101735D01*
X0123028Y0102146D01*
X0124438Y0103556D01*
X0125419Y0103556D01*
X0126320Y0104457D01*
X0126320Y0108356D01*
X0125419Y0109256D01*
X0121520Y0109256D01*
X0120620Y0108356D01*
X0120620Y0107375D01*
X0120381Y0107135D01*
X0119271Y0107135D01*
X0118903Y0107504D01*
X0108149Y0107504D01*
X0107504Y0106860D01*
X0107504Y0102011D01*
X0108149Y0101367D01*
X0111926Y0101367D01*
X0111926Y0093464D01*
X0110668Y0092206D01*
X0078469Y0092206D01*
X0078319Y0092356D01*
X0074420Y0092356D01*
X0073520Y0091456D01*
X0073520Y0089060D01*
X0069383Y0084924D01*
X0069142Y0084683D01*
X0046928Y0084683D01*
X0046918Y0084673D01*
X0044027Y0084673D01*
X0043382Y0084029D01*
X0043382Y0052409D01*
X0044027Y0051765D01*
X0051237Y0051765D01*
X0051882Y0052409D01*
X0051882Y0053566D01*
X0056265Y0049183D01*
X0056265Y0030983D01*
X0057202Y0030046D01*
X0057364Y0029884D01*
X0058301Y0028947D01*
X0059655Y0028947D01*
X0060139Y0028463D01*
X0064200Y0028463D01*
X0064576Y0028838D01*
X0064576Y0028092D01*
X0065476Y0027191D01*
X0069375Y0027191D01*
X0070276Y0028092D01*
X0070276Y0031990D01*
X0069375Y0032891D01*
X0070276Y0033792D01*
X0070276Y0037690D01*
X0069375Y0038591D01*
X0065476Y0038591D01*
X0064576Y0037690D01*
X0064576Y0037374D01*
X0064200Y0037750D01*
X0062348Y0037750D01*
X0061865Y0038233D01*
X0061865Y0044739D01*
X0062202Y0044402D01*
X0064576Y0042028D01*
X0064576Y0039492D01*
X0065476Y0038591D01*
X0069375Y0038591D01*
X0070276Y0039492D01*
X0070276Y0043390D01*
X0069425Y0044241D01*
X0070276Y0045092D01*
X0070276Y0048990D01*
X0069375Y0049891D01*
X0069026Y0049891D01*
X0069026Y0051348D01*
X0057444Y0062929D01*
X0051882Y0062929D01*
X0051882Y0065735D01*
X0053623Y0065735D01*
X0053634Y0065746D01*
X0066816Y0065746D01*
X0075197Y0057365D01*
X0077590Y0057365D01*
X0081420Y0053535D01*
X0081420Y0050857D01*
X0082320Y0049956D01*
X0084176Y0049956D01*
X0084176Y0049656D01*
X0082320Y0049656D01*
X0081420Y0048756D01*
X0081420Y0044857D01*
X0082320Y0043956D01*
X0086219Y0043956D01*
X0087120Y0044857D01*
X0087120Y0046657D01*
X0087555Y0046657D01*
X0088344Y0047446D01*
X0090976Y0047446D01*
X0090976Y0042135D01*
X0091620Y0041491D01*
X0091746Y0041491D01*
X0090954Y0040700D01*
X0090954Y0036801D01*
X0091855Y0035900D01*
X0095754Y0035900D01*
X0096654Y0036801D01*
X0096654Y0040700D01*
X0095863Y0041491D01*
X0096031Y0041491D01*
X0096676Y0042135D01*
X0096676Y0042982D01*
X0097112Y0042546D01*
X0099018Y0042546D01*
X0100365Y0043893D01*
X0100365Y0045798D01*
X0099018Y0047146D01*
X0097112Y0047146D01*
X0096676Y0046709D01*
X0096676Y0047446D01*
X0102568Y0047446D01*
X0102620Y0047394D01*
X0102620Y0044857D01*
X0103520Y0043956D01*
X0107419Y0043956D01*
X0108265Y0044802D01*
X0108265Y0043893D01*
X0109612Y0042546D01*
X0111518Y0042546D01*
X0111776Y0042804D01*
X0111776Y0042135D01*
X0112420Y0041491D01*
X0112546Y0041491D01*
X0111754Y0040700D01*
X0111754Y0036801D01*
X0112655Y0035900D01*
X0116554Y0035900D01*
X0117454Y0036801D01*
X0117454Y0040700D01*
X0116663Y0041491D01*
X0116831Y0041491D01*
X0117476Y0042135D01*
X0117476Y0047346D01*
X0121220Y0047346D01*
X0121220Y0044857D01*
X0122120Y0043956D01*
X0126019Y0043956D01*
X0126565Y0044502D01*
X0126565Y0043893D01*
X0127912Y0042546D01*
X0129818Y0042546D01*
X0130513Y0043241D01*
X0130676Y0043241D01*
X0130676Y0042135D01*
X0131320Y0041491D01*
X0131446Y0041491D01*
X0130654Y0040700D01*
X0130654Y0036801D01*
X0131555Y0035900D01*
X0135454Y0035900D01*
X0136354Y0036801D01*
X0136354Y0040700D01*
X0135563Y0041491D01*
X0135731Y0041491D01*
X0136376Y0042135D01*
X0136376Y0047346D01*
X0140120Y0047346D01*
X0140120Y0044857D01*
X0141020Y0043956D01*
X0144919Y0043956D01*
X0145820Y0044857D01*
X0145820Y0047346D01*
X0149276Y0047346D01*
X0149276Y0042135D01*
X0149920Y0041491D01*
X0150046Y0041491D01*
X0149710Y0041155D02*
X0141899Y0041155D01*
X0142354Y0040356D02*
X0149254Y0040356D01*
X0149254Y0039558D02*
X0142354Y0039558D01*
X0142354Y0038759D02*
X0149254Y0038759D01*
X0149052Y0037961D02*
X0142354Y0037961D01*
X0142354Y0037162D02*
X0148254Y0037162D01*
X0147455Y0036364D02*
X0141917Y0036364D01*
X0141298Y0035565D02*
X0146657Y0035565D01*
X0145858Y0034767D02*
X0141765Y0034767D01*
X0141765Y0033968D02*
X0145060Y0033968D01*
X0144261Y0033170D02*
X0141742Y0033170D01*
X0137092Y0036364D02*
X0135917Y0036364D01*
X0136354Y0037162D02*
X0136654Y0037162D01*
X0136654Y0037961D02*
X0136354Y0037961D01*
X0136354Y0038759D02*
X0136654Y0038759D01*
X0136654Y0039558D02*
X0136354Y0039558D01*
X0136354Y0040356D02*
X0136654Y0040356D01*
X0137110Y0041155D02*
X0135899Y0041155D01*
X0136194Y0041953D02*
X0149458Y0041953D01*
X0149276Y0042752D02*
X0136376Y0042752D01*
X0136376Y0043550D02*
X0149276Y0043550D01*
X0149276Y0044349D02*
X0145312Y0044349D01*
X0145820Y0045147D02*
X0149276Y0045147D01*
X0149276Y0045946D02*
X0145820Y0045946D01*
X0145820Y0046744D02*
X0149276Y0046744D01*
X0140628Y0044349D02*
X0136376Y0044349D01*
X0136376Y0045147D02*
X0140120Y0045147D01*
X0140120Y0045946D02*
X0136376Y0045946D01*
X0136376Y0046744D02*
X0140120Y0046744D01*
X0134416Y0050546D02*
X0132636Y0050546D01*
X0132636Y0055547D01*
X0131991Y0056191D01*
X0127580Y0056191D01*
X0126936Y0055547D01*
X0126936Y0054306D01*
X0126920Y0054306D01*
X0126920Y0054756D01*
X0126019Y0055656D01*
X0123341Y0055656D01*
X0117133Y0061865D01*
X0131790Y0061865D01*
X0137464Y0056191D01*
X0135060Y0056191D01*
X0134416Y0055547D01*
X0134416Y0050546D01*
X0134416Y0050737D02*
X0132636Y0050737D01*
X0132636Y0051536D02*
X0134416Y0051536D01*
X0134416Y0052334D02*
X0132636Y0052334D01*
X0132636Y0053133D02*
X0134416Y0053133D01*
X0134416Y0053931D02*
X0132636Y0053931D01*
X0132636Y0054730D02*
X0134416Y0054730D01*
X0134416Y0055528D02*
X0132636Y0055528D01*
X0135731Y0057924D02*
X0121074Y0057924D01*
X0120275Y0058722D02*
X0134933Y0058722D01*
X0134134Y0059521D02*
X0119477Y0059521D01*
X0118678Y0060319D02*
X0133336Y0060319D01*
X0132537Y0061118D02*
X0117880Y0061118D01*
X0115012Y0061865D02*
X0124070Y0052806D01*
X0129751Y0052806D01*
X0129786Y0052841D01*
X0126936Y0054730D02*
X0126920Y0054730D01*
X0126936Y0055528D02*
X0126147Y0055528D01*
X0122671Y0056327D02*
X0137328Y0056327D01*
X0136530Y0057125D02*
X0121872Y0057125D01*
X0118564Y0056191D02*
X0116160Y0056191D01*
X0115516Y0055547D01*
X0115516Y0050546D01*
X0113736Y0050546D01*
X0113736Y0055547D01*
X0113091Y0056191D01*
X0108680Y0056191D01*
X0108036Y0055547D01*
X0108036Y0055040D01*
X0107419Y0055656D01*
X0104741Y0055656D01*
X0100033Y0060365D01*
X0114390Y0060365D01*
X0118564Y0056191D01*
X0118428Y0056327D02*
X0104071Y0056327D01*
X0103272Y0057125D02*
X0117630Y0057125D01*
X0116831Y0057924D02*
X0102474Y0057924D01*
X0101675Y0058722D02*
X0116033Y0058722D01*
X0115234Y0059521D02*
X0100877Y0059521D01*
X0100078Y0060319D02*
X0114436Y0060319D01*
X0115012Y0061865D02*
X0077061Y0061865D01*
X0067754Y0071172D01*
X0047632Y0071172D01*
X0047632Y0073140D02*
X0067907Y0073140D01*
X0077682Y0063365D01*
X0132412Y0063365D01*
X0145047Y0055528D02*
X0145536Y0055528D01*
X0149412Y0064865D02*
X0078304Y0064865D01*
X0068059Y0075109D01*
X0047632Y0075109D01*
X0043382Y0075491D02*
X0028265Y0075491D01*
X0028265Y0076289D02*
X0043382Y0076289D01*
X0043382Y0077088D02*
X0028265Y0077088D01*
X0028265Y0077886D02*
X0043382Y0077886D01*
X0043382Y0078685D02*
X0028265Y0078685D01*
X0028265Y0079483D02*
X0043382Y0079483D01*
X0043382Y0080282D02*
X0028265Y0080282D01*
X0028265Y0081080D02*
X0043382Y0081080D01*
X0043382Y0081879D02*
X0028265Y0081879D01*
X0028265Y0082677D02*
X0043382Y0082677D01*
X0043382Y0083476D02*
X0028265Y0083476D01*
X0028265Y0084274D02*
X0043628Y0084274D01*
X0044027Y0085229D02*
X0043382Y0085873D01*
X0043382Y0093312D01*
X0041307Y0095387D01*
X0040370Y0096324D01*
X0040370Y0106213D01*
X0041307Y0107150D01*
X0044258Y0110102D01*
X0059920Y0110102D01*
X0059920Y0110456D01*
X0060820Y0111356D01*
X0064719Y0111356D01*
X0065620Y0110456D01*
X0065620Y0106557D01*
X0065967Y0106210D01*
X0065202Y0105446D01*
X0058402Y0105446D01*
X0053287Y0100331D01*
X0051328Y0100331D01*
X0051237Y0100421D01*
X0044027Y0100421D01*
X0043570Y0099964D01*
X0043570Y0104888D01*
X0045584Y0106902D01*
X0059920Y0106902D01*
X0059920Y0106557D01*
X0060820Y0105656D01*
X0064719Y0105656D01*
X0065620Y0106557D01*
X0065620Y0110456D01*
X0066520Y0111356D01*
X0070419Y0111356D01*
X0071320Y0110456D01*
X0071320Y0107363D01*
X0071320Y0110456D01*
X0072220Y0111356D01*
X0076119Y0111356D01*
X0077020Y0110456D01*
X0077020Y0110356D01*
X0077220Y0110356D01*
X0077220Y0111712D01*
X0077864Y0112356D01*
X0084275Y0112356D01*
X0084920Y0111712D01*
X0084920Y0105301D01*
X0084275Y0104656D01*
X0077864Y0104656D01*
X0077220Y0105301D01*
X0077220Y0106656D01*
X0077020Y0106656D01*
X0077020Y0106557D01*
X0076119Y0105656D01*
X0074138Y0105656D01*
X0070128Y0101646D01*
X0093302Y0101646D01*
X0095460Y0103804D01*
X0095460Y0104635D01*
X0093855Y0104635D01*
X0093210Y0105279D01*
X0093210Y0111691D01*
X0093855Y0112335D01*
X0100266Y0112335D01*
X0100910Y0111691D01*
X0100910Y0110335D01*
X0101020Y0110335D01*
X0101020Y0110456D01*
X0101920Y0111356D01*
X0105819Y0111356D01*
X0106720Y0110456D01*
X0106720Y0106557D01*
X0105819Y0105656D01*
X0101920Y0105656D01*
X0101020Y0106557D01*
X0101020Y0106635D01*
X0100910Y0106635D01*
X0100910Y0105279D01*
X0100266Y0104635D01*
X0098660Y0104635D01*
X0098660Y0102478D01*
X0097723Y0101541D01*
X0094628Y0098446D01*
X0061628Y0098446D01*
X0060128Y0096946D01*
X0061476Y0096946D01*
X0061476Y0097290D01*
X0062376Y0098191D01*
X0066275Y0098191D01*
X0067176Y0097290D01*
X0067176Y0093392D01*
X0066275Y0092491D01*
X0062376Y0092491D01*
X0061476Y0093392D01*
X0061476Y0093746D01*
X0059728Y0093746D01*
X0056176Y0090194D01*
X0055239Y0089257D01*
X0051882Y0089257D01*
X0051882Y0088520D01*
X0060942Y0088520D01*
X0061476Y0089054D01*
X0061476Y0091590D01*
X0062376Y0092491D01*
X0066275Y0092491D01*
X0067176Y0091590D01*
X0067176Y0087692D01*
X0066275Y0086791D01*
X0063738Y0086791D01*
X0062267Y0085320D01*
X0051328Y0085320D01*
X0051237Y0085229D01*
X0044027Y0085229D01*
X0043384Y0085871D02*
X0028265Y0085871D01*
X0028265Y0085073D02*
X0069532Y0085073D01*
X0069383Y0084924D02*
X0069383Y0084924D01*
X0070331Y0085871D02*
X0062819Y0085871D01*
X0063618Y0086670D02*
X0071129Y0086670D01*
X0071928Y0087469D02*
X0066953Y0087469D01*
X0067176Y0088267D02*
X0072726Y0088267D01*
X0073520Y0089066D02*
X0067176Y0089066D01*
X0067176Y0089864D02*
X0073520Y0089864D01*
X0073520Y0090663D02*
X0067176Y0090663D01*
X0067176Y0091461D02*
X0073525Y0091461D01*
X0074324Y0092260D02*
X0066506Y0092260D01*
X0066842Y0093058D02*
X0111520Y0093058D01*
X0111926Y0093857D02*
X0067176Y0093857D01*
X0067176Y0094655D02*
X0111926Y0094655D01*
X0111926Y0095454D02*
X0067176Y0095454D01*
X0067176Y0096252D02*
X0111926Y0096252D01*
X0111926Y0097051D02*
X0067176Y0097051D01*
X0066617Y0097849D02*
X0111926Y0097849D01*
X0111926Y0098648D02*
X0094830Y0098648D01*
X0095628Y0099446D02*
X0111926Y0099446D01*
X0111926Y0100245D02*
X0096427Y0100245D01*
X0097225Y0101043D02*
X0111926Y0101043D01*
X0107674Y0101842D02*
X0098024Y0101842D01*
X0098660Y0102640D02*
X0107504Y0102640D01*
X0107504Y0103439D02*
X0098660Y0103439D01*
X0098660Y0104237D02*
X0107504Y0104237D01*
X0107504Y0105036D02*
X0100667Y0105036D01*
X0100910Y0105834D02*
X0101742Y0105834D01*
X0101020Y0106633D02*
X0100910Y0106633D01*
X0100910Y0110625D02*
X0101190Y0110625D01*
X0100910Y0111424D02*
X0141504Y0111424D01*
X0141504Y0112222D02*
X0118947Y0112222D01*
X0119547Y0113021D02*
X0141504Y0113021D01*
X0141504Y0113819D02*
X0119547Y0113819D01*
X0119547Y0114618D02*
X0141504Y0114618D01*
X0141504Y0115416D02*
X0119547Y0115416D01*
X0119547Y0116215D02*
X0141504Y0116215D01*
X0141504Y0117013D02*
X0119547Y0117013D01*
X0119406Y0117812D02*
X0141504Y0117812D01*
X0141504Y0118610D02*
X0112778Y0118610D01*
X0111979Y0119409D02*
X0141504Y0119409D01*
X0141504Y0120207D02*
X0111181Y0120207D01*
X0110382Y0121006D02*
X0141504Y0121006D01*
X0141504Y0121805D02*
X0109584Y0121805D01*
X0108785Y0122603D02*
X0141504Y0122603D01*
X0141504Y0123402D02*
X0100910Y0123402D01*
X0100910Y0124200D02*
X0141504Y0124200D01*
X0141504Y0124999D02*
X0100602Y0124999D01*
X0098910Y0125797D02*
X0141504Y0125797D01*
X0141504Y0126596D02*
X0098910Y0126596D01*
X0098676Y0127394D02*
X0141504Y0127394D01*
X0141504Y0128193D02*
X0098676Y0128193D01*
X0098676Y0128991D02*
X0141504Y0128991D01*
X0141504Y0129790D02*
X0098376Y0129790D01*
X0095183Y0130588D02*
X0141504Y0130588D01*
X0141504Y0131387D02*
X0094384Y0131387D01*
X0093586Y0132185D02*
X0141504Y0132185D01*
X0141504Y0132984D02*
X0090762Y0132984D01*
X0091560Y0133782D02*
X0141504Y0133782D01*
X0141504Y0134581D02*
X0092359Y0134581D01*
X0093157Y0135379D02*
X0141504Y0135379D01*
X0141504Y0136178D02*
X0093956Y0136178D01*
X0094754Y0136976D02*
X0102370Y0136976D01*
X0101435Y0137775D02*
X0095553Y0137775D01*
X0096351Y0138573D02*
X0100798Y0138573D01*
X0100467Y0139372D02*
X0097150Y0139372D01*
X0097948Y0140170D02*
X0100251Y0140170D01*
X0100251Y0140969D02*
X0098747Y0140969D01*
X0099545Y0141767D02*
X0100309Y0141767D01*
X0100344Y0142566D02*
X0100640Y0142566D01*
X0108561Y0142566D02*
X0110640Y0142566D01*
X0110309Y0141767D02*
X0108892Y0141767D01*
X0108951Y0140969D02*
X0110251Y0140969D01*
X0110251Y0140170D02*
X0108951Y0140170D01*
X0108734Y0139372D02*
X0110467Y0139372D01*
X0110798Y0138573D02*
X0108403Y0138573D01*
X0107766Y0137775D02*
X0111435Y0137775D01*
X0112370Y0136976D02*
X0106831Y0136976D01*
X0116831Y0136976D02*
X0122370Y0136976D01*
X0121435Y0137775D02*
X0117766Y0137775D01*
X0118403Y0138573D02*
X0120798Y0138573D01*
X0120467Y0139372D02*
X0118734Y0139372D01*
X0118951Y0140170D02*
X0120251Y0140170D01*
X0120251Y0140969D02*
X0118951Y0140969D01*
X0118892Y0141767D02*
X0120309Y0141767D01*
X0120640Y0142566D02*
X0118561Y0142566D01*
X0126831Y0136976D02*
X0140329Y0136976D01*
X0140251Y0137775D02*
X0127766Y0137775D01*
X0128403Y0138573D02*
X0140251Y0138573D01*
X0140251Y0139372D02*
X0128734Y0139372D01*
X0128951Y0140170D02*
X0140251Y0140170D01*
X0140251Y0140969D02*
X0128951Y0140969D01*
X0128892Y0141767D02*
X0140251Y0141767D01*
X0140251Y0142566D02*
X0128561Y0142566D01*
X0146904Y0136178D02*
X0155385Y0136178D01*
X0154586Y0136976D02*
X0148872Y0136976D01*
X0148951Y0137775D02*
X0153788Y0137775D01*
X0152989Y0138573D02*
X0148951Y0138573D01*
X0148951Y0139372D02*
X0152191Y0139372D01*
X0151392Y0140170D02*
X0148951Y0140170D01*
X0148951Y0140969D02*
X0150594Y0140969D01*
X0149795Y0141767D02*
X0148951Y0141767D01*
X0148951Y0142566D02*
X0148997Y0142566D01*
X0146904Y0135379D02*
X0156183Y0135379D01*
X0156982Y0134581D02*
X0146904Y0134581D01*
X0146904Y0133782D02*
X0157780Y0133782D01*
X0158579Y0132984D02*
X0146904Y0132984D01*
X0146904Y0132185D02*
X0159377Y0132185D01*
X0146904Y0131387D02*
X0238436Y0131387D01*
X0238436Y0130588D02*
X0146904Y0130588D01*
X0146904Y0129790D02*
X0238436Y0129790D01*
X0238436Y0128991D02*
X0146904Y0128991D01*
X0146904Y0128193D02*
X0238436Y0128193D01*
X0238436Y0127394D02*
X0146904Y0127394D01*
X0146904Y0126596D02*
X0238436Y0126596D01*
X0238436Y0125797D02*
X0146904Y0125797D01*
X0146904Y0124999D02*
X0238436Y0124999D01*
X0238436Y0124200D02*
X0146904Y0124200D01*
X0146904Y0123402D02*
X0238436Y0123402D01*
X0238436Y0122603D02*
X0146904Y0122603D01*
X0146904Y0121805D02*
X0238436Y0121805D01*
X0238436Y0121006D02*
X0146904Y0121006D01*
X0146904Y0120207D02*
X0238436Y0120207D01*
X0238436Y0119409D02*
X0146904Y0119409D01*
X0146904Y0118610D02*
X0238436Y0118610D01*
X0238436Y0117812D02*
X0146904Y0117812D01*
X0146904Y0117013D02*
X0238436Y0117013D01*
X0238436Y0116215D02*
X0146904Y0116215D01*
X0146904Y0115416D02*
X0238436Y0115416D01*
X0238436Y0114618D02*
X0146904Y0114618D01*
X0146904Y0113819D02*
X0238436Y0113819D01*
X0238436Y0113021D02*
X0146904Y0113021D01*
X0146904Y0112222D02*
X0238436Y0112222D01*
X0238436Y0111424D02*
X0146904Y0111424D01*
X0146904Y0110625D02*
X0238436Y0110625D01*
X0238436Y0109827D02*
X0146904Y0109827D01*
X0146904Y0109028D02*
X0238436Y0109028D01*
X0238436Y0108230D02*
X0146904Y0108230D01*
X0146904Y0107431D02*
X0238436Y0107431D01*
X0238436Y0106633D02*
X0146904Y0106633D01*
X0146904Y0105834D02*
X0238436Y0105834D01*
X0238436Y0105036D02*
X0146904Y0105036D01*
X0147054Y0104237D02*
X0238436Y0104237D01*
X0238436Y0103439D02*
X0147054Y0103439D01*
X0147054Y0102640D02*
X0238436Y0102640D01*
X0238436Y0101842D02*
X0147054Y0101842D01*
X0147054Y0101043D02*
X0238436Y0101043D01*
X0238436Y0100245D02*
X0146904Y0100245D01*
X0146904Y0099446D02*
X0238436Y0099446D01*
X0238436Y0098648D02*
X0146904Y0098648D01*
X0146904Y0097849D02*
X0238436Y0097849D01*
X0238436Y0097051D02*
X0146904Y0097051D01*
X0146904Y0096252D02*
X0238436Y0096252D01*
X0238436Y0095454D02*
X0147620Y0095454D01*
X0147620Y0094655D02*
X0238436Y0094655D01*
X0238436Y0093857D02*
X0147620Y0093857D01*
X0147620Y0093058D02*
X0238436Y0093058D01*
X0238436Y0092260D02*
X0147620Y0092260D01*
X0148319Y0091461D02*
X0238436Y0091461D01*
X0238436Y0090663D02*
X0149118Y0090663D01*
X0149916Y0089864D02*
X0238436Y0089864D01*
X0238436Y0089066D02*
X0150715Y0089066D01*
X0151513Y0088267D02*
X0238436Y0088267D01*
X0238436Y0087469D02*
X0152312Y0087469D01*
X0153110Y0086670D02*
X0238436Y0086670D01*
X0238436Y0085871D02*
X0153909Y0085871D01*
X0154707Y0085073D02*
X0238436Y0085073D01*
X0238436Y0084274D02*
X0155506Y0084274D01*
X0156304Y0083476D02*
X0238436Y0083476D01*
X0238436Y0082677D02*
X0157103Y0082677D01*
X0157901Y0081879D02*
X0238436Y0081879D01*
X0238436Y0081080D02*
X0158700Y0081080D01*
X0159498Y0080282D02*
X0238436Y0080282D01*
X0238436Y0079483D02*
X0160297Y0079483D01*
X0161095Y0078685D02*
X0238436Y0078685D01*
X0238436Y0077886D02*
X0161894Y0077886D01*
X0162692Y0077088D02*
X0238436Y0077088D01*
X0238436Y0076289D02*
X0163491Y0076289D01*
X0164289Y0075491D02*
X0238436Y0075491D01*
X0238436Y0074692D02*
X0165088Y0074692D01*
X0165886Y0073894D02*
X0238436Y0073894D01*
X0238436Y0073095D02*
X0166685Y0073095D01*
X0167483Y0072297D02*
X0238436Y0072297D01*
X0201717Y0055528D02*
X0200947Y0055528D01*
X0193228Y0056327D02*
X0178671Y0056327D01*
X0177872Y0057125D02*
X0192430Y0057125D01*
X0191631Y0057924D02*
X0177074Y0057924D01*
X0176275Y0058722D02*
X0190833Y0058722D01*
X0190034Y0059521D02*
X0175477Y0059521D01*
X0174678Y0060319D02*
X0189236Y0060319D01*
X0188437Y0061118D02*
X0173880Y0061118D01*
X0173081Y0061916D02*
X0187639Y0061916D01*
X0186840Y0062715D02*
X0172283Y0062715D01*
X0171484Y0063513D02*
X0186042Y0063513D01*
X0185243Y0064312D02*
X0170686Y0064312D01*
X0169887Y0065110D02*
X0184445Y0065110D01*
X0183646Y0065909D02*
X0169089Y0065909D01*
X0165071Y0069901D02*
X0079631Y0069901D01*
X0078832Y0070700D02*
X0164272Y0070700D01*
X0163474Y0071498D02*
X0078034Y0071498D01*
X0077235Y0072297D02*
X0162675Y0072297D01*
X0161877Y0073095D02*
X0076437Y0073095D01*
X0075638Y0073894D02*
X0161078Y0073894D01*
X0160280Y0074692D02*
X0138742Y0074692D01*
X0138556Y0074506D02*
X0139420Y0075370D01*
X0139420Y0078842D01*
X0138556Y0079706D01*
X0134584Y0079706D01*
X0133720Y0078842D01*
X0133720Y0078706D01*
X0133220Y0078706D01*
X0133220Y0079056D01*
X0132319Y0079956D01*
X0128420Y0079956D01*
X0127520Y0079056D01*
X0127520Y0075157D01*
X0128420Y0074256D01*
X0132319Y0074256D01*
X0133220Y0075157D01*
X0133220Y0075506D01*
X0133720Y0075506D01*
X0133720Y0075370D01*
X0134584Y0074506D01*
X0138556Y0074506D01*
X0139420Y0075491D02*
X0159481Y0075491D01*
X0158683Y0076289D02*
X0139420Y0076289D01*
X0139420Y0077088D02*
X0157884Y0077088D01*
X0157086Y0077886D02*
X0139420Y0077886D01*
X0139420Y0078685D02*
X0156287Y0078685D01*
X0155489Y0079483D02*
X0138779Y0079483D01*
X0139130Y0081080D02*
X0153892Y0081080D01*
X0154690Y0080282D02*
X0069550Y0080282D01*
X0070049Y0079483D02*
X0127948Y0079483D01*
X0127520Y0078685D02*
X0070847Y0078685D01*
X0071646Y0077886D02*
X0127520Y0077886D01*
X0127520Y0077088D02*
X0072444Y0077088D01*
X0073243Y0076289D02*
X0127520Y0076289D01*
X0127520Y0075491D02*
X0074041Y0075491D01*
X0074840Y0074692D02*
X0127984Y0074692D01*
X0132755Y0074692D02*
X0134398Y0074692D01*
X0133720Y0075491D02*
X0133220Y0075491D01*
X0132792Y0079483D02*
X0134361Y0079483D01*
X0134010Y0081080D02*
X0070348Y0081080D01*
X0070550Y0081283D02*
X0070550Y0081283D01*
X0071147Y0081879D02*
X0133720Y0081879D01*
X0133720Y0082677D02*
X0071945Y0082677D01*
X0072744Y0083476D02*
X0133720Y0083476D01*
X0133720Y0084274D02*
X0073542Y0084274D01*
X0074341Y0085073D02*
X0133951Y0085073D01*
X0134720Y0085871D02*
X0075139Y0085871D01*
X0078333Y0086670D02*
X0133160Y0086670D01*
X0138420Y0085871D02*
X0149100Y0085871D01*
X0149899Y0085073D02*
X0139189Y0085073D01*
X0139420Y0084274D02*
X0150697Y0084274D01*
X0151496Y0083476D02*
X0139420Y0083476D01*
X0139420Y0082677D02*
X0152295Y0082677D01*
X0153093Y0081879D02*
X0139420Y0081879D01*
X0139379Y0086670D02*
X0148302Y0086670D01*
X0147503Y0087469D02*
X0139620Y0087469D01*
X0139620Y0088267D02*
X0146705Y0088267D01*
X0145906Y0089066D02*
X0139620Y0089066D01*
X0139620Y0089864D02*
X0145108Y0089864D01*
X0140920Y0090663D02*
X0139620Y0090663D01*
X0139620Y0091461D02*
X0140920Y0091461D01*
X0140920Y0092260D02*
X0139182Y0092260D01*
X0140920Y0093058D02*
X0117732Y0093058D01*
X0117326Y0093857D02*
X0140920Y0093857D01*
X0140920Y0094655D02*
X0117326Y0094655D01*
X0117326Y0095454D02*
X0140920Y0095454D01*
X0141504Y0096252D02*
X0117326Y0096252D01*
X0117326Y0097051D02*
X0141504Y0097051D01*
X0141504Y0097849D02*
X0117326Y0097849D01*
X0117326Y0098648D02*
X0141504Y0098648D01*
X0141504Y0099446D02*
X0117326Y0099446D01*
X0117326Y0100245D02*
X0141504Y0100245D01*
X0141354Y0101043D02*
X0117326Y0101043D01*
X0122293Y0101842D02*
X0141354Y0101842D01*
X0141354Y0102640D02*
X0123522Y0102640D01*
X0124321Y0103439D02*
X0141354Y0103439D01*
X0141354Y0104237D02*
X0126100Y0104237D01*
X0126320Y0105036D02*
X0141504Y0105036D01*
X0141504Y0105834D02*
X0126320Y0105834D01*
X0126320Y0106633D02*
X0141504Y0106633D01*
X0141504Y0107431D02*
X0126320Y0107431D01*
X0126320Y0108230D02*
X0141504Y0108230D01*
X0141504Y0109028D02*
X0125647Y0109028D01*
X0121292Y0109028D02*
X0106720Y0109028D01*
X0106720Y0108230D02*
X0120620Y0108230D01*
X0120620Y0107431D02*
X0118975Y0107431D01*
X0108076Y0107431D02*
X0106720Y0107431D01*
X0106720Y0106633D02*
X0107504Y0106633D01*
X0107504Y0105834D02*
X0105997Y0105834D01*
X0106720Y0109827D02*
X0141504Y0109827D01*
X0141504Y0110625D02*
X0106550Y0110625D01*
X0108104Y0112222D02*
X0100379Y0112222D01*
X0093742Y0112222D02*
X0084409Y0112222D01*
X0084920Y0111424D02*
X0093210Y0111424D01*
X0093210Y0110625D02*
X0084920Y0110625D01*
X0084920Y0109827D02*
X0093210Y0109827D01*
X0093210Y0109028D02*
X0084920Y0109028D01*
X0084920Y0108230D02*
X0093210Y0108230D01*
X0093210Y0107431D02*
X0084920Y0107431D01*
X0084920Y0106633D02*
X0093210Y0106633D01*
X0093210Y0105834D02*
X0084920Y0105834D01*
X0084655Y0105036D02*
X0093454Y0105036D01*
X0095460Y0104237D02*
X0072719Y0104237D01*
X0071921Y0103439D02*
X0095095Y0103439D01*
X0094297Y0102640D02*
X0071122Y0102640D01*
X0070324Y0101842D02*
X0093498Y0101842D01*
X0078416Y0092260D02*
X0110721Y0092260D01*
X0118530Y0092260D02*
X0128024Y0092260D01*
X0107504Y0113021D02*
X0028265Y0113021D01*
X0028265Y0113819D02*
X0107504Y0113819D01*
X0107504Y0114618D02*
X0028265Y0114618D01*
X0028940Y0115416D02*
X0107504Y0115416D01*
X0107504Y0116215D02*
X0029739Y0116215D01*
X0027326Y0118610D02*
X0010765Y0118610D01*
X0010765Y0117812D02*
X0026527Y0117812D01*
X0025729Y0117013D02*
X0010765Y0117013D01*
X0010765Y0116215D02*
X0024930Y0116215D01*
X0024865Y0115416D02*
X0010765Y0115416D01*
X0010765Y0114618D02*
X0024865Y0114618D01*
X0024865Y0113819D02*
X0010765Y0113819D01*
X0010765Y0113021D02*
X0024865Y0113021D01*
X0024865Y0112222D02*
X0010765Y0112222D01*
X0010765Y0111424D02*
X0024865Y0111424D01*
X0024865Y0110625D02*
X0010765Y0110625D01*
X0010765Y0109827D02*
X0024865Y0109827D01*
X0024865Y0109028D02*
X0010765Y0109028D01*
X0010765Y0108230D02*
X0024865Y0108230D01*
X0024865Y0107431D02*
X0010765Y0107431D01*
X0010765Y0106633D02*
X0024865Y0106633D01*
X0024865Y0105834D02*
X0010765Y0105834D01*
X0010765Y0105036D02*
X0024865Y0105036D01*
X0024865Y0104237D02*
X0010765Y0104237D01*
X0010765Y0103439D02*
X0024865Y0103439D01*
X0024865Y0102640D02*
X0010765Y0102640D01*
X0010765Y0101842D02*
X0024865Y0101842D01*
X0024865Y0101043D02*
X0010765Y0101043D01*
X0010765Y0100245D02*
X0024865Y0100245D01*
X0024865Y0099446D02*
X0010765Y0099446D01*
X0010765Y0098648D02*
X0024865Y0098648D01*
X0024865Y0097849D02*
X0010765Y0097849D01*
X0010765Y0097051D02*
X0024865Y0097051D01*
X0024865Y0096252D02*
X0010765Y0096252D01*
X0010765Y0095454D02*
X0024865Y0095454D01*
X0024865Y0094655D02*
X0010765Y0094655D01*
X0010765Y0093857D02*
X0024865Y0093857D01*
X0024865Y0093058D02*
X0010765Y0093058D01*
X0010765Y0092260D02*
X0024865Y0092260D01*
X0024865Y0091461D02*
X0010765Y0091461D01*
X0010765Y0090663D02*
X0024865Y0090663D01*
X0024865Y0089864D02*
X0010765Y0089864D01*
X0010765Y0089066D02*
X0024865Y0089066D01*
X0024865Y0088267D02*
X0010765Y0088267D01*
X0010765Y0087469D02*
X0024865Y0087469D01*
X0024865Y0086670D02*
X0010765Y0086670D01*
X0010765Y0085871D02*
X0024865Y0085871D01*
X0024865Y0085073D02*
X0010765Y0085073D01*
X0010765Y0084274D02*
X0024865Y0084274D01*
X0024865Y0083476D02*
X0010765Y0083476D01*
X0010765Y0082677D02*
X0024865Y0082677D01*
X0024865Y0081879D02*
X0010765Y0081879D01*
X0010765Y0081080D02*
X0024865Y0081080D01*
X0024865Y0080282D02*
X0010765Y0080282D01*
X0010765Y0079483D02*
X0024865Y0079483D01*
X0024865Y0078685D02*
X0010765Y0078685D01*
X0010765Y0077886D02*
X0024865Y0077886D01*
X0024865Y0077088D02*
X0010765Y0077088D01*
X0010765Y0076289D02*
X0024865Y0076289D01*
X0024865Y0075491D02*
X0010765Y0075491D01*
X0010765Y0074692D02*
X0024865Y0074692D01*
X0024865Y0073894D02*
X0010765Y0073894D01*
X0010765Y0073095D02*
X0024865Y0073095D01*
X0024865Y0072297D02*
X0010765Y0072297D01*
X0010765Y0071498D02*
X0024865Y0071498D01*
X0024865Y0070700D02*
X0010765Y0070700D01*
X0010765Y0069901D02*
X0024865Y0069901D01*
X0024865Y0069103D02*
X0010765Y0069103D01*
X0010765Y0068304D02*
X0024865Y0068304D01*
X0024865Y0067506D02*
X0010765Y0067506D01*
X0010765Y0066707D02*
X0024865Y0066707D01*
X0024865Y0065909D02*
X0010765Y0065909D01*
X0010765Y0065110D02*
X0024865Y0065110D01*
X0024865Y0064312D02*
X0010765Y0064312D01*
X0010765Y0063513D02*
X0024865Y0063513D01*
X0024865Y0062715D02*
X0010765Y0062715D01*
X0010765Y0061916D02*
X0024865Y0061916D01*
X0024865Y0061118D02*
X0010765Y0061118D01*
X0010765Y0060319D02*
X0024865Y0060319D01*
X0024865Y0059521D02*
X0010765Y0059521D01*
X0010765Y0058722D02*
X0024865Y0058722D01*
X0024865Y0057924D02*
X0010765Y0057924D01*
X0010765Y0057125D02*
X0024865Y0057125D01*
X0024865Y0056327D02*
X0010765Y0056327D01*
X0010765Y0055528D02*
X0024865Y0055528D01*
X0024865Y0054730D02*
X0010765Y0054730D01*
X0010765Y0053931D02*
X0024865Y0053931D01*
X0024865Y0053133D02*
X0010765Y0053133D01*
X0010765Y0052334D02*
X0024865Y0052334D01*
X0024865Y0051536D02*
X0010765Y0051536D01*
X0010765Y0050737D02*
X0024865Y0050737D01*
X0024865Y0049938D02*
X0010765Y0049938D01*
X0010765Y0049140D02*
X0024865Y0049140D01*
X0024865Y0048341D02*
X0010765Y0048341D01*
X0010765Y0047543D02*
X0024865Y0047543D01*
X0024865Y0046744D02*
X0010765Y0046744D01*
X0010765Y0045946D02*
X0024865Y0045946D01*
X0024865Y0045147D02*
X0010765Y0045147D01*
X0010765Y0044349D02*
X0024865Y0044349D01*
X0024865Y0043550D02*
X0010765Y0043550D01*
X0010765Y0042752D02*
X0024865Y0042752D01*
X0024865Y0041953D02*
X0010765Y0041953D01*
X0010765Y0041155D02*
X0024865Y0041155D01*
X0024950Y0040356D02*
X0010765Y0040356D01*
X0010765Y0039558D02*
X0025749Y0039558D01*
X0025861Y0039446D02*
X0025861Y0039446D01*
X0026547Y0038759D02*
X0010765Y0038759D01*
X0010765Y0037961D02*
X0027346Y0037961D01*
X0028144Y0037162D02*
X0010765Y0037162D01*
X0010765Y0036364D02*
X0028943Y0036364D01*
X0029741Y0035565D02*
X0010765Y0035565D01*
X0010765Y0034767D02*
X0030540Y0034767D01*
X0031338Y0033968D02*
X0010765Y0033968D01*
X0010765Y0033170D02*
X0032137Y0033170D01*
X0032935Y0032371D02*
X0010765Y0032371D01*
X0010765Y0031573D02*
X0033734Y0031573D01*
X0034550Y0035565D02*
X0056265Y0035565D01*
X0056265Y0034767D02*
X0055963Y0034767D01*
X0056183Y0033968D02*
X0056265Y0033968D01*
X0056265Y0033170D02*
X0056183Y0033170D01*
X0056183Y0032371D02*
X0056265Y0032371D01*
X0056265Y0031573D02*
X0056090Y0031573D01*
X0056474Y0030774D02*
X0010765Y0030774D01*
X0010765Y0029976D02*
X0057272Y0029976D01*
X0058071Y0029177D02*
X0010765Y0029177D01*
X0010765Y0028379D02*
X0064576Y0028379D01*
X0065087Y0027580D02*
X0010765Y0027580D01*
X0010765Y0026782D02*
X0103638Y0026782D01*
X0103001Y0025983D02*
X0010765Y0025983D01*
X0010765Y0025185D02*
X0103001Y0025185D01*
X0103001Y0024386D02*
X0010765Y0024386D01*
X0010765Y0023588D02*
X0103001Y0023588D01*
X0103001Y0022789D02*
X0010765Y0022789D01*
X0033751Y0036364D02*
X0056265Y0036364D01*
X0056265Y0037162D02*
X0032953Y0037162D01*
X0032154Y0037961D02*
X0056265Y0037961D01*
X0056265Y0038759D02*
X0031356Y0038759D01*
X0030557Y0039558D02*
X0056265Y0039558D01*
X0056265Y0040356D02*
X0029759Y0040356D01*
X0028960Y0041155D02*
X0056265Y0041155D01*
X0056265Y0041953D02*
X0028265Y0041953D01*
X0028265Y0042752D02*
X0056265Y0042752D01*
X0056265Y0043550D02*
X0028265Y0043550D01*
X0028265Y0044349D02*
X0056265Y0044349D01*
X0056265Y0045147D02*
X0028265Y0045147D01*
X0028265Y0045946D02*
X0056265Y0045946D01*
X0056265Y0046744D02*
X0028265Y0046744D01*
X0028265Y0047543D02*
X0056265Y0047543D01*
X0056265Y0048341D02*
X0028265Y0048341D01*
X0028265Y0049140D02*
X0056265Y0049140D01*
X0055510Y0049938D02*
X0028265Y0049938D01*
X0028265Y0050737D02*
X0054711Y0050737D01*
X0053913Y0051536D02*
X0028265Y0051536D01*
X0028265Y0052334D02*
X0043457Y0052334D01*
X0043382Y0053133D02*
X0028265Y0053133D01*
X0028265Y0053931D02*
X0043382Y0053931D01*
X0043382Y0054730D02*
X0028265Y0054730D01*
X0028265Y0055528D02*
X0043382Y0055528D01*
X0043382Y0056327D02*
X0028265Y0056327D01*
X0028265Y0057125D02*
X0043382Y0057125D01*
X0043382Y0057924D02*
X0028265Y0057924D01*
X0028265Y0058722D02*
X0043382Y0058722D01*
X0043382Y0059521D02*
X0028265Y0059521D01*
X0028265Y0060319D02*
X0043382Y0060319D01*
X0043382Y0061118D02*
X0028265Y0061118D01*
X0028265Y0061916D02*
X0043382Y0061916D01*
X0043382Y0062715D02*
X0028265Y0062715D01*
X0028265Y0063513D02*
X0043382Y0063513D01*
X0043382Y0064312D02*
X0028265Y0064312D01*
X0028265Y0065110D02*
X0043382Y0065110D01*
X0043382Y0065909D02*
X0028265Y0065909D01*
X0028265Y0066707D02*
X0043382Y0066707D01*
X0043382Y0067506D02*
X0028265Y0067506D01*
X0028265Y0068304D02*
X0043382Y0068304D01*
X0043382Y0069103D02*
X0028265Y0069103D01*
X0028265Y0069901D02*
X0043382Y0069901D01*
X0043382Y0070700D02*
X0028265Y0070700D01*
X0028265Y0071498D02*
X0043382Y0071498D01*
X0043382Y0072297D02*
X0028265Y0072297D01*
X0028265Y0073095D02*
X0043382Y0073095D01*
X0043382Y0073894D02*
X0028265Y0073894D01*
X0028265Y0074692D02*
X0043382Y0074692D01*
X0047632Y0069203D02*
X0067601Y0069203D01*
X0076440Y0060365D01*
X0097912Y0060365D01*
X0105470Y0052806D01*
X0110851Y0052806D01*
X0110886Y0052841D01*
X0113736Y0053133D02*
X0115516Y0053133D01*
X0115516Y0053931D02*
X0113736Y0053931D01*
X0113736Y0054730D02*
X0115516Y0054730D01*
X0115516Y0055528D02*
X0113736Y0055528D01*
X0113736Y0052334D02*
X0115516Y0052334D01*
X0115516Y0051536D02*
X0113736Y0051536D01*
X0113736Y0050737D02*
X0115516Y0050737D01*
X0117476Y0046744D02*
X0121220Y0046744D01*
X0121220Y0045946D02*
X0117476Y0045946D01*
X0117476Y0045147D02*
X0121220Y0045147D01*
X0121728Y0044349D02*
X0117476Y0044349D01*
X0117476Y0043550D02*
X0126908Y0043550D01*
X0126565Y0044349D02*
X0126412Y0044349D01*
X0127706Y0042752D02*
X0117476Y0042752D01*
X0117294Y0041953D02*
X0130858Y0041953D01*
X0130676Y0042752D02*
X0130024Y0042752D01*
X0131110Y0041155D02*
X0122999Y0041155D01*
X0123454Y0040356D02*
X0130654Y0040356D01*
X0130654Y0039558D02*
X0123454Y0039558D01*
X0123454Y0038759D02*
X0130654Y0038759D01*
X0130654Y0037961D02*
X0123454Y0037961D01*
X0123454Y0037162D02*
X0130654Y0037162D01*
X0131092Y0036364D02*
X0123017Y0036364D01*
X0118192Y0036364D02*
X0117017Y0036364D01*
X0117454Y0037162D02*
X0117754Y0037162D01*
X0117754Y0037961D02*
X0117454Y0037961D01*
X0117454Y0038759D02*
X0117754Y0038759D01*
X0117754Y0039558D02*
X0117454Y0039558D01*
X0117454Y0040356D02*
X0117754Y0040356D01*
X0118210Y0041155D02*
X0116999Y0041155D01*
X0112210Y0041155D02*
X0102199Y0041155D01*
X0102654Y0040356D02*
X0111754Y0040356D01*
X0111754Y0039558D02*
X0102654Y0039558D01*
X0102654Y0038759D02*
X0111754Y0038759D01*
X0111754Y0037961D02*
X0102857Y0037961D01*
X0103655Y0037162D02*
X0111754Y0037162D01*
X0112192Y0036364D02*
X0104454Y0036364D01*
X0102324Y0033968D02*
X0070276Y0033968D01*
X0070276Y0034767D02*
X0101525Y0034767D01*
X0100727Y0035565D02*
X0070276Y0035565D01*
X0070276Y0036364D02*
X0091392Y0036364D01*
X0090954Y0037162D02*
X0070276Y0037162D01*
X0070005Y0037961D02*
X0090954Y0037961D01*
X0090954Y0038759D02*
X0069543Y0038759D01*
X0070276Y0039558D02*
X0090954Y0039558D01*
X0090954Y0040356D02*
X0070276Y0040356D01*
X0070276Y0041155D02*
X0091410Y0041155D01*
X0091158Y0041953D02*
X0070276Y0041953D01*
X0070276Y0042752D02*
X0090976Y0042752D01*
X0090976Y0043550D02*
X0070116Y0043550D01*
X0069533Y0044349D02*
X0081928Y0044349D01*
X0081420Y0045147D02*
X0070276Y0045147D01*
X0070276Y0045946D02*
X0081420Y0045946D01*
X0081420Y0046744D02*
X0070276Y0046744D01*
X0070276Y0047543D02*
X0081420Y0047543D01*
X0081420Y0048341D02*
X0070276Y0048341D01*
X0070126Y0049140D02*
X0081804Y0049140D01*
X0081540Y0050737D02*
X0069026Y0050737D01*
X0069026Y0049938D02*
X0084176Y0049938D01*
X0081420Y0051536D02*
X0068838Y0051536D01*
X0068039Y0052334D02*
X0081420Y0052334D01*
X0081420Y0053133D02*
X0067241Y0053133D01*
X0066442Y0053931D02*
X0081024Y0053931D01*
X0080225Y0054730D02*
X0065644Y0054730D01*
X0064845Y0055528D02*
X0079427Y0055528D01*
X0078628Y0056327D02*
X0064047Y0056327D01*
X0063248Y0057125D02*
X0077830Y0057125D01*
X0078212Y0058865D02*
X0075818Y0058865D01*
X0067437Y0067246D01*
X0053012Y0067246D01*
X0053001Y0067235D01*
X0047632Y0067235D01*
X0051882Y0065110D02*
X0067451Y0065110D01*
X0068250Y0064312D02*
X0051882Y0064312D01*
X0051882Y0063513D02*
X0069048Y0063513D01*
X0069847Y0062715D02*
X0057659Y0062715D01*
X0058457Y0061916D02*
X0070645Y0061916D01*
X0071444Y0061118D02*
X0059256Y0061118D01*
X0060054Y0060319D02*
X0072242Y0060319D01*
X0073041Y0059521D02*
X0060853Y0059521D01*
X0061651Y0058722D02*
X0073839Y0058722D01*
X0074638Y0057924D02*
X0062450Y0057924D01*
X0053114Y0052334D02*
X0051807Y0052334D01*
X0051882Y0053133D02*
X0052315Y0053133D01*
X0061865Y0044349D02*
X0062255Y0044349D01*
X0061865Y0043550D02*
X0063054Y0043550D01*
X0063852Y0042752D02*
X0061865Y0042752D01*
X0061865Y0041953D02*
X0064576Y0041953D01*
X0064576Y0041155D02*
X0061865Y0041155D01*
X0061865Y0040356D02*
X0064576Y0040356D01*
X0064576Y0039558D02*
X0061865Y0039558D01*
X0061865Y0038759D02*
X0065308Y0038759D01*
X0064846Y0037961D02*
X0062137Y0037961D01*
X0059495Y0036077D02*
X0059495Y0034225D01*
X0060139Y0033581D01*
X0064200Y0033581D01*
X0064576Y0033957D01*
X0064576Y0033792D01*
X0065476Y0032891D01*
X0069375Y0032891D01*
X0065476Y0032891D01*
X0064733Y0032147D01*
X0064685Y0032147D01*
X0064200Y0032631D01*
X0060139Y0032631D01*
X0059655Y0032147D01*
X0059626Y0032147D01*
X0059465Y0032308D01*
X0059465Y0036107D01*
X0059495Y0036077D01*
X0059465Y0035565D02*
X0059495Y0035565D01*
X0059465Y0034767D02*
X0059495Y0034767D01*
X0059465Y0033968D02*
X0059752Y0033968D01*
X0059465Y0033170D02*
X0065198Y0033170D01*
X0064957Y0032371D02*
X0064461Y0032371D01*
X0059879Y0032371D02*
X0059465Y0032371D01*
X0069654Y0033170D02*
X0103122Y0033170D01*
X0106832Y0029976D02*
X0070276Y0029976D01*
X0070276Y0030774D02*
X0107631Y0030774D01*
X0108429Y0031573D02*
X0070276Y0031573D01*
X0069895Y0032371D02*
X0109228Y0032371D01*
X0110828Y0029446D02*
X0117902Y0029446D01*
X0113938Y0025481D01*
X0113001Y0024544D01*
X0113001Y0017046D01*
X0112136Y0016688D01*
X0110913Y0015464D01*
X0110251Y0013865D01*
X0110251Y0012135D01*
X0110913Y0010536D01*
X0110949Y0010500D01*
X0108951Y0010500D01*
X0108951Y0016706D01*
X0108306Y0017350D01*
X0106201Y0017350D01*
X0106201Y0024818D01*
X0110828Y0029446D01*
X0110559Y0029177D02*
X0117634Y0029177D01*
X0116835Y0028379D02*
X0109761Y0028379D01*
X0108962Y0027580D02*
X0116037Y0027580D01*
X0115238Y0026782D02*
X0108164Y0026782D01*
X0107365Y0025983D02*
X0114440Y0025983D01*
X0113641Y0025185D02*
X0106567Y0025185D01*
X0106201Y0024386D02*
X0113001Y0024386D01*
X0113001Y0023588D02*
X0106201Y0023588D01*
X0106201Y0022789D02*
X0113001Y0022789D01*
X0113001Y0021991D02*
X0106201Y0021991D01*
X0106201Y0021192D02*
X0113001Y0021192D01*
X0113001Y0020394D02*
X0106201Y0020394D01*
X0106201Y0019595D02*
X0113001Y0019595D01*
X0113001Y0018797D02*
X0106201Y0018797D01*
X0106201Y0017998D02*
X0113001Y0017998D01*
X0113001Y0017200D02*
X0108457Y0017200D01*
X0108951Y0016401D02*
X0111850Y0016401D01*
X0111051Y0015602D02*
X0108951Y0015602D01*
X0108951Y0014804D02*
X0110639Y0014804D01*
X0110309Y0014005D02*
X0108951Y0014005D01*
X0108951Y0013207D02*
X0110251Y0013207D01*
X0110251Y0012408D02*
X0108951Y0012408D01*
X0108951Y0011610D02*
X0110468Y0011610D01*
X0110799Y0010811D02*
X0108951Y0010811D01*
X0100251Y0011610D02*
X0099929Y0011610D01*
X0100251Y0012408D02*
X0099130Y0012408D01*
X0098332Y0013207D02*
X0100251Y0013207D01*
X0100251Y0014005D02*
X0097533Y0014005D01*
X0096735Y0014804D02*
X0100251Y0014804D01*
X0100251Y0015602D02*
X0095936Y0015602D01*
X0095138Y0016401D02*
X0100251Y0016401D01*
X0100744Y0017200D02*
X0094339Y0017200D01*
X0093541Y0017998D02*
X0103001Y0017998D01*
X0103001Y0018797D02*
X0092742Y0018797D01*
X0091944Y0019595D02*
X0103001Y0019595D01*
X0103001Y0020394D02*
X0091145Y0020394D01*
X0090346Y0021192D02*
X0103001Y0021192D01*
X0103001Y0021991D02*
X0089121Y0021991D01*
X0104437Y0027580D02*
X0069764Y0027580D01*
X0070276Y0028379D02*
X0105235Y0028379D01*
X0106034Y0029177D02*
X0070276Y0029177D01*
X0067426Y0041441D02*
X0067421Y0041446D01*
X0067426Y0047041D02*
X0067321Y0047146D01*
X0078212Y0058865D02*
X0084270Y0052806D01*
X0090051Y0052806D01*
X0090086Y0052841D01*
X0092936Y0053133D02*
X0094716Y0053133D01*
X0094716Y0053931D02*
X0092936Y0053931D01*
X0092936Y0054730D02*
X0094716Y0054730D01*
X0094716Y0055528D02*
X0092936Y0055528D01*
X0092936Y0055547D02*
X0092291Y0056191D01*
X0087880Y0056191D01*
X0087236Y0055547D01*
X0087236Y0054306D01*
X0087120Y0054306D01*
X0087120Y0054756D01*
X0086219Y0055656D01*
X0083541Y0055656D01*
X0080333Y0058865D01*
X0097290Y0058865D01*
X0102620Y0053535D01*
X0102620Y0050857D01*
X0102831Y0050646D01*
X0100416Y0050646D01*
X0100416Y0055547D01*
X0099772Y0056191D01*
X0095360Y0056191D01*
X0094716Y0055547D01*
X0094716Y0050646D01*
X0092936Y0050646D01*
X0092936Y0055547D01*
X0092936Y0052334D02*
X0094716Y0052334D01*
X0094716Y0051536D02*
X0092936Y0051536D01*
X0092936Y0050737D02*
X0094716Y0050737D01*
X0096676Y0046744D02*
X0096711Y0046744D01*
X0099419Y0046744D02*
X0102620Y0046744D01*
X0102620Y0045946D02*
X0100218Y0045946D01*
X0100365Y0045147D02*
X0102620Y0045147D01*
X0103128Y0044349D02*
X0100365Y0044349D01*
X0100023Y0043550D02*
X0108608Y0043550D01*
X0108265Y0044349D02*
X0107812Y0044349D01*
X0109406Y0042752D02*
X0099224Y0042752D01*
X0096906Y0042752D02*
X0096676Y0042752D01*
X0096494Y0041953D02*
X0111958Y0041953D01*
X0111776Y0042752D02*
X0111724Y0042752D01*
X0102740Y0050737D02*
X0100416Y0050737D01*
X0100416Y0051536D02*
X0102620Y0051536D01*
X0102620Y0052334D02*
X0100416Y0052334D01*
X0100416Y0053133D02*
X0102620Y0053133D01*
X0102224Y0053931D02*
X0100416Y0053931D01*
X0100416Y0054730D02*
X0101425Y0054730D01*
X0100627Y0055528D02*
X0100416Y0055528D01*
X0099828Y0056327D02*
X0082871Y0056327D01*
X0082072Y0057125D02*
X0099030Y0057125D01*
X0098231Y0057924D02*
X0081274Y0057924D01*
X0080475Y0058722D02*
X0097433Y0058722D01*
X0107547Y0055528D02*
X0108036Y0055528D01*
X0090976Y0046744D02*
X0087642Y0046744D01*
X0087120Y0045946D02*
X0090976Y0045946D01*
X0090976Y0045147D02*
X0087120Y0045147D01*
X0086612Y0044349D02*
X0090976Y0044349D01*
X0096199Y0041155D02*
X0097410Y0041155D01*
X0096954Y0040356D02*
X0096654Y0040356D01*
X0096654Y0039558D02*
X0096954Y0039558D01*
X0096954Y0038759D02*
X0096654Y0038759D01*
X0096654Y0037961D02*
X0096954Y0037961D01*
X0096954Y0037162D02*
X0096654Y0037162D01*
X0096217Y0036364D02*
X0097392Y0036364D01*
X0116201Y0023218D02*
X0120728Y0027746D01*
X0127702Y0027746D01*
X0123938Y0023981D01*
X0123001Y0023044D01*
X0123001Y0017046D01*
X0122136Y0016688D01*
X0120913Y0015464D01*
X0120251Y0013865D01*
X0120251Y0012135D01*
X0120913Y0010536D01*
X0120949Y0010500D01*
X0118252Y0010500D01*
X0118288Y0010536D01*
X0118951Y0012135D01*
X0118951Y0013865D01*
X0118288Y0015464D01*
X0117065Y0016688D01*
X0116201Y0017046D01*
X0116201Y0023218D01*
X0116201Y0022789D02*
X0123001Y0022789D01*
X0123001Y0021991D02*
X0116201Y0021991D01*
X0116201Y0021192D02*
X0123001Y0021192D01*
X0123001Y0020394D02*
X0116201Y0020394D01*
X0116201Y0019595D02*
X0123001Y0019595D01*
X0123001Y0018797D02*
X0116201Y0018797D01*
X0116201Y0017998D02*
X0123001Y0017998D01*
X0123001Y0017200D02*
X0116201Y0017200D01*
X0117351Y0016401D02*
X0121850Y0016401D01*
X0121051Y0015602D02*
X0118150Y0015602D01*
X0118562Y0014804D02*
X0120639Y0014804D01*
X0120309Y0014005D02*
X0118892Y0014005D01*
X0118951Y0013207D02*
X0120251Y0013207D01*
X0120251Y0012408D02*
X0118951Y0012408D01*
X0118733Y0011610D02*
X0120468Y0011610D01*
X0120799Y0010811D02*
X0118402Y0010811D01*
X0128252Y0010500D02*
X0128288Y0010536D01*
X0128951Y0012135D01*
X0128951Y0013865D01*
X0128288Y0015464D01*
X0127065Y0016688D01*
X0126201Y0017046D01*
X0126201Y0021718D01*
X0130528Y0026046D01*
X0138502Y0026046D01*
X0133938Y0021481D01*
X0133001Y0020544D01*
X0133001Y0017046D01*
X0132136Y0016688D01*
X0130913Y0015464D01*
X0130251Y0013865D01*
X0130251Y0012135D01*
X0130913Y0010536D01*
X0130949Y0010500D01*
X0128252Y0010500D01*
X0128402Y0010811D02*
X0130799Y0010811D01*
X0130468Y0011610D02*
X0128733Y0011610D01*
X0128951Y0012408D02*
X0130251Y0012408D01*
X0130251Y0013207D02*
X0128951Y0013207D01*
X0128892Y0014005D02*
X0130309Y0014005D01*
X0130639Y0014804D02*
X0128562Y0014804D01*
X0128150Y0015602D02*
X0131051Y0015602D01*
X0131850Y0016401D02*
X0127351Y0016401D01*
X0126201Y0017200D02*
X0133001Y0017200D01*
X0133001Y0017998D02*
X0126201Y0017998D01*
X0126201Y0018797D02*
X0133001Y0018797D01*
X0133001Y0019595D02*
X0126201Y0019595D01*
X0126201Y0020394D02*
X0133001Y0020394D01*
X0133649Y0021192D02*
X0126201Y0021192D01*
X0126473Y0021991D02*
X0134447Y0021991D01*
X0135246Y0022789D02*
X0127271Y0022789D01*
X0128070Y0023588D02*
X0136044Y0023588D01*
X0136843Y0024386D02*
X0128868Y0024386D01*
X0129667Y0025185D02*
X0137641Y0025185D01*
X0138440Y0025983D02*
X0130465Y0025983D01*
X0127537Y0027580D02*
X0120562Y0027580D01*
X0119764Y0026782D02*
X0126738Y0026782D01*
X0125940Y0025983D02*
X0118965Y0025983D01*
X0118167Y0025185D02*
X0125141Y0025185D01*
X0124343Y0024386D02*
X0117368Y0024386D01*
X0116570Y0023588D02*
X0123544Y0023588D01*
X0136201Y0018797D02*
X0156598Y0018797D01*
X0157397Y0019595D02*
X0136577Y0019595D01*
X0137376Y0020394D02*
X0158195Y0020394D01*
X0158994Y0021192D02*
X0138174Y0021192D01*
X0138973Y0021991D02*
X0160219Y0021991D01*
X0155800Y0017998D02*
X0136201Y0017998D01*
X0136201Y0017200D02*
X0155001Y0017200D01*
X0154203Y0016401D02*
X0137351Y0016401D01*
X0138150Y0015602D02*
X0153404Y0015602D01*
X0152606Y0014804D02*
X0138562Y0014804D01*
X0138892Y0014005D02*
X0151807Y0014005D01*
X0151009Y0013207D02*
X0138951Y0013207D01*
X0138951Y0012408D02*
X0150210Y0012408D01*
X0149412Y0011610D02*
X0138733Y0011610D01*
X0138402Y0010811D02*
X0148613Y0010811D01*
X0139771Y0022789D02*
X0238436Y0022789D01*
X0238436Y0023588D02*
X0140570Y0023588D01*
X0164192Y0029976D02*
X0178367Y0029976D01*
X0179166Y0030774D02*
X0164991Y0030774D01*
X0180497Y0027580D02*
X0194772Y0027580D01*
X0195570Y0028379D02*
X0181295Y0028379D01*
X0182094Y0029177D02*
X0196369Y0029177D01*
X0197167Y0029976D02*
X0182892Y0029976D01*
X0183691Y0030774D02*
X0197966Y0030774D01*
X0200095Y0028379D02*
X0238436Y0028379D01*
X0238436Y0029177D02*
X0200894Y0029177D01*
X0201693Y0029976D02*
X0238436Y0029976D01*
X0238436Y0030774D02*
X0202491Y0030774D01*
X0199297Y0027580D02*
X0238436Y0027580D01*
X0238436Y0026782D02*
X0198498Y0026782D01*
X0197700Y0025983D02*
X0238436Y0025983D01*
X0238436Y0025185D02*
X0196901Y0025185D01*
X0196103Y0024386D02*
X0238436Y0024386D01*
X0205376Y0044349D02*
X0201212Y0044349D01*
X0201720Y0045147D02*
X0205376Y0045147D01*
X0205376Y0045946D02*
X0201720Y0045946D01*
X0201720Y0046744D02*
X0205376Y0046744D01*
X0182917Y0055528D02*
X0182147Y0055528D01*
X0167876Y0046744D02*
X0164320Y0046744D01*
X0164320Y0045946D02*
X0167876Y0045946D01*
X0167876Y0045147D02*
X0164320Y0045147D01*
X0163812Y0044349D02*
X0167876Y0044349D01*
X0087236Y0054730D02*
X0087120Y0054730D01*
X0087236Y0055528D02*
X0086347Y0055528D01*
X0043382Y0086670D02*
X0028265Y0086670D01*
X0028265Y0087469D02*
X0043382Y0087469D01*
X0043382Y0088267D02*
X0028265Y0088267D01*
X0028265Y0089066D02*
X0043382Y0089066D01*
X0043382Y0089864D02*
X0028265Y0089864D01*
X0028265Y0090663D02*
X0043382Y0090663D01*
X0043382Y0091461D02*
X0028265Y0091461D01*
X0028265Y0092260D02*
X0043382Y0092260D01*
X0043382Y0093058D02*
X0028265Y0093058D01*
X0028265Y0093857D02*
X0042838Y0093857D01*
X0042039Y0094655D02*
X0028265Y0094655D01*
X0028265Y0095454D02*
X0041241Y0095454D01*
X0040442Y0096252D02*
X0028265Y0096252D01*
X0028265Y0097051D02*
X0040370Y0097051D01*
X0040370Y0097849D02*
X0028265Y0097849D01*
X0028265Y0098648D02*
X0040370Y0098648D01*
X0040370Y0099446D02*
X0028265Y0099446D01*
X0028265Y0100245D02*
X0040370Y0100245D01*
X0040370Y0101043D02*
X0028265Y0101043D01*
X0028265Y0101842D02*
X0040370Y0101842D01*
X0040370Y0102640D02*
X0028265Y0102640D01*
X0028265Y0103439D02*
X0040370Y0103439D01*
X0040370Y0104237D02*
X0028265Y0104237D01*
X0028265Y0105036D02*
X0040370Y0105036D01*
X0040370Y0105834D02*
X0028265Y0105834D01*
X0028265Y0106633D02*
X0040789Y0106633D01*
X0041588Y0107431D02*
X0028265Y0107431D01*
X0028265Y0108230D02*
X0042387Y0108230D01*
X0043185Y0109028D02*
X0028265Y0109028D01*
X0028265Y0109827D02*
X0043984Y0109827D01*
X0045315Y0106633D02*
X0059920Y0106633D01*
X0060642Y0105834D02*
X0044516Y0105834D01*
X0043718Y0105036D02*
X0057992Y0105036D01*
X0057194Y0104237D02*
X0043570Y0104237D01*
X0043570Y0103439D02*
X0056395Y0103439D01*
X0055597Y0102640D02*
X0043570Y0102640D01*
X0043570Y0101842D02*
X0054798Y0101842D01*
X0054000Y0101043D02*
X0043570Y0101043D01*
X0043570Y0100245D02*
X0043850Y0100245D01*
X0057443Y0091461D02*
X0061476Y0091461D01*
X0061476Y0090663D02*
X0056645Y0090663D01*
X0055846Y0089864D02*
X0061476Y0089864D01*
X0061476Y0089066D02*
X0051882Y0089066D01*
X0058242Y0092260D02*
X0062145Y0092260D01*
X0061809Y0093058D02*
X0059040Y0093058D01*
X0064321Y0095346D02*
X0064326Y0095341D01*
X0061476Y0097051D02*
X0060233Y0097051D01*
X0061031Y0097849D02*
X0062035Y0097849D01*
X0064897Y0105834D02*
X0065591Y0105834D01*
X0065620Y0106633D02*
X0065620Y0106633D01*
X0065620Y0107431D02*
X0065620Y0107431D01*
X0065620Y0108230D02*
X0065620Y0108230D01*
X0065620Y0109028D02*
X0065620Y0109028D01*
X0065620Y0109827D02*
X0065620Y0109827D01*
X0065450Y0110625D02*
X0065790Y0110625D01*
X0071150Y0110625D02*
X0071490Y0110625D01*
X0071320Y0109827D02*
X0071320Y0109827D01*
X0071320Y0109028D02*
X0071320Y0109028D01*
X0071320Y0108230D02*
X0071320Y0108230D01*
X0071320Y0107431D02*
X0071320Y0107431D01*
X0071320Y0107363D02*
X0071320Y0107363D01*
X0073518Y0105036D02*
X0077485Y0105036D01*
X0077220Y0105834D02*
X0076297Y0105834D01*
X0077020Y0106633D02*
X0077220Y0106633D01*
X0077220Y0110625D02*
X0076850Y0110625D01*
X0077220Y0111424D02*
X0028265Y0111424D01*
X0028265Y0112222D02*
X0077730Y0112222D01*
X0077709Y0117812D02*
X0066636Y0117812D01*
X0067434Y0118610D02*
X0077220Y0118610D01*
X0077220Y0119409D02*
X0068233Y0119409D01*
X0069031Y0120207D02*
X0077220Y0120207D01*
X0077220Y0121006D02*
X0069830Y0121006D01*
X0070628Y0121805D02*
X0077220Y0121805D01*
X0077220Y0122603D02*
X0071427Y0122603D01*
X0072225Y0123402D02*
X0077220Y0123402D01*
X0077220Y0124200D02*
X0073024Y0124200D01*
X0073822Y0124999D02*
X0077506Y0124999D01*
X0075419Y0126596D02*
X0086976Y0126596D01*
X0086976Y0127394D02*
X0076218Y0127394D01*
X0077016Y0128193D02*
X0086976Y0128193D01*
X0086976Y0128991D02*
X0077815Y0128991D01*
X0075402Y0131387D02*
X0010765Y0131387D01*
X0010765Y0130588D02*
X0074603Y0130588D01*
X0073805Y0129790D02*
X0010765Y0129790D01*
X0010765Y0128991D02*
X0073006Y0128991D01*
X0072208Y0128193D02*
X0010765Y0128193D01*
X0010765Y0127394D02*
X0071409Y0127394D01*
X0070611Y0126596D02*
X0010765Y0126596D01*
X0010765Y0125797D02*
X0069812Y0125797D01*
X0069014Y0124999D02*
X0010765Y0124999D01*
X0010765Y0124200D02*
X0068215Y0124200D01*
X0067417Y0123402D02*
X0010765Y0123402D01*
X0010765Y0122603D02*
X0066618Y0122603D01*
X0065820Y0121805D02*
X0010765Y0121805D01*
X0010765Y0121006D02*
X0065021Y0121006D01*
X0064223Y0120207D02*
X0010765Y0120207D01*
X0010765Y0119409D02*
X0028124Y0119409D01*
X0028265Y0110625D02*
X0060090Y0110625D01*
X0065837Y0117013D02*
X0107504Y0117013D01*
X0107646Y0117812D02*
X0100443Y0117812D01*
X0100910Y0118610D02*
X0107545Y0118610D01*
X0106747Y0119409D02*
X0100910Y0119409D01*
X0093678Y0117812D02*
X0092543Y0117812D01*
X0093010Y0118610D02*
X0093210Y0118610D01*
X0093210Y0119409D02*
X0093010Y0119409D01*
X0093010Y0120207D02*
X0093210Y0120207D01*
X0093210Y0121006D02*
X0093010Y0121006D01*
X0093010Y0121805D02*
X0093210Y0121805D01*
X0093210Y0122603D02*
X0093010Y0122603D01*
X0093010Y0123402D02*
X0093210Y0123402D01*
X0093210Y0124200D02*
X0093010Y0124200D01*
X0092702Y0124999D02*
X0093518Y0124999D01*
X0092976Y0125797D02*
X0092676Y0125797D01*
X0092676Y0126596D02*
X0092976Y0126596D01*
X0092976Y0127394D02*
X0092676Y0127394D01*
X0092676Y0128193D02*
X0092770Y0128193D01*
X0086976Y0125797D02*
X0074621Y0125797D01*
X0084633Y0124999D02*
X0085618Y0124999D01*
X0085310Y0124200D02*
X0084920Y0124200D01*
X0084920Y0123402D02*
X0085310Y0123402D01*
X0085310Y0119409D02*
X0084920Y0119409D01*
X0084920Y0118610D02*
X0085310Y0118610D01*
X0085778Y0117812D02*
X0084431Y0117812D01*
X0064321Y0089646D02*
X0064326Y0089641D01*
D25*
X0076370Y0089506D02*
X0089526Y0089506D01*
X0112165Y0089506D01*
X0112165Y0089885D01*
X0114626Y0092346D01*
X0114626Y0103335D01*
X0113526Y0104435D01*
X0121499Y0104435D01*
X0123470Y0106406D01*
X0114626Y0092346D02*
X0117365Y0089606D01*
X0117365Y0089506D01*
X0130070Y0089506D01*
X0130470Y0089906D01*
X0129970Y0089406D01*
X0130470Y0089906D02*
X0135730Y0089906D01*
X0136270Y0089366D01*
X0144204Y0093172D02*
X0144270Y0093106D01*
X0144204Y0093172D02*
X0144204Y0102750D01*
X0144204Y0140365D01*
X0144601Y0140761D01*
X0114626Y0092346D02*
X0114626Y0089667D01*
X0114465Y0089506D01*
X0117365Y0089506D01*
X0114465Y0089506D02*
X0112165Y0089506D01*
D26*
X0086565Y0089606D03*
X0086565Y0049046D03*
D27*
X0053508Y0033106D02*
X0034604Y0033106D01*
X0026565Y0041146D01*
X0026565Y0115446D01*
X0029465Y0118346D01*
X0064765Y0118346D01*
X0077265Y0130846D01*
X0092521Y0130846D01*
X0095826Y0127541D01*
X0089826Y0127541D02*
X0089160Y0126876D01*
X0089160Y0121485D01*
X0081091Y0121485D01*
X0081070Y0121506D01*
X0076370Y0089506D02*
X0070087Y0083224D01*
X0069846Y0082983D01*
X0047632Y0082983D01*
X0047632Y0081014D02*
X0067878Y0081014D01*
X0069846Y0082983D01*
X0086565Y0089606D02*
X0089426Y0089606D01*
X0089526Y0089506D01*
X0144270Y0093106D02*
X0166830Y0070546D01*
X0202665Y0070546D01*
X0216565Y0056646D01*
X0216565Y0041111D01*
X0214204Y0038750D01*
D28*
X0136570Y0083106D02*
X0136570Y0089066D01*
X0136270Y0089366D01*
X0103849Y0108485D02*
X0097060Y0108485D01*
X0107287Y0121485D02*
X0113526Y0115246D01*
X0107287Y0121485D02*
X0097060Y0121485D01*
X0097060Y0126306D01*
X0095826Y0127541D01*
X0081070Y0108506D02*
X0074170Y0108506D01*
M02*
