G75*
%MOIN*%
%OFA0B0*%
%FSLAX25Y25*%
%IPPOS*%
%LPD*%
%AMOC8*
5,1,8,0,0,1.08239X$1,22.5*
%
%ADD10C,0.00600*%
%ADD11C,0.00875*%
%ADD12R,0.05500X0.05500*%
%ADD13C,0.00750*%
%ADD14R,0.06299X0.01181*%
%ADD15R,0.07677X0.06299*%
%ADD16R,0.09843X0.03937*%
%ADD17R,0.03150X0.01969*%
%ADD18R,0.03500X0.04500*%
%ADD19R,0.04500X0.04000*%
D10*
X0008065Y0019400D02*
X0008065Y0134361D01*
X0088320Y0134361D01*
X0099920Y0145961D01*
X0149420Y0145961D01*
X0161020Y0134361D01*
X0241136Y0134361D01*
X0241136Y0019400D01*
X0161020Y0019400D01*
X0149420Y0007800D01*
X0099920Y0007800D01*
X0088320Y0019400D01*
X0008065Y0019400D01*
D11*
X0066113Y0031354D02*
X0068739Y0031354D01*
X0068739Y0028728D01*
X0066113Y0028728D01*
X0066113Y0031354D01*
X0066113Y0029602D02*
X0068739Y0029602D01*
X0068739Y0030476D02*
X0066113Y0030476D01*
X0066113Y0031350D02*
X0068739Y0031350D01*
X0072113Y0031354D02*
X0074739Y0031354D01*
X0074739Y0028728D01*
X0072113Y0028728D01*
X0072113Y0031354D01*
X0072113Y0029602D02*
X0074739Y0029602D01*
X0074739Y0030476D02*
X0072113Y0030476D01*
X0072113Y0031350D02*
X0074739Y0031350D01*
X0074739Y0037054D02*
X0072113Y0037054D01*
X0074739Y0037054D02*
X0074739Y0034428D01*
X0072113Y0034428D01*
X0072113Y0037054D01*
X0072113Y0035302D02*
X0074739Y0035302D01*
X0074739Y0036176D02*
X0072113Y0036176D01*
X0072113Y0037050D02*
X0074739Y0037050D01*
X0074739Y0042754D02*
X0072113Y0042754D01*
X0074739Y0042754D02*
X0074739Y0040128D01*
X0072113Y0040128D01*
X0072113Y0042754D01*
X0072113Y0041002D02*
X0074739Y0041002D01*
X0074739Y0041876D02*
X0072113Y0041876D01*
X0072113Y0042750D02*
X0074739Y0042750D01*
X0074739Y0048354D02*
X0072113Y0048354D01*
X0074739Y0048354D02*
X0074739Y0045728D01*
X0072113Y0045728D01*
X0072113Y0048354D01*
X0072113Y0046602D02*
X0074739Y0046602D01*
X0074739Y0047476D02*
X0072113Y0047476D01*
X0072113Y0048350D02*
X0074739Y0048350D01*
X0068739Y0048354D02*
X0066113Y0048354D01*
X0068739Y0048354D02*
X0068739Y0045728D01*
X0066113Y0045728D01*
X0066113Y0048354D01*
X0066113Y0046602D02*
X0068739Y0046602D01*
X0068739Y0047476D02*
X0066113Y0047476D01*
X0066113Y0048350D02*
X0068739Y0048350D01*
X0068739Y0042754D02*
X0066113Y0042754D01*
X0068739Y0042754D02*
X0068739Y0040128D01*
X0066113Y0040128D01*
X0066113Y0042754D01*
X0066113Y0041002D02*
X0068739Y0041002D01*
X0068739Y0041876D02*
X0066113Y0041876D01*
X0066113Y0042750D02*
X0068739Y0042750D01*
X0068739Y0037054D02*
X0066113Y0037054D01*
X0068739Y0037054D02*
X0068739Y0034428D01*
X0066113Y0034428D01*
X0066113Y0037054D01*
X0066113Y0035302D02*
X0068739Y0035302D01*
X0068739Y0036176D02*
X0066113Y0036176D01*
X0066113Y0037050D02*
X0068739Y0037050D01*
X0082957Y0045493D02*
X0082957Y0048119D01*
X0085583Y0048119D01*
X0085583Y0045493D01*
X0082957Y0045493D01*
X0082957Y0046367D02*
X0085583Y0046367D01*
X0085583Y0047241D02*
X0082957Y0047241D01*
X0082957Y0048115D02*
X0085583Y0048115D01*
X0082957Y0051493D02*
X0082957Y0054119D01*
X0085583Y0054119D01*
X0085583Y0051493D01*
X0082957Y0051493D01*
X0082957Y0052367D02*
X0085583Y0052367D01*
X0085583Y0053241D02*
X0082957Y0053241D01*
X0082957Y0054115D02*
X0085583Y0054115D01*
X0104157Y0054119D02*
X0104157Y0051493D01*
X0104157Y0054119D02*
X0106783Y0054119D01*
X0106783Y0051493D01*
X0104157Y0051493D01*
X0104157Y0052367D02*
X0106783Y0052367D01*
X0106783Y0053241D02*
X0104157Y0053241D01*
X0104157Y0054115D02*
X0106783Y0054115D01*
X0104157Y0048119D02*
X0104157Y0045493D01*
X0104157Y0048119D02*
X0106783Y0048119D01*
X0106783Y0045493D01*
X0104157Y0045493D01*
X0104157Y0046367D02*
X0106783Y0046367D01*
X0106783Y0047241D02*
X0104157Y0047241D01*
X0104157Y0048115D02*
X0106783Y0048115D01*
X0101117Y0037437D02*
X0098491Y0037437D01*
X0098491Y0040063D01*
X0101117Y0040063D01*
X0101117Y0037437D01*
X0101117Y0038311D02*
X0098491Y0038311D01*
X0098491Y0039185D02*
X0101117Y0039185D01*
X0101117Y0040059D02*
X0098491Y0040059D01*
X0095117Y0037437D02*
X0092491Y0037437D01*
X0092491Y0040063D01*
X0095117Y0040063D01*
X0095117Y0037437D01*
X0095117Y0038311D02*
X0092491Y0038311D01*
X0092491Y0039185D02*
X0095117Y0039185D01*
X0095117Y0040059D02*
X0092491Y0040059D01*
X0113291Y0037437D02*
X0115917Y0037437D01*
X0113291Y0037437D02*
X0113291Y0040063D01*
X0115917Y0040063D01*
X0115917Y0037437D01*
X0115917Y0038311D02*
X0113291Y0038311D01*
X0113291Y0039185D02*
X0115917Y0039185D01*
X0115917Y0040059D02*
X0113291Y0040059D01*
X0119291Y0037437D02*
X0121917Y0037437D01*
X0119291Y0037437D02*
X0119291Y0040063D01*
X0121917Y0040063D01*
X0121917Y0037437D01*
X0121917Y0038311D02*
X0119291Y0038311D01*
X0119291Y0039185D02*
X0121917Y0039185D01*
X0121917Y0040059D02*
X0119291Y0040059D01*
X0122757Y0045493D02*
X0122757Y0048119D01*
X0125383Y0048119D01*
X0125383Y0045493D01*
X0122757Y0045493D01*
X0122757Y0046367D02*
X0125383Y0046367D01*
X0125383Y0047241D02*
X0122757Y0047241D01*
X0122757Y0048115D02*
X0125383Y0048115D01*
X0122757Y0051493D02*
X0122757Y0054119D01*
X0125383Y0054119D01*
X0125383Y0051493D01*
X0122757Y0051493D01*
X0122757Y0052367D02*
X0125383Y0052367D01*
X0125383Y0053241D02*
X0122757Y0053241D01*
X0122757Y0054115D02*
X0125383Y0054115D01*
X0141657Y0054119D02*
X0141657Y0051493D01*
X0141657Y0054119D02*
X0144283Y0054119D01*
X0144283Y0051493D01*
X0141657Y0051493D01*
X0141657Y0052367D02*
X0144283Y0052367D01*
X0144283Y0053241D02*
X0141657Y0053241D01*
X0141657Y0054115D02*
X0144283Y0054115D01*
X0141657Y0048119D02*
X0141657Y0045493D01*
X0141657Y0048119D02*
X0144283Y0048119D01*
X0144283Y0045493D01*
X0141657Y0045493D01*
X0141657Y0046367D02*
X0144283Y0046367D01*
X0144283Y0047241D02*
X0141657Y0047241D01*
X0141657Y0048115D02*
X0144283Y0048115D01*
X0140817Y0037437D02*
X0138191Y0037437D01*
X0138191Y0040063D01*
X0140817Y0040063D01*
X0140817Y0037437D01*
X0140817Y0038311D02*
X0138191Y0038311D01*
X0138191Y0039185D02*
X0140817Y0039185D01*
X0140817Y0040059D02*
X0138191Y0040059D01*
X0134817Y0037437D02*
X0132191Y0037437D01*
X0132191Y0040063D01*
X0134817Y0040063D01*
X0134817Y0037437D01*
X0134817Y0038311D02*
X0132191Y0038311D01*
X0132191Y0039185D02*
X0134817Y0039185D01*
X0134817Y0040059D02*
X0132191Y0040059D01*
X0150791Y0037437D02*
X0153417Y0037437D01*
X0150791Y0037437D02*
X0150791Y0040063D01*
X0153417Y0040063D01*
X0153417Y0037437D01*
X0153417Y0038311D02*
X0150791Y0038311D01*
X0150791Y0039185D02*
X0153417Y0039185D01*
X0153417Y0040059D02*
X0150791Y0040059D01*
X0156791Y0037437D02*
X0159417Y0037437D01*
X0156791Y0037437D02*
X0156791Y0040063D01*
X0159417Y0040063D01*
X0159417Y0037437D01*
X0159417Y0038311D02*
X0156791Y0038311D01*
X0156791Y0039185D02*
X0159417Y0039185D01*
X0159417Y0040059D02*
X0156791Y0040059D01*
X0160157Y0045493D02*
X0160157Y0048119D01*
X0162783Y0048119D01*
X0162783Y0045493D01*
X0160157Y0045493D01*
X0160157Y0046367D02*
X0162783Y0046367D01*
X0162783Y0047241D02*
X0160157Y0047241D01*
X0160157Y0048115D02*
X0162783Y0048115D01*
X0160157Y0051493D02*
X0160157Y0054119D01*
X0162783Y0054119D01*
X0162783Y0051493D01*
X0160157Y0051493D01*
X0160157Y0052367D02*
X0162783Y0052367D01*
X0162783Y0053241D02*
X0160157Y0053241D01*
X0160157Y0054115D02*
X0162783Y0054115D01*
X0178757Y0054119D02*
X0178757Y0051493D01*
X0178757Y0054119D02*
X0181383Y0054119D01*
X0181383Y0051493D01*
X0178757Y0051493D01*
X0178757Y0052367D02*
X0181383Y0052367D01*
X0181383Y0053241D02*
X0178757Y0053241D01*
X0178757Y0054115D02*
X0181383Y0054115D01*
X0178757Y0048119D02*
X0178757Y0045493D01*
X0178757Y0048119D02*
X0181383Y0048119D01*
X0181383Y0045493D01*
X0178757Y0045493D01*
X0178757Y0046367D02*
X0181383Y0046367D01*
X0181383Y0047241D02*
X0178757Y0047241D01*
X0178757Y0048115D02*
X0181383Y0048115D01*
X0178017Y0037437D02*
X0175391Y0037437D01*
X0175391Y0040063D01*
X0178017Y0040063D01*
X0178017Y0037437D01*
X0178017Y0038311D02*
X0175391Y0038311D01*
X0175391Y0039185D02*
X0178017Y0039185D01*
X0178017Y0040059D02*
X0175391Y0040059D01*
X0172017Y0037437D02*
X0169391Y0037437D01*
X0169391Y0040063D01*
X0172017Y0040063D01*
X0172017Y0037437D01*
X0172017Y0038311D02*
X0169391Y0038311D01*
X0169391Y0039185D02*
X0172017Y0039185D01*
X0172017Y0040059D02*
X0169391Y0040059D01*
X0188091Y0037437D02*
X0190717Y0037437D01*
X0188091Y0037437D02*
X0188091Y0040063D01*
X0190717Y0040063D01*
X0190717Y0037437D01*
X0190717Y0038311D02*
X0188091Y0038311D01*
X0188091Y0039185D02*
X0190717Y0039185D01*
X0190717Y0040059D02*
X0188091Y0040059D01*
X0194091Y0037437D02*
X0196717Y0037437D01*
X0194091Y0037437D02*
X0194091Y0040063D01*
X0196717Y0040063D01*
X0196717Y0037437D01*
X0196717Y0038311D02*
X0194091Y0038311D01*
X0194091Y0039185D02*
X0196717Y0039185D01*
X0196717Y0040059D02*
X0194091Y0040059D01*
X0197557Y0045493D02*
X0197557Y0048119D01*
X0200183Y0048119D01*
X0200183Y0045493D01*
X0197557Y0045493D01*
X0197557Y0046367D02*
X0200183Y0046367D01*
X0200183Y0047241D02*
X0197557Y0047241D01*
X0197557Y0048115D02*
X0200183Y0048115D01*
X0197557Y0051493D02*
X0197557Y0054119D01*
X0200183Y0054119D01*
X0200183Y0051493D01*
X0197557Y0051493D01*
X0197557Y0052367D02*
X0200183Y0052367D01*
X0200183Y0053241D02*
X0197557Y0053241D01*
X0197557Y0054115D02*
X0200183Y0054115D01*
X0206891Y0037437D02*
X0209517Y0037437D01*
X0206891Y0037437D02*
X0206891Y0040063D01*
X0209517Y0040063D01*
X0209517Y0037437D01*
X0209517Y0038311D02*
X0206891Y0038311D01*
X0206891Y0039185D02*
X0209517Y0039185D01*
X0209517Y0040059D02*
X0206891Y0040059D01*
X0212891Y0037437D02*
X0215517Y0037437D01*
X0212891Y0037437D02*
X0212891Y0040063D01*
X0215517Y0040063D01*
X0215517Y0037437D01*
X0215517Y0038311D02*
X0212891Y0038311D01*
X0212891Y0039185D02*
X0215517Y0039185D01*
X0215517Y0040059D02*
X0212891Y0040059D01*
X0129057Y0075793D02*
X0129057Y0078419D01*
X0131683Y0078419D01*
X0131683Y0075793D01*
X0129057Y0075793D01*
X0129057Y0076667D02*
X0131683Y0076667D01*
X0131683Y0077541D02*
X0129057Y0077541D01*
X0129057Y0078415D02*
X0131683Y0078415D01*
X0129057Y0081793D02*
X0129057Y0084419D01*
X0131683Y0084419D01*
X0131683Y0081793D01*
X0129057Y0081793D01*
X0129057Y0082667D02*
X0131683Y0082667D01*
X0131683Y0083541D02*
X0129057Y0083541D01*
X0129057Y0084415D02*
X0131683Y0084415D01*
X0129157Y0088593D02*
X0129157Y0091219D01*
X0131783Y0091219D01*
X0131783Y0088593D01*
X0129157Y0088593D01*
X0129157Y0089467D02*
X0131783Y0089467D01*
X0131783Y0090341D02*
X0129157Y0090341D01*
X0129157Y0091215D02*
X0131783Y0091215D01*
X0129157Y0094593D02*
X0129157Y0097219D01*
X0131783Y0097219D01*
X0131783Y0094593D01*
X0129157Y0094593D01*
X0129157Y0095467D02*
X0131783Y0095467D01*
X0131783Y0096341D02*
X0129157Y0096341D01*
X0129157Y0097215D02*
X0131783Y0097215D01*
X0136891Y0101437D02*
X0139517Y0101437D01*
X0136891Y0101437D02*
X0136891Y0104063D01*
X0139517Y0104063D01*
X0139517Y0101437D01*
X0139517Y0102311D02*
X0136891Y0102311D01*
X0136891Y0103185D02*
X0139517Y0103185D01*
X0139517Y0104059D02*
X0136891Y0104059D01*
X0142891Y0101437D02*
X0145517Y0101437D01*
X0142891Y0101437D02*
X0142891Y0104063D01*
X0145517Y0104063D01*
X0145517Y0101437D01*
X0145517Y0102311D02*
X0142891Y0102311D01*
X0142891Y0103185D02*
X0145517Y0103185D01*
X0145517Y0104059D02*
X0142891Y0104059D01*
X0122157Y0105093D02*
X0122157Y0107719D01*
X0124783Y0107719D01*
X0124783Y0105093D01*
X0122157Y0105093D01*
X0122157Y0105967D02*
X0124783Y0105967D01*
X0124783Y0106841D02*
X0122157Y0106841D01*
X0122157Y0107715D02*
X0124783Y0107715D01*
X0122157Y0111093D02*
X0122157Y0113719D01*
X0124783Y0113719D01*
X0124783Y0111093D01*
X0122157Y0111093D01*
X0122157Y0111967D02*
X0124783Y0111967D01*
X0124783Y0112841D02*
X0122157Y0112841D01*
X0122157Y0113715D02*
X0124783Y0113715D01*
X0102557Y0113193D02*
X0102557Y0115819D01*
X0105183Y0115819D01*
X0105183Y0113193D01*
X0102557Y0113193D01*
X0102557Y0114067D02*
X0105183Y0114067D01*
X0105183Y0114941D02*
X0102557Y0114941D01*
X0102557Y0115815D02*
X0105183Y0115815D01*
X0102557Y0109819D02*
X0102557Y0107193D01*
X0102557Y0109819D02*
X0105183Y0109819D01*
X0105183Y0107193D01*
X0102557Y0107193D01*
X0102557Y0108067D02*
X0105183Y0108067D01*
X0105183Y0108941D02*
X0102557Y0108941D01*
X0102557Y0109815D02*
X0105183Y0109815D01*
X0097139Y0128854D02*
X0094513Y0128854D01*
X0097139Y0128854D02*
X0097139Y0126228D01*
X0094513Y0126228D01*
X0094513Y0128854D01*
X0094513Y0127102D02*
X0097139Y0127102D01*
X0097139Y0127976D02*
X0094513Y0127976D01*
X0094513Y0128850D02*
X0097139Y0128850D01*
X0091139Y0128854D02*
X0088513Y0128854D01*
X0091139Y0128854D02*
X0091139Y0126228D01*
X0088513Y0126228D01*
X0088513Y0128854D01*
X0088513Y0127102D02*
X0091139Y0127102D01*
X0091139Y0127976D02*
X0088513Y0127976D01*
X0088513Y0128850D02*
X0091139Y0128850D01*
X0072857Y0115819D02*
X0072857Y0113193D01*
X0072857Y0115819D02*
X0075483Y0115819D01*
X0075483Y0113193D01*
X0072857Y0113193D01*
X0072857Y0114067D02*
X0075483Y0114067D01*
X0075483Y0114941D02*
X0072857Y0114941D01*
X0072857Y0115815D02*
X0075483Y0115815D01*
X0067157Y0115819D02*
X0067157Y0113193D01*
X0067157Y0115819D02*
X0069783Y0115819D01*
X0069783Y0113193D01*
X0067157Y0113193D01*
X0067157Y0114067D02*
X0069783Y0114067D01*
X0069783Y0114941D02*
X0067157Y0114941D01*
X0067157Y0115815D02*
X0069783Y0115815D01*
X0061457Y0115819D02*
X0061457Y0113193D01*
X0061457Y0115819D02*
X0064083Y0115819D01*
X0064083Y0113193D01*
X0061457Y0113193D01*
X0061457Y0114067D02*
X0064083Y0114067D01*
X0064083Y0114941D02*
X0061457Y0114941D01*
X0061457Y0115815D02*
X0064083Y0115815D01*
X0061457Y0109819D02*
X0061457Y0107193D01*
X0061457Y0109819D02*
X0064083Y0109819D01*
X0064083Y0107193D01*
X0061457Y0107193D01*
X0061457Y0108067D02*
X0064083Y0108067D01*
X0064083Y0108941D02*
X0061457Y0108941D01*
X0061457Y0109815D02*
X0064083Y0109815D01*
X0067157Y0109819D02*
X0067157Y0107193D01*
X0067157Y0109819D02*
X0069783Y0109819D01*
X0069783Y0107193D01*
X0067157Y0107193D01*
X0067157Y0108067D02*
X0069783Y0108067D01*
X0069783Y0108941D02*
X0067157Y0108941D01*
X0067157Y0109815D02*
X0069783Y0109815D01*
X0072857Y0109819D02*
X0072857Y0107193D01*
X0072857Y0109819D02*
X0075483Y0109819D01*
X0075483Y0107193D01*
X0072857Y0107193D01*
X0072857Y0108067D02*
X0075483Y0108067D01*
X0075483Y0108941D02*
X0072857Y0108941D01*
X0072857Y0109815D02*
X0075483Y0109815D01*
X0075057Y0096819D02*
X0075057Y0094193D01*
X0075057Y0096819D02*
X0077683Y0096819D01*
X0077683Y0094193D01*
X0075057Y0094193D01*
X0075057Y0095067D02*
X0077683Y0095067D01*
X0077683Y0095941D02*
X0075057Y0095941D01*
X0075057Y0096815D02*
X0077683Y0096815D01*
X0075057Y0090819D02*
X0075057Y0088193D01*
X0075057Y0090819D02*
X0077683Y0090819D01*
X0077683Y0088193D01*
X0075057Y0088193D01*
X0075057Y0089067D02*
X0077683Y0089067D01*
X0077683Y0089941D02*
X0075057Y0089941D01*
X0075057Y0090815D02*
X0077683Y0090815D01*
X0071639Y0090954D02*
X0069013Y0090954D01*
X0071639Y0090954D02*
X0071639Y0088328D01*
X0069013Y0088328D01*
X0069013Y0090954D01*
X0069013Y0089202D02*
X0071639Y0089202D01*
X0071639Y0090076D02*
X0069013Y0090076D01*
X0069013Y0090950D02*
X0071639Y0090950D01*
X0071639Y0096654D02*
X0069013Y0096654D01*
X0071639Y0096654D02*
X0071639Y0094028D01*
X0069013Y0094028D01*
X0069013Y0096654D01*
X0069013Y0094902D02*
X0071639Y0094902D01*
X0071639Y0095776D02*
X0069013Y0095776D01*
X0069013Y0096650D02*
X0071639Y0096650D01*
X0065639Y0096654D02*
X0063013Y0096654D01*
X0065639Y0096654D02*
X0065639Y0094028D01*
X0063013Y0094028D01*
X0063013Y0096654D01*
X0063013Y0094902D02*
X0065639Y0094902D01*
X0065639Y0095776D02*
X0063013Y0095776D01*
X0063013Y0096650D02*
X0065639Y0096650D01*
X0065639Y0090954D02*
X0063013Y0090954D01*
X0065639Y0090954D02*
X0065639Y0088328D01*
X0063013Y0088328D01*
X0063013Y0090954D01*
X0063013Y0089202D02*
X0065639Y0089202D01*
X0065639Y0090076D02*
X0063013Y0090076D01*
X0063013Y0090950D02*
X0065639Y0090950D01*
D12*
X0081070Y0108506D03*
X0089160Y0108485D03*
X0097060Y0108485D03*
X0097060Y0121485D03*
X0089160Y0121485D03*
X0081070Y0121506D03*
D13*
X0135195Y0084231D02*
X0135195Y0081981D01*
X0135195Y0084231D02*
X0137945Y0084231D01*
X0137945Y0081981D01*
X0135195Y0081981D01*
X0135195Y0082730D02*
X0137945Y0082730D01*
X0137945Y0083479D02*
X0135195Y0083479D01*
X0135195Y0084228D02*
X0137945Y0084228D01*
X0135195Y0078231D02*
X0135195Y0075981D01*
X0135195Y0078231D02*
X0137945Y0078231D01*
X0137945Y0075981D01*
X0135195Y0075981D01*
X0135195Y0076730D02*
X0137945Y0076730D01*
X0137945Y0077479D02*
X0135195Y0077479D01*
X0135195Y0078228D02*
X0137945Y0078228D01*
D14*
X0047632Y0079046D03*
X0047632Y0081014D03*
X0047632Y0082983D03*
X0047632Y0084951D03*
X0047632Y0086920D03*
X0047632Y0088888D03*
X0047632Y0090857D03*
X0047632Y0092825D03*
X0047632Y0094794D03*
X0047632Y0096762D03*
X0047632Y0098731D03*
X0047632Y0077077D03*
X0047632Y0075109D03*
X0047632Y0073140D03*
X0047632Y0071172D03*
X0047632Y0069203D03*
X0047632Y0067235D03*
X0047632Y0065266D03*
X0047632Y0063298D03*
X0047632Y0061329D03*
X0047632Y0059361D03*
X0047632Y0057392D03*
X0047632Y0055424D03*
X0047632Y0053455D03*
D15*
X0034837Y0044991D03*
X0034837Y0107195D03*
D16*
X0113526Y0104435D03*
X0113526Y0115246D03*
D17*
X0062170Y0035665D03*
X0053508Y0033106D03*
X0062170Y0030547D03*
D18*
X0093826Y0044841D03*
X0097566Y0052841D03*
X0090086Y0052841D03*
X0110886Y0052841D03*
X0118366Y0052841D03*
X0114626Y0044841D03*
X0129786Y0052841D03*
X0137266Y0052841D03*
X0133526Y0044841D03*
X0148386Y0052841D03*
X0155866Y0052841D03*
X0166986Y0052741D03*
X0174466Y0052741D03*
X0170726Y0044741D03*
X0185686Y0052741D03*
X0193166Y0052741D03*
X0189426Y0044741D03*
X0204486Y0052741D03*
X0211966Y0052741D03*
X0208226Y0044741D03*
X0152126Y0044841D03*
D19*
X0136270Y0089366D03*
X0144270Y0093106D03*
X0136270Y0096846D03*
M02*
