G75*
%MOIN*%
%OFA0B0*%
%FSLAX25Y25*%
%IPPOS*%
%LPD*%
%AMOC8*
5,1,8,0,0,1.08239X$1,22.5*
%
%ADD10C,0.00600*%
%ADD11R,0.06500X0.06500*%
%ADD12C,0.06500*%
%ADD13C,0.01000*%
%ADD14C,0.02400*%
%ADD15C,0.00800*%
%ADD16C,0.02578*%
%ADD17C,0.01200*%
D10*
X0008065Y0019400D02*
X0008065Y0134361D01*
X0088320Y0134361D01*
X0099920Y0145961D01*
X0149420Y0145961D01*
X0161020Y0134361D01*
X0241136Y0134361D01*
X0241136Y0019400D01*
X0161020Y0019400D01*
X0149420Y0007800D01*
X0099920Y0007800D01*
X0088320Y0019400D01*
X0008065Y0019400D01*
D11*
X0104601Y0013000D03*
X0144601Y0140761D03*
D12*
X0134601Y0140761D03*
X0124601Y0140761D03*
X0114601Y0140761D03*
X0104601Y0140761D03*
X0114601Y0013000D03*
X0124601Y0013000D03*
X0134601Y0013000D03*
X0144601Y0013000D03*
D13*
X0139465Y0034146D02*
X0158265Y0034146D01*
X0176765Y0034146D01*
X0195465Y0034146D01*
X0214265Y0034146D01*
X0128865Y0044846D02*
X0124601Y0049110D01*
X0124601Y0140761D01*
X0114601Y0140761D02*
X0114601Y0048881D01*
X0110565Y0044846D01*
X0104601Y0051381D02*
X0098065Y0044846D01*
X0104601Y0051381D02*
X0104601Y0140761D01*
D14*
X0100765Y0126346D03*
X0109865Y0125546D03*
X0120265Y0125446D03*
X0130265Y0125946D03*
X0085265Y0103246D03*
X0076965Y0103246D03*
X0059565Y0090946D03*
X0079265Y0079146D03*
X0095165Y0078846D03*
X0095365Y0072146D03*
X0109965Y0078746D03*
X0119765Y0078546D03*
X0120165Y0096646D03*
X0108665Y0096846D03*
X0098965Y0096746D03*
X0073365Y0120346D03*
X0081265Y0127046D03*
X0059865Y0124346D03*
X0046065Y0124646D03*
X0031865Y0124846D03*
X0019665Y0124546D03*
X0044065Y0113046D03*
X0052665Y0113046D03*
X0049665Y0105646D03*
X0053965Y0064946D03*
X0062665Y0060846D03*
X0069265Y0056246D03*
X0076965Y0051946D03*
X0079465Y0040046D03*
X0079465Y0029946D03*
X0098065Y0044846D03*
X0106865Y0038646D03*
X0110565Y0044846D03*
X0127265Y0038746D03*
X0128865Y0044846D03*
X0133465Y0056746D03*
X0129465Y0059446D03*
X0142965Y0061646D03*
X0147465Y0057746D03*
X0160665Y0062646D03*
X0165465Y0058246D03*
X0178065Y0064346D03*
X0183565Y0059846D03*
X0193065Y0066246D03*
X0197665Y0061346D03*
X0202365Y0058146D03*
X0201765Y0038946D03*
X0195465Y0034146D03*
X0188565Y0030246D03*
X0176765Y0034146D03*
X0170365Y0031246D03*
X0163965Y0038746D03*
X0158265Y0034146D03*
X0145565Y0038946D03*
X0139465Y0034146D03*
X0129765Y0023046D03*
X0119965Y0024046D03*
X0109365Y0024446D03*
X0149665Y0021846D03*
X0155465Y0021746D03*
X0182865Y0039046D03*
X0206065Y0029546D03*
X0214265Y0034146D03*
X0230665Y0057046D03*
X0230865Y0064646D03*
X0230865Y0073546D03*
X0145565Y0084346D03*
X0109465Y0058146D03*
X0093765Y0056646D03*
X0054065Y0048246D03*
X0043565Y0038746D03*
X0037665Y0038546D03*
D15*
X0010765Y0038759D02*
X0238436Y0038759D01*
X0238436Y0037961D02*
X0010765Y0037961D01*
X0010765Y0037162D02*
X0238436Y0037162D01*
X0238436Y0036364D02*
X0215300Y0036364D01*
X0215218Y0036446D02*
X0213312Y0036446D01*
X0212612Y0035746D01*
X0197118Y0035746D01*
X0196418Y0036446D01*
X0194512Y0036446D01*
X0193812Y0035746D01*
X0178418Y0035746D01*
X0177718Y0036446D01*
X0175812Y0036446D01*
X0175112Y0035746D01*
X0159918Y0035746D01*
X0159218Y0036446D01*
X0157312Y0036446D01*
X0156612Y0035746D01*
X0141118Y0035746D01*
X0140418Y0036446D01*
X0138512Y0036446D01*
X0137165Y0035098D01*
X0137165Y0033193D01*
X0138512Y0031846D01*
X0140418Y0031846D01*
X0141118Y0032546D01*
X0156612Y0032546D01*
X0157312Y0031846D01*
X0159218Y0031846D01*
X0159918Y0032546D01*
X0175112Y0032546D01*
X0175812Y0031846D01*
X0177718Y0031846D01*
X0178418Y0032546D01*
X0193812Y0032546D01*
X0194512Y0031846D01*
X0196418Y0031846D01*
X0197118Y0032546D01*
X0212612Y0032546D01*
X0213312Y0031846D01*
X0215218Y0031846D01*
X0216565Y0033193D01*
X0216565Y0035098D01*
X0215218Y0036446D01*
X0216098Y0035565D02*
X0238436Y0035565D01*
X0238436Y0034767D02*
X0216565Y0034767D01*
X0216565Y0033968D02*
X0238436Y0033968D01*
X0238436Y0033170D02*
X0216542Y0033170D01*
X0215743Y0032371D02*
X0238436Y0032371D01*
X0238436Y0031573D02*
X0010765Y0031573D01*
X0010765Y0032371D02*
X0137987Y0032371D01*
X0137188Y0033170D02*
X0010765Y0033170D01*
X0010765Y0033968D02*
X0137165Y0033968D01*
X0137165Y0034767D02*
X0010765Y0034767D01*
X0010765Y0035565D02*
X0137632Y0035565D01*
X0138431Y0036364D02*
X0010765Y0036364D01*
X0010765Y0039558D02*
X0238436Y0039558D01*
X0238436Y0040356D02*
X0010765Y0040356D01*
X0010765Y0041155D02*
X0238436Y0041155D01*
X0238436Y0041953D02*
X0010765Y0041953D01*
X0010765Y0042752D02*
X0096906Y0042752D01*
X0097112Y0042546D02*
X0095765Y0043893D01*
X0095765Y0045798D01*
X0097112Y0047146D01*
X0098102Y0047146D01*
X0103001Y0052044D01*
X0103001Y0136715D01*
X0102136Y0137073D01*
X0100913Y0138297D01*
X0100251Y0139895D01*
X0100251Y0141626D01*
X0100849Y0143071D01*
X0089850Y0132072D01*
X0088857Y0131661D01*
X0010765Y0131661D01*
X0010765Y0022100D01*
X0088857Y0022100D01*
X0089850Y0021689D01*
X0100251Y0011288D01*
X0100251Y0016706D01*
X0100895Y0017350D01*
X0108306Y0017350D01*
X0108951Y0016706D01*
X0108951Y0010500D01*
X0110949Y0010500D01*
X0110913Y0010536D01*
X0110251Y0012135D01*
X0110251Y0013865D01*
X0110913Y0015464D01*
X0112136Y0016688D01*
X0113735Y0017350D01*
X0115466Y0017350D01*
X0117065Y0016688D01*
X0118288Y0015464D01*
X0118951Y0013865D01*
X0118951Y0012135D01*
X0118288Y0010536D01*
X0118252Y0010500D01*
X0120949Y0010500D01*
X0120913Y0010536D01*
X0120251Y0012135D01*
X0120251Y0013865D01*
X0120913Y0015464D01*
X0122136Y0016688D01*
X0123735Y0017350D01*
X0125466Y0017350D01*
X0127065Y0016688D01*
X0128288Y0015464D01*
X0128951Y0013865D01*
X0128951Y0012135D01*
X0128288Y0010536D01*
X0128252Y0010500D01*
X0130949Y0010500D01*
X0130913Y0010536D01*
X0130251Y0012135D01*
X0130251Y0013865D01*
X0130913Y0015464D01*
X0132136Y0016688D01*
X0133735Y0017350D01*
X0135466Y0017350D01*
X0137065Y0016688D01*
X0138288Y0015464D01*
X0138951Y0013865D01*
X0138951Y0012135D01*
X0138288Y0010536D01*
X0138252Y0010500D01*
X0148302Y0010500D01*
X0159491Y0021689D01*
X0160483Y0022100D01*
X0238436Y0022100D01*
X0238436Y0131661D01*
X0161557Y0131661D01*
X0160483Y0131661D01*
X0159491Y0132072D01*
X0148951Y0142612D01*
X0148951Y0137055D01*
X0148306Y0136411D01*
X0140895Y0136411D01*
X0140251Y0137055D01*
X0140251Y0143261D01*
X0128252Y0143261D01*
X0128288Y0143225D01*
X0128951Y0141626D01*
X0128951Y0139895D01*
X0128288Y0138297D01*
X0127065Y0137073D01*
X0126201Y0136715D01*
X0126201Y0049773D01*
X0128828Y0047146D01*
X0129818Y0047146D01*
X0131165Y0045798D01*
X0131165Y0043893D01*
X0129818Y0042546D01*
X0127912Y0042546D01*
X0126565Y0043893D01*
X0126565Y0044883D01*
X0123001Y0048447D01*
X0123001Y0136715D01*
X0122136Y0137073D01*
X0120913Y0138297D01*
X0120251Y0139895D01*
X0120251Y0141626D01*
X0120913Y0143225D01*
X0120949Y0143261D01*
X0118252Y0143261D01*
X0118288Y0143225D01*
X0118951Y0141626D01*
X0118951Y0139895D01*
X0118288Y0138297D01*
X0117065Y0137073D01*
X0116201Y0136715D01*
X0116201Y0048218D01*
X0112865Y0044883D01*
X0112865Y0043893D01*
X0111518Y0042546D01*
X0109612Y0042546D01*
X0108265Y0043893D01*
X0108265Y0045798D01*
X0109612Y0047146D01*
X0110602Y0047146D01*
X0113001Y0049544D01*
X0113001Y0136715D01*
X0112136Y0137073D01*
X0110913Y0138297D01*
X0110251Y0139895D01*
X0110251Y0141626D01*
X0110913Y0143225D01*
X0110949Y0143261D01*
X0108252Y0143261D01*
X0108288Y0143225D01*
X0108951Y0141626D01*
X0108951Y0139895D01*
X0108288Y0138297D01*
X0107065Y0137073D01*
X0106201Y0136715D01*
X0106201Y0050718D01*
X0100365Y0044883D01*
X0100365Y0043893D01*
X0099018Y0042546D01*
X0097112Y0042546D01*
X0096108Y0043550D02*
X0010765Y0043550D01*
X0010765Y0044349D02*
X0095765Y0044349D01*
X0095765Y0045147D02*
X0010765Y0045147D01*
X0010765Y0045946D02*
X0095913Y0045946D01*
X0096711Y0046744D02*
X0087642Y0046744D01*
X0087555Y0046657D02*
X0088954Y0048056D01*
X0088954Y0050035D01*
X0088265Y0050724D01*
X0088265Y0087928D01*
X0088954Y0088617D01*
X0088954Y0090596D01*
X0087555Y0091995D01*
X0085576Y0091995D01*
X0084176Y0090596D01*
X0084176Y0088617D01*
X0084865Y0087928D01*
X0084865Y0050724D01*
X0084176Y0050035D01*
X0084176Y0048056D01*
X0085576Y0046657D01*
X0087555Y0046657D01*
X0088441Y0047543D02*
X0098500Y0047543D01*
X0099298Y0048341D02*
X0088954Y0048341D01*
X0088954Y0049140D02*
X0100097Y0049140D01*
X0100895Y0049938D02*
X0088954Y0049938D01*
X0088265Y0050737D02*
X0101694Y0050737D01*
X0102492Y0051536D02*
X0088265Y0051536D01*
X0088265Y0052334D02*
X0103001Y0052334D01*
X0103001Y0053133D02*
X0088265Y0053133D01*
X0088265Y0053931D02*
X0103001Y0053931D01*
X0103001Y0054730D02*
X0088265Y0054730D01*
X0088265Y0055528D02*
X0103001Y0055528D01*
X0103001Y0056327D02*
X0088265Y0056327D01*
X0088265Y0057125D02*
X0103001Y0057125D01*
X0103001Y0057924D02*
X0088265Y0057924D01*
X0088265Y0058722D02*
X0103001Y0058722D01*
X0103001Y0059521D02*
X0088265Y0059521D01*
X0088265Y0060319D02*
X0103001Y0060319D01*
X0103001Y0061118D02*
X0088265Y0061118D01*
X0088265Y0061916D02*
X0103001Y0061916D01*
X0103001Y0062715D02*
X0088265Y0062715D01*
X0088265Y0063513D02*
X0103001Y0063513D01*
X0103001Y0064312D02*
X0088265Y0064312D01*
X0088265Y0065110D02*
X0103001Y0065110D01*
X0103001Y0065909D02*
X0088265Y0065909D01*
X0088265Y0066707D02*
X0103001Y0066707D01*
X0103001Y0067506D02*
X0088265Y0067506D01*
X0088265Y0068304D02*
X0103001Y0068304D01*
X0103001Y0069103D02*
X0088265Y0069103D01*
X0088265Y0069901D02*
X0103001Y0069901D01*
X0103001Y0070700D02*
X0088265Y0070700D01*
X0088265Y0071498D02*
X0103001Y0071498D01*
X0103001Y0072297D02*
X0088265Y0072297D01*
X0088265Y0073095D02*
X0103001Y0073095D01*
X0103001Y0073894D02*
X0088265Y0073894D01*
X0088265Y0074692D02*
X0103001Y0074692D01*
X0103001Y0075491D02*
X0088265Y0075491D01*
X0088265Y0076289D02*
X0103001Y0076289D01*
X0103001Y0077088D02*
X0088265Y0077088D01*
X0088265Y0077886D02*
X0103001Y0077886D01*
X0103001Y0078685D02*
X0088265Y0078685D01*
X0088265Y0079483D02*
X0103001Y0079483D01*
X0103001Y0080282D02*
X0088265Y0080282D01*
X0088265Y0081080D02*
X0103001Y0081080D01*
X0103001Y0081879D02*
X0088265Y0081879D01*
X0088265Y0082677D02*
X0103001Y0082677D01*
X0103001Y0083476D02*
X0088265Y0083476D01*
X0088265Y0084274D02*
X0103001Y0084274D01*
X0103001Y0085073D02*
X0088265Y0085073D01*
X0088265Y0085871D02*
X0103001Y0085871D01*
X0103001Y0086670D02*
X0088265Y0086670D01*
X0088265Y0087469D02*
X0103001Y0087469D01*
X0103001Y0088267D02*
X0088604Y0088267D01*
X0088954Y0089066D02*
X0103001Y0089066D01*
X0103001Y0089864D02*
X0088954Y0089864D01*
X0088887Y0090663D02*
X0103001Y0090663D01*
X0103001Y0091461D02*
X0088089Y0091461D01*
X0085041Y0091461D02*
X0010765Y0091461D01*
X0010765Y0090663D02*
X0084243Y0090663D01*
X0084176Y0089864D02*
X0010765Y0089864D01*
X0010765Y0089066D02*
X0084176Y0089066D01*
X0084526Y0088267D02*
X0010765Y0088267D01*
X0010765Y0087469D02*
X0084865Y0087469D01*
X0084865Y0086670D02*
X0010765Y0086670D01*
X0010765Y0085871D02*
X0084865Y0085871D01*
X0084865Y0085073D02*
X0010765Y0085073D01*
X0010765Y0084274D02*
X0084865Y0084274D01*
X0084865Y0083476D02*
X0010765Y0083476D01*
X0010765Y0082677D02*
X0084865Y0082677D01*
X0084865Y0081879D02*
X0010765Y0081879D01*
X0010765Y0081080D02*
X0084865Y0081080D01*
X0084865Y0080282D02*
X0010765Y0080282D01*
X0010765Y0079483D02*
X0084865Y0079483D01*
X0084865Y0078685D02*
X0010765Y0078685D01*
X0010765Y0077886D02*
X0084865Y0077886D01*
X0084865Y0077088D02*
X0010765Y0077088D01*
X0010765Y0076289D02*
X0084865Y0076289D01*
X0084865Y0075491D02*
X0010765Y0075491D01*
X0010765Y0074692D02*
X0084865Y0074692D01*
X0084865Y0073894D02*
X0010765Y0073894D01*
X0010765Y0073095D02*
X0084865Y0073095D01*
X0084865Y0072297D02*
X0010765Y0072297D01*
X0010765Y0071498D02*
X0084865Y0071498D01*
X0084865Y0070700D02*
X0010765Y0070700D01*
X0010765Y0069901D02*
X0084865Y0069901D01*
X0084865Y0069103D02*
X0010765Y0069103D01*
X0010765Y0068304D02*
X0084865Y0068304D01*
X0084865Y0067506D02*
X0010765Y0067506D01*
X0010765Y0066707D02*
X0084865Y0066707D01*
X0084865Y0065909D02*
X0010765Y0065909D01*
X0010765Y0065110D02*
X0084865Y0065110D01*
X0084865Y0064312D02*
X0010765Y0064312D01*
X0010765Y0063513D02*
X0084865Y0063513D01*
X0084865Y0062715D02*
X0010765Y0062715D01*
X0010765Y0061916D02*
X0084865Y0061916D01*
X0084865Y0061118D02*
X0010765Y0061118D01*
X0010765Y0060319D02*
X0084865Y0060319D01*
X0084865Y0059521D02*
X0010765Y0059521D01*
X0010765Y0058722D02*
X0084865Y0058722D01*
X0084865Y0057924D02*
X0010765Y0057924D01*
X0010765Y0057125D02*
X0084865Y0057125D01*
X0084865Y0056327D02*
X0010765Y0056327D01*
X0010765Y0055528D02*
X0084865Y0055528D01*
X0084865Y0054730D02*
X0010765Y0054730D01*
X0010765Y0053931D02*
X0084865Y0053931D01*
X0084865Y0053133D02*
X0010765Y0053133D01*
X0010765Y0052334D02*
X0084865Y0052334D01*
X0084865Y0051536D02*
X0010765Y0051536D01*
X0010765Y0050737D02*
X0084865Y0050737D01*
X0084176Y0049938D02*
X0010765Y0049938D01*
X0010765Y0049140D02*
X0084176Y0049140D01*
X0084176Y0048341D02*
X0010765Y0048341D01*
X0010765Y0047543D02*
X0084689Y0047543D01*
X0085488Y0046744D02*
X0010765Y0046744D01*
X0010765Y0030774D02*
X0238436Y0030774D01*
X0238436Y0029976D02*
X0010765Y0029976D01*
X0010765Y0029177D02*
X0238436Y0029177D01*
X0238436Y0028379D02*
X0010765Y0028379D01*
X0010765Y0027580D02*
X0238436Y0027580D01*
X0238436Y0026782D02*
X0010765Y0026782D01*
X0010765Y0025983D02*
X0238436Y0025983D01*
X0238436Y0025185D02*
X0010765Y0025185D01*
X0010765Y0024386D02*
X0238436Y0024386D01*
X0238436Y0023588D02*
X0010765Y0023588D01*
X0010765Y0022789D02*
X0238436Y0022789D01*
X0212787Y0032371D02*
X0196943Y0032371D01*
X0193987Y0032371D02*
X0178243Y0032371D01*
X0175287Y0032371D02*
X0159743Y0032371D01*
X0156787Y0032371D02*
X0140943Y0032371D01*
X0140500Y0036364D02*
X0157231Y0036364D01*
X0159300Y0036364D02*
X0175731Y0036364D01*
X0177800Y0036364D02*
X0194431Y0036364D01*
X0196500Y0036364D02*
X0213231Y0036364D01*
X0238436Y0042752D02*
X0130024Y0042752D01*
X0130823Y0043550D02*
X0238436Y0043550D01*
X0238436Y0044349D02*
X0131165Y0044349D01*
X0131165Y0045147D02*
X0238436Y0045147D01*
X0238436Y0045946D02*
X0131018Y0045946D01*
X0130219Y0046744D02*
X0238436Y0046744D01*
X0238436Y0047543D02*
X0128431Y0047543D01*
X0127632Y0048341D02*
X0238436Y0048341D01*
X0238436Y0049140D02*
X0126834Y0049140D01*
X0126201Y0049938D02*
X0238436Y0049938D01*
X0238436Y0050737D02*
X0126201Y0050737D01*
X0126201Y0051536D02*
X0238436Y0051536D01*
X0238436Y0052334D02*
X0126201Y0052334D01*
X0126201Y0053133D02*
X0238436Y0053133D01*
X0238436Y0053931D02*
X0126201Y0053931D01*
X0126201Y0054730D02*
X0238436Y0054730D01*
X0238436Y0055528D02*
X0126201Y0055528D01*
X0126201Y0056327D02*
X0238436Y0056327D01*
X0238436Y0057125D02*
X0126201Y0057125D01*
X0126201Y0057924D02*
X0238436Y0057924D01*
X0238436Y0058722D02*
X0126201Y0058722D01*
X0126201Y0059521D02*
X0238436Y0059521D01*
X0238436Y0060319D02*
X0126201Y0060319D01*
X0126201Y0061118D02*
X0238436Y0061118D01*
X0238436Y0061916D02*
X0126201Y0061916D01*
X0126201Y0062715D02*
X0238436Y0062715D01*
X0238436Y0063513D02*
X0126201Y0063513D01*
X0126201Y0064312D02*
X0238436Y0064312D01*
X0238436Y0065110D02*
X0126201Y0065110D01*
X0126201Y0065909D02*
X0238436Y0065909D01*
X0238436Y0066707D02*
X0126201Y0066707D01*
X0126201Y0067506D02*
X0238436Y0067506D01*
X0238436Y0068304D02*
X0126201Y0068304D01*
X0126201Y0069103D02*
X0238436Y0069103D01*
X0238436Y0069901D02*
X0126201Y0069901D01*
X0126201Y0070700D02*
X0238436Y0070700D01*
X0238436Y0071498D02*
X0126201Y0071498D01*
X0126201Y0072297D02*
X0238436Y0072297D01*
X0238436Y0073095D02*
X0126201Y0073095D01*
X0126201Y0073894D02*
X0238436Y0073894D01*
X0238436Y0074692D02*
X0126201Y0074692D01*
X0126201Y0075491D02*
X0238436Y0075491D01*
X0238436Y0076289D02*
X0126201Y0076289D01*
X0126201Y0077088D02*
X0238436Y0077088D01*
X0238436Y0077886D02*
X0126201Y0077886D01*
X0126201Y0078685D02*
X0238436Y0078685D01*
X0238436Y0079483D02*
X0126201Y0079483D01*
X0126201Y0080282D02*
X0238436Y0080282D01*
X0238436Y0081080D02*
X0126201Y0081080D01*
X0126201Y0081879D02*
X0238436Y0081879D01*
X0238436Y0082677D02*
X0126201Y0082677D01*
X0126201Y0083476D02*
X0238436Y0083476D01*
X0238436Y0084274D02*
X0126201Y0084274D01*
X0126201Y0085073D02*
X0238436Y0085073D01*
X0238436Y0085871D02*
X0126201Y0085871D01*
X0126201Y0086670D02*
X0238436Y0086670D01*
X0238436Y0087469D02*
X0126201Y0087469D01*
X0126201Y0088267D02*
X0238436Y0088267D01*
X0238436Y0089066D02*
X0126201Y0089066D01*
X0126201Y0089864D02*
X0238436Y0089864D01*
X0238436Y0090663D02*
X0126201Y0090663D01*
X0126201Y0091461D02*
X0238436Y0091461D01*
X0238436Y0092260D02*
X0126201Y0092260D01*
X0126201Y0093058D02*
X0238436Y0093058D01*
X0238436Y0093857D02*
X0126201Y0093857D01*
X0126201Y0094655D02*
X0238436Y0094655D01*
X0238436Y0095454D02*
X0126201Y0095454D01*
X0126201Y0096252D02*
X0238436Y0096252D01*
X0238436Y0097051D02*
X0126201Y0097051D01*
X0126201Y0097849D02*
X0238436Y0097849D01*
X0238436Y0098648D02*
X0126201Y0098648D01*
X0126201Y0099446D02*
X0238436Y0099446D01*
X0238436Y0100245D02*
X0126201Y0100245D01*
X0126201Y0101043D02*
X0238436Y0101043D01*
X0238436Y0101842D02*
X0126201Y0101842D01*
X0126201Y0102640D02*
X0238436Y0102640D01*
X0238436Y0103439D02*
X0126201Y0103439D01*
X0126201Y0104237D02*
X0238436Y0104237D01*
X0238436Y0105036D02*
X0126201Y0105036D01*
X0126201Y0105834D02*
X0238436Y0105834D01*
X0238436Y0106633D02*
X0126201Y0106633D01*
X0126201Y0107431D02*
X0238436Y0107431D01*
X0238436Y0108230D02*
X0126201Y0108230D01*
X0126201Y0109028D02*
X0238436Y0109028D01*
X0238436Y0109827D02*
X0126201Y0109827D01*
X0126201Y0110625D02*
X0238436Y0110625D01*
X0238436Y0111424D02*
X0126201Y0111424D01*
X0126201Y0112222D02*
X0238436Y0112222D01*
X0238436Y0113021D02*
X0126201Y0113021D01*
X0126201Y0113819D02*
X0238436Y0113819D01*
X0238436Y0114618D02*
X0126201Y0114618D01*
X0126201Y0115416D02*
X0238436Y0115416D01*
X0238436Y0116215D02*
X0126201Y0116215D01*
X0126201Y0117013D02*
X0238436Y0117013D01*
X0238436Y0117812D02*
X0126201Y0117812D01*
X0126201Y0118610D02*
X0238436Y0118610D01*
X0238436Y0119409D02*
X0126201Y0119409D01*
X0126201Y0120207D02*
X0238436Y0120207D01*
X0238436Y0121006D02*
X0126201Y0121006D01*
X0126201Y0121805D02*
X0238436Y0121805D01*
X0238436Y0122603D02*
X0126201Y0122603D01*
X0126201Y0123402D02*
X0238436Y0123402D01*
X0238436Y0124200D02*
X0126201Y0124200D01*
X0126201Y0124999D02*
X0238436Y0124999D01*
X0238436Y0125797D02*
X0126201Y0125797D01*
X0126201Y0126596D02*
X0238436Y0126596D01*
X0238436Y0127394D02*
X0126201Y0127394D01*
X0126201Y0128193D02*
X0238436Y0128193D01*
X0238436Y0128991D02*
X0126201Y0128991D01*
X0126201Y0129790D02*
X0238436Y0129790D01*
X0238436Y0130588D02*
X0126201Y0130588D01*
X0126201Y0131387D02*
X0238436Y0131387D01*
X0159377Y0132185D02*
X0126201Y0132185D01*
X0126201Y0132984D02*
X0158579Y0132984D01*
X0157780Y0133782D02*
X0126201Y0133782D01*
X0126201Y0134581D02*
X0156982Y0134581D01*
X0156183Y0135379D02*
X0126201Y0135379D01*
X0126201Y0136178D02*
X0155385Y0136178D01*
X0154586Y0136976D02*
X0148872Y0136976D01*
X0148951Y0137775D02*
X0153788Y0137775D01*
X0152989Y0138573D02*
X0148951Y0138573D01*
X0148951Y0139372D02*
X0152191Y0139372D01*
X0151392Y0140170D02*
X0148951Y0140170D01*
X0148951Y0140969D02*
X0150594Y0140969D01*
X0149795Y0141767D02*
X0148951Y0141767D01*
X0148951Y0142566D02*
X0148997Y0142566D01*
X0140251Y0142566D02*
X0128561Y0142566D01*
X0128892Y0141767D02*
X0140251Y0141767D01*
X0140251Y0140969D02*
X0128951Y0140969D01*
X0128951Y0140170D02*
X0140251Y0140170D01*
X0140251Y0139372D02*
X0128734Y0139372D01*
X0128403Y0138573D02*
X0140251Y0138573D01*
X0140251Y0137775D02*
X0127766Y0137775D01*
X0126831Y0136976D02*
X0140329Y0136976D01*
X0123001Y0136178D02*
X0116201Y0136178D01*
X0116201Y0135379D02*
X0123001Y0135379D01*
X0123001Y0134581D02*
X0116201Y0134581D01*
X0116201Y0133782D02*
X0123001Y0133782D01*
X0123001Y0132984D02*
X0116201Y0132984D01*
X0116201Y0132185D02*
X0123001Y0132185D01*
X0123001Y0131387D02*
X0116201Y0131387D01*
X0116201Y0130588D02*
X0123001Y0130588D01*
X0123001Y0129790D02*
X0116201Y0129790D01*
X0116201Y0128991D02*
X0123001Y0128991D01*
X0123001Y0128193D02*
X0116201Y0128193D01*
X0116201Y0127394D02*
X0123001Y0127394D01*
X0123001Y0126596D02*
X0116201Y0126596D01*
X0116201Y0125797D02*
X0123001Y0125797D01*
X0123001Y0124999D02*
X0116201Y0124999D01*
X0116201Y0124200D02*
X0123001Y0124200D01*
X0123001Y0123402D02*
X0116201Y0123402D01*
X0116201Y0122603D02*
X0123001Y0122603D01*
X0123001Y0121805D02*
X0116201Y0121805D01*
X0116201Y0121006D02*
X0123001Y0121006D01*
X0123001Y0120207D02*
X0116201Y0120207D01*
X0116201Y0119409D02*
X0123001Y0119409D01*
X0123001Y0118610D02*
X0116201Y0118610D01*
X0116201Y0117812D02*
X0123001Y0117812D01*
X0123001Y0117013D02*
X0116201Y0117013D01*
X0116201Y0116215D02*
X0123001Y0116215D01*
X0123001Y0115416D02*
X0116201Y0115416D01*
X0116201Y0114618D02*
X0123001Y0114618D01*
X0123001Y0113819D02*
X0116201Y0113819D01*
X0116201Y0113021D02*
X0123001Y0113021D01*
X0123001Y0112222D02*
X0116201Y0112222D01*
X0116201Y0111424D02*
X0123001Y0111424D01*
X0123001Y0110625D02*
X0116201Y0110625D01*
X0116201Y0109827D02*
X0123001Y0109827D01*
X0123001Y0109028D02*
X0116201Y0109028D01*
X0116201Y0108230D02*
X0123001Y0108230D01*
X0123001Y0107431D02*
X0116201Y0107431D01*
X0116201Y0106633D02*
X0123001Y0106633D01*
X0123001Y0105834D02*
X0116201Y0105834D01*
X0116201Y0105036D02*
X0123001Y0105036D01*
X0123001Y0104237D02*
X0116201Y0104237D01*
X0116201Y0103439D02*
X0123001Y0103439D01*
X0123001Y0102640D02*
X0116201Y0102640D01*
X0116201Y0101842D02*
X0123001Y0101842D01*
X0123001Y0101043D02*
X0116201Y0101043D01*
X0116201Y0100245D02*
X0123001Y0100245D01*
X0123001Y0099446D02*
X0116201Y0099446D01*
X0116201Y0098648D02*
X0123001Y0098648D01*
X0123001Y0097849D02*
X0116201Y0097849D01*
X0116201Y0097051D02*
X0123001Y0097051D01*
X0123001Y0096252D02*
X0116201Y0096252D01*
X0116201Y0095454D02*
X0123001Y0095454D01*
X0123001Y0094655D02*
X0116201Y0094655D01*
X0116201Y0093857D02*
X0123001Y0093857D01*
X0123001Y0093058D02*
X0116201Y0093058D01*
X0116201Y0092260D02*
X0123001Y0092260D01*
X0123001Y0091461D02*
X0116201Y0091461D01*
X0116201Y0090663D02*
X0123001Y0090663D01*
X0123001Y0089864D02*
X0116201Y0089864D01*
X0116201Y0089066D02*
X0123001Y0089066D01*
X0123001Y0088267D02*
X0116201Y0088267D01*
X0116201Y0087469D02*
X0123001Y0087469D01*
X0123001Y0086670D02*
X0116201Y0086670D01*
X0116201Y0085871D02*
X0123001Y0085871D01*
X0123001Y0085073D02*
X0116201Y0085073D01*
X0116201Y0084274D02*
X0123001Y0084274D01*
X0123001Y0083476D02*
X0116201Y0083476D01*
X0116201Y0082677D02*
X0123001Y0082677D01*
X0123001Y0081879D02*
X0116201Y0081879D01*
X0116201Y0081080D02*
X0123001Y0081080D01*
X0123001Y0080282D02*
X0116201Y0080282D01*
X0116201Y0079483D02*
X0123001Y0079483D01*
X0123001Y0078685D02*
X0116201Y0078685D01*
X0116201Y0077886D02*
X0123001Y0077886D01*
X0123001Y0077088D02*
X0116201Y0077088D01*
X0116201Y0076289D02*
X0123001Y0076289D01*
X0123001Y0075491D02*
X0116201Y0075491D01*
X0116201Y0074692D02*
X0123001Y0074692D01*
X0123001Y0073894D02*
X0116201Y0073894D01*
X0116201Y0073095D02*
X0123001Y0073095D01*
X0123001Y0072297D02*
X0116201Y0072297D01*
X0116201Y0071498D02*
X0123001Y0071498D01*
X0123001Y0070700D02*
X0116201Y0070700D01*
X0116201Y0069901D02*
X0123001Y0069901D01*
X0123001Y0069103D02*
X0116201Y0069103D01*
X0116201Y0068304D02*
X0123001Y0068304D01*
X0123001Y0067506D02*
X0116201Y0067506D01*
X0116201Y0066707D02*
X0123001Y0066707D01*
X0123001Y0065909D02*
X0116201Y0065909D01*
X0116201Y0065110D02*
X0123001Y0065110D01*
X0123001Y0064312D02*
X0116201Y0064312D01*
X0116201Y0063513D02*
X0123001Y0063513D01*
X0123001Y0062715D02*
X0116201Y0062715D01*
X0116201Y0061916D02*
X0123001Y0061916D01*
X0123001Y0061118D02*
X0116201Y0061118D01*
X0116201Y0060319D02*
X0123001Y0060319D01*
X0123001Y0059521D02*
X0116201Y0059521D01*
X0116201Y0058722D02*
X0123001Y0058722D01*
X0123001Y0057924D02*
X0116201Y0057924D01*
X0116201Y0057125D02*
X0123001Y0057125D01*
X0123001Y0056327D02*
X0116201Y0056327D01*
X0116201Y0055528D02*
X0123001Y0055528D01*
X0123001Y0054730D02*
X0116201Y0054730D01*
X0116201Y0053931D02*
X0123001Y0053931D01*
X0123001Y0053133D02*
X0116201Y0053133D01*
X0116201Y0052334D02*
X0123001Y0052334D01*
X0123001Y0051536D02*
X0116201Y0051536D01*
X0116201Y0050737D02*
X0123001Y0050737D01*
X0123001Y0049938D02*
X0116201Y0049938D01*
X0116201Y0049140D02*
X0123001Y0049140D01*
X0123107Y0048341D02*
X0116201Y0048341D01*
X0115525Y0047543D02*
X0123905Y0047543D01*
X0124704Y0046744D02*
X0114727Y0046744D01*
X0113928Y0045946D02*
X0125502Y0045946D01*
X0126301Y0045147D02*
X0113130Y0045147D01*
X0112865Y0044349D02*
X0126565Y0044349D01*
X0126908Y0043550D02*
X0112523Y0043550D01*
X0111724Y0042752D02*
X0127706Y0042752D01*
X0113001Y0049938D02*
X0105421Y0049938D01*
X0106201Y0050737D02*
X0113001Y0050737D01*
X0113001Y0051536D02*
X0106201Y0051536D01*
X0106201Y0052334D02*
X0113001Y0052334D01*
X0113001Y0053133D02*
X0106201Y0053133D01*
X0106201Y0053931D02*
X0113001Y0053931D01*
X0113001Y0054730D02*
X0106201Y0054730D01*
X0106201Y0055528D02*
X0113001Y0055528D01*
X0113001Y0056327D02*
X0106201Y0056327D01*
X0106201Y0057125D02*
X0113001Y0057125D01*
X0113001Y0057924D02*
X0106201Y0057924D01*
X0106201Y0058722D02*
X0113001Y0058722D01*
X0113001Y0059521D02*
X0106201Y0059521D01*
X0106201Y0060319D02*
X0113001Y0060319D01*
X0113001Y0061118D02*
X0106201Y0061118D01*
X0106201Y0061916D02*
X0113001Y0061916D01*
X0113001Y0062715D02*
X0106201Y0062715D01*
X0106201Y0063513D02*
X0113001Y0063513D01*
X0113001Y0064312D02*
X0106201Y0064312D01*
X0106201Y0065110D02*
X0113001Y0065110D01*
X0113001Y0065909D02*
X0106201Y0065909D01*
X0106201Y0066707D02*
X0113001Y0066707D01*
X0113001Y0067506D02*
X0106201Y0067506D01*
X0106201Y0068304D02*
X0113001Y0068304D01*
X0113001Y0069103D02*
X0106201Y0069103D01*
X0106201Y0069901D02*
X0113001Y0069901D01*
X0113001Y0070700D02*
X0106201Y0070700D01*
X0106201Y0071498D02*
X0113001Y0071498D01*
X0113001Y0072297D02*
X0106201Y0072297D01*
X0106201Y0073095D02*
X0113001Y0073095D01*
X0113001Y0073894D02*
X0106201Y0073894D01*
X0106201Y0074692D02*
X0113001Y0074692D01*
X0113001Y0075491D02*
X0106201Y0075491D01*
X0106201Y0076289D02*
X0113001Y0076289D01*
X0113001Y0077088D02*
X0106201Y0077088D01*
X0106201Y0077886D02*
X0113001Y0077886D01*
X0113001Y0078685D02*
X0106201Y0078685D01*
X0106201Y0079483D02*
X0113001Y0079483D01*
X0113001Y0080282D02*
X0106201Y0080282D01*
X0106201Y0081080D02*
X0113001Y0081080D01*
X0113001Y0081879D02*
X0106201Y0081879D01*
X0106201Y0082677D02*
X0113001Y0082677D01*
X0113001Y0083476D02*
X0106201Y0083476D01*
X0106201Y0084274D02*
X0113001Y0084274D01*
X0113001Y0085073D02*
X0106201Y0085073D01*
X0106201Y0085871D02*
X0113001Y0085871D01*
X0113001Y0086670D02*
X0106201Y0086670D01*
X0106201Y0087469D02*
X0113001Y0087469D01*
X0113001Y0088267D02*
X0106201Y0088267D01*
X0106201Y0089066D02*
X0113001Y0089066D01*
X0113001Y0089864D02*
X0106201Y0089864D01*
X0106201Y0090663D02*
X0113001Y0090663D01*
X0113001Y0091461D02*
X0106201Y0091461D01*
X0106201Y0092260D02*
X0113001Y0092260D01*
X0113001Y0093058D02*
X0106201Y0093058D01*
X0106201Y0093857D02*
X0113001Y0093857D01*
X0113001Y0094655D02*
X0106201Y0094655D01*
X0106201Y0095454D02*
X0113001Y0095454D01*
X0113001Y0096252D02*
X0106201Y0096252D01*
X0106201Y0097051D02*
X0113001Y0097051D01*
X0113001Y0097849D02*
X0106201Y0097849D01*
X0106201Y0098648D02*
X0113001Y0098648D01*
X0113001Y0099446D02*
X0106201Y0099446D01*
X0106201Y0100245D02*
X0113001Y0100245D01*
X0113001Y0101043D02*
X0106201Y0101043D01*
X0106201Y0101842D02*
X0113001Y0101842D01*
X0113001Y0102640D02*
X0106201Y0102640D01*
X0106201Y0103439D02*
X0113001Y0103439D01*
X0113001Y0104237D02*
X0106201Y0104237D01*
X0106201Y0105036D02*
X0113001Y0105036D01*
X0113001Y0105834D02*
X0106201Y0105834D01*
X0106201Y0106633D02*
X0113001Y0106633D01*
X0113001Y0107431D02*
X0106201Y0107431D01*
X0106201Y0108230D02*
X0113001Y0108230D01*
X0113001Y0109028D02*
X0106201Y0109028D01*
X0106201Y0109827D02*
X0113001Y0109827D01*
X0113001Y0110625D02*
X0106201Y0110625D01*
X0106201Y0111424D02*
X0113001Y0111424D01*
X0113001Y0112222D02*
X0106201Y0112222D01*
X0106201Y0113021D02*
X0113001Y0113021D01*
X0113001Y0113819D02*
X0106201Y0113819D01*
X0106201Y0114618D02*
X0113001Y0114618D01*
X0113001Y0115416D02*
X0106201Y0115416D01*
X0106201Y0116215D02*
X0113001Y0116215D01*
X0113001Y0117013D02*
X0106201Y0117013D01*
X0106201Y0117812D02*
X0113001Y0117812D01*
X0113001Y0118610D02*
X0106201Y0118610D01*
X0106201Y0119409D02*
X0113001Y0119409D01*
X0113001Y0120207D02*
X0106201Y0120207D01*
X0106201Y0121006D02*
X0113001Y0121006D01*
X0113001Y0121805D02*
X0106201Y0121805D01*
X0106201Y0122603D02*
X0113001Y0122603D01*
X0113001Y0123402D02*
X0106201Y0123402D01*
X0106201Y0124200D02*
X0113001Y0124200D01*
X0113001Y0124999D02*
X0106201Y0124999D01*
X0106201Y0125797D02*
X0113001Y0125797D01*
X0113001Y0126596D02*
X0106201Y0126596D01*
X0106201Y0127394D02*
X0113001Y0127394D01*
X0113001Y0128193D02*
X0106201Y0128193D01*
X0106201Y0128991D02*
X0113001Y0128991D01*
X0113001Y0129790D02*
X0106201Y0129790D01*
X0106201Y0130588D02*
X0113001Y0130588D01*
X0113001Y0131387D02*
X0106201Y0131387D01*
X0106201Y0132185D02*
X0113001Y0132185D01*
X0113001Y0132984D02*
X0106201Y0132984D01*
X0106201Y0133782D02*
X0113001Y0133782D01*
X0113001Y0134581D02*
X0106201Y0134581D01*
X0106201Y0135379D02*
X0113001Y0135379D01*
X0113001Y0136178D02*
X0106201Y0136178D01*
X0106831Y0136976D02*
X0112370Y0136976D01*
X0111435Y0137775D02*
X0107766Y0137775D01*
X0108403Y0138573D02*
X0110798Y0138573D01*
X0110467Y0139372D02*
X0108734Y0139372D01*
X0108951Y0140170D02*
X0110251Y0140170D01*
X0110251Y0140969D02*
X0108951Y0140969D01*
X0108892Y0141767D02*
X0110309Y0141767D01*
X0110640Y0142566D02*
X0108561Y0142566D01*
X0100640Y0142566D02*
X0100344Y0142566D01*
X0100309Y0141767D02*
X0099545Y0141767D01*
X0100251Y0140969D02*
X0098747Y0140969D01*
X0097948Y0140170D02*
X0100251Y0140170D01*
X0100467Y0139372D02*
X0097150Y0139372D01*
X0096351Y0138573D02*
X0100798Y0138573D01*
X0101435Y0137775D02*
X0095553Y0137775D01*
X0094754Y0136976D02*
X0102370Y0136976D01*
X0103001Y0136178D02*
X0093956Y0136178D01*
X0093157Y0135379D02*
X0103001Y0135379D01*
X0103001Y0134581D02*
X0092359Y0134581D01*
X0091560Y0133782D02*
X0103001Y0133782D01*
X0103001Y0132984D02*
X0090762Y0132984D01*
X0089963Y0132185D02*
X0103001Y0132185D01*
X0103001Y0131387D02*
X0010765Y0131387D01*
X0010765Y0130588D02*
X0103001Y0130588D01*
X0103001Y0129790D02*
X0010765Y0129790D01*
X0010765Y0128991D02*
X0103001Y0128991D01*
X0103001Y0128193D02*
X0010765Y0128193D01*
X0010765Y0127394D02*
X0103001Y0127394D01*
X0103001Y0126596D02*
X0010765Y0126596D01*
X0010765Y0125797D02*
X0103001Y0125797D01*
X0103001Y0124999D02*
X0010765Y0124999D01*
X0010765Y0124200D02*
X0103001Y0124200D01*
X0103001Y0123402D02*
X0010765Y0123402D01*
X0010765Y0122603D02*
X0103001Y0122603D01*
X0103001Y0121805D02*
X0010765Y0121805D01*
X0010765Y0121006D02*
X0103001Y0121006D01*
X0103001Y0120207D02*
X0010765Y0120207D01*
X0010765Y0119409D02*
X0103001Y0119409D01*
X0103001Y0118610D02*
X0010765Y0118610D01*
X0010765Y0117812D02*
X0103001Y0117812D01*
X0103001Y0117013D02*
X0010765Y0117013D01*
X0010765Y0116215D02*
X0103001Y0116215D01*
X0103001Y0115416D02*
X0010765Y0115416D01*
X0010765Y0114618D02*
X0103001Y0114618D01*
X0103001Y0113819D02*
X0010765Y0113819D01*
X0010765Y0113021D02*
X0103001Y0113021D01*
X0103001Y0112222D02*
X0010765Y0112222D01*
X0010765Y0111424D02*
X0103001Y0111424D01*
X0103001Y0110625D02*
X0010765Y0110625D01*
X0010765Y0109827D02*
X0103001Y0109827D01*
X0103001Y0109028D02*
X0010765Y0109028D01*
X0010765Y0108230D02*
X0103001Y0108230D01*
X0103001Y0107431D02*
X0010765Y0107431D01*
X0010765Y0106633D02*
X0103001Y0106633D01*
X0103001Y0105834D02*
X0010765Y0105834D01*
X0010765Y0105036D02*
X0103001Y0105036D01*
X0103001Y0104237D02*
X0010765Y0104237D01*
X0010765Y0103439D02*
X0103001Y0103439D01*
X0103001Y0102640D02*
X0010765Y0102640D01*
X0010765Y0101842D02*
X0103001Y0101842D01*
X0103001Y0101043D02*
X0010765Y0101043D01*
X0010765Y0100245D02*
X0103001Y0100245D01*
X0103001Y0099446D02*
X0010765Y0099446D01*
X0010765Y0098648D02*
X0103001Y0098648D01*
X0103001Y0097849D02*
X0010765Y0097849D01*
X0010765Y0097051D02*
X0103001Y0097051D01*
X0103001Y0096252D02*
X0010765Y0096252D01*
X0010765Y0095454D02*
X0103001Y0095454D01*
X0103001Y0094655D02*
X0010765Y0094655D01*
X0010765Y0093857D02*
X0103001Y0093857D01*
X0103001Y0093058D02*
X0010765Y0093058D01*
X0010765Y0092260D02*
X0103001Y0092260D01*
X0104622Y0049140D02*
X0112597Y0049140D01*
X0111798Y0048341D02*
X0103824Y0048341D01*
X0103025Y0047543D02*
X0111000Y0047543D01*
X0109211Y0046744D02*
X0102227Y0046744D01*
X0101428Y0045946D02*
X0108413Y0045946D01*
X0108265Y0045147D02*
X0100630Y0045147D01*
X0100365Y0044349D02*
X0108265Y0044349D01*
X0108608Y0043550D02*
X0100023Y0043550D01*
X0099224Y0042752D02*
X0109406Y0042752D01*
X0089121Y0021991D02*
X0160219Y0021991D01*
X0158994Y0021192D02*
X0090346Y0021192D01*
X0091145Y0020394D02*
X0158195Y0020394D01*
X0157397Y0019595D02*
X0091944Y0019595D01*
X0092742Y0018797D02*
X0156598Y0018797D01*
X0155800Y0017998D02*
X0093541Y0017998D01*
X0094339Y0017200D02*
X0100744Y0017200D01*
X0100251Y0016401D02*
X0095138Y0016401D01*
X0095936Y0015602D02*
X0100251Y0015602D01*
X0100251Y0014804D02*
X0096735Y0014804D01*
X0097533Y0014005D02*
X0100251Y0014005D01*
X0100251Y0013207D02*
X0098332Y0013207D01*
X0099130Y0012408D02*
X0100251Y0012408D01*
X0100251Y0011610D02*
X0099929Y0011610D01*
X0108951Y0011610D02*
X0110468Y0011610D01*
X0110251Y0012408D02*
X0108951Y0012408D01*
X0108951Y0013207D02*
X0110251Y0013207D01*
X0110309Y0014005D02*
X0108951Y0014005D01*
X0108951Y0014804D02*
X0110639Y0014804D01*
X0111051Y0015602D02*
X0108951Y0015602D01*
X0108951Y0016401D02*
X0111850Y0016401D01*
X0113372Y0017200D02*
X0108457Y0017200D01*
X0115829Y0017200D02*
X0123372Y0017200D01*
X0121850Y0016401D02*
X0117351Y0016401D01*
X0118150Y0015602D02*
X0121051Y0015602D01*
X0120639Y0014804D02*
X0118562Y0014804D01*
X0118892Y0014005D02*
X0120309Y0014005D01*
X0120251Y0013207D02*
X0118951Y0013207D01*
X0118951Y0012408D02*
X0120251Y0012408D01*
X0120468Y0011610D02*
X0118733Y0011610D01*
X0118402Y0010811D02*
X0120799Y0010811D01*
X0128402Y0010811D02*
X0130799Y0010811D01*
X0130468Y0011610D02*
X0128733Y0011610D01*
X0128951Y0012408D02*
X0130251Y0012408D01*
X0130251Y0013207D02*
X0128951Y0013207D01*
X0128892Y0014005D02*
X0130309Y0014005D01*
X0130639Y0014804D02*
X0128562Y0014804D01*
X0128150Y0015602D02*
X0131051Y0015602D01*
X0131850Y0016401D02*
X0127351Y0016401D01*
X0125829Y0017200D02*
X0133372Y0017200D01*
X0135829Y0017200D02*
X0155001Y0017200D01*
X0154203Y0016401D02*
X0137351Y0016401D01*
X0138150Y0015602D02*
X0153404Y0015602D01*
X0152606Y0014804D02*
X0138562Y0014804D01*
X0138892Y0014005D02*
X0151807Y0014005D01*
X0151009Y0013207D02*
X0138951Y0013207D01*
X0138951Y0012408D02*
X0150210Y0012408D01*
X0149412Y0011610D02*
X0138733Y0011610D01*
X0138402Y0010811D02*
X0148613Y0010811D01*
X0110799Y0010811D02*
X0108951Y0010811D01*
X0116831Y0136976D02*
X0122370Y0136976D01*
X0121435Y0137775D02*
X0117766Y0137775D01*
X0118403Y0138573D02*
X0120798Y0138573D01*
X0120467Y0139372D02*
X0118734Y0139372D01*
X0118951Y0140170D02*
X0120251Y0140170D01*
X0120251Y0140969D02*
X0118951Y0140969D01*
X0118892Y0141767D02*
X0120309Y0141767D01*
X0120640Y0142566D02*
X0118561Y0142566D01*
D16*
X0086565Y0089606D03*
X0086565Y0049046D03*
D17*
X0086565Y0089606D01*
M02*
