%
M48
M72
T01C0.01200
T02C0.01378
T03C0.03500
%
T01
X79465Y45300
X89365Y54100
X79465Y55400
X76965Y67300
X69265Y71600
X62665Y76200
X54065Y63600
X43565Y54100
X37665Y53900
X93765Y72000
X114465Y72600
X124165Y72400
X133465Y72100
X142965Y72400
X151965Y72200
X167565Y74500
X170665Y71700
X186165Y74100
X189365Y71600
X197665Y76700
X193965Y79500
X202365Y73500
X201565Y53900
X195465Y49500
X182765Y54000
X176765Y49500
X163965Y54100
X158265Y49500
X145765Y56300
X139465Y49500
X129065Y53900
X125665Y57200
X110265Y53900
X105165Y57400
X136865Y37400
X149665Y37200
X161765Y37400
X180265Y37400
X198865Y36600
X214265Y49500
X155265Y91100
X139865Y91400
X132565Y91300
X116865Y92000
X109865Y92200
X103665Y92200
X97965Y92300
X91765Y92400
X81765Y92900
X82865Y110100
X85765Y120700
X71665Y120300
X56865Y120200
X56265Y131600
X50565Y131500
X44765Y131500
X53065Y149100
X60665Y156200
X83665Y156500
X93365Y156100
X104565Y156300
X115265Y156300
X128265Y156300
X139565Y156300
X80765Y131400
X103265Y118400
X117465Y118000
X134165Y117800
X150465Y117500
X160865Y117700
X173165Y117800
T02
X86565Y104961
X86565Y64400
T03
X145565Y13000
X155565Y13000
X165565Y13000
X175565Y13000
X185565Y13000
X185565Y171469
X175565Y171469
X165565Y171469
X155565Y171469
X145565Y171469
M30
