G75*
%MOIN*%
%OFA0B0*%
%FSLAX25Y25*%
%IPPOS*%
%LPD*%
%AMOC8*
5,1,8,0,0,1.08239X$1,22.5*
%
%ADD10C,0.00600*%
%ADD11C,0.00875*%
%ADD12R,0.05500X0.05500*%
%ADD13C,0.00750*%
%ADD14R,0.06299X0.01181*%
%ADD15R,0.07677X0.06299*%
%ADD16R,0.09843X0.03937*%
%ADD17R,0.03150X0.01969*%
%ADD18R,0.03500X0.04500*%
%ADD19R,0.04500X0.04000*%
D10*
X0008065Y0019400D02*
X0008065Y0165069D01*
X0129265Y0165069D01*
X0140865Y0176669D01*
X0190365Y0176669D01*
X0201665Y0165069D01*
X0319089Y0165069D01*
X0319089Y0019400D01*
X0201965Y0019400D01*
X0190365Y0007800D01*
X0140865Y0007800D01*
X0129265Y0019400D01*
X0008065Y0019400D01*
D11*
X0066113Y0046708D02*
X0068739Y0046708D01*
X0068739Y0044082D01*
X0066113Y0044082D01*
X0066113Y0046708D01*
X0066113Y0044956D02*
X0068739Y0044956D01*
X0068739Y0045830D02*
X0066113Y0045830D01*
X0066113Y0046704D02*
X0068739Y0046704D01*
X0072113Y0046708D02*
X0074739Y0046708D01*
X0074739Y0044082D01*
X0072113Y0044082D01*
X0072113Y0046708D01*
X0072113Y0044956D02*
X0074739Y0044956D01*
X0074739Y0045830D02*
X0072113Y0045830D01*
X0072113Y0046704D02*
X0074739Y0046704D01*
X0074739Y0052408D02*
X0072113Y0052408D01*
X0074739Y0052408D02*
X0074739Y0049782D01*
X0072113Y0049782D01*
X0072113Y0052408D01*
X0072113Y0050656D02*
X0074739Y0050656D01*
X0074739Y0051530D02*
X0072113Y0051530D01*
X0072113Y0052404D02*
X0074739Y0052404D01*
X0074739Y0058108D02*
X0072113Y0058108D01*
X0074739Y0058108D02*
X0074739Y0055482D01*
X0072113Y0055482D01*
X0072113Y0058108D01*
X0072113Y0056356D02*
X0074739Y0056356D01*
X0074739Y0057230D02*
X0072113Y0057230D01*
X0072113Y0058104D02*
X0074739Y0058104D01*
X0074739Y0063708D02*
X0072113Y0063708D01*
X0074739Y0063708D02*
X0074739Y0061082D01*
X0072113Y0061082D01*
X0072113Y0063708D01*
X0072113Y0061956D02*
X0074739Y0061956D01*
X0074739Y0062830D02*
X0072113Y0062830D01*
X0072113Y0063704D02*
X0074739Y0063704D01*
X0068739Y0063708D02*
X0066113Y0063708D01*
X0068739Y0063708D02*
X0068739Y0061082D01*
X0066113Y0061082D01*
X0066113Y0063708D01*
X0066113Y0061956D02*
X0068739Y0061956D01*
X0068739Y0062830D02*
X0066113Y0062830D01*
X0066113Y0063704D02*
X0068739Y0063704D01*
X0068739Y0058108D02*
X0066113Y0058108D01*
X0068739Y0058108D02*
X0068739Y0055482D01*
X0066113Y0055482D01*
X0066113Y0058108D01*
X0066113Y0056356D02*
X0068739Y0056356D01*
X0068739Y0057230D02*
X0066113Y0057230D01*
X0066113Y0058104D02*
X0068739Y0058104D01*
X0068739Y0052408D02*
X0066113Y0052408D01*
X0068739Y0052408D02*
X0068739Y0049782D01*
X0066113Y0049782D01*
X0066113Y0052408D01*
X0066113Y0050656D02*
X0068739Y0050656D01*
X0068739Y0051530D02*
X0066113Y0051530D01*
X0066113Y0052404D02*
X0068739Y0052404D01*
X0082957Y0060848D02*
X0082957Y0063474D01*
X0085583Y0063474D01*
X0085583Y0060848D01*
X0082957Y0060848D01*
X0082957Y0061722D02*
X0085583Y0061722D01*
X0085583Y0062596D02*
X0082957Y0062596D01*
X0082957Y0063470D02*
X0085583Y0063470D01*
X0082957Y0066848D02*
X0082957Y0069474D01*
X0085583Y0069474D01*
X0085583Y0066848D01*
X0082957Y0066848D01*
X0082957Y0067722D02*
X0085583Y0067722D01*
X0085583Y0068596D02*
X0082957Y0068596D01*
X0082957Y0069470D02*
X0085583Y0069470D01*
X0104157Y0069474D02*
X0104157Y0066848D01*
X0104157Y0069474D02*
X0106783Y0069474D01*
X0106783Y0066848D01*
X0104157Y0066848D01*
X0104157Y0067722D02*
X0106783Y0067722D01*
X0106783Y0068596D02*
X0104157Y0068596D01*
X0104157Y0069470D02*
X0106783Y0069470D01*
X0104157Y0063474D02*
X0104157Y0060848D01*
X0104157Y0063474D02*
X0106783Y0063474D01*
X0106783Y0060848D01*
X0104157Y0060848D01*
X0104157Y0061722D02*
X0106783Y0061722D01*
X0106783Y0062596D02*
X0104157Y0062596D01*
X0104157Y0063470D02*
X0106783Y0063470D01*
X0101117Y0052792D02*
X0098491Y0052792D01*
X0098491Y0055418D01*
X0101117Y0055418D01*
X0101117Y0052792D01*
X0101117Y0053666D02*
X0098491Y0053666D01*
X0098491Y0054540D02*
X0101117Y0054540D01*
X0101117Y0055414D02*
X0098491Y0055414D01*
X0095117Y0052792D02*
X0092491Y0052792D01*
X0092491Y0055418D01*
X0095117Y0055418D01*
X0095117Y0052792D01*
X0095117Y0053666D02*
X0092491Y0053666D01*
X0092491Y0054540D02*
X0095117Y0054540D01*
X0095117Y0055414D02*
X0092491Y0055414D01*
X0113291Y0052792D02*
X0115917Y0052792D01*
X0113291Y0052792D02*
X0113291Y0055418D01*
X0115917Y0055418D01*
X0115917Y0052792D01*
X0115917Y0053666D02*
X0113291Y0053666D01*
X0113291Y0054540D02*
X0115917Y0054540D01*
X0115917Y0055414D02*
X0113291Y0055414D01*
X0119291Y0052792D02*
X0121917Y0052792D01*
X0119291Y0052792D02*
X0119291Y0055418D01*
X0121917Y0055418D01*
X0121917Y0052792D01*
X0121917Y0053666D02*
X0119291Y0053666D01*
X0119291Y0054540D02*
X0121917Y0054540D01*
X0121917Y0055414D02*
X0119291Y0055414D01*
X0122757Y0060848D02*
X0122757Y0063474D01*
X0125383Y0063474D01*
X0125383Y0060848D01*
X0122757Y0060848D01*
X0122757Y0061722D02*
X0125383Y0061722D01*
X0125383Y0062596D02*
X0122757Y0062596D01*
X0122757Y0063470D02*
X0125383Y0063470D01*
X0122757Y0066848D02*
X0122757Y0069474D01*
X0125383Y0069474D01*
X0125383Y0066848D01*
X0122757Y0066848D01*
X0122757Y0067722D02*
X0125383Y0067722D01*
X0125383Y0068596D02*
X0122757Y0068596D01*
X0122757Y0069470D02*
X0125383Y0069470D01*
X0141657Y0069474D02*
X0141657Y0066848D01*
X0141657Y0069474D02*
X0144283Y0069474D01*
X0144283Y0066848D01*
X0141657Y0066848D01*
X0141657Y0067722D02*
X0144283Y0067722D01*
X0144283Y0068596D02*
X0141657Y0068596D01*
X0141657Y0069470D02*
X0144283Y0069470D01*
X0141657Y0063474D02*
X0141657Y0060848D01*
X0141657Y0063474D02*
X0144283Y0063474D01*
X0144283Y0060848D01*
X0141657Y0060848D01*
X0141657Y0061722D02*
X0144283Y0061722D01*
X0144283Y0062596D02*
X0141657Y0062596D01*
X0141657Y0063470D02*
X0144283Y0063470D01*
X0140817Y0052792D02*
X0138191Y0052792D01*
X0138191Y0055418D01*
X0140817Y0055418D01*
X0140817Y0052792D01*
X0140817Y0053666D02*
X0138191Y0053666D01*
X0138191Y0054540D02*
X0140817Y0054540D01*
X0140817Y0055414D02*
X0138191Y0055414D01*
X0134817Y0052792D02*
X0132191Y0052792D01*
X0132191Y0055418D01*
X0134817Y0055418D01*
X0134817Y0052792D01*
X0134817Y0053666D02*
X0132191Y0053666D01*
X0132191Y0054540D02*
X0134817Y0054540D01*
X0134817Y0055414D02*
X0132191Y0055414D01*
X0150791Y0052792D02*
X0153417Y0052792D01*
X0150791Y0052792D02*
X0150791Y0055418D01*
X0153417Y0055418D01*
X0153417Y0052792D01*
X0153417Y0053666D02*
X0150791Y0053666D01*
X0150791Y0054540D02*
X0153417Y0054540D01*
X0153417Y0055414D02*
X0150791Y0055414D01*
X0156791Y0052792D02*
X0159417Y0052792D01*
X0156791Y0052792D02*
X0156791Y0055418D01*
X0159417Y0055418D01*
X0159417Y0052792D01*
X0159417Y0053666D02*
X0156791Y0053666D01*
X0156791Y0054540D02*
X0159417Y0054540D01*
X0159417Y0055414D02*
X0156791Y0055414D01*
X0160157Y0060848D02*
X0160157Y0063474D01*
X0162783Y0063474D01*
X0162783Y0060848D01*
X0160157Y0060848D01*
X0160157Y0061722D02*
X0162783Y0061722D01*
X0162783Y0062596D02*
X0160157Y0062596D01*
X0160157Y0063470D02*
X0162783Y0063470D01*
X0160157Y0066848D02*
X0160157Y0069474D01*
X0162783Y0069474D01*
X0162783Y0066848D01*
X0160157Y0066848D01*
X0160157Y0067722D02*
X0162783Y0067722D01*
X0162783Y0068596D02*
X0160157Y0068596D01*
X0160157Y0069470D02*
X0162783Y0069470D01*
X0178757Y0069474D02*
X0178757Y0066848D01*
X0178757Y0069474D02*
X0181383Y0069474D01*
X0181383Y0066848D01*
X0178757Y0066848D01*
X0178757Y0067722D02*
X0181383Y0067722D01*
X0181383Y0068596D02*
X0178757Y0068596D01*
X0178757Y0069470D02*
X0181383Y0069470D01*
X0178757Y0063474D02*
X0178757Y0060848D01*
X0178757Y0063474D02*
X0181383Y0063474D01*
X0181383Y0060848D01*
X0178757Y0060848D01*
X0178757Y0061722D02*
X0181383Y0061722D01*
X0181383Y0062596D02*
X0178757Y0062596D01*
X0178757Y0063470D02*
X0181383Y0063470D01*
X0178017Y0052792D02*
X0175391Y0052792D01*
X0175391Y0055418D01*
X0178017Y0055418D01*
X0178017Y0052792D01*
X0178017Y0053666D02*
X0175391Y0053666D01*
X0175391Y0054540D02*
X0178017Y0054540D01*
X0178017Y0055414D02*
X0175391Y0055414D01*
X0172017Y0052792D02*
X0169391Y0052792D01*
X0169391Y0055418D01*
X0172017Y0055418D01*
X0172017Y0052792D01*
X0172017Y0053666D02*
X0169391Y0053666D01*
X0169391Y0054540D02*
X0172017Y0054540D01*
X0172017Y0055414D02*
X0169391Y0055414D01*
X0188091Y0052792D02*
X0190717Y0052792D01*
X0188091Y0052792D02*
X0188091Y0055418D01*
X0190717Y0055418D01*
X0190717Y0052792D01*
X0190717Y0053666D02*
X0188091Y0053666D01*
X0188091Y0054540D02*
X0190717Y0054540D01*
X0190717Y0055414D02*
X0188091Y0055414D01*
X0194091Y0052792D02*
X0196717Y0052792D01*
X0194091Y0052792D02*
X0194091Y0055418D01*
X0196717Y0055418D01*
X0196717Y0052792D01*
X0196717Y0053666D02*
X0194091Y0053666D01*
X0194091Y0054540D02*
X0196717Y0054540D01*
X0196717Y0055414D02*
X0194091Y0055414D01*
X0197557Y0060848D02*
X0197557Y0063474D01*
X0200183Y0063474D01*
X0200183Y0060848D01*
X0197557Y0060848D01*
X0197557Y0061722D02*
X0200183Y0061722D01*
X0200183Y0062596D02*
X0197557Y0062596D01*
X0197557Y0063470D02*
X0200183Y0063470D01*
X0197557Y0066848D02*
X0197557Y0069474D01*
X0200183Y0069474D01*
X0200183Y0066848D01*
X0197557Y0066848D01*
X0197557Y0067722D02*
X0200183Y0067722D01*
X0200183Y0068596D02*
X0197557Y0068596D01*
X0197557Y0069470D02*
X0200183Y0069470D01*
X0206891Y0052792D02*
X0209517Y0052792D01*
X0206891Y0052792D02*
X0206891Y0055418D01*
X0209517Y0055418D01*
X0209517Y0052792D01*
X0209517Y0053666D02*
X0206891Y0053666D01*
X0206891Y0054540D02*
X0209517Y0054540D01*
X0209517Y0055414D02*
X0206891Y0055414D01*
X0212891Y0052792D02*
X0215517Y0052792D01*
X0212891Y0052792D02*
X0212891Y0055418D01*
X0215517Y0055418D01*
X0215517Y0052792D01*
X0215517Y0053666D02*
X0212891Y0053666D01*
X0212891Y0054540D02*
X0215517Y0054540D01*
X0215517Y0055414D02*
X0212891Y0055414D01*
X0185117Y0090492D02*
X0182491Y0090492D01*
X0182491Y0093118D01*
X0185117Y0093118D01*
X0185117Y0090492D01*
X0185117Y0091366D02*
X0182491Y0091366D01*
X0182491Y0092240D02*
X0185117Y0092240D01*
X0185117Y0093114D02*
X0182491Y0093114D01*
X0179117Y0090492D02*
X0176491Y0090492D01*
X0176491Y0093118D01*
X0179117Y0093118D01*
X0179117Y0090492D01*
X0179117Y0091366D02*
X0176491Y0091366D01*
X0176491Y0092240D02*
X0179117Y0092240D01*
X0179117Y0093114D02*
X0176491Y0093114D01*
X0170357Y0104048D02*
X0170357Y0106674D01*
X0172983Y0106674D01*
X0172983Y0104048D01*
X0170357Y0104048D01*
X0170357Y0104922D02*
X0172983Y0104922D01*
X0172983Y0105796D02*
X0170357Y0105796D01*
X0170357Y0106670D02*
X0172983Y0106670D01*
X0170357Y0110048D02*
X0170357Y0112674D01*
X0172983Y0112674D01*
X0172983Y0110048D01*
X0170357Y0110048D01*
X0170357Y0110922D02*
X0172983Y0110922D01*
X0172983Y0111796D02*
X0170357Y0111796D01*
X0170357Y0112670D02*
X0172983Y0112670D01*
X0178091Y0116892D02*
X0180717Y0116892D01*
X0178091Y0116892D02*
X0178091Y0119518D01*
X0180717Y0119518D01*
X0180717Y0116892D01*
X0180717Y0117766D02*
X0178091Y0117766D01*
X0178091Y0118640D02*
X0180717Y0118640D01*
X0180717Y0119514D02*
X0178091Y0119514D01*
X0184091Y0116892D02*
X0186717Y0116892D01*
X0184091Y0116892D02*
X0184091Y0119518D01*
X0186717Y0119518D01*
X0186717Y0116892D01*
X0186717Y0117766D02*
X0184091Y0117766D01*
X0184091Y0118640D02*
X0186717Y0118640D01*
X0186717Y0119514D02*
X0184091Y0119514D01*
X0102057Y0138448D02*
X0102057Y0141074D01*
X0104683Y0141074D01*
X0104683Y0138448D01*
X0102057Y0138448D01*
X0102057Y0139322D02*
X0104683Y0139322D01*
X0104683Y0140196D02*
X0102057Y0140196D01*
X0102057Y0141070D02*
X0104683Y0141070D01*
X0102057Y0144448D02*
X0102057Y0147074D01*
X0104683Y0147074D01*
X0104683Y0144448D01*
X0102057Y0144448D01*
X0102057Y0145322D02*
X0104683Y0145322D01*
X0104683Y0146196D02*
X0102057Y0146196D01*
X0102057Y0147070D02*
X0104683Y0147070D01*
X0081757Y0143674D02*
X0081757Y0141048D01*
X0081757Y0143674D02*
X0084383Y0143674D01*
X0084383Y0141048D01*
X0081757Y0141048D01*
X0081757Y0141922D02*
X0084383Y0141922D01*
X0084383Y0142796D02*
X0081757Y0142796D01*
X0081757Y0143670D02*
X0084383Y0143670D01*
X0081757Y0137674D02*
X0081757Y0135048D01*
X0081757Y0137674D02*
X0084383Y0137674D01*
X0084383Y0135048D01*
X0081757Y0135048D01*
X0081757Y0135922D02*
X0084383Y0135922D01*
X0084383Y0136796D02*
X0081757Y0136796D01*
X0081757Y0137670D02*
X0084383Y0137670D01*
X0077539Y0157908D02*
X0074913Y0157908D01*
X0077539Y0157908D02*
X0077539Y0155282D01*
X0074913Y0155282D01*
X0074913Y0157908D01*
X0074913Y0156156D02*
X0077539Y0156156D01*
X0077539Y0157030D02*
X0074913Y0157030D01*
X0074913Y0157904D02*
X0077539Y0157904D01*
X0071539Y0157908D02*
X0068913Y0157908D01*
X0071539Y0157908D02*
X0071539Y0155282D01*
X0068913Y0155282D01*
X0068913Y0157908D01*
X0068913Y0156156D02*
X0071539Y0156156D01*
X0071539Y0157030D02*
X0068913Y0157030D01*
X0068913Y0157904D02*
X0071539Y0157904D01*
X0052057Y0143674D02*
X0052057Y0141048D01*
X0052057Y0143674D02*
X0054683Y0143674D01*
X0054683Y0141048D01*
X0052057Y0141048D01*
X0052057Y0141922D02*
X0054683Y0141922D01*
X0054683Y0142796D02*
X0052057Y0142796D01*
X0052057Y0143670D02*
X0054683Y0143670D01*
X0046357Y0143674D02*
X0046357Y0141048D01*
X0046357Y0143674D02*
X0048983Y0143674D01*
X0048983Y0141048D01*
X0046357Y0141048D01*
X0046357Y0141922D02*
X0048983Y0141922D01*
X0048983Y0142796D02*
X0046357Y0142796D01*
X0046357Y0143670D02*
X0048983Y0143670D01*
X0040657Y0143674D02*
X0040657Y0141048D01*
X0040657Y0143674D02*
X0043283Y0143674D01*
X0043283Y0141048D01*
X0040657Y0141048D01*
X0040657Y0141922D02*
X0043283Y0141922D01*
X0043283Y0142796D02*
X0040657Y0142796D01*
X0040657Y0143670D02*
X0043283Y0143670D01*
X0040657Y0137674D02*
X0040657Y0135048D01*
X0040657Y0137674D02*
X0043283Y0137674D01*
X0043283Y0135048D01*
X0040657Y0135048D01*
X0040657Y0135922D02*
X0043283Y0135922D01*
X0043283Y0136796D02*
X0040657Y0136796D01*
X0040657Y0137670D02*
X0043283Y0137670D01*
X0046357Y0137674D02*
X0046357Y0135048D01*
X0046357Y0137674D02*
X0048983Y0137674D01*
X0048983Y0135048D01*
X0046357Y0135048D01*
X0046357Y0135922D02*
X0048983Y0135922D01*
X0048983Y0136796D02*
X0046357Y0136796D01*
X0046357Y0137670D02*
X0048983Y0137670D01*
X0052057Y0137674D02*
X0052057Y0135048D01*
X0052057Y0137674D02*
X0054683Y0137674D01*
X0054683Y0135048D01*
X0052057Y0135048D01*
X0052057Y0135922D02*
X0054683Y0135922D01*
X0054683Y0136796D02*
X0052057Y0136796D01*
X0052057Y0137670D02*
X0054683Y0137670D01*
X0063013Y0112008D02*
X0065639Y0112008D01*
X0065639Y0109382D01*
X0063013Y0109382D01*
X0063013Y0112008D01*
X0063013Y0110256D02*
X0065639Y0110256D01*
X0065639Y0111130D02*
X0063013Y0111130D01*
X0063013Y0112004D02*
X0065639Y0112004D01*
X0069013Y0112008D02*
X0071639Y0112008D01*
X0071639Y0109382D01*
X0069013Y0109382D01*
X0069013Y0112008D01*
X0069013Y0110256D02*
X0071639Y0110256D01*
X0071639Y0111130D02*
X0069013Y0111130D01*
X0069013Y0112004D02*
X0071639Y0112004D01*
X0075057Y0112174D02*
X0075057Y0109548D01*
X0075057Y0112174D02*
X0077683Y0112174D01*
X0077683Y0109548D01*
X0075057Y0109548D01*
X0075057Y0110422D02*
X0077683Y0110422D01*
X0077683Y0111296D02*
X0075057Y0111296D01*
X0075057Y0112170D02*
X0077683Y0112170D01*
X0075057Y0106174D02*
X0075057Y0103548D01*
X0075057Y0106174D02*
X0077683Y0106174D01*
X0077683Y0103548D01*
X0075057Y0103548D01*
X0075057Y0104422D02*
X0077683Y0104422D01*
X0077683Y0105296D02*
X0075057Y0105296D01*
X0075057Y0106170D02*
X0077683Y0106170D01*
X0071639Y0106308D02*
X0069013Y0106308D01*
X0071639Y0106308D02*
X0071639Y0103682D01*
X0069013Y0103682D01*
X0069013Y0106308D01*
X0069013Y0104556D02*
X0071639Y0104556D01*
X0071639Y0105430D02*
X0069013Y0105430D01*
X0069013Y0106304D02*
X0071639Y0106304D01*
X0065639Y0106308D02*
X0063013Y0106308D01*
X0065639Y0106308D02*
X0065639Y0103682D01*
X0063013Y0103682D01*
X0063013Y0106308D01*
X0063013Y0104556D02*
X0065639Y0104556D01*
X0065639Y0105430D02*
X0063013Y0105430D01*
X0063013Y0106304D02*
X0065639Y0106304D01*
D12*
X0068360Y0136339D03*
X0076260Y0136339D03*
X0060270Y0136361D03*
X0060270Y0149361D03*
X0068360Y0149339D03*
X0076260Y0149339D03*
D13*
X0176679Y0096630D02*
X0178929Y0096630D01*
X0176679Y0096630D02*
X0176679Y0099380D01*
X0178929Y0099380D01*
X0178929Y0096630D01*
X0178929Y0097379D02*
X0176679Y0097379D01*
X0176679Y0098128D02*
X0178929Y0098128D01*
X0178929Y0098877D02*
X0176679Y0098877D01*
X0182679Y0096630D02*
X0184929Y0096630D01*
X0182679Y0096630D02*
X0182679Y0099380D01*
X0184929Y0099380D01*
X0184929Y0096630D01*
X0184929Y0097379D02*
X0182679Y0097379D01*
X0182679Y0098128D02*
X0184929Y0098128D01*
X0184929Y0098877D02*
X0182679Y0098877D01*
D14*
X0047632Y0098887D03*
X0047632Y0100855D03*
X0047632Y0102824D03*
X0047632Y0104792D03*
X0047632Y0106761D03*
X0047632Y0108729D03*
X0047632Y0110698D03*
X0047632Y0112666D03*
X0047632Y0114635D03*
X0047632Y0116603D03*
X0047632Y0096918D03*
X0047632Y0094950D03*
X0047632Y0092981D03*
X0047632Y0091013D03*
X0047632Y0089044D03*
X0047632Y0087076D03*
X0047632Y0085107D03*
X0047632Y0083139D03*
X0047632Y0081170D03*
X0047632Y0079202D03*
X0047632Y0077233D03*
X0047632Y0075265D03*
X0047632Y0073296D03*
X0047632Y0071328D03*
D15*
X0034837Y0062863D03*
X0034837Y0125068D03*
D16*
X0093826Y0137390D03*
X0093826Y0148201D03*
D17*
X0062170Y0051020D03*
X0062170Y0045902D03*
X0053508Y0048461D03*
D18*
X0090086Y0068195D03*
X0097566Y0068195D03*
X0093826Y0060195D03*
X0110886Y0068195D03*
X0118366Y0068195D03*
X0114626Y0060195D03*
X0129786Y0068195D03*
X0137266Y0068195D03*
X0133526Y0060195D03*
X0148386Y0068195D03*
X0155866Y0068195D03*
X0152126Y0060195D03*
X0166986Y0068095D03*
X0174466Y0068095D03*
X0185686Y0068095D03*
X0193166Y0068095D03*
X0204486Y0068095D03*
X0211966Y0068095D03*
X0208226Y0060095D03*
X0189426Y0060095D03*
X0170726Y0060095D03*
D19*
X0177470Y0104820D03*
X0185470Y0108561D03*
X0177470Y0112301D03*
M02*
