G75*
%MOIN*%
%OFA0B0*%
%FSLAX25Y25*%
%IPPOS*%
%LPD*%
%AMOC8*
5,1,8,0,0,1.08239X$1,22.5*
%
%ADD10C,0.00600*%
%ADD11C,0.00800*%
%ADD12C,0.02400*%
%ADD13C,0.01500*%
%ADD14C,0.01000*%
D10*
X0008065Y0003100D02*
X0008065Y0129084D01*
X0165545Y0129074D01*
X0165545Y0003100D01*
X0008065Y0003100D01*
D11*
X0010765Y0005800D02*
X0010765Y0126384D01*
X0162845Y0126374D01*
X0162845Y0005800D01*
X0010765Y0005800D01*
X0010765Y0006294D02*
X0162845Y0006294D01*
X0162845Y0007093D02*
X0010765Y0007093D01*
X0010765Y0007891D02*
X0162845Y0007891D01*
X0162845Y0008690D02*
X0010765Y0008690D01*
X0010765Y0009488D02*
X0162845Y0009488D01*
X0162845Y0010287D02*
X0010765Y0010287D01*
X0010765Y0011085D02*
X0162845Y0011085D01*
X0162845Y0011884D02*
X0010765Y0011884D01*
X0010765Y0012682D02*
X0162845Y0012682D01*
X0162845Y0013481D02*
X0010765Y0013481D01*
X0010765Y0014279D02*
X0162845Y0014279D01*
X0162845Y0015078D02*
X0010765Y0015078D01*
X0010765Y0015876D02*
X0162845Y0015876D01*
X0162845Y0016675D02*
X0010765Y0016675D01*
X0010765Y0017473D02*
X0162845Y0017473D01*
X0162845Y0018272D02*
X0010765Y0018272D01*
X0010765Y0019070D02*
X0162845Y0019070D01*
X0162845Y0019869D02*
X0010765Y0019869D01*
X0010765Y0020667D02*
X0162845Y0020667D01*
X0162845Y0021466D02*
X0010765Y0021466D01*
X0010765Y0022264D02*
X0162845Y0022264D01*
X0162845Y0023063D02*
X0010765Y0023063D01*
X0010765Y0023861D02*
X0162845Y0023861D01*
X0162845Y0024660D02*
X0010765Y0024660D01*
X0010765Y0025458D02*
X0162845Y0025458D01*
X0162845Y0026257D02*
X0010765Y0026257D01*
X0010765Y0027055D02*
X0162845Y0027055D01*
X0162845Y0027854D02*
X0010765Y0027854D01*
X0010765Y0028652D02*
X0162845Y0028652D01*
X0162845Y0029451D02*
X0010765Y0029451D01*
X0010765Y0030249D02*
X0162845Y0030249D01*
X0162845Y0031048D02*
X0010765Y0031048D01*
X0010765Y0031846D02*
X0162845Y0031846D01*
X0162845Y0032645D02*
X0086263Y0032645D01*
X0086218Y0032600D02*
X0087565Y0033947D01*
X0087565Y0035853D01*
X0087115Y0036303D01*
X0087115Y0049847D01*
X0087565Y0050297D01*
X0087565Y0052203D01*
X0087115Y0052653D01*
X0087115Y0065347D01*
X0087365Y0065597D01*
X0087365Y0067503D01*
X0086915Y0067953D01*
X0086915Y0087780D01*
X0087338Y0087780D01*
X0088685Y0089127D01*
X0088685Y0091033D01*
X0087338Y0092380D01*
X0085432Y0092380D01*
X0084085Y0091033D01*
X0084085Y0090396D01*
X0083215Y0089526D01*
X0083215Y0076413D01*
X0083202Y0076400D01*
X0070818Y0076400D01*
X0069818Y0077400D01*
X0067912Y0077400D01*
X0066565Y0076053D01*
X0066565Y0074147D01*
X0067265Y0073447D01*
X0067265Y0071553D01*
X0066565Y0070853D01*
X0066565Y0068947D01*
X0067265Y0068247D01*
X0067265Y0066653D01*
X0066565Y0065953D01*
X0066565Y0064047D01*
X0067265Y0063347D01*
X0067265Y0061753D01*
X0066565Y0061053D01*
X0066565Y0059147D01*
X0067265Y0058447D01*
X0067265Y0057053D01*
X0066565Y0056353D01*
X0066565Y0054447D01*
X0067265Y0053747D01*
X0067265Y0047853D01*
X0066565Y0047153D01*
X0066565Y0045247D01*
X0067912Y0043900D01*
X0069818Y0043900D01*
X0071165Y0045247D01*
X0071165Y0047153D01*
X0070465Y0047853D01*
X0070465Y0053747D01*
X0071165Y0054447D01*
X0071165Y0056353D01*
X0070465Y0057053D01*
X0070465Y0058447D01*
X0071165Y0059147D01*
X0071165Y0061053D01*
X0070465Y0061753D01*
X0070465Y0063347D01*
X0071165Y0064047D01*
X0071165Y0065953D01*
X0070465Y0066653D01*
X0070465Y0068247D01*
X0071165Y0068947D01*
X0071165Y0070853D01*
X0070465Y0071553D01*
X0070465Y0073200D01*
X0083002Y0073200D01*
X0083215Y0072987D01*
X0083215Y0067953D01*
X0082765Y0067503D01*
X0082765Y0065597D01*
X0083415Y0064947D01*
X0083415Y0052653D01*
X0082965Y0052203D01*
X0082965Y0050297D01*
X0083415Y0049847D01*
X0083415Y0036303D01*
X0082965Y0035853D01*
X0082965Y0033947D01*
X0084312Y0032600D01*
X0086218Y0032600D01*
X0087061Y0033443D02*
X0162845Y0033443D01*
X0162845Y0034242D02*
X0087565Y0034242D01*
X0087565Y0035040D02*
X0162845Y0035040D01*
X0162845Y0035839D02*
X0087565Y0035839D01*
X0087115Y0036637D02*
X0162845Y0036637D01*
X0162845Y0037436D02*
X0087115Y0037436D01*
X0087115Y0038234D02*
X0162845Y0038234D01*
X0162845Y0039033D02*
X0087115Y0039033D01*
X0087115Y0039832D02*
X0162845Y0039832D01*
X0162845Y0040630D02*
X0087115Y0040630D01*
X0087115Y0041429D02*
X0162845Y0041429D01*
X0162845Y0042227D02*
X0087115Y0042227D01*
X0087115Y0043026D02*
X0162845Y0043026D01*
X0162845Y0043824D02*
X0087115Y0043824D01*
X0087115Y0044623D02*
X0162845Y0044623D01*
X0162845Y0045421D02*
X0087115Y0045421D01*
X0087115Y0046220D02*
X0162845Y0046220D01*
X0162845Y0047018D02*
X0087115Y0047018D01*
X0087115Y0047817D02*
X0162845Y0047817D01*
X0162845Y0048615D02*
X0087115Y0048615D01*
X0087115Y0049414D02*
X0162845Y0049414D01*
X0162845Y0050212D02*
X0087480Y0050212D01*
X0087565Y0051011D02*
X0162845Y0051011D01*
X0162845Y0051809D02*
X0087565Y0051809D01*
X0087160Y0052608D02*
X0162845Y0052608D01*
X0162845Y0053406D02*
X0087115Y0053406D01*
X0087115Y0054205D02*
X0162845Y0054205D01*
X0162845Y0055003D02*
X0087115Y0055003D01*
X0087115Y0055802D02*
X0162845Y0055802D01*
X0162845Y0056600D02*
X0087115Y0056600D01*
X0087115Y0057399D02*
X0162845Y0057399D01*
X0162845Y0058197D02*
X0087115Y0058197D01*
X0087115Y0058996D02*
X0162845Y0058996D01*
X0162845Y0059794D02*
X0087115Y0059794D01*
X0087115Y0060593D02*
X0162845Y0060593D01*
X0162845Y0061391D02*
X0087115Y0061391D01*
X0087115Y0062190D02*
X0162845Y0062190D01*
X0162845Y0062988D02*
X0087115Y0062988D01*
X0087115Y0063787D02*
X0162845Y0063787D01*
X0162845Y0064585D02*
X0087115Y0064585D01*
X0087152Y0065384D02*
X0162845Y0065384D01*
X0162845Y0066182D02*
X0087365Y0066182D01*
X0087365Y0066981D02*
X0162845Y0066981D01*
X0162845Y0067779D02*
X0087088Y0067779D01*
X0086915Y0068578D02*
X0162845Y0068578D01*
X0162845Y0069376D02*
X0086915Y0069376D01*
X0086915Y0070175D02*
X0162845Y0070175D01*
X0162845Y0070973D02*
X0086915Y0070973D01*
X0086915Y0071772D02*
X0162845Y0071772D01*
X0162845Y0072570D02*
X0086915Y0072570D01*
X0086915Y0073369D02*
X0162845Y0073369D01*
X0162845Y0074168D02*
X0086915Y0074168D01*
X0086915Y0074966D02*
X0162845Y0074966D01*
X0162845Y0075765D02*
X0086915Y0075765D01*
X0086915Y0076563D02*
X0162845Y0076563D01*
X0162845Y0077362D02*
X0086915Y0077362D01*
X0086915Y0078160D02*
X0162845Y0078160D01*
X0162845Y0078959D02*
X0086915Y0078959D01*
X0086915Y0079757D02*
X0162845Y0079757D01*
X0162845Y0080556D02*
X0086915Y0080556D01*
X0086915Y0081354D02*
X0162845Y0081354D01*
X0162845Y0082153D02*
X0086915Y0082153D01*
X0086915Y0082951D02*
X0162845Y0082951D01*
X0162845Y0083750D02*
X0086915Y0083750D01*
X0086915Y0084548D02*
X0162845Y0084548D01*
X0162845Y0085347D02*
X0086915Y0085347D01*
X0086915Y0086145D02*
X0162845Y0086145D01*
X0162845Y0086944D02*
X0086915Y0086944D01*
X0086915Y0087742D02*
X0162845Y0087742D01*
X0162845Y0088541D02*
X0088099Y0088541D01*
X0088685Y0089339D02*
X0162845Y0089339D01*
X0162845Y0090138D02*
X0088685Y0090138D01*
X0088685Y0090936D02*
X0162845Y0090936D01*
X0162845Y0091735D02*
X0087983Y0091735D01*
X0084787Y0091735D02*
X0010765Y0091735D01*
X0010765Y0092533D02*
X0162845Y0092533D01*
X0162845Y0093332D02*
X0010765Y0093332D01*
X0010765Y0094130D02*
X0162845Y0094130D01*
X0162845Y0094929D02*
X0010765Y0094929D01*
X0010765Y0095727D02*
X0162845Y0095727D01*
X0162845Y0096526D02*
X0010765Y0096526D01*
X0010765Y0097324D02*
X0162845Y0097324D01*
X0162845Y0098123D02*
X0010765Y0098123D01*
X0010765Y0098921D02*
X0162845Y0098921D01*
X0162845Y0099720D02*
X0010765Y0099720D01*
X0010765Y0100518D02*
X0162845Y0100518D01*
X0162845Y0101317D02*
X0010765Y0101317D01*
X0010765Y0102115D02*
X0162845Y0102115D01*
X0162845Y0102914D02*
X0010765Y0102914D01*
X0010765Y0103712D02*
X0162845Y0103712D01*
X0162845Y0104511D02*
X0010765Y0104511D01*
X0010765Y0105309D02*
X0162845Y0105309D01*
X0162845Y0106108D02*
X0010765Y0106108D01*
X0010765Y0106906D02*
X0162845Y0106906D01*
X0162845Y0107705D02*
X0010765Y0107705D01*
X0010765Y0108503D02*
X0162845Y0108503D01*
X0162845Y0109302D02*
X0010765Y0109302D01*
X0010765Y0110101D02*
X0162845Y0110101D01*
X0162845Y0110899D02*
X0010765Y0110899D01*
X0010765Y0111698D02*
X0162845Y0111698D01*
X0162845Y0112496D02*
X0010765Y0112496D01*
X0010765Y0113295D02*
X0162845Y0113295D01*
X0162845Y0114093D02*
X0010765Y0114093D01*
X0010765Y0114892D02*
X0162845Y0114892D01*
X0162845Y0115690D02*
X0010765Y0115690D01*
X0010765Y0116489D02*
X0162845Y0116489D01*
X0162845Y0117287D02*
X0010765Y0117287D01*
X0010765Y0118086D02*
X0162845Y0118086D01*
X0162845Y0118884D02*
X0010765Y0118884D01*
X0010765Y0119683D02*
X0162845Y0119683D01*
X0162845Y0120481D02*
X0010765Y0120481D01*
X0010765Y0121280D02*
X0162845Y0121280D01*
X0162845Y0122078D02*
X0010765Y0122078D01*
X0010765Y0122877D02*
X0162845Y0122877D01*
X0162845Y0123675D02*
X0010765Y0123675D01*
X0010765Y0124474D02*
X0162845Y0124474D01*
X0162845Y0125272D02*
X0010765Y0125272D01*
X0010765Y0126071D02*
X0162845Y0126071D01*
X0084085Y0090936D02*
X0010765Y0090936D01*
X0010765Y0090138D02*
X0083827Y0090138D01*
X0083215Y0089339D02*
X0010765Y0089339D01*
X0010765Y0088541D02*
X0083215Y0088541D01*
X0083215Y0087742D02*
X0010765Y0087742D01*
X0010765Y0086944D02*
X0083215Y0086944D01*
X0083215Y0086145D02*
X0010765Y0086145D01*
X0010765Y0085347D02*
X0083215Y0085347D01*
X0083215Y0084548D02*
X0010765Y0084548D01*
X0010765Y0083750D02*
X0083215Y0083750D01*
X0083215Y0082951D02*
X0010765Y0082951D01*
X0010765Y0082153D02*
X0083215Y0082153D01*
X0083215Y0081354D02*
X0010765Y0081354D01*
X0010765Y0080556D02*
X0083215Y0080556D01*
X0083215Y0079757D02*
X0010765Y0079757D01*
X0010765Y0078959D02*
X0083215Y0078959D01*
X0083215Y0078160D02*
X0010765Y0078160D01*
X0010765Y0077362D02*
X0067874Y0077362D01*
X0067075Y0076563D02*
X0010765Y0076563D01*
X0010765Y0075765D02*
X0066565Y0075765D01*
X0066565Y0074966D02*
X0010765Y0074966D01*
X0010765Y0074168D02*
X0066565Y0074168D01*
X0067265Y0073369D02*
X0010765Y0073369D01*
X0010765Y0072570D02*
X0067265Y0072570D01*
X0067265Y0071772D02*
X0010765Y0071772D01*
X0010765Y0070973D02*
X0066686Y0070973D01*
X0066565Y0070175D02*
X0010765Y0070175D01*
X0010765Y0069376D02*
X0066565Y0069376D01*
X0066934Y0068578D02*
X0010765Y0068578D01*
X0010765Y0067779D02*
X0067265Y0067779D01*
X0067265Y0066981D02*
X0010765Y0066981D01*
X0010765Y0066182D02*
X0066795Y0066182D01*
X0066565Y0065384D02*
X0010765Y0065384D01*
X0010765Y0064585D02*
X0066565Y0064585D01*
X0066826Y0063787D02*
X0010765Y0063787D01*
X0010765Y0062988D02*
X0067265Y0062988D01*
X0067265Y0062190D02*
X0010765Y0062190D01*
X0010765Y0061391D02*
X0066904Y0061391D01*
X0066565Y0060593D02*
X0010765Y0060593D01*
X0010765Y0059794D02*
X0066565Y0059794D01*
X0066717Y0058996D02*
X0010765Y0058996D01*
X0010765Y0058197D02*
X0067265Y0058197D01*
X0067265Y0057399D02*
X0010765Y0057399D01*
X0010765Y0056600D02*
X0066813Y0056600D01*
X0066565Y0055802D02*
X0010765Y0055802D01*
X0010765Y0055003D02*
X0066565Y0055003D01*
X0066808Y0054205D02*
X0010765Y0054205D01*
X0010765Y0053406D02*
X0067265Y0053406D01*
X0067265Y0052608D02*
X0010765Y0052608D01*
X0010765Y0051809D02*
X0067265Y0051809D01*
X0067265Y0051011D02*
X0010765Y0051011D01*
X0010765Y0050212D02*
X0067265Y0050212D01*
X0067265Y0049414D02*
X0010765Y0049414D01*
X0010765Y0048615D02*
X0067265Y0048615D01*
X0067229Y0047817D02*
X0010765Y0047817D01*
X0010765Y0047018D02*
X0066565Y0047018D01*
X0066565Y0046220D02*
X0010765Y0046220D01*
X0010765Y0045421D02*
X0066565Y0045421D01*
X0067190Y0044623D02*
X0010765Y0044623D01*
X0010765Y0043824D02*
X0083415Y0043824D01*
X0083415Y0043026D02*
X0010765Y0043026D01*
X0010765Y0042227D02*
X0083415Y0042227D01*
X0083415Y0041429D02*
X0010765Y0041429D01*
X0010765Y0040630D02*
X0083415Y0040630D01*
X0083415Y0039832D02*
X0010765Y0039832D01*
X0010765Y0039033D02*
X0083415Y0039033D01*
X0083415Y0038234D02*
X0010765Y0038234D01*
X0010765Y0037436D02*
X0083415Y0037436D01*
X0083415Y0036637D02*
X0010765Y0036637D01*
X0010765Y0035839D02*
X0082965Y0035839D01*
X0082965Y0035040D02*
X0010765Y0035040D01*
X0010765Y0034242D02*
X0082965Y0034242D01*
X0083469Y0033443D02*
X0010765Y0033443D01*
X0010765Y0032645D02*
X0084267Y0032645D01*
X0083415Y0044623D02*
X0070540Y0044623D01*
X0071165Y0045421D02*
X0083415Y0045421D01*
X0083415Y0046220D02*
X0071165Y0046220D01*
X0071165Y0047018D02*
X0083415Y0047018D01*
X0083415Y0047817D02*
X0070501Y0047817D01*
X0070465Y0048615D02*
X0083415Y0048615D01*
X0083415Y0049414D02*
X0070465Y0049414D01*
X0070465Y0050212D02*
X0083050Y0050212D01*
X0082965Y0051011D02*
X0070465Y0051011D01*
X0070465Y0051809D02*
X0082965Y0051809D01*
X0083370Y0052608D02*
X0070465Y0052608D01*
X0070465Y0053406D02*
X0083415Y0053406D01*
X0083415Y0054205D02*
X0070923Y0054205D01*
X0071165Y0055003D02*
X0083415Y0055003D01*
X0083415Y0055802D02*
X0071165Y0055802D01*
X0070918Y0056600D02*
X0083415Y0056600D01*
X0083415Y0057399D02*
X0070465Y0057399D01*
X0070465Y0058197D02*
X0083415Y0058197D01*
X0083415Y0058996D02*
X0071014Y0058996D01*
X0071165Y0059794D02*
X0083415Y0059794D01*
X0083415Y0060593D02*
X0071165Y0060593D01*
X0070826Y0061391D02*
X0083415Y0061391D01*
X0083415Y0062190D02*
X0070465Y0062190D01*
X0070465Y0062988D02*
X0083415Y0062988D01*
X0083415Y0063787D02*
X0070905Y0063787D01*
X0071165Y0064585D02*
X0083415Y0064585D01*
X0082979Y0065384D02*
X0071165Y0065384D01*
X0070935Y0066182D02*
X0082765Y0066182D01*
X0082765Y0066981D02*
X0070465Y0066981D01*
X0070465Y0067779D02*
X0083042Y0067779D01*
X0083215Y0068578D02*
X0070796Y0068578D01*
X0071165Y0069376D02*
X0083215Y0069376D01*
X0083215Y0070175D02*
X0071165Y0070175D01*
X0071044Y0070973D02*
X0083215Y0070973D01*
X0083215Y0071772D02*
X0070465Y0071772D01*
X0070465Y0072570D02*
X0083215Y0072570D01*
X0083215Y0076563D02*
X0070655Y0076563D01*
X0069856Y0077362D02*
X0083215Y0077362D01*
D12*
X0085065Y0066550D03*
X0073765Y0064600D03*
X0068865Y0065000D03*
X0068865Y0069900D03*
X0068865Y0075100D03*
X0069565Y0082000D03*
X0086385Y0090080D03*
X0097765Y0091800D03*
X0107765Y0091800D03*
X0095165Y0076000D03*
X0100965Y0074700D03*
X0106765Y0064000D03*
X0099365Y0055900D03*
X0085265Y0051250D03*
X0074665Y0050500D03*
X0068865Y0046200D03*
X0068865Y0055400D03*
X0068865Y0060100D03*
X0052765Y0053900D03*
X0049765Y0040000D03*
X0049665Y0034000D03*
X0057765Y0031800D03*
X0073565Y0028900D03*
X0074365Y0022400D03*
X0081665Y0022500D03*
X0089965Y0022300D03*
X0098965Y0022000D03*
X0085265Y0034900D03*
X0099165Y0039600D03*
X0147765Y0041800D03*
X0147765Y0026800D03*
X0147765Y0056800D03*
X0147765Y0071800D03*
X0147765Y0086800D03*
X0147765Y0101800D03*
X0082765Y0101800D03*
X0072765Y0101800D03*
X0055965Y0103200D03*
X0045565Y0104000D03*
X0044465Y0096500D03*
X0030765Y0085700D03*
X0031465Y0042500D03*
D13*
X0085065Y0066550D02*
X0085065Y0073400D01*
X0085065Y0074800D01*
X0085065Y0076400D01*
X0085065Y0088760D01*
X0086385Y0090080D01*
X0085065Y0066550D02*
X0085265Y0066350D01*
X0085265Y0051250D01*
X0085265Y0034900D01*
D14*
X0068865Y0046200D02*
X0068865Y0055400D01*
X0068865Y0060100D01*
X0068865Y0065000D01*
X0068865Y0069900D01*
X0068865Y0075100D01*
X0069165Y0074800D01*
X0083865Y0074800D01*
X0083865Y0074600D01*
X0085065Y0073400D01*
X0085065Y0074800D02*
X0083865Y0074800D01*
X0085065Y0076000D01*
X0085065Y0076400D01*
M02*
