G75*
%MOIN*%
%OFA0B0*%
%FSLAX25Y25*%
%IPPOS*%
%LPD*%
%AMOC8*
5,1,8,0,0,1.08239X$1,22.5*
%
%ADD10C,0.00600*%
%ADD11C,0.00875*%
%ADD12R,0.05500X0.05500*%
%ADD13R,0.09843X0.03937*%
%ADD14C,0.00750*%
%ADD15C,0.01250*%
%ADD16R,0.06299X0.01181*%
%ADD17R,0.07677X0.06299*%
%ADD18R,0.03150X0.01969*%
%ADD19R,0.03500X0.04500*%
%ADD20R,0.10000X0.02500*%
%ADD21R,0.04500X0.04000*%
%ADD22C,0.00800*%
%ADD23C,0.01000*%
%ADD24C,0.02400*%
%ADD25C,0.03200*%
%ADD26C,0.01500*%
%ADD27C,0.02000*%
%ADD28C,0.01300*%
%ADD29C,0.01200*%
D10*
X0008065Y0003100D02*
X0008065Y0129084D01*
X0165545Y0129074D01*
X0165545Y0003100D01*
X0008065Y0003100D01*
D11*
X0061252Y0024513D02*
X0063878Y0024513D01*
X0063878Y0021887D01*
X0061252Y0021887D01*
X0061252Y0024513D01*
X0061252Y0022761D02*
X0063878Y0022761D01*
X0063878Y0023635D02*
X0061252Y0023635D01*
X0061252Y0024509D02*
X0063878Y0024509D01*
X0063878Y0030313D02*
X0061252Y0030313D01*
X0063878Y0030313D02*
X0063878Y0027687D01*
X0061252Y0027687D01*
X0061252Y0030313D01*
X0061252Y0028561D02*
X0063878Y0028561D01*
X0063878Y0029435D02*
X0061252Y0029435D01*
X0061252Y0030309D02*
X0063878Y0030309D01*
X0063878Y0036013D02*
X0061252Y0036013D01*
X0063878Y0036013D02*
X0063878Y0033387D01*
X0061252Y0033387D01*
X0061252Y0036013D01*
X0061252Y0034261D02*
X0063878Y0034261D01*
X0063878Y0035135D02*
X0061252Y0035135D01*
X0061252Y0036009D02*
X0063878Y0036009D01*
X0063878Y0041713D02*
X0061252Y0041713D01*
X0063878Y0041713D02*
X0063878Y0039087D01*
X0061252Y0039087D01*
X0061252Y0041713D01*
X0061252Y0039961D02*
X0063878Y0039961D01*
X0063878Y0040835D02*
X0061252Y0040835D01*
X0061252Y0041709D02*
X0063878Y0041709D01*
X0067252Y0041713D02*
X0069878Y0041713D01*
X0069878Y0039087D01*
X0067252Y0039087D01*
X0067252Y0041713D01*
X0067252Y0039961D02*
X0069878Y0039961D01*
X0069878Y0040835D02*
X0067252Y0040835D01*
X0067252Y0041709D02*
X0069878Y0041709D01*
X0069878Y0036013D02*
X0067252Y0036013D01*
X0069878Y0036013D02*
X0069878Y0033387D01*
X0067252Y0033387D01*
X0067252Y0036013D01*
X0067252Y0034261D02*
X0069878Y0034261D01*
X0069878Y0035135D02*
X0067252Y0035135D01*
X0067252Y0036009D02*
X0069878Y0036009D01*
X0069878Y0030313D02*
X0067252Y0030313D01*
X0069878Y0030313D02*
X0069878Y0027687D01*
X0067252Y0027687D01*
X0067252Y0030313D01*
X0067252Y0028561D02*
X0069878Y0028561D01*
X0069878Y0029435D02*
X0067252Y0029435D01*
X0067252Y0030309D02*
X0069878Y0030309D01*
X0069878Y0024513D02*
X0067252Y0024513D01*
X0069878Y0024513D02*
X0069878Y0021887D01*
X0067252Y0021887D01*
X0067252Y0024513D01*
X0067252Y0022761D02*
X0069878Y0022761D01*
X0069878Y0023635D02*
X0067252Y0023635D01*
X0067252Y0024509D02*
X0069878Y0024509D01*
X0068178Y0081813D02*
X0065552Y0081813D01*
X0068178Y0081813D02*
X0068178Y0079187D01*
X0065552Y0079187D01*
X0065552Y0081813D01*
X0065552Y0080061D02*
X0068178Y0080061D01*
X0068178Y0080935D02*
X0065552Y0080935D01*
X0065552Y0081809D02*
X0068178Y0081809D01*
X0062178Y0081813D02*
X0059552Y0081813D01*
X0062178Y0081813D02*
X0062178Y0079187D01*
X0059552Y0079187D01*
X0059552Y0081813D01*
X0059552Y0080061D02*
X0062178Y0080061D01*
X0062178Y0080935D02*
X0059552Y0080935D01*
X0059552Y0081809D02*
X0062178Y0081809D01*
X0062178Y0090513D02*
X0059552Y0090513D01*
X0062178Y0090513D02*
X0062178Y0087887D01*
X0059552Y0087887D01*
X0059552Y0090513D01*
X0059552Y0088761D02*
X0062178Y0088761D01*
X0062178Y0089635D02*
X0059552Y0089635D01*
X0059552Y0090509D02*
X0062178Y0090509D01*
X0062178Y0096213D02*
X0059552Y0096213D01*
X0062178Y0096213D02*
X0062178Y0093587D01*
X0059552Y0093587D01*
X0059552Y0096213D01*
X0059552Y0094461D02*
X0062178Y0094461D01*
X0062178Y0095335D02*
X0059552Y0095335D01*
X0059552Y0096209D02*
X0062178Y0096209D01*
X0065552Y0096213D02*
X0068178Y0096213D01*
X0068178Y0093587D01*
X0065552Y0093587D01*
X0065552Y0096213D01*
X0065552Y0094461D02*
X0068178Y0094461D01*
X0068178Y0095335D02*
X0065552Y0095335D01*
X0065552Y0096209D02*
X0068178Y0096209D01*
X0068178Y0090513D02*
X0065552Y0090513D01*
X0068178Y0090513D02*
X0068178Y0087887D01*
X0065552Y0087887D01*
X0065552Y0090513D01*
X0065552Y0088761D02*
X0068178Y0088761D01*
X0068178Y0089635D02*
X0065552Y0089635D01*
X0065552Y0090509D02*
X0068178Y0090509D01*
X0044552Y0107287D02*
X0044552Y0109913D01*
X0047178Y0109913D01*
X0047178Y0107287D01*
X0044552Y0107287D01*
X0044552Y0108161D02*
X0047178Y0108161D01*
X0047178Y0109035D02*
X0044552Y0109035D01*
X0044552Y0109909D02*
X0047178Y0109909D01*
X0044552Y0113287D02*
X0044552Y0115913D01*
X0047178Y0115913D01*
X0047178Y0113287D01*
X0044552Y0113287D01*
X0044552Y0114161D02*
X0047178Y0114161D01*
X0047178Y0115035D02*
X0044552Y0115035D01*
X0044552Y0115909D02*
X0047178Y0115909D01*
X0046578Y0120287D02*
X0043952Y0120287D01*
X0043952Y0122913D01*
X0046578Y0122913D01*
X0046578Y0120287D01*
X0046578Y0121161D02*
X0043952Y0121161D01*
X0043952Y0122035D02*
X0046578Y0122035D01*
X0046578Y0122909D02*
X0043952Y0122909D01*
X0040578Y0120287D02*
X0037952Y0120287D01*
X0037952Y0122913D01*
X0040578Y0122913D01*
X0040578Y0120287D01*
X0040578Y0121161D02*
X0037952Y0121161D01*
X0037952Y0122035D02*
X0040578Y0122035D01*
X0040578Y0122909D02*
X0037952Y0122909D01*
X0038852Y0115913D02*
X0038852Y0113287D01*
X0038852Y0115913D02*
X0041478Y0115913D01*
X0041478Y0113287D01*
X0038852Y0113287D01*
X0038852Y0114161D02*
X0041478Y0114161D01*
X0041478Y0115035D02*
X0038852Y0115035D01*
X0038852Y0115909D02*
X0041478Y0115909D01*
X0032852Y0115913D02*
X0032852Y0113287D01*
X0032852Y0115913D02*
X0035478Y0115913D01*
X0035478Y0113287D01*
X0032852Y0113287D01*
X0032852Y0114161D02*
X0035478Y0114161D01*
X0035478Y0115035D02*
X0032852Y0115035D01*
X0032852Y0115909D02*
X0035478Y0115909D01*
X0032852Y0109913D02*
X0032852Y0107287D01*
X0032852Y0109913D02*
X0035478Y0109913D01*
X0035478Y0107287D01*
X0032852Y0107287D01*
X0032852Y0108161D02*
X0035478Y0108161D01*
X0035478Y0109035D02*
X0032852Y0109035D01*
X0032852Y0109909D02*
X0035478Y0109909D01*
X0038852Y0109913D02*
X0038852Y0107287D01*
X0038852Y0109913D02*
X0041478Y0109913D01*
X0041478Y0107287D01*
X0038852Y0107287D01*
X0038852Y0108161D02*
X0041478Y0108161D01*
X0041478Y0109035D02*
X0038852Y0109035D01*
X0038852Y0109909D02*
X0041478Y0109909D01*
X0075152Y0110687D02*
X0075152Y0113313D01*
X0077778Y0113313D01*
X0077778Y0110687D01*
X0075152Y0110687D01*
X0075152Y0111561D02*
X0077778Y0111561D01*
X0077778Y0112435D02*
X0075152Y0112435D01*
X0075152Y0113309D02*
X0077778Y0113309D01*
X0075152Y0116687D02*
X0075152Y0119313D01*
X0077778Y0119313D01*
X0077778Y0116687D01*
X0075152Y0116687D01*
X0075152Y0117561D02*
X0077778Y0117561D01*
X0077778Y0118435D02*
X0075152Y0118435D01*
X0075152Y0119309D02*
X0077778Y0119309D01*
X0096478Y0117213D02*
X0096478Y0114587D01*
X0093852Y0114587D01*
X0093852Y0117213D01*
X0096478Y0117213D01*
X0096478Y0115461D02*
X0093852Y0115461D01*
X0093852Y0116335D02*
X0096478Y0116335D01*
X0096478Y0117209D02*
X0093852Y0117209D01*
X0096478Y0111213D02*
X0096478Y0108587D01*
X0093852Y0108587D01*
X0093852Y0111213D01*
X0096478Y0111213D01*
X0096478Y0109461D02*
X0093852Y0109461D01*
X0093852Y0110335D02*
X0096478Y0110335D01*
X0096478Y0111209D02*
X0093852Y0111209D01*
X0105952Y0114787D02*
X0105952Y0117413D01*
X0108578Y0117413D01*
X0108578Y0114787D01*
X0105952Y0114787D01*
X0105952Y0115661D02*
X0108578Y0115661D01*
X0108578Y0116535D02*
X0105952Y0116535D01*
X0105952Y0117409D02*
X0108578Y0117409D01*
X0105952Y0120787D02*
X0105952Y0123413D01*
X0108578Y0123413D01*
X0108578Y0120787D01*
X0105952Y0120787D01*
X0105952Y0121661D02*
X0108578Y0121661D01*
X0108578Y0122535D02*
X0105952Y0122535D01*
X0105952Y0123409D02*
X0108578Y0123409D01*
X0113752Y0109187D02*
X0116378Y0109187D01*
X0113752Y0109187D02*
X0113752Y0111813D01*
X0116378Y0111813D01*
X0116378Y0109187D01*
X0116378Y0110061D02*
X0113752Y0110061D01*
X0113752Y0110935D02*
X0116378Y0110935D01*
X0116378Y0111809D02*
X0113752Y0111809D01*
X0119752Y0109187D02*
X0122378Y0109187D01*
X0119752Y0109187D02*
X0119752Y0111813D01*
X0122378Y0111813D01*
X0122378Y0109187D01*
X0122378Y0110061D02*
X0119752Y0110061D01*
X0119752Y0110935D02*
X0122378Y0110935D01*
X0122378Y0111809D02*
X0119752Y0111809D01*
D12*
X0069665Y0108500D03*
X0061365Y0108600D03*
X0053365Y0108600D03*
X0053365Y0121600D03*
X0061365Y0121600D03*
X0069665Y0121500D03*
D13*
X0085865Y0121606D03*
X0085865Y0110794D03*
D14*
X0102740Y0114875D02*
X0102740Y0117125D01*
X0102740Y0114875D02*
X0099990Y0114875D01*
X0099990Y0117125D01*
X0102740Y0117125D01*
X0102740Y0115624D02*
X0099990Y0115624D01*
X0099990Y0116373D02*
X0102740Y0116373D01*
X0102740Y0117122D02*
X0099990Y0117122D01*
X0102740Y0120875D02*
X0102740Y0123125D01*
X0102740Y0120875D02*
X0099990Y0120875D01*
X0099990Y0123125D01*
X0102740Y0123125D01*
X0102740Y0121624D02*
X0099990Y0121624D01*
X0099990Y0122373D02*
X0102740Y0122373D01*
X0102740Y0123122D02*
X0099990Y0123122D01*
D15*
X0095340Y0124025D02*
X0095340Y0125275D01*
X0096590Y0125275D01*
X0096590Y0124025D01*
X0095340Y0124025D01*
X0095340Y0125274D02*
X0096590Y0125274D01*
X0095340Y0121775D02*
X0095340Y0120525D01*
X0095340Y0121775D02*
X0096590Y0121775D01*
X0096590Y0120525D01*
X0095340Y0120525D01*
X0095340Y0121774D02*
X0096590Y0121774D01*
X0091540Y0077575D02*
X0090290Y0077575D01*
X0090290Y0078825D01*
X0091540Y0078825D01*
X0091540Y0077575D01*
X0091540Y0078824D02*
X0090290Y0078824D01*
X0088040Y0077575D02*
X0086790Y0077575D01*
X0086790Y0078825D01*
X0088040Y0078825D01*
X0088040Y0077575D01*
X0088040Y0078824D02*
X0086790Y0078824D01*
X0099090Y0065275D02*
X0100340Y0065275D01*
X0099090Y0065275D02*
X0099090Y0066525D01*
X0100340Y0066525D01*
X0100340Y0065275D01*
X0100340Y0066524D02*
X0099090Y0066524D01*
X0102590Y0065275D02*
X0103840Y0065275D01*
X0102590Y0065275D02*
X0102590Y0066525D01*
X0103840Y0066525D01*
X0103840Y0065275D01*
X0103840Y0066524D02*
X0102590Y0066524D01*
X0102590Y0061275D02*
X0103840Y0061275D01*
X0102590Y0061275D02*
X0102590Y0062525D01*
X0103840Y0062525D01*
X0103840Y0061275D01*
X0103840Y0062524D02*
X0102590Y0062524D01*
X0100340Y0061275D02*
X0099090Y0061275D01*
X0099090Y0062525D01*
X0100340Y0062525D01*
X0100340Y0061275D01*
X0100340Y0062524D02*
X0099090Y0062524D01*
X0098990Y0050175D02*
X0100240Y0050175D01*
X0098990Y0050175D02*
X0098990Y0051425D01*
X0100240Y0051425D01*
X0100240Y0050175D01*
X0100240Y0051424D02*
X0098990Y0051424D01*
X0102490Y0050175D02*
X0103740Y0050175D01*
X0102490Y0050175D02*
X0102490Y0051425D01*
X0103740Y0051425D01*
X0103740Y0050175D01*
X0103740Y0051424D02*
X0102490Y0051424D01*
X0102390Y0046275D02*
X0103640Y0046275D01*
X0102390Y0046275D02*
X0102390Y0047525D01*
X0103640Y0047525D01*
X0103640Y0046275D01*
X0103640Y0047524D02*
X0102390Y0047524D01*
X0100140Y0046275D02*
X0098890Y0046275D01*
X0098890Y0047525D01*
X0100140Y0047525D01*
X0100140Y0046275D01*
X0100140Y0047524D02*
X0098890Y0047524D01*
X0098790Y0032375D02*
X0100040Y0032375D01*
X0098790Y0032375D02*
X0098790Y0033625D01*
X0100040Y0033625D01*
X0100040Y0032375D01*
X0100040Y0033624D02*
X0098790Y0033624D01*
X0102290Y0032375D02*
X0103540Y0032375D01*
X0102290Y0032375D02*
X0102290Y0033625D01*
X0103540Y0033625D01*
X0103540Y0032375D01*
X0103540Y0033624D02*
X0102290Y0033624D01*
X0102190Y0028475D02*
X0103440Y0028475D01*
X0102190Y0028475D02*
X0102190Y0029725D01*
X0103440Y0029725D01*
X0103440Y0028475D01*
X0103440Y0029724D02*
X0102190Y0029724D01*
X0099940Y0028475D02*
X0098690Y0028475D01*
X0098690Y0029725D01*
X0099940Y0029725D01*
X0099940Y0028475D01*
X0099940Y0029724D02*
X0098690Y0029724D01*
X0065740Y0045775D02*
X0064490Y0045775D01*
X0064490Y0047025D01*
X0065740Y0047025D01*
X0065740Y0045775D01*
X0065740Y0047024D02*
X0064490Y0047024D01*
X0062240Y0045775D02*
X0060990Y0045775D01*
X0060990Y0047025D01*
X0062240Y0047025D01*
X0062240Y0045775D01*
X0062240Y0047024D02*
X0060990Y0047024D01*
X0060990Y0049775D02*
X0062240Y0049775D01*
X0060990Y0049775D02*
X0060990Y0051025D01*
X0062240Y0051025D01*
X0062240Y0049775D01*
X0062240Y0051024D02*
X0060990Y0051024D01*
X0064490Y0049775D02*
X0065740Y0049775D01*
X0064490Y0049775D02*
X0064490Y0051025D01*
X0065740Y0051025D01*
X0065740Y0049775D01*
X0065740Y0051024D02*
X0064490Y0051024D01*
X0064490Y0054775D02*
X0065740Y0054775D01*
X0064490Y0054775D02*
X0064490Y0056025D01*
X0065740Y0056025D01*
X0065740Y0054775D01*
X0065740Y0056024D02*
X0064490Y0056024D01*
X0062240Y0054775D02*
X0060990Y0054775D01*
X0060990Y0056025D01*
X0062240Y0056025D01*
X0062240Y0054775D01*
X0062240Y0056024D02*
X0060990Y0056024D01*
X0060990Y0059475D02*
X0062240Y0059475D01*
X0060990Y0059475D02*
X0060990Y0060725D01*
X0062240Y0060725D01*
X0062240Y0059475D01*
X0062240Y0060724D02*
X0060990Y0060724D01*
X0064490Y0059475D02*
X0065740Y0059475D01*
X0064490Y0059475D02*
X0064490Y0060725D01*
X0065740Y0060725D01*
X0065740Y0059475D01*
X0065740Y0060724D02*
X0064490Y0060724D01*
X0064490Y0064375D02*
X0065740Y0064375D01*
X0064490Y0064375D02*
X0064490Y0065625D01*
X0065740Y0065625D01*
X0065740Y0064375D01*
X0065740Y0065624D02*
X0064490Y0065624D01*
X0062240Y0064375D02*
X0060990Y0064375D01*
X0060990Y0065625D01*
X0062240Y0065625D01*
X0062240Y0064375D01*
X0062240Y0065624D02*
X0060990Y0065624D01*
X0060990Y0069275D02*
X0062240Y0069275D01*
X0060990Y0069275D02*
X0060990Y0070525D01*
X0062240Y0070525D01*
X0062240Y0069275D01*
X0062240Y0070524D02*
X0060990Y0070524D01*
X0064490Y0069275D02*
X0065740Y0069275D01*
X0064490Y0069275D02*
X0064490Y0070525D01*
X0065740Y0070525D01*
X0065740Y0069275D01*
X0065740Y0070524D02*
X0064490Y0070524D01*
X0064490Y0074475D02*
X0065740Y0074475D01*
X0064490Y0074475D02*
X0064490Y0075725D01*
X0065740Y0075725D01*
X0065740Y0074475D01*
X0065740Y0075724D02*
X0064490Y0075724D01*
X0062240Y0074475D02*
X0060990Y0074475D01*
X0060990Y0075725D01*
X0062240Y0075725D01*
X0062240Y0074475D01*
X0062240Y0075724D02*
X0060990Y0075724D01*
D16*
X0047632Y0074950D03*
X0047632Y0076919D03*
X0047632Y0078887D03*
X0047632Y0080856D03*
X0047632Y0082824D03*
X0047632Y0084793D03*
X0047632Y0086761D03*
X0047632Y0088730D03*
X0047632Y0072982D03*
X0047632Y0071013D03*
X0047632Y0069045D03*
X0047632Y0067076D03*
X0047632Y0065108D03*
X0047632Y0063139D03*
X0047632Y0061171D03*
X0047632Y0059202D03*
X0047632Y0057234D03*
X0047632Y0055265D03*
X0047632Y0053297D03*
X0047632Y0051328D03*
X0047632Y0049360D03*
X0047632Y0047391D03*
X0047632Y0045423D03*
X0047632Y0043454D03*
D17*
X0034837Y0034990D03*
X0034837Y0097194D03*
D18*
X0053765Y0028559D03*
X0053765Y0023441D03*
X0045104Y0026000D03*
D19*
X0075025Y0039200D03*
X0082505Y0039200D03*
X0087525Y0039200D03*
X0095005Y0039200D03*
X0091265Y0031200D03*
X0078765Y0031200D03*
X0078765Y0047400D03*
X0075025Y0055400D03*
X0082505Y0055400D03*
X0087525Y0055400D03*
X0095005Y0055400D03*
X0091265Y0062700D03*
X0087525Y0070700D03*
X0082605Y0070700D03*
X0075125Y0070700D03*
X0078765Y0078200D03*
X0075025Y0086200D03*
X0082505Y0086200D03*
X0095005Y0070700D03*
X0078865Y0062700D03*
X0091265Y0047400D03*
D20*
X0120565Y0044124D03*
X0120565Y0054124D03*
X0120565Y0064124D03*
X0120565Y0074124D03*
X0120565Y0084124D03*
X0120565Y0094124D03*
X0120565Y0104124D03*
X0120565Y0034124D03*
X0120565Y0024124D03*
D21*
X0113065Y0116160D03*
X0113065Y0123640D03*
X0121065Y0119900D03*
D22*
X0117715Y0119683D02*
X0103634Y0119683D01*
X0103351Y0119400D02*
X0104215Y0120264D01*
X0104215Y0123736D01*
X0103351Y0124600D01*
X0099379Y0124600D01*
X0098515Y0123736D01*
X0098515Y0122750D01*
X0098055Y0122750D01*
X0097305Y0123500D01*
X0094626Y0123500D01*
X0093615Y0122490D01*
X0093615Y0119810D01*
X0094626Y0118800D01*
X0097305Y0118800D01*
X0098055Y0119550D01*
X0099229Y0119550D01*
X0099379Y0119400D01*
X0103351Y0119400D01*
X0104215Y0120481D02*
X0117715Y0120481D01*
X0117715Y0121280D02*
X0104215Y0121280D01*
X0104215Y0122078D02*
X0117715Y0122078D01*
X0117715Y0122356D02*
X0117715Y0117444D01*
X0118359Y0116800D01*
X0118365Y0116800D01*
X0118365Y0112599D01*
X0118215Y0112449D01*
X0118215Y0108551D01*
X0118365Y0108401D01*
X0118365Y0106474D01*
X0115109Y0106474D01*
X0114465Y0105829D01*
X0114465Y0102418D01*
X0115109Y0101774D01*
X0119183Y0101774D01*
X0120028Y0101424D01*
X0121102Y0101424D01*
X0121947Y0101774D01*
X0124375Y0101774D01*
X0127015Y0099134D01*
X0127015Y0081366D01*
X0126599Y0080950D01*
X0092097Y0080950D01*
X0093770Y0082624D01*
X0114465Y0082624D01*
X0114465Y0082418D01*
X0115109Y0081774D01*
X0126021Y0081774D01*
X0126665Y0082418D01*
X0126665Y0085829D01*
X0126021Y0086474D01*
X0115109Y0086474D01*
X0114465Y0085829D01*
X0114465Y0085624D01*
X0092528Y0085624D01*
X0091649Y0084745D01*
X0087454Y0080550D01*
X0086076Y0080550D01*
X0085226Y0079700D01*
X0081615Y0079700D01*
X0081615Y0080906D01*
X0080971Y0081550D01*
X0076559Y0081550D01*
X0075915Y0080906D01*
X0075915Y0075800D01*
X0071644Y0075800D01*
X0071165Y0075321D01*
X0071165Y0076053D01*
X0070393Y0076825D01*
X0070456Y0076887D01*
X0075688Y0082119D01*
X0076419Y0082850D01*
X0077231Y0082850D01*
X0077875Y0083494D01*
X0077875Y0088650D01*
X0078599Y0088650D01*
X0079655Y0087594D01*
X0079655Y0083494D01*
X0080300Y0082850D01*
X0084711Y0082850D01*
X0085355Y0083494D01*
X0085355Y0086080D01*
X0085985Y0086710D01*
X0087055Y0087780D01*
X0087338Y0087780D01*
X0088685Y0089127D01*
X0088685Y0089410D01*
X0109365Y0110090D01*
X0109365Y0113400D01*
X0110019Y0113400D01*
X0110359Y0113060D01*
X0115771Y0113060D01*
X0116415Y0113704D01*
X0116415Y0118615D01*
X0115771Y0119260D01*
X0110359Y0119260D01*
X0109900Y0118800D01*
X0109364Y0118800D01*
X0109214Y0118950D01*
X0105316Y0118950D01*
X0105066Y0118700D01*
X0100828Y0118700D01*
X0100587Y0118600D01*
X0097264Y0118600D01*
X0097114Y0118750D01*
X0093216Y0118750D01*
X0093066Y0118600D01*
X0091305Y0118600D01*
X0091886Y0119181D01*
X0091886Y0124030D01*
X0091242Y0124674D01*
X0080488Y0124674D01*
X0079844Y0124030D01*
X0079844Y0123705D01*
X0073515Y0123705D01*
X0073515Y0124706D01*
X0072871Y0125350D01*
X0068219Y0125350D01*
X0067189Y0126380D01*
X0162845Y0126374D01*
X0162845Y0005800D01*
X0010765Y0005800D01*
X0010765Y0126384D01*
X0039211Y0126382D01*
X0038561Y0125732D01*
X0037565Y0124736D01*
X0037565Y0124450D01*
X0037316Y0124450D01*
X0036415Y0123549D01*
X0036415Y0123100D01*
X0031802Y0123100D01*
X0030865Y0122163D01*
X0023065Y0114363D01*
X0023065Y0030837D01*
X0024002Y0029900D01*
X0024002Y0029900D01*
X0028565Y0025337D01*
X0029502Y0024400D01*
X0042589Y0024400D01*
X0043073Y0023916D01*
X0047134Y0023916D01*
X0047778Y0024560D01*
X0047778Y0027306D01*
X0051090Y0023994D01*
X0051090Y0022001D01*
X0051735Y0021357D01*
X0055796Y0021357D01*
X0056039Y0021600D01*
X0059715Y0021600D01*
X0059715Y0021251D01*
X0060616Y0020350D01*
X0064514Y0020350D01*
X0065415Y0021251D01*
X0065415Y0025149D01*
X0064514Y0026050D01*
X0060616Y0026050D01*
X0059715Y0025149D01*
X0059715Y0024800D01*
X0056440Y0024800D01*
X0056440Y0024881D01*
X0055796Y0025525D01*
X0053802Y0025525D01*
X0052853Y0026475D01*
X0055796Y0026475D01*
X0056440Y0027119D01*
X0056440Y0027400D01*
X0059715Y0027400D01*
X0059715Y0027051D01*
X0060616Y0026150D01*
X0064514Y0026150D01*
X0065415Y0027051D01*
X0065415Y0030949D01*
X0064514Y0031850D01*
X0065415Y0032751D01*
X0065415Y0036649D01*
X0064514Y0037550D01*
X0065415Y0038451D01*
X0065415Y0042300D01*
X0070344Y0042300D01*
X0072175Y0040469D01*
X0072175Y0036494D01*
X0072819Y0035850D01*
X0077231Y0035850D01*
X0077875Y0036494D01*
X0077875Y0041906D01*
X0077258Y0042522D01*
X0080272Y0042522D01*
X0079655Y0041906D01*
X0079655Y0036494D01*
X0080300Y0035850D01*
X0080655Y0035850D01*
X0080655Y0035694D01*
X0083299Y0033050D01*
X0083862Y0033050D01*
X0084312Y0032600D01*
X0086218Y0032600D01*
X0086668Y0033050D01*
X0088415Y0033050D01*
X0088415Y0028900D01*
X0083186Y0028900D01*
X0081615Y0030471D01*
X0081615Y0033906D01*
X0080971Y0034550D01*
X0076559Y0034550D01*
X0075915Y0033906D01*
X0075915Y0028494D01*
X0076559Y0027850D01*
X0079994Y0027850D01*
X0081065Y0026779D01*
X0081944Y0025900D01*
X0098236Y0025900D01*
X0098890Y0026554D01*
X0102820Y0022624D01*
X0114465Y0022624D01*
X0114465Y0022418D01*
X0115109Y0021774D01*
X0126021Y0021774D01*
X0126665Y0022418D01*
X0126665Y0025829D01*
X0126021Y0026474D01*
X0115109Y0026474D01*
X0114465Y0025829D01*
X0114465Y0025624D01*
X0104063Y0025624D01*
X0102936Y0026750D01*
X0104155Y0026750D01*
X0104655Y0027250D01*
X0126931Y0027250D01*
X0129631Y0029950D01*
X0130715Y0031034D01*
X0130715Y0102466D01*
X0127791Y0105390D01*
X0126708Y0106474D01*
X0123765Y0106474D01*
X0123765Y0108401D01*
X0123915Y0108551D01*
X0123915Y0112449D01*
X0123765Y0112599D01*
X0123765Y0116800D01*
X0123771Y0116800D01*
X0124415Y0117444D01*
X0124415Y0122356D01*
X0123771Y0123000D01*
X0118359Y0123000D01*
X0117715Y0122356D01*
X0118236Y0122877D02*
X0104215Y0122877D01*
X0104215Y0123675D02*
X0162845Y0123675D01*
X0162845Y0122877D02*
X0123894Y0122877D01*
X0124415Y0122078D02*
X0162845Y0122078D01*
X0162845Y0121280D02*
X0124415Y0121280D01*
X0124415Y0120481D02*
X0162845Y0120481D01*
X0162845Y0119683D02*
X0124415Y0119683D01*
X0124415Y0118884D02*
X0162845Y0118884D01*
X0162845Y0118086D02*
X0124415Y0118086D01*
X0124258Y0117287D02*
X0162845Y0117287D01*
X0162845Y0116489D02*
X0123765Y0116489D01*
X0123765Y0115690D02*
X0162845Y0115690D01*
X0162845Y0114892D02*
X0123765Y0114892D01*
X0123765Y0114093D02*
X0162845Y0114093D01*
X0162845Y0113295D02*
X0123765Y0113295D01*
X0123868Y0112496D02*
X0162845Y0112496D01*
X0162845Y0111698D02*
X0123915Y0111698D01*
X0123915Y0110899D02*
X0162845Y0110899D01*
X0162845Y0110101D02*
X0123915Y0110101D01*
X0123915Y0109302D02*
X0162845Y0109302D01*
X0162845Y0108503D02*
X0123868Y0108503D01*
X0123765Y0107705D02*
X0162845Y0107705D01*
X0162845Y0106906D02*
X0123765Y0106906D01*
X0127073Y0106108D02*
X0162845Y0106108D01*
X0162845Y0105309D02*
X0127872Y0105309D01*
X0128670Y0104511D02*
X0162845Y0104511D01*
X0162845Y0103712D02*
X0129469Y0103712D01*
X0130267Y0102914D02*
X0162845Y0102914D01*
X0162845Y0102115D02*
X0130715Y0102115D01*
X0130715Y0101317D02*
X0162845Y0101317D01*
X0162845Y0100518D02*
X0130715Y0100518D01*
X0130715Y0099720D02*
X0162845Y0099720D01*
X0162845Y0098921D02*
X0130715Y0098921D01*
X0130715Y0098123D02*
X0162845Y0098123D01*
X0162845Y0097324D02*
X0130715Y0097324D01*
X0130715Y0096526D02*
X0162845Y0096526D01*
X0162845Y0095727D02*
X0130715Y0095727D01*
X0130715Y0094929D02*
X0162845Y0094929D01*
X0162845Y0094130D02*
X0130715Y0094130D01*
X0130715Y0093332D02*
X0162845Y0093332D01*
X0162845Y0092533D02*
X0130715Y0092533D01*
X0130715Y0091735D02*
X0162845Y0091735D01*
X0162845Y0090936D02*
X0130715Y0090936D01*
X0130715Y0090138D02*
X0162845Y0090138D01*
X0162845Y0089339D02*
X0130715Y0089339D01*
X0130715Y0088541D02*
X0162845Y0088541D01*
X0162845Y0087742D02*
X0130715Y0087742D01*
X0130715Y0086944D02*
X0162845Y0086944D01*
X0162845Y0086145D02*
X0130715Y0086145D01*
X0130715Y0085347D02*
X0162845Y0085347D01*
X0162845Y0084548D02*
X0130715Y0084548D01*
X0130715Y0083750D02*
X0162845Y0083750D01*
X0162845Y0082951D02*
X0130715Y0082951D01*
X0130715Y0082153D02*
X0162845Y0082153D01*
X0162845Y0081354D02*
X0130715Y0081354D01*
X0130715Y0080556D02*
X0162845Y0080556D01*
X0162845Y0079757D02*
X0130715Y0079757D01*
X0130715Y0078959D02*
X0162845Y0078959D01*
X0162845Y0078160D02*
X0130715Y0078160D01*
X0130715Y0077362D02*
X0162845Y0077362D01*
X0162845Y0076563D02*
X0130715Y0076563D01*
X0130715Y0075765D02*
X0162845Y0075765D01*
X0162845Y0074966D02*
X0130715Y0074966D01*
X0130715Y0074168D02*
X0162845Y0074168D01*
X0162845Y0073369D02*
X0130715Y0073369D01*
X0130715Y0072570D02*
X0162845Y0072570D01*
X0162845Y0071772D02*
X0130715Y0071772D01*
X0130715Y0070973D02*
X0162845Y0070973D01*
X0162845Y0070175D02*
X0130715Y0070175D01*
X0130715Y0069376D02*
X0162845Y0069376D01*
X0162845Y0068578D02*
X0130715Y0068578D01*
X0130715Y0067779D02*
X0162845Y0067779D01*
X0162845Y0066981D02*
X0130715Y0066981D01*
X0130715Y0066182D02*
X0162845Y0066182D01*
X0162845Y0065384D02*
X0130715Y0065384D01*
X0130715Y0064585D02*
X0162845Y0064585D01*
X0162845Y0063787D02*
X0130715Y0063787D01*
X0130715Y0062988D02*
X0162845Y0062988D01*
X0162845Y0062190D02*
X0130715Y0062190D01*
X0130715Y0061391D02*
X0162845Y0061391D01*
X0162845Y0060593D02*
X0130715Y0060593D01*
X0130715Y0059794D02*
X0162845Y0059794D01*
X0162845Y0058996D02*
X0130715Y0058996D01*
X0130715Y0058197D02*
X0162845Y0058197D01*
X0162845Y0057399D02*
X0130715Y0057399D01*
X0130715Y0056600D02*
X0162845Y0056600D01*
X0162845Y0055802D02*
X0130715Y0055802D01*
X0130715Y0055003D02*
X0162845Y0055003D01*
X0162845Y0054205D02*
X0130715Y0054205D01*
X0130715Y0053406D02*
X0162845Y0053406D01*
X0162845Y0052608D02*
X0130715Y0052608D01*
X0130715Y0051809D02*
X0162845Y0051809D01*
X0162845Y0051011D02*
X0130715Y0051011D01*
X0130715Y0050212D02*
X0162845Y0050212D01*
X0162845Y0049414D02*
X0130715Y0049414D01*
X0130715Y0048615D02*
X0162845Y0048615D01*
X0162845Y0047817D02*
X0130715Y0047817D01*
X0130715Y0047018D02*
X0162845Y0047018D01*
X0162845Y0046220D02*
X0130715Y0046220D01*
X0130715Y0045421D02*
X0162845Y0045421D01*
X0162845Y0044623D02*
X0130715Y0044623D01*
X0130715Y0043824D02*
X0162845Y0043824D01*
X0162845Y0043026D02*
X0130715Y0043026D01*
X0130715Y0042227D02*
X0162845Y0042227D01*
X0162845Y0041429D02*
X0130715Y0041429D01*
X0130715Y0040630D02*
X0162845Y0040630D01*
X0162845Y0039832D02*
X0130715Y0039832D01*
X0130715Y0039033D02*
X0162845Y0039033D01*
X0162845Y0038234D02*
X0130715Y0038234D01*
X0130715Y0037436D02*
X0162845Y0037436D01*
X0162845Y0036637D02*
X0130715Y0036637D01*
X0130715Y0035839D02*
X0162845Y0035839D01*
X0162845Y0035040D02*
X0130715Y0035040D01*
X0130715Y0034242D02*
X0162845Y0034242D01*
X0162845Y0033443D02*
X0130715Y0033443D01*
X0130715Y0032645D02*
X0162845Y0032645D01*
X0162845Y0031846D02*
X0130715Y0031846D01*
X0130715Y0031048D02*
X0162845Y0031048D01*
X0162845Y0030249D02*
X0129931Y0030249D01*
X0129132Y0029451D02*
X0162845Y0029451D01*
X0162845Y0028652D02*
X0128334Y0028652D01*
X0127535Y0027854D02*
X0162845Y0027854D01*
X0162845Y0027055D02*
X0104460Y0027055D01*
X0103430Y0026257D02*
X0114893Y0026257D01*
X0114619Y0022264D02*
X0065415Y0022264D01*
X0065415Y0021466D02*
X0162845Y0021466D01*
X0162845Y0022264D02*
X0126511Y0022264D01*
X0126665Y0023063D02*
X0162845Y0023063D01*
X0162845Y0023861D02*
X0126665Y0023861D01*
X0126665Y0024660D02*
X0162845Y0024660D01*
X0162845Y0025458D02*
X0126665Y0025458D01*
X0126237Y0026257D02*
X0162845Y0026257D01*
X0162845Y0020667D02*
X0064832Y0020667D01*
X0065415Y0023063D02*
X0102381Y0023063D01*
X0101582Y0023861D02*
X0065415Y0023861D01*
X0065415Y0024660D02*
X0100784Y0024660D01*
X0099985Y0025458D02*
X0065106Y0025458D01*
X0064621Y0026257D02*
X0081587Y0026257D01*
X0080788Y0027055D02*
X0065415Y0027055D01*
X0065415Y0027854D02*
X0076556Y0027854D01*
X0075915Y0028652D02*
X0065415Y0028652D01*
X0065415Y0029451D02*
X0075915Y0029451D01*
X0075915Y0030249D02*
X0065415Y0030249D01*
X0065317Y0031048D02*
X0075915Y0031048D01*
X0075915Y0031846D02*
X0064518Y0031846D01*
X0064514Y0031850D02*
X0060616Y0031850D01*
X0059715Y0032751D01*
X0059715Y0033200D01*
X0059244Y0033200D01*
X0058365Y0034079D01*
X0057844Y0034600D01*
X0056965Y0035479D01*
X0056965Y0041400D01*
X0055265Y0043100D01*
X0055265Y0030643D01*
X0055796Y0030643D01*
X0055839Y0030600D01*
X0059715Y0030600D01*
X0059715Y0030949D01*
X0060616Y0031850D01*
X0064514Y0031850D01*
X0065309Y0032645D02*
X0075915Y0032645D01*
X0075915Y0033443D02*
X0065415Y0033443D01*
X0065415Y0034242D02*
X0076251Y0034242D01*
X0077875Y0036637D02*
X0079655Y0036637D01*
X0079655Y0037436D02*
X0077875Y0037436D01*
X0077875Y0038234D02*
X0079655Y0038234D01*
X0079655Y0039033D02*
X0077875Y0039033D01*
X0077875Y0039832D02*
X0079655Y0039832D01*
X0079655Y0040630D02*
X0077875Y0040630D01*
X0077875Y0041429D02*
X0079655Y0041429D01*
X0079977Y0042227D02*
X0077554Y0042227D01*
X0076587Y0044022D02*
X0085243Y0044022D01*
X0087525Y0041740D01*
X0087525Y0039200D01*
X0089165Y0043500D02*
X0096115Y0043500D01*
X0099515Y0046900D01*
X0100040Y0046375D01*
X0100040Y0046185D01*
X0102102Y0044124D01*
X0120565Y0044124D01*
X0126021Y0046474D02*
X0115109Y0046474D01*
X0114465Y0045829D01*
X0114465Y0045624D01*
X0105365Y0045624D01*
X0105365Y0047050D01*
X0126899Y0047050D01*
X0127015Y0046934D01*
X0127015Y0032566D01*
X0125399Y0030950D01*
X0104665Y0030950D01*
X0104665Y0031060D01*
X0105265Y0031660D01*
X0105265Y0034300D01*
X0114465Y0034300D01*
X0114465Y0032418D01*
X0115109Y0031774D01*
X0126021Y0031774D01*
X0126665Y0032418D01*
X0126665Y0035829D01*
X0126021Y0036474D01*
X0116613Y0036474D01*
X0115786Y0037300D01*
X0100844Y0037300D01*
X0099965Y0036421D01*
X0098894Y0035350D01*
X0098076Y0035350D01*
X0097126Y0034400D01*
X0093621Y0034400D01*
X0093471Y0034550D01*
X0092972Y0034550D01*
X0094272Y0035850D01*
X0097211Y0035850D01*
X0097855Y0036494D01*
X0097855Y0041906D01*
X0097249Y0042512D01*
X0099286Y0044550D01*
X0099554Y0044550D01*
X0101481Y0042624D01*
X0114465Y0042624D01*
X0114465Y0042418D01*
X0115109Y0041774D01*
X0126021Y0041774D01*
X0126665Y0042418D01*
X0126665Y0045829D01*
X0126021Y0046474D01*
X0126275Y0046220D02*
X0127015Y0046220D01*
X0127015Y0045421D02*
X0126665Y0045421D01*
X0126665Y0044623D02*
X0127015Y0044623D01*
X0127015Y0043824D02*
X0126665Y0043824D01*
X0126665Y0043026D02*
X0127015Y0043026D01*
X0127015Y0042227D02*
X0126474Y0042227D01*
X0127015Y0041429D02*
X0097855Y0041429D01*
X0097855Y0040630D02*
X0127015Y0040630D01*
X0127015Y0039832D02*
X0097855Y0039832D01*
X0097855Y0039033D02*
X0127015Y0039033D01*
X0127015Y0038234D02*
X0097855Y0038234D01*
X0097855Y0037436D02*
X0127015Y0037436D01*
X0127015Y0036637D02*
X0116449Y0036637D01*
X0115165Y0035800D02*
X0116365Y0034600D01*
X0120089Y0034600D01*
X0120565Y0034124D01*
X0125497Y0031048D02*
X0104665Y0031048D01*
X0105265Y0031846D02*
X0115037Y0031846D01*
X0114465Y0032645D02*
X0105265Y0032645D01*
X0105265Y0033443D02*
X0114465Y0033443D01*
X0114465Y0034242D02*
X0105265Y0034242D01*
X0101465Y0035800D02*
X0115165Y0035800D01*
X0114656Y0042227D02*
X0097534Y0042227D01*
X0097762Y0043026D02*
X0101079Y0043026D01*
X0100280Y0043824D02*
X0098560Y0043824D01*
X0105365Y0046220D02*
X0114855Y0046220D01*
X0115109Y0051774D02*
X0126021Y0051774D01*
X0126665Y0052418D01*
X0126665Y0055829D01*
X0126021Y0056474D01*
X0115109Y0056474D01*
X0114465Y0055829D01*
X0114465Y0055600D01*
X0101644Y0055600D01*
X0100765Y0054721D01*
X0099194Y0053150D01*
X0098276Y0053150D01*
X0097855Y0052730D01*
X0097855Y0057919D01*
X0099486Y0059550D01*
X0099754Y0059550D01*
X0101304Y0058000D01*
X0112886Y0058000D01*
X0113765Y0058879D01*
X0116660Y0061774D01*
X0126021Y0061774D01*
X0126665Y0062418D01*
X0126665Y0065829D01*
X0126021Y0066474D01*
X0115109Y0066474D01*
X0114465Y0065829D01*
X0114465Y0063821D01*
X0111644Y0061000D01*
X0105565Y0061000D01*
X0105565Y0063240D01*
X0105065Y0063740D01*
X0105065Y0064060D01*
X0105565Y0064560D01*
X0105565Y0065634D01*
X0107581Y0067650D01*
X0126499Y0067650D01*
X0127015Y0067134D01*
X0127015Y0050966D01*
X0126799Y0050750D01*
X0105465Y0050750D01*
X0105465Y0052140D01*
X0105005Y0052600D01*
X0114465Y0052600D01*
X0114465Y0052418D01*
X0115109Y0051774D01*
X0115074Y0051809D02*
X0105465Y0051809D01*
X0105465Y0051011D02*
X0127015Y0051011D01*
X0127015Y0051809D02*
X0126056Y0051809D01*
X0126665Y0052608D02*
X0127015Y0052608D01*
X0127015Y0053406D02*
X0126665Y0053406D01*
X0126665Y0054205D02*
X0127015Y0054205D01*
X0127015Y0055003D02*
X0126665Y0055003D01*
X0126665Y0055802D02*
X0127015Y0055802D01*
X0127015Y0056600D02*
X0097855Y0056600D01*
X0097855Y0055802D02*
X0114465Y0055802D01*
X0113084Y0058197D02*
X0127015Y0058197D01*
X0127015Y0057399D02*
X0097855Y0057399D01*
X0098134Y0058197D02*
X0101107Y0058197D01*
X0100308Y0058996D02*
X0098932Y0058996D01*
X0097015Y0059200D02*
X0099715Y0061900D01*
X0100290Y0061325D01*
X0100290Y0061135D01*
X0101926Y0059500D01*
X0112265Y0059500D01*
X0116865Y0064100D01*
X0120541Y0064100D01*
X0120565Y0064124D01*
X0116278Y0061391D02*
X0127015Y0061391D01*
X0127015Y0060593D02*
X0115479Y0060593D01*
X0114681Y0059794D02*
X0127015Y0059794D01*
X0127015Y0058996D02*
X0113882Y0058996D01*
X0112035Y0061391D02*
X0105565Y0061391D01*
X0105565Y0062190D02*
X0112834Y0062190D01*
X0113632Y0062988D02*
X0105565Y0062988D01*
X0105065Y0063787D02*
X0114431Y0063787D01*
X0114465Y0064585D02*
X0105565Y0064585D01*
X0105565Y0065384D02*
X0114465Y0065384D01*
X0114818Y0066182D02*
X0106114Y0066182D01*
X0106912Y0066981D02*
X0127015Y0066981D01*
X0127015Y0066182D02*
X0126312Y0066182D01*
X0126665Y0065384D02*
X0127015Y0065384D01*
X0127015Y0064585D02*
X0126665Y0064585D01*
X0126665Y0063787D02*
X0127015Y0063787D01*
X0127015Y0062988D02*
X0126665Y0062988D01*
X0126437Y0062190D02*
X0127015Y0062190D01*
X0126499Y0071350D02*
X0106636Y0071350D01*
X0107910Y0072624D01*
X0114465Y0072624D01*
X0114465Y0072418D01*
X0115109Y0071774D01*
X0126021Y0071774D01*
X0126665Y0072418D01*
X0126665Y0075829D01*
X0126021Y0076474D01*
X0115109Y0076474D01*
X0114465Y0075829D01*
X0114465Y0075624D01*
X0106667Y0075624D01*
X0099294Y0068250D01*
X0098376Y0068250D01*
X0097526Y0067400D01*
X0097261Y0067400D01*
X0097855Y0067994D01*
X0097855Y0073406D01*
X0097211Y0074050D01*
X0092800Y0074050D01*
X0092155Y0073406D01*
X0092155Y0070466D01*
X0090375Y0068686D01*
X0090375Y0073406D01*
X0089731Y0074050D01*
X0089025Y0074050D01*
X0089025Y0074061D01*
X0088146Y0074940D01*
X0087286Y0075800D01*
X0081615Y0075800D01*
X0081615Y0076700D01*
X0085226Y0076700D01*
X0086076Y0075850D01*
X0088755Y0075850D01*
X0089165Y0076260D01*
X0089576Y0075850D01*
X0092255Y0075850D01*
X0093265Y0076860D01*
X0093265Y0077250D01*
X0126599Y0077250D01*
X0127015Y0076834D01*
X0127015Y0071866D01*
X0126499Y0071350D01*
X0126921Y0071772D02*
X0107058Y0071772D01*
X0107857Y0072570D02*
X0114465Y0072570D01*
X0114465Y0075765D02*
X0087322Y0075765D01*
X0088120Y0074966D02*
X0106010Y0074966D01*
X0105211Y0074168D02*
X0088919Y0074168D01*
X0087525Y0073440D02*
X0087525Y0070700D01*
X0087525Y0073440D02*
X0086665Y0074300D01*
X0072265Y0074300D01*
X0070465Y0072500D01*
X0063884Y0072500D01*
X0061990Y0070606D01*
X0061515Y0069800D02*
X0056065Y0069800D01*
X0053341Y0067076D01*
X0047632Y0067076D01*
X0047632Y0065108D02*
X0061507Y0065108D01*
X0061615Y0065000D01*
X0061615Y0065350D01*
X0063765Y0067500D01*
X0072265Y0067500D01*
X0075125Y0070360D01*
X0077975Y0070175D02*
X0079755Y0070175D01*
X0079755Y0070973D02*
X0077975Y0070973D01*
X0077975Y0071772D02*
X0079755Y0071772D01*
X0079755Y0072570D02*
X0077975Y0072570D01*
X0077975Y0072800D02*
X0079755Y0072800D01*
X0079755Y0067994D01*
X0080400Y0067350D01*
X0081699Y0067350D01*
X0082765Y0066284D01*
X0082765Y0065597D01*
X0084112Y0064250D01*
X0086018Y0064250D01*
X0086518Y0064750D01*
X0088415Y0064750D01*
X0088415Y0061771D01*
X0085986Y0064200D01*
X0081715Y0064200D01*
X0081715Y0065406D01*
X0081071Y0066050D01*
X0076659Y0066050D01*
X0076015Y0065406D01*
X0076015Y0060600D01*
X0075386Y0060600D01*
X0072815Y0063171D01*
X0071936Y0064050D01*
X0071165Y0064050D01*
X0071165Y0065953D01*
X0071118Y0066000D01*
X0072886Y0066000D01*
X0073765Y0066879D01*
X0074236Y0067350D01*
X0077331Y0067350D01*
X0077975Y0067994D01*
X0077975Y0072800D01*
X0077975Y0069376D02*
X0079755Y0069376D01*
X0079755Y0068578D02*
X0077975Y0068578D01*
X0077760Y0067779D02*
X0079970Y0067779D01*
X0082068Y0066981D02*
X0073867Y0066981D01*
X0073069Y0066182D02*
X0082765Y0066182D01*
X0082979Y0065384D02*
X0081715Y0065384D01*
X0081715Y0064585D02*
X0083777Y0064585D01*
X0085365Y0062700D02*
X0088865Y0059200D01*
X0097015Y0059200D01*
X0097855Y0055003D02*
X0101047Y0055003D01*
X0100248Y0054205D02*
X0097855Y0054205D01*
X0097855Y0053406D02*
X0099450Y0053406D01*
X0099615Y0051450D02*
X0102265Y0054100D01*
X0120541Y0054100D01*
X0120565Y0054124D01*
X0126931Y0047018D02*
X0105365Y0047018D01*
X0099615Y0050800D02*
X0099615Y0051450D01*
X0099615Y0050800D02*
X0099515Y0050700D01*
X0095565Y0050700D01*
X0092265Y0047400D01*
X0091265Y0047400D01*
X0088415Y0047018D02*
X0087768Y0047018D01*
X0088415Y0046371D02*
X0085886Y0048900D01*
X0081615Y0048900D01*
X0081615Y0050106D01*
X0080971Y0050750D01*
X0076559Y0050750D01*
X0075915Y0050106D01*
X0075915Y0046816D01*
X0069631Y0053100D01*
X0069818Y0053100D01*
X0071165Y0054447D01*
X0071165Y0056250D01*
X0072054Y0056250D01*
X0072175Y0056129D01*
X0072175Y0052694D01*
X0072819Y0052050D01*
X0077231Y0052050D01*
X0077875Y0052694D01*
X0077875Y0057600D01*
X0079655Y0057600D01*
X0079655Y0052694D01*
X0080300Y0052050D01*
X0080999Y0052050D01*
X0082515Y0050534D01*
X0083599Y0049450D01*
X0083812Y0049450D01*
X0084312Y0048950D01*
X0086218Y0048950D01*
X0086718Y0049450D01*
X0088415Y0049450D01*
X0088415Y0046371D01*
X0088415Y0047817D02*
X0086970Y0047817D01*
X0086171Y0048615D02*
X0088415Y0048615D01*
X0088415Y0049414D02*
X0086681Y0049414D01*
X0083849Y0049414D02*
X0081615Y0049414D01*
X0081509Y0050212D02*
X0082837Y0050212D01*
X0082038Y0051011D02*
X0071720Y0051011D01*
X0070922Y0051809D02*
X0081240Y0051809D01*
X0079742Y0052608D02*
X0077788Y0052608D01*
X0077875Y0053406D02*
X0079655Y0053406D01*
X0079655Y0054205D02*
X0077875Y0054205D01*
X0077875Y0055003D02*
X0079655Y0055003D01*
X0079655Y0055802D02*
X0077875Y0055802D01*
X0077875Y0056600D02*
X0079655Y0056600D01*
X0079655Y0057399D02*
X0077875Y0057399D01*
X0075025Y0055400D02*
X0072675Y0057750D01*
X0063513Y0057750D01*
X0061615Y0055852D01*
X0061615Y0055400D01*
X0061165Y0055402D02*
X0055396Y0061171D01*
X0047632Y0061171D01*
X0047632Y0063139D02*
X0058776Y0063139D01*
X0060744Y0061171D01*
X0061615Y0060100D01*
X0061615Y0060950D02*
X0063215Y0062550D01*
X0071315Y0062550D01*
X0074765Y0059100D01*
X0086465Y0059100D01*
X0087565Y0058000D01*
X0087565Y0055440D01*
X0087997Y0062190D02*
X0088415Y0062190D01*
X0088415Y0062988D02*
X0087198Y0062988D01*
X0086400Y0063787D02*
X0088415Y0063787D01*
X0088415Y0064585D02*
X0086353Y0064585D01*
X0085365Y0062700D02*
X0078865Y0062700D01*
X0076015Y0062988D02*
X0072998Y0062988D01*
X0073797Y0062190D02*
X0076015Y0062190D01*
X0076015Y0061391D02*
X0074595Y0061391D01*
X0076015Y0063787D02*
X0072200Y0063787D01*
X0071165Y0064585D02*
X0076015Y0064585D01*
X0076015Y0065384D02*
X0071165Y0065384D01*
X0071165Y0055802D02*
X0072175Y0055802D01*
X0072175Y0055003D02*
X0071165Y0055003D01*
X0070923Y0054205D02*
X0072175Y0054205D01*
X0072175Y0053406D02*
X0070124Y0053406D01*
X0070123Y0052608D02*
X0072262Y0052608D01*
X0072519Y0050212D02*
X0076022Y0050212D01*
X0075915Y0049414D02*
X0073317Y0049414D01*
X0074116Y0048615D02*
X0075915Y0048615D01*
X0075915Y0047817D02*
X0074914Y0047817D01*
X0075713Y0047018D02*
X0075915Y0047018D01*
X0078765Y0047400D02*
X0085265Y0047400D01*
X0089165Y0043500D01*
X0094260Y0035839D02*
X0099383Y0035839D01*
X0100181Y0036637D02*
X0097855Y0036637D01*
X0097766Y0035040D02*
X0093462Y0035040D01*
X0094165Y0032900D02*
X0092465Y0031200D01*
X0091265Y0031200D01*
X0088415Y0031048D02*
X0081615Y0031048D01*
X0081615Y0031846D02*
X0088415Y0031846D01*
X0088415Y0032645D02*
X0086263Y0032645D01*
X0084267Y0032645D02*
X0081615Y0032645D01*
X0081615Y0033443D02*
X0082905Y0033443D01*
X0082107Y0034242D02*
X0081279Y0034242D01*
X0081308Y0035040D02*
X0065415Y0035040D01*
X0065415Y0035839D02*
X0080655Y0035839D01*
X0078765Y0031200D02*
X0082565Y0027400D01*
X0097615Y0027400D01*
X0098890Y0028675D01*
X0103441Y0024124D01*
X0120565Y0024124D01*
X0126094Y0031846D02*
X0126295Y0031846D01*
X0126665Y0032645D02*
X0127015Y0032645D01*
X0127015Y0033443D02*
X0126665Y0033443D01*
X0126665Y0034242D02*
X0127015Y0034242D01*
X0127015Y0035040D02*
X0126665Y0035040D01*
X0126655Y0035839D02*
X0127015Y0035839D01*
X0101465Y0035800D02*
X0099415Y0033750D01*
X0099415Y0033000D01*
X0099315Y0032900D01*
X0094165Y0032900D01*
X0098890Y0028675D02*
X0099315Y0029100D01*
X0099187Y0026257D02*
X0098593Y0026257D01*
X0088415Y0029451D02*
X0082636Y0029451D01*
X0081837Y0030249D02*
X0088415Y0030249D01*
X0075025Y0039200D02*
X0075025Y0039740D01*
X0070965Y0043800D01*
X0064026Y0043800D01*
X0061615Y0046210D01*
X0061615Y0046400D01*
X0058665Y0049350D01*
X0058665Y0051379D01*
X0052810Y0057234D01*
X0047632Y0057234D01*
X0047632Y0059202D02*
X0052963Y0059202D01*
X0061065Y0051100D01*
X0061065Y0050400D01*
X0061615Y0050400D01*
X0061615Y0050590D01*
X0062176Y0051150D01*
X0061615Y0051150D01*
X0062176Y0051150D02*
X0063776Y0052750D01*
X0067859Y0052750D01*
X0076587Y0044022D01*
X0072014Y0040630D02*
X0065415Y0040630D01*
X0065415Y0039832D02*
X0072175Y0039832D01*
X0072175Y0039033D02*
X0065415Y0039033D01*
X0065199Y0038234D02*
X0072175Y0038234D01*
X0072175Y0037436D02*
X0064628Y0037436D01*
X0064514Y0037550D02*
X0060616Y0037550D01*
X0064514Y0037550D01*
X0065415Y0036637D02*
X0072175Y0036637D01*
X0071215Y0041429D02*
X0065415Y0041429D01*
X0065415Y0042227D02*
X0070417Y0042227D01*
X0062565Y0040400D02*
X0051637Y0051328D01*
X0047632Y0051328D01*
X0047632Y0049360D02*
X0051127Y0049360D01*
X0058465Y0042021D01*
X0058465Y0036100D01*
X0059865Y0034700D01*
X0062565Y0034700D01*
X0059965Y0036899D02*
X0059965Y0038201D01*
X0060616Y0037550D01*
X0059965Y0036899D01*
X0059965Y0037436D02*
X0060502Y0037436D01*
X0056965Y0037436D02*
X0055265Y0037436D01*
X0055265Y0038234D02*
X0056965Y0038234D01*
X0056965Y0039033D02*
X0055265Y0039033D01*
X0055265Y0039832D02*
X0056965Y0039832D01*
X0056965Y0040630D02*
X0055265Y0040630D01*
X0055265Y0041429D02*
X0056937Y0041429D01*
X0056138Y0042227D02*
X0055265Y0042227D01*
X0055265Y0043026D02*
X0055340Y0043026D01*
X0053765Y0044600D02*
X0050974Y0047391D01*
X0047632Y0047391D01*
X0047632Y0045423D02*
X0043688Y0045423D01*
X0042265Y0044000D01*
X0042265Y0034941D01*
X0053765Y0023441D01*
X0055905Y0021466D02*
X0059715Y0021466D01*
X0060298Y0020667D02*
X0010765Y0020667D01*
X0010765Y0019869D02*
X0162845Y0019869D01*
X0162845Y0019070D02*
X0010765Y0019070D01*
X0010765Y0018272D02*
X0162845Y0018272D01*
X0162845Y0017473D02*
X0010765Y0017473D01*
X0010765Y0016675D02*
X0162845Y0016675D01*
X0162845Y0015876D02*
X0010765Y0015876D01*
X0010765Y0015078D02*
X0162845Y0015078D01*
X0162845Y0014279D02*
X0010765Y0014279D01*
X0010765Y0013481D02*
X0162845Y0013481D01*
X0162845Y0012682D02*
X0010765Y0012682D01*
X0010765Y0011884D02*
X0162845Y0011884D01*
X0162845Y0011085D02*
X0010765Y0011085D01*
X0010765Y0010287D02*
X0162845Y0010287D01*
X0162845Y0009488D02*
X0010765Y0009488D01*
X0010765Y0008690D02*
X0162845Y0008690D01*
X0162845Y0007891D02*
X0010765Y0007891D01*
X0010765Y0007093D02*
X0162845Y0007093D01*
X0162845Y0006294D02*
X0010765Y0006294D01*
X0010765Y0021466D02*
X0051626Y0021466D01*
X0051090Y0022264D02*
X0010765Y0022264D01*
X0010765Y0023063D02*
X0051090Y0023063D01*
X0051090Y0023861D02*
X0010765Y0023861D01*
X0010765Y0024660D02*
X0029243Y0024660D01*
X0028565Y0025337D02*
X0028565Y0025337D01*
X0028444Y0025458D02*
X0010765Y0025458D01*
X0010765Y0026257D02*
X0027646Y0026257D01*
X0026847Y0027055D02*
X0010765Y0027055D01*
X0010765Y0027854D02*
X0026049Y0027854D01*
X0025250Y0028652D02*
X0010765Y0028652D01*
X0010765Y0029451D02*
X0024451Y0029451D01*
X0023653Y0030249D02*
X0010765Y0030249D01*
X0010765Y0031048D02*
X0023065Y0031048D01*
X0023065Y0031846D02*
X0010765Y0031846D01*
X0010765Y0032645D02*
X0023065Y0032645D01*
X0023065Y0033443D02*
X0010765Y0033443D01*
X0010765Y0034242D02*
X0023065Y0034242D01*
X0023065Y0035040D02*
X0010765Y0035040D01*
X0010765Y0035839D02*
X0023065Y0035839D01*
X0023065Y0036637D02*
X0010765Y0036637D01*
X0010765Y0037436D02*
X0023065Y0037436D01*
X0023065Y0038234D02*
X0010765Y0038234D01*
X0010765Y0039033D02*
X0023065Y0039033D01*
X0023065Y0039832D02*
X0010765Y0039832D01*
X0010765Y0040630D02*
X0023065Y0040630D01*
X0023065Y0041429D02*
X0010765Y0041429D01*
X0010765Y0042227D02*
X0023065Y0042227D01*
X0023065Y0043026D02*
X0010765Y0043026D01*
X0010765Y0043824D02*
X0023065Y0043824D01*
X0023065Y0044623D02*
X0010765Y0044623D01*
X0010765Y0045421D02*
X0023065Y0045421D01*
X0023065Y0046220D02*
X0010765Y0046220D01*
X0010765Y0047018D02*
X0023065Y0047018D01*
X0023065Y0047817D02*
X0010765Y0047817D01*
X0010765Y0048615D02*
X0023065Y0048615D01*
X0023065Y0049414D02*
X0010765Y0049414D01*
X0010765Y0050212D02*
X0023065Y0050212D01*
X0023065Y0051011D02*
X0010765Y0051011D01*
X0010765Y0051809D02*
X0023065Y0051809D01*
X0023065Y0052608D02*
X0010765Y0052608D01*
X0010765Y0053406D02*
X0023065Y0053406D01*
X0023065Y0054205D02*
X0010765Y0054205D01*
X0010765Y0055003D02*
X0023065Y0055003D01*
X0023065Y0055802D02*
X0010765Y0055802D01*
X0010765Y0056600D02*
X0023065Y0056600D01*
X0023065Y0057399D02*
X0010765Y0057399D01*
X0010765Y0058197D02*
X0023065Y0058197D01*
X0023065Y0058996D02*
X0010765Y0058996D01*
X0010765Y0059794D02*
X0023065Y0059794D01*
X0023065Y0060593D02*
X0010765Y0060593D01*
X0010765Y0061391D02*
X0023065Y0061391D01*
X0023065Y0062190D02*
X0010765Y0062190D01*
X0010765Y0062988D02*
X0023065Y0062988D01*
X0023065Y0063787D02*
X0010765Y0063787D01*
X0010765Y0064585D02*
X0023065Y0064585D01*
X0023065Y0065384D02*
X0010765Y0065384D01*
X0010765Y0066182D02*
X0023065Y0066182D01*
X0023065Y0066981D02*
X0010765Y0066981D01*
X0010765Y0067779D02*
X0023065Y0067779D01*
X0023065Y0068578D02*
X0010765Y0068578D01*
X0010765Y0069376D02*
X0023065Y0069376D01*
X0023065Y0070175D02*
X0010765Y0070175D01*
X0010765Y0070973D02*
X0023065Y0070973D01*
X0023065Y0071772D02*
X0010765Y0071772D01*
X0010765Y0072570D02*
X0023065Y0072570D01*
X0023065Y0073369D02*
X0010765Y0073369D01*
X0010765Y0074168D02*
X0023065Y0074168D01*
X0023065Y0074966D02*
X0010765Y0074966D01*
X0010765Y0075765D02*
X0023065Y0075765D01*
X0023065Y0076563D02*
X0010765Y0076563D01*
X0010765Y0077362D02*
X0023065Y0077362D01*
X0023065Y0078160D02*
X0010765Y0078160D01*
X0010765Y0078959D02*
X0023065Y0078959D01*
X0023065Y0079757D02*
X0010765Y0079757D01*
X0010765Y0080556D02*
X0023065Y0080556D01*
X0023065Y0081354D02*
X0010765Y0081354D01*
X0010765Y0082153D02*
X0023065Y0082153D01*
X0023065Y0082951D02*
X0010765Y0082951D01*
X0010765Y0083750D02*
X0023065Y0083750D01*
X0023065Y0084548D02*
X0010765Y0084548D01*
X0010765Y0085347D02*
X0023065Y0085347D01*
X0023065Y0086145D02*
X0010765Y0086145D01*
X0010765Y0086944D02*
X0023065Y0086944D01*
X0023065Y0087742D02*
X0010765Y0087742D01*
X0010765Y0088541D02*
X0023065Y0088541D01*
X0023065Y0089339D02*
X0010765Y0089339D01*
X0010765Y0090138D02*
X0023065Y0090138D01*
X0023065Y0090936D02*
X0010765Y0090936D01*
X0010765Y0091735D02*
X0023065Y0091735D01*
X0023065Y0092533D02*
X0010765Y0092533D01*
X0010765Y0093332D02*
X0023065Y0093332D01*
X0023065Y0094130D02*
X0010765Y0094130D01*
X0010765Y0094929D02*
X0023065Y0094929D01*
X0023065Y0095727D02*
X0010765Y0095727D01*
X0010765Y0096526D02*
X0023065Y0096526D01*
X0023065Y0097324D02*
X0010765Y0097324D01*
X0010765Y0098123D02*
X0023065Y0098123D01*
X0023065Y0098921D02*
X0010765Y0098921D01*
X0010765Y0099720D02*
X0023065Y0099720D01*
X0023065Y0100518D02*
X0010765Y0100518D01*
X0010765Y0101317D02*
X0023065Y0101317D01*
X0023065Y0102115D02*
X0010765Y0102115D01*
X0010765Y0102914D02*
X0023065Y0102914D01*
X0023065Y0103712D02*
X0010765Y0103712D01*
X0010765Y0104511D02*
X0023065Y0104511D01*
X0023065Y0105309D02*
X0010765Y0105309D01*
X0010765Y0106108D02*
X0023065Y0106108D01*
X0023065Y0106906D02*
X0010765Y0106906D01*
X0010765Y0107705D02*
X0023065Y0107705D01*
X0023065Y0108503D02*
X0010765Y0108503D01*
X0010765Y0109302D02*
X0023065Y0109302D01*
X0023065Y0110101D02*
X0010765Y0110101D01*
X0010765Y0110899D02*
X0023065Y0110899D01*
X0023065Y0111698D02*
X0010765Y0111698D01*
X0010765Y0112496D02*
X0023065Y0112496D01*
X0023065Y0113295D02*
X0010765Y0113295D01*
X0010765Y0114093D02*
X0023065Y0114093D01*
X0023594Y0114892D02*
X0010765Y0114892D01*
X0010765Y0115690D02*
X0024392Y0115690D01*
X0025191Y0116489D02*
X0010765Y0116489D01*
X0010765Y0117287D02*
X0025989Y0117287D01*
X0026788Y0118086D02*
X0010765Y0118086D01*
X0010765Y0118884D02*
X0027587Y0118884D01*
X0028385Y0119683D02*
X0010765Y0119683D01*
X0010765Y0120481D02*
X0029184Y0120481D01*
X0029982Y0121280D02*
X0010765Y0121280D01*
X0010765Y0122078D02*
X0030781Y0122078D01*
X0031579Y0122877D02*
X0010765Y0122877D01*
X0010765Y0123675D02*
X0036541Y0123675D01*
X0037565Y0124474D02*
X0010765Y0124474D01*
X0010765Y0125272D02*
X0038101Y0125272D01*
X0038899Y0126071D02*
X0010765Y0126071D01*
X0026265Y0113037D02*
X0033128Y0119900D01*
X0036415Y0119900D01*
X0036415Y0119651D01*
X0037316Y0118750D01*
X0041214Y0118750D01*
X0042115Y0119651D01*
X0042115Y0123549D01*
X0041651Y0124014D01*
X0041969Y0124332D01*
X0043198Y0124332D01*
X0042415Y0123549D01*
X0042415Y0119651D01*
X0043316Y0118750D01*
X0047214Y0118750D01*
X0047964Y0119500D01*
X0049515Y0119500D01*
X0049515Y0118394D01*
X0050159Y0117750D01*
X0056571Y0117750D01*
X0057215Y0118394D01*
X0057215Y0119500D01*
X0057515Y0119500D01*
X0057515Y0118394D01*
X0058159Y0117750D01*
X0064571Y0117750D01*
X0065215Y0118394D01*
X0065215Y0123546D01*
X0065815Y0122946D01*
X0065815Y0118294D01*
X0066459Y0117650D01*
X0072871Y0117650D01*
X0073515Y0118294D01*
X0073515Y0119506D01*
X0079844Y0119506D01*
X0079844Y0119181D01*
X0080488Y0118537D01*
X0090282Y0118537D01*
X0089441Y0118189D01*
X0088682Y0117429D01*
X0085115Y0113863D01*
X0080488Y0113863D01*
X0079844Y0113219D01*
X0079844Y0108370D01*
X0080488Y0107726D01*
X0091242Y0107726D01*
X0091886Y0108370D01*
X0091886Y0112997D01*
X0092089Y0113200D01*
X0093066Y0113200D01*
X0093216Y0113050D01*
X0097114Y0113050D01*
X0097264Y0113200D01*
X0101802Y0113200D01*
X0102044Y0113300D01*
X0105165Y0113300D01*
X0105165Y0111830D01*
X0085715Y0092380D01*
X0085432Y0092380D01*
X0084085Y0091033D01*
X0084085Y0090750D01*
X0083965Y0090630D01*
X0083551Y0090630D01*
X0081831Y0092350D01*
X0071799Y0092350D01*
X0070715Y0091266D01*
X0069215Y0089766D01*
X0069215Y0086866D01*
X0068999Y0086650D01*
X0064399Y0086650D01*
X0063315Y0085566D01*
X0061099Y0083350D01*
X0059465Y0083350D01*
X0059465Y0085537D01*
X0060278Y0086350D01*
X0062814Y0086350D01*
X0063715Y0087251D01*
X0063715Y0091149D01*
X0062814Y0092050D01*
X0063715Y0092951D01*
X0063715Y0096849D01*
X0062814Y0097750D01*
X0058916Y0097750D01*
X0058015Y0096849D01*
X0058015Y0094171D01*
X0055815Y0091971D01*
X0055815Y0096279D01*
X0059511Y0099975D01*
X0066361Y0099975D01*
X0071036Y0104650D01*
X0072871Y0104650D01*
X0073515Y0105294D01*
X0073515Y0110087D01*
X0073615Y0110187D01*
X0073615Y0110051D01*
X0074516Y0109150D01*
X0078414Y0109150D01*
X0079315Y0110051D01*
X0079315Y0113949D01*
X0078414Y0114850D01*
X0074516Y0114850D01*
X0073615Y0113949D01*
X0073615Y0113600D01*
X0072502Y0113600D01*
X0071565Y0112663D01*
X0071252Y0112350D01*
X0066459Y0112350D01*
X0065815Y0111706D01*
X0065815Y0105294D01*
X0066459Y0104650D01*
X0066794Y0104650D01*
X0065119Y0102975D01*
X0058269Y0102975D01*
X0057390Y0102096D01*
X0053765Y0098471D01*
X0053765Y0104750D01*
X0056571Y0104750D01*
X0057215Y0105394D01*
X0057215Y0111806D01*
X0056571Y0112450D01*
X0050159Y0112450D01*
X0049515Y0111806D01*
X0049515Y0110200D01*
X0048715Y0110200D01*
X0048715Y0110549D01*
X0047814Y0111450D01*
X0043916Y0111450D01*
X0043015Y0110549D01*
X0042114Y0111450D01*
X0038216Y0111450D01*
X0037315Y0110549D01*
X0037315Y0106651D01*
X0038216Y0105750D01*
X0040752Y0105750D01*
X0040965Y0105537D01*
X0040965Y0102263D01*
X0036796Y0106432D01*
X0037015Y0106651D01*
X0037015Y0110549D01*
X0036114Y0111450D01*
X0032216Y0111450D01*
X0031315Y0110549D01*
X0031315Y0106651D01*
X0032216Y0105750D01*
X0032952Y0105750D01*
X0033502Y0105200D01*
X0038865Y0099837D01*
X0038865Y0087037D01*
X0042709Y0083193D01*
X0043382Y0083193D01*
X0043382Y0075873D01*
X0044027Y0075228D01*
X0051237Y0075228D01*
X0051328Y0075319D01*
X0052828Y0075319D01*
X0058015Y0080506D01*
X0058015Y0080266D01*
X0052509Y0074760D01*
X0052409Y0074660D01*
X0051250Y0074660D01*
X0051237Y0074672D01*
X0044027Y0074672D01*
X0043382Y0074028D01*
X0043382Y0046923D01*
X0043067Y0046923D01*
X0042188Y0046044D01*
X0040765Y0044621D01*
X0040765Y0034320D01*
X0047000Y0028084D01*
X0043073Y0028084D01*
X0042589Y0027600D01*
X0030828Y0027600D01*
X0026265Y0032163D01*
X0026265Y0113037D01*
X0026522Y0113295D02*
X0072197Y0113295D01*
X0071398Y0112496D02*
X0026265Y0112496D01*
X0026265Y0111698D02*
X0049515Y0111698D01*
X0049515Y0110899D02*
X0048365Y0110899D01*
X0048715Y0107000D02*
X0049515Y0107000D01*
X0049515Y0105394D01*
X0050159Y0104750D01*
X0050565Y0104750D01*
X0050565Y0090420D01*
X0049232Y0090420D01*
X0049232Y0097796D01*
X0044165Y0102863D01*
X0044165Y0105750D01*
X0047814Y0105750D01*
X0048715Y0106651D01*
X0048715Y0107000D01*
X0048715Y0106906D02*
X0049515Y0106906D01*
X0049515Y0106108D02*
X0048172Y0106108D01*
X0049600Y0105309D02*
X0044165Y0105309D01*
X0044165Y0104511D02*
X0050565Y0104511D01*
X0050565Y0103712D02*
X0044165Y0103712D01*
X0044165Y0102914D02*
X0050565Y0102914D01*
X0050565Y0102115D02*
X0044912Y0102115D01*
X0045711Y0101317D02*
X0050565Y0101317D01*
X0050565Y0100518D02*
X0046509Y0100518D01*
X0047308Y0099720D02*
X0050565Y0099720D01*
X0050565Y0098921D02*
X0048106Y0098921D01*
X0048905Y0098123D02*
X0050565Y0098123D01*
X0050565Y0097324D02*
X0049232Y0097324D01*
X0049232Y0096526D02*
X0050565Y0096526D01*
X0050565Y0095727D02*
X0049232Y0095727D01*
X0049232Y0094929D02*
X0050565Y0094929D01*
X0050565Y0094130D02*
X0049232Y0094130D01*
X0049232Y0093332D02*
X0050565Y0093332D01*
X0050565Y0092533D02*
X0049232Y0092533D01*
X0049232Y0091735D02*
X0050565Y0091735D01*
X0050565Y0090936D02*
X0049232Y0090936D01*
X0046032Y0090936D02*
X0042065Y0090936D01*
X0042065Y0090138D02*
X0043744Y0090138D01*
X0044027Y0090420D02*
X0043382Y0089776D01*
X0043382Y0087045D01*
X0042065Y0088363D01*
X0042065Y0100437D01*
X0046032Y0096470D01*
X0046032Y0090420D01*
X0044027Y0090420D01*
X0043382Y0089339D02*
X0042065Y0089339D01*
X0042065Y0088541D02*
X0043382Y0088541D01*
X0043382Y0087742D02*
X0042686Y0087742D01*
X0040556Y0085347D02*
X0026265Y0085347D01*
X0026265Y0086145D02*
X0039757Y0086145D01*
X0038959Y0086944D02*
X0026265Y0086944D01*
X0026265Y0087742D02*
X0038865Y0087742D01*
X0038865Y0088541D02*
X0026265Y0088541D01*
X0026265Y0089339D02*
X0038865Y0089339D01*
X0038865Y0090138D02*
X0026265Y0090138D01*
X0026265Y0090936D02*
X0038865Y0090936D01*
X0038865Y0091735D02*
X0026265Y0091735D01*
X0026265Y0092533D02*
X0038865Y0092533D01*
X0038865Y0093332D02*
X0026265Y0093332D01*
X0026265Y0094130D02*
X0038865Y0094130D01*
X0038865Y0094929D02*
X0026265Y0094929D01*
X0026265Y0095727D02*
X0038865Y0095727D01*
X0038865Y0096526D02*
X0026265Y0096526D01*
X0026265Y0097324D02*
X0038865Y0097324D01*
X0038865Y0098123D02*
X0026265Y0098123D01*
X0026265Y0098921D02*
X0038865Y0098921D01*
X0038865Y0099720D02*
X0026265Y0099720D01*
X0026265Y0100518D02*
X0038184Y0100518D01*
X0037385Y0101317D02*
X0026265Y0101317D01*
X0026265Y0102115D02*
X0036587Y0102115D01*
X0035788Y0102914D02*
X0026265Y0102914D01*
X0026265Y0103712D02*
X0034990Y0103712D01*
X0034191Y0104511D02*
X0026265Y0104511D01*
X0026265Y0105309D02*
X0033393Y0105309D01*
X0031858Y0106108D02*
X0026265Y0106108D01*
X0026265Y0106906D02*
X0031315Y0106906D01*
X0031315Y0107705D02*
X0026265Y0107705D01*
X0026265Y0108503D02*
X0031315Y0108503D01*
X0031315Y0109302D02*
X0026265Y0109302D01*
X0026265Y0110101D02*
X0031315Y0110101D01*
X0031665Y0110899D02*
X0026265Y0110899D01*
X0027321Y0114093D02*
X0073759Y0114093D01*
X0073306Y0118086D02*
X0089338Y0118086D01*
X0088539Y0117287D02*
X0030515Y0117287D01*
X0029716Y0116489D02*
X0087741Y0116489D01*
X0086942Y0115690D02*
X0028918Y0115690D01*
X0028119Y0114892D02*
X0086144Y0114892D01*
X0085345Y0114093D02*
X0079171Y0114093D01*
X0079315Y0113295D02*
X0079920Y0113295D01*
X0079844Y0112496D02*
X0079315Y0112496D01*
X0079315Y0111698D02*
X0079844Y0111698D01*
X0079844Y0110899D02*
X0079315Y0110899D01*
X0079315Y0110101D02*
X0079844Y0110101D01*
X0079844Y0109302D02*
X0078566Y0109302D01*
X0079844Y0108503D02*
X0073515Y0108503D01*
X0073515Y0107705D02*
X0101040Y0107705D01*
X0100242Y0106906D02*
X0073515Y0106906D01*
X0073515Y0106108D02*
X0099443Y0106108D01*
X0098645Y0105309D02*
X0073515Y0105309D01*
X0070897Y0104511D02*
X0097846Y0104511D01*
X0097048Y0103712D02*
X0070099Y0103712D01*
X0069300Y0102914D02*
X0096249Y0102914D01*
X0095451Y0102115D02*
X0068502Y0102115D01*
X0067703Y0101317D02*
X0094652Y0101317D01*
X0093854Y0100518D02*
X0066905Y0100518D01*
X0065740Y0101475D02*
X0069665Y0105400D01*
X0069665Y0108500D01*
X0065815Y0108503D02*
X0057215Y0108503D01*
X0057215Y0107705D02*
X0065815Y0107705D01*
X0065815Y0106906D02*
X0057215Y0106906D01*
X0057215Y0106108D02*
X0065815Y0106108D01*
X0065815Y0105309D02*
X0057130Y0105309D01*
X0058208Y0102914D02*
X0053765Y0102914D01*
X0053765Y0103712D02*
X0065856Y0103712D01*
X0066655Y0104511D02*
X0053765Y0104511D01*
X0053765Y0102115D02*
X0057409Y0102115D01*
X0056611Y0101317D02*
X0053765Y0101317D01*
X0053765Y0100518D02*
X0055812Y0100518D01*
X0055014Y0099720D02*
X0053765Y0099720D01*
X0053765Y0098921D02*
X0054215Y0098921D01*
X0054315Y0096900D02*
X0054315Y0085550D01*
X0051590Y0082824D01*
X0047632Y0082824D01*
X0047632Y0080856D02*
X0052621Y0080856D01*
X0056015Y0084250D01*
X0056015Y0090050D01*
X0060865Y0094900D01*
X0058015Y0094929D02*
X0055815Y0094929D01*
X0055815Y0095727D02*
X0058015Y0095727D01*
X0058015Y0096526D02*
X0056062Y0096526D01*
X0056861Y0097324D02*
X0058490Y0097324D01*
X0057659Y0098123D02*
X0091458Y0098123D01*
X0090660Y0097324D02*
X0063240Y0097324D01*
X0063715Y0096526D02*
X0089861Y0096526D01*
X0089063Y0095727D02*
X0063715Y0095727D01*
X0063715Y0094929D02*
X0088264Y0094929D01*
X0087466Y0094130D02*
X0063715Y0094130D01*
X0063715Y0093332D02*
X0086667Y0093332D01*
X0085869Y0092533D02*
X0063298Y0092533D01*
X0062814Y0092050D02*
X0060136Y0092050D01*
X0060136Y0092050D01*
X0062814Y0092050D01*
X0063130Y0091735D02*
X0071184Y0091735D01*
X0070385Y0090936D02*
X0063715Y0090936D01*
X0063715Y0090138D02*
X0069587Y0090138D01*
X0069215Y0089339D02*
X0063715Y0089339D01*
X0063715Y0088541D02*
X0069215Y0088541D01*
X0069215Y0087742D02*
X0063715Y0087742D01*
X0063408Y0086944D02*
X0069215Y0086944D01*
X0071615Y0084034D02*
X0072175Y0084594D01*
X0072175Y0083494D01*
X0072356Y0083313D01*
X0068193Y0079150D01*
X0063715Y0079150D01*
X0063715Y0080734D01*
X0065931Y0082950D01*
X0070531Y0082950D01*
X0071615Y0084034D01*
X0071331Y0083750D02*
X0072175Y0083750D01*
X0072175Y0084548D02*
X0072130Y0084548D01*
X0071994Y0082951D02*
X0070533Y0082951D01*
X0071196Y0082153D02*
X0065134Y0082153D01*
X0064335Y0081354D02*
X0070397Y0081354D01*
X0069599Y0080556D02*
X0063715Y0080556D01*
X0063715Y0079757D02*
X0068800Y0079757D01*
X0071729Y0078160D02*
X0075915Y0078160D01*
X0075915Y0077362D02*
X0070930Y0077362D01*
X0070655Y0076563D02*
X0075915Y0076563D01*
X0075915Y0078959D02*
X0072527Y0078959D01*
X0073326Y0079757D02*
X0075915Y0079757D01*
X0075915Y0080556D02*
X0074124Y0080556D01*
X0074923Y0081354D02*
X0076364Y0081354D01*
X0075721Y0082153D02*
X0089057Y0082153D01*
X0089855Y0082951D02*
X0084812Y0082951D01*
X0085355Y0083750D02*
X0090654Y0083750D01*
X0091452Y0084548D02*
X0085355Y0084548D01*
X0085355Y0085347D02*
X0092251Y0085347D01*
X0093149Y0084124D02*
X0120565Y0084124D01*
X0126665Y0083750D02*
X0127015Y0083750D01*
X0127015Y0084548D02*
X0126665Y0084548D01*
X0126665Y0085347D02*
X0127015Y0085347D01*
X0127015Y0086145D02*
X0126349Y0086145D01*
X0127015Y0086944D02*
X0086219Y0086944D01*
X0087017Y0087742D02*
X0127015Y0087742D01*
X0127015Y0088541D02*
X0088099Y0088541D01*
X0088685Y0089339D02*
X0127015Y0089339D01*
X0127015Y0090138D02*
X0089413Y0090138D01*
X0090211Y0090936D02*
X0127015Y0090936D01*
X0127015Y0091735D02*
X0091010Y0091735D01*
X0091808Y0092533D02*
X0127015Y0092533D01*
X0127015Y0093332D02*
X0092607Y0093332D01*
X0093405Y0094130D02*
X0127015Y0094130D01*
X0127015Y0094929D02*
X0094204Y0094929D01*
X0095002Y0095727D02*
X0127015Y0095727D01*
X0127015Y0096526D02*
X0095801Y0096526D01*
X0096599Y0097324D02*
X0127015Y0097324D01*
X0127015Y0098123D02*
X0097398Y0098123D01*
X0098196Y0098921D02*
X0127015Y0098921D01*
X0126429Y0099720D02*
X0098995Y0099720D01*
X0099793Y0100518D02*
X0125630Y0100518D01*
X0124832Y0101317D02*
X0100592Y0101317D01*
X0101391Y0102115D02*
X0114768Y0102115D01*
X0114465Y0102914D02*
X0102189Y0102914D01*
X0102988Y0103712D02*
X0114465Y0103712D01*
X0114465Y0104511D02*
X0103786Y0104511D01*
X0104585Y0105309D02*
X0114465Y0105309D01*
X0114744Y0106108D02*
X0105383Y0106108D01*
X0106182Y0106906D02*
X0118365Y0106906D01*
X0118365Y0107705D02*
X0106980Y0107705D01*
X0107779Y0108503D02*
X0118262Y0108503D01*
X0118215Y0109302D02*
X0108577Y0109302D01*
X0109365Y0110101D02*
X0118215Y0110101D01*
X0118215Y0110899D02*
X0109365Y0110899D01*
X0109365Y0111698D02*
X0118215Y0111698D01*
X0118262Y0112496D02*
X0109365Y0112496D01*
X0109365Y0113295D02*
X0110125Y0113295D01*
X0105165Y0113295D02*
X0102030Y0113295D01*
X0105165Y0112496D02*
X0091886Y0112496D01*
X0091886Y0111698D02*
X0105033Y0111698D01*
X0104234Y0110899D02*
X0091886Y0110899D01*
X0091886Y0110101D02*
X0103436Y0110101D01*
X0102637Y0109302D02*
X0091886Y0109302D01*
X0091886Y0108503D02*
X0101839Y0108503D01*
X0105250Y0118884D02*
X0097389Y0118884D01*
X0094541Y0118884D02*
X0091589Y0118884D01*
X0091886Y0119683D02*
X0093743Y0119683D01*
X0093615Y0120481D02*
X0091886Y0120481D01*
X0091886Y0121280D02*
X0093615Y0121280D01*
X0093615Y0122078D02*
X0091886Y0122078D01*
X0091886Y0122877D02*
X0094002Y0122877D01*
X0091886Y0123675D02*
X0098515Y0123675D01*
X0098515Y0122877D02*
X0097928Y0122877D01*
X0099253Y0124474D02*
X0091442Y0124474D01*
X0080288Y0124474D02*
X0073515Y0124474D01*
X0072948Y0125272D02*
X0162845Y0125272D01*
X0162845Y0124474D02*
X0103477Y0124474D01*
X0109280Y0118884D02*
X0109984Y0118884D01*
X0116146Y0118884D02*
X0117715Y0118884D01*
X0117715Y0118086D02*
X0116415Y0118086D01*
X0116415Y0117287D02*
X0117872Y0117287D01*
X0118365Y0116489D02*
X0116415Y0116489D01*
X0116415Y0115690D02*
X0118365Y0115690D01*
X0118365Y0114892D02*
X0116415Y0114892D01*
X0116415Y0114093D02*
X0118365Y0114093D01*
X0118365Y0113295D02*
X0116005Y0113295D01*
X0093055Y0099720D02*
X0059256Y0099720D01*
X0058458Y0098921D02*
X0092257Y0098921D01*
X0084787Y0091735D02*
X0082447Y0091735D01*
X0083245Y0090936D02*
X0084085Y0090936D01*
X0085420Y0086145D02*
X0114781Y0086145D01*
X0114730Y0082153D02*
X0093300Y0082153D01*
X0092501Y0081354D02*
X0127003Y0081354D01*
X0127015Y0082153D02*
X0126400Y0082153D01*
X0126665Y0082951D02*
X0127015Y0082951D01*
X0127015Y0076563D02*
X0092968Y0076563D01*
X0092155Y0073369D02*
X0090375Y0073369D01*
X0090375Y0072570D02*
X0092155Y0072570D01*
X0092155Y0071772D02*
X0090375Y0071772D01*
X0090375Y0070973D02*
X0092155Y0070973D01*
X0091864Y0070175D02*
X0090375Y0070175D01*
X0090375Y0069376D02*
X0091065Y0069376D01*
X0095565Y0065900D02*
X0099715Y0065900D01*
X0099715Y0066550D01*
X0107289Y0074124D01*
X0120565Y0074124D01*
X0126665Y0074168D02*
X0127015Y0074168D01*
X0127015Y0074966D02*
X0126665Y0074966D01*
X0126665Y0075765D02*
X0127015Y0075765D01*
X0127015Y0073369D02*
X0126665Y0073369D01*
X0126665Y0072570D02*
X0127015Y0072570D01*
X0104413Y0073369D02*
X0097855Y0073369D01*
X0097855Y0072570D02*
X0103614Y0072570D01*
X0102816Y0071772D02*
X0097855Y0071772D01*
X0097855Y0070973D02*
X0102017Y0070973D01*
X0101219Y0070175D02*
X0097855Y0070175D01*
X0097855Y0069376D02*
X0100420Y0069376D01*
X0099622Y0068578D02*
X0097855Y0068578D01*
X0097905Y0067779D02*
X0097640Y0067779D01*
X0095565Y0065900D02*
X0092365Y0062700D01*
X0091265Y0062700D01*
X0085865Y0066600D02*
X0085815Y0066550D01*
X0085065Y0066550D01*
X0085363Y0076563D02*
X0081615Y0076563D01*
X0078765Y0078200D02*
X0087415Y0078200D01*
X0088565Y0079350D01*
X0088565Y0079540D01*
X0093149Y0084124D01*
X0088258Y0081354D02*
X0081167Y0081354D01*
X0081615Y0080556D02*
X0087460Y0080556D01*
X0085283Y0079757D02*
X0081615Y0079757D01*
X0080198Y0082951D02*
X0077332Y0082951D01*
X0077875Y0083750D02*
X0079655Y0083750D01*
X0079655Y0084548D02*
X0077875Y0084548D01*
X0077875Y0085347D02*
X0079655Y0085347D01*
X0079655Y0086145D02*
X0077875Y0086145D01*
X0077875Y0086944D02*
X0079655Y0086944D01*
X0079507Y0087742D02*
X0077875Y0087742D01*
X0077875Y0088541D02*
X0078708Y0088541D01*
X0071608Y0075765D02*
X0071165Y0075765D01*
X0061498Y0083750D02*
X0059465Y0083750D01*
X0059465Y0084548D02*
X0062297Y0084548D01*
X0063095Y0085347D02*
X0059465Y0085347D01*
X0060073Y0086145D02*
X0063894Y0086145D01*
X0057506Y0079757D02*
X0057266Y0079757D01*
X0056707Y0078959D02*
X0056467Y0078959D01*
X0055909Y0078160D02*
X0055669Y0078160D01*
X0055110Y0077362D02*
X0054870Y0077362D01*
X0054312Y0076563D02*
X0054072Y0076563D01*
X0053513Y0075765D02*
X0053273Y0075765D01*
X0052715Y0074966D02*
X0026265Y0074966D01*
X0026265Y0074168D02*
X0043522Y0074168D01*
X0043382Y0073369D02*
X0026265Y0073369D01*
X0026265Y0072570D02*
X0043382Y0072570D01*
X0043382Y0071772D02*
X0026265Y0071772D01*
X0026265Y0070973D02*
X0043382Y0070973D01*
X0043382Y0070175D02*
X0026265Y0070175D01*
X0026265Y0069376D02*
X0043382Y0069376D01*
X0043382Y0068578D02*
X0026265Y0068578D01*
X0026265Y0067779D02*
X0043382Y0067779D01*
X0043382Y0066981D02*
X0026265Y0066981D01*
X0026265Y0066182D02*
X0043382Y0066182D01*
X0043382Y0065384D02*
X0026265Y0065384D01*
X0026265Y0064585D02*
X0043382Y0064585D01*
X0043382Y0063787D02*
X0026265Y0063787D01*
X0026265Y0062988D02*
X0043382Y0062988D01*
X0043382Y0062190D02*
X0026265Y0062190D01*
X0026265Y0061391D02*
X0043382Y0061391D01*
X0043382Y0060593D02*
X0026265Y0060593D01*
X0026265Y0059794D02*
X0043382Y0059794D01*
X0043382Y0058996D02*
X0026265Y0058996D01*
X0026265Y0058197D02*
X0043382Y0058197D01*
X0043382Y0057399D02*
X0026265Y0057399D01*
X0026265Y0056600D02*
X0043382Y0056600D01*
X0043382Y0055802D02*
X0026265Y0055802D01*
X0026265Y0055003D02*
X0043382Y0055003D01*
X0043382Y0054205D02*
X0026265Y0054205D01*
X0026265Y0053406D02*
X0043382Y0053406D01*
X0043382Y0052608D02*
X0026265Y0052608D01*
X0026265Y0051809D02*
X0043382Y0051809D01*
X0043382Y0051011D02*
X0026265Y0051011D01*
X0026265Y0050212D02*
X0043382Y0050212D01*
X0043382Y0049414D02*
X0026265Y0049414D01*
X0026265Y0048615D02*
X0043382Y0048615D01*
X0043382Y0047817D02*
X0026265Y0047817D01*
X0026265Y0047018D02*
X0043382Y0047018D01*
X0042363Y0046220D02*
X0026265Y0046220D01*
X0026265Y0045421D02*
X0041565Y0045421D01*
X0040766Y0044623D02*
X0026265Y0044623D01*
X0026265Y0043824D02*
X0040765Y0043824D01*
X0040765Y0043026D02*
X0026265Y0043026D01*
X0026265Y0042227D02*
X0040765Y0042227D01*
X0040765Y0041429D02*
X0026265Y0041429D01*
X0026265Y0040630D02*
X0040765Y0040630D01*
X0040765Y0039832D02*
X0026265Y0039832D01*
X0026265Y0039033D02*
X0040765Y0039033D01*
X0040765Y0038234D02*
X0026265Y0038234D01*
X0026265Y0037436D02*
X0040765Y0037436D01*
X0040765Y0036637D02*
X0026265Y0036637D01*
X0026265Y0035839D02*
X0040765Y0035839D01*
X0040765Y0035040D02*
X0026265Y0035040D01*
X0026265Y0034242D02*
X0040843Y0034242D01*
X0041641Y0033443D02*
X0026265Y0033443D01*
X0026265Y0032645D02*
X0042440Y0032645D01*
X0043238Y0031846D02*
X0026581Y0031846D01*
X0027380Y0031048D02*
X0044037Y0031048D01*
X0044835Y0030249D02*
X0028178Y0030249D01*
X0028977Y0029451D02*
X0045634Y0029451D01*
X0046432Y0028652D02*
X0029775Y0028652D01*
X0030574Y0027854D02*
X0042843Y0027854D01*
X0047778Y0027055D02*
X0048029Y0027055D01*
X0047778Y0026257D02*
X0048828Y0026257D01*
X0049626Y0025458D02*
X0047778Y0025458D01*
X0047778Y0024660D02*
X0050425Y0024660D01*
X0053071Y0026257D02*
X0060509Y0026257D01*
X0060024Y0025458D02*
X0055862Y0025458D01*
X0056376Y0027055D02*
X0059715Y0027055D01*
X0059814Y0031048D02*
X0055265Y0031048D01*
X0055265Y0031846D02*
X0060612Y0031846D01*
X0059821Y0032645D02*
X0055265Y0032645D01*
X0055265Y0033443D02*
X0059000Y0033443D01*
X0058202Y0034242D02*
X0055265Y0034242D01*
X0055265Y0035040D02*
X0057403Y0035040D01*
X0056965Y0035839D02*
X0055265Y0035839D01*
X0055265Y0036637D02*
X0056965Y0036637D01*
X0052265Y0036637D02*
X0043765Y0036637D01*
X0043765Y0035839D02*
X0052265Y0035839D01*
X0052265Y0035040D02*
X0044287Y0035040D01*
X0043765Y0035562D02*
X0043765Y0042026D01*
X0044027Y0041764D01*
X0051237Y0041764D01*
X0051882Y0042408D01*
X0051882Y0044362D01*
X0052265Y0043979D01*
X0052265Y0030643D01*
X0051735Y0030643D01*
X0051090Y0029999D01*
X0051090Y0028237D01*
X0043765Y0035562D01*
X0045085Y0034242D02*
X0052265Y0034242D01*
X0052265Y0033443D02*
X0045884Y0033443D01*
X0046682Y0032645D02*
X0052265Y0032645D01*
X0052265Y0031846D02*
X0047481Y0031846D01*
X0048279Y0031048D02*
X0052265Y0031048D01*
X0051341Y0030249D02*
X0049078Y0030249D01*
X0049876Y0029451D02*
X0051090Y0029451D01*
X0051090Y0028652D02*
X0050675Y0028652D01*
X0053765Y0028559D02*
X0053765Y0044600D01*
X0052265Y0043824D02*
X0051882Y0043824D01*
X0051882Y0043026D02*
X0052265Y0043026D01*
X0052265Y0042227D02*
X0051701Y0042227D01*
X0052265Y0041429D02*
X0043765Y0041429D01*
X0043765Y0040630D02*
X0052265Y0040630D01*
X0052265Y0039832D02*
X0043765Y0039832D01*
X0043765Y0039033D02*
X0052265Y0039033D01*
X0052265Y0038234D02*
X0043765Y0038234D01*
X0043765Y0037436D02*
X0052265Y0037436D01*
X0059265Y0045821D02*
X0059265Y0046629D01*
X0057165Y0048729D01*
X0057165Y0050757D01*
X0052189Y0055734D01*
X0051882Y0055734D01*
X0051882Y0052828D01*
X0052258Y0052828D01*
X0059265Y0045821D01*
X0059265Y0046220D02*
X0058867Y0046220D01*
X0058876Y0047018D02*
X0058068Y0047018D01*
X0058077Y0047817D02*
X0057270Y0047817D01*
X0057279Y0048615D02*
X0056471Y0048615D01*
X0057165Y0049414D02*
X0055673Y0049414D01*
X0054874Y0050212D02*
X0057165Y0050212D01*
X0056912Y0051011D02*
X0054076Y0051011D01*
X0053277Y0051809D02*
X0056113Y0051809D01*
X0055315Y0052608D02*
X0052479Y0052608D01*
X0051882Y0053406D02*
X0054516Y0053406D01*
X0053718Y0054205D02*
X0051882Y0054205D01*
X0051882Y0055003D02*
X0052919Y0055003D01*
X0061165Y0055402D02*
X0061615Y0055852D01*
X0043491Y0075765D02*
X0026265Y0075765D01*
X0026265Y0076563D02*
X0043382Y0076563D01*
X0043382Y0077362D02*
X0026265Y0077362D01*
X0026265Y0078160D02*
X0043382Y0078160D01*
X0043382Y0078959D02*
X0026265Y0078959D01*
X0026265Y0079757D02*
X0043382Y0079757D01*
X0043382Y0080556D02*
X0026265Y0080556D01*
X0026265Y0081354D02*
X0043382Y0081354D01*
X0043382Y0082153D02*
X0026265Y0082153D01*
X0026265Y0082951D02*
X0043382Y0082951D01*
X0042153Y0083750D02*
X0026265Y0083750D01*
X0026265Y0084548D02*
X0041354Y0084548D01*
X0042065Y0091735D02*
X0046032Y0091735D01*
X0046032Y0092533D02*
X0042065Y0092533D01*
X0042065Y0093332D02*
X0046032Y0093332D01*
X0046032Y0094130D02*
X0042065Y0094130D01*
X0042065Y0094929D02*
X0046032Y0094929D01*
X0046032Y0095727D02*
X0042065Y0095727D01*
X0042065Y0096526D02*
X0045977Y0096526D01*
X0045178Y0097324D02*
X0042065Y0097324D01*
X0042065Y0098123D02*
X0044380Y0098123D01*
X0043581Y0098921D02*
X0042065Y0098921D01*
X0042065Y0099720D02*
X0042782Y0099720D01*
X0040965Y0102914D02*
X0040314Y0102914D01*
X0040965Y0103712D02*
X0039515Y0103712D01*
X0038717Y0104511D02*
X0040965Y0104511D01*
X0040965Y0105309D02*
X0037918Y0105309D01*
X0037858Y0106108D02*
X0037120Y0106108D01*
X0037015Y0106906D02*
X0037315Y0106906D01*
X0037315Y0107705D02*
X0037015Y0107705D01*
X0037015Y0108503D02*
X0037315Y0108503D01*
X0037315Y0109302D02*
X0037015Y0109302D01*
X0037015Y0110101D02*
X0037315Y0110101D01*
X0037665Y0110899D02*
X0036665Y0110899D01*
X0042665Y0110899D02*
X0043365Y0110899D01*
X0043015Y0110549D02*
X0043015Y0108013D01*
X0043015Y0108013D01*
X0043015Y0110549D01*
X0043015Y0110101D02*
X0043015Y0110101D01*
X0043015Y0109302D02*
X0043015Y0109302D01*
X0043015Y0108503D02*
X0043015Y0108503D01*
X0049824Y0118086D02*
X0031313Y0118086D01*
X0032112Y0118884D02*
X0037182Y0118884D01*
X0036415Y0119683D02*
X0032910Y0119683D01*
X0041349Y0118884D02*
X0043182Y0118884D01*
X0042415Y0119683D02*
X0042115Y0119683D01*
X0042115Y0120481D02*
X0042415Y0120481D01*
X0042415Y0121280D02*
X0042115Y0121280D01*
X0042115Y0122078D02*
X0042415Y0122078D01*
X0042415Y0122877D02*
X0042115Y0122877D01*
X0041989Y0123675D02*
X0042541Y0123675D01*
X0047349Y0118884D02*
X0049515Y0118884D01*
X0056906Y0118086D02*
X0057824Y0118086D01*
X0057515Y0118884D02*
X0057215Y0118884D01*
X0064906Y0118086D02*
X0066024Y0118086D01*
X0065815Y0118884D02*
X0065215Y0118884D01*
X0065215Y0119683D02*
X0065815Y0119683D01*
X0065815Y0120481D02*
X0065215Y0120481D01*
X0065215Y0121280D02*
X0065815Y0121280D01*
X0065815Y0122078D02*
X0065215Y0122078D01*
X0065215Y0122877D02*
X0065815Y0122877D01*
X0067498Y0126071D02*
X0162845Y0126071D01*
X0080141Y0118884D02*
X0073515Y0118884D01*
X0065815Y0111698D02*
X0057215Y0111698D01*
X0057215Y0110899D02*
X0065815Y0110899D01*
X0065815Y0110101D02*
X0057215Y0110101D01*
X0057215Y0109302D02*
X0065815Y0109302D01*
X0073515Y0109302D02*
X0074364Y0109302D01*
X0073615Y0110101D02*
X0073528Y0110101D01*
X0065740Y0101475D02*
X0058890Y0101475D01*
X0054315Y0096900D01*
X0055815Y0094130D02*
X0057974Y0094130D01*
X0057176Y0093332D02*
X0055815Y0093332D01*
X0055815Y0092533D02*
X0056377Y0092533D01*
D23*
X0060865Y0089200D02*
X0057865Y0086200D01*
X0057865Y0082619D01*
X0052165Y0076919D01*
X0047632Y0076919D01*
X0047632Y0072982D02*
X0047704Y0072910D01*
X0049065Y0072910D01*
X0047632Y0069045D02*
X0047677Y0069000D01*
X0052865Y0069000D01*
X0058965Y0075100D01*
X0061615Y0075100D01*
X0061740Y0075225D01*
X0061740Y0075556D01*
X0063734Y0077550D01*
X0068856Y0077550D01*
X0075025Y0083719D01*
X0075025Y0086200D01*
X0068865Y0075100D02*
X0065115Y0075100D01*
X0061990Y0070606D02*
X0061990Y0070275D01*
X0061615Y0069900D01*
X0061515Y0069800D01*
X0065115Y0069900D02*
X0068865Y0069900D01*
X0068865Y0065000D02*
X0065115Y0065000D01*
X0061615Y0060950D02*
X0061615Y0060100D01*
X0065115Y0060100D02*
X0068865Y0060100D01*
X0068865Y0055400D02*
X0065115Y0055400D01*
X0061615Y0055400D02*
X0061613Y0055402D01*
X0061165Y0055402D01*
X0065115Y0050400D02*
X0065115Y0046400D01*
X0065315Y0046200D01*
X0068865Y0046200D01*
X0062465Y0035200D02*
X0062565Y0034700D01*
X0062565Y0029000D02*
X0054206Y0029000D01*
X0053765Y0028559D01*
X0053765Y0023441D02*
X0054006Y0023200D01*
X0062565Y0023200D01*
X0045104Y0026000D02*
X0030165Y0026000D01*
X0024665Y0031500D01*
X0024665Y0113700D01*
X0032465Y0121500D01*
X0039165Y0121500D01*
X0039265Y0121600D01*
X0040165Y0108600D02*
X0042565Y0106200D01*
X0042565Y0102200D01*
X0047632Y0097133D01*
X0047632Y0088730D01*
X0047632Y0086761D02*
X0051427Y0086761D01*
X0052165Y0087500D01*
X0052165Y0107400D01*
X0053365Y0108600D01*
X0052715Y0107950D01*
X0053365Y0108600D02*
X0045865Y0108600D01*
X0040465Y0100500D02*
X0034165Y0106800D01*
X0034165Y0108600D01*
X0034065Y0108500D01*
X0040465Y0100500D02*
X0040465Y0087700D01*
X0043372Y0084793D01*
X0047632Y0084793D01*
X0075125Y0070700D02*
X0075125Y0070360D01*
X0087565Y0055440D02*
X0087525Y0055400D01*
X0069665Y0108500D02*
X0073165Y0112000D01*
X0076465Y0112000D01*
X0069665Y0121500D02*
X0069771Y0121606D01*
X0095965Y0121150D02*
X0100515Y0121150D01*
X0101365Y0122000D01*
D24*
X0082765Y0101800D03*
X0072765Y0101800D03*
X0086385Y0090080D03*
X0097765Y0091800D03*
X0107765Y0091800D03*
X0095165Y0076000D03*
X0100965Y0074700D03*
X0106765Y0064000D03*
X0099365Y0055900D03*
X0085265Y0051250D03*
X0074665Y0050500D03*
X0068865Y0046200D03*
X0068865Y0055400D03*
X0068865Y0060100D03*
X0073765Y0064600D03*
X0068865Y0065000D03*
X0068865Y0069900D03*
X0068865Y0075100D03*
X0069565Y0082000D03*
X0085065Y0066550D03*
X0099165Y0039600D03*
X0085265Y0034900D03*
X0073565Y0028900D03*
X0074365Y0022400D03*
X0081665Y0022500D03*
X0089965Y0022300D03*
X0098965Y0022000D03*
X0057765Y0031800D03*
X0049665Y0034000D03*
X0049765Y0040000D03*
X0052765Y0053900D03*
X0031465Y0042500D03*
X0030765Y0085700D03*
X0044465Y0096500D03*
X0045565Y0104000D03*
X0055965Y0103200D03*
X0147765Y0101800D03*
X0147765Y0086800D03*
X0147765Y0071800D03*
X0147765Y0056800D03*
X0147765Y0041800D03*
X0147765Y0026800D03*
D25*
X0120565Y0104124D02*
X0121065Y0104624D01*
X0121065Y0110500D01*
X0121065Y0119900D01*
X0113065Y0116160D02*
X0113005Y0116100D01*
X0107265Y0116100D01*
X0107165Y0116000D01*
X0101365Y0116000D01*
X0101265Y0115900D01*
X0095165Y0115900D01*
X0090971Y0115900D01*
X0085865Y0110794D01*
D26*
X0081065Y0090500D02*
X0079365Y0090500D01*
X0082505Y0087360D01*
X0082505Y0086200D01*
X0083885Y0087580D02*
X0083885Y0087680D01*
X0082785Y0088780D01*
X0085085Y0088780D01*
X0082785Y0088780D02*
X0081065Y0090500D01*
X0079365Y0090500D02*
X0072565Y0090500D01*
X0071065Y0089000D01*
X0071065Y0086100D01*
X0069765Y0084800D01*
X0065165Y0084800D01*
X0060865Y0080500D01*
X0053275Y0072910D01*
X0051378Y0071013D01*
X0082605Y0070700D02*
X0082605Y0069060D01*
X0085065Y0066600D01*
X0085865Y0066600D01*
X0090905Y0066600D01*
X0095005Y0070700D01*
X0090915Y0078200D02*
X0091815Y0079100D01*
X0127365Y0079100D01*
X0128865Y0077600D01*
X0128865Y0077500D01*
X0128865Y0071900D01*
X0128865Y0071100D01*
X0127265Y0069500D01*
X0128865Y0067900D01*
X0128865Y0067300D01*
X0128865Y0049900D01*
X0128565Y0049900D01*
X0127565Y0048900D01*
X0127665Y0048900D01*
X0128865Y0047700D01*
X0128865Y0031800D01*
X0126165Y0029100D01*
X0102815Y0029100D01*
X0102815Y0032900D01*
X0102915Y0033000D01*
X0095005Y0039200D02*
X0090705Y0034900D01*
X0085265Y0034900D01*
X0084065Y0034900D01*
X0082505Y0036460D01*
X0082505Y0039200D01*
X0084365Y0051300D02*
X0085265Y0051300D01*
X0085265Y0051250D01*
X0085265Y0051300D02*
X0091965Y0051300D01*
X0095005Y0054340D01*
X0095005Y0055400D01*
X0103015Y0050700D02*
X0103015Y0048900D01*
X0127565Y0048900D01*
X0127665Y0048900D02*
X0128565Y0048900D01*
X0128865Y0048600D01*
X0128865Y0049900D01*
X0128865Y0048600D02*
X0128865Y0047700D01*
X0128865Y0067300D02*
X0128865Y0069500D01*
X0127265Y0069500D01*
X0106815Y0069500D01*
X0103215Y0065900D01*
X0103215Y0061900D01*
X0103115Y0050800D02*
X0103015Y0050700D01*
X0103015Y0048900D02*
X0103015Y0046900D01*
X0084365Y0051300D02*
X0082505Y0053160D01*
X0082505Y0055400D01*
X0127365Y0079100D02*
X0128865Y0080600D01*
X0128865Y0082100D01*
X0128865Y0083700D01*
X0128865Y0099900D01*
X0124641Y0104124D01*
X0120565Y0104124D01*
X0121065Y0104624D02*
X0125941Y0104624D01*
X0128865Y0101700D01*
X0128865Y0099900D01*
X0128865Y0080600D02*
X0128865Y0079200D01*
X0128765Y0079100D01*
X0127365Y0079100D01*
X0128865Y0079200D02*
X0128865Y0077500D01*
X0128865Y0071900D02*
X0128865Y0069500D01*
D27*
X0107265Y0110960D02*
X0086385Y0090080D01*
X0085085Y0088780D01*
X0083885Y0087580D01*
X0082505Y0086200D01*
X0107265Y0110960D02*
X0107265Y0116100D01*
X0085865Y0121606D02*
X0069771Y0121606D01*
X0061365Y0121600D02*
X0053365Y0121600D01*
X0045265Y0121600D01*
D28*
X0047632Y0072910D02*
X0049065Y0072910D01*
X0053275Y0072910D01*
X0051378Y0071013D02*
X0047632Y0071013D01*
D29*
X0039265Y0121600D02*
X0039265Y0124032D01*
X0041265Y0126032D01*
X0065135Y0126031D01*
X0069665Y0121500D01*
M02*
