%
M48
M72
T01C0.01200
%
T01
X49665Y34000
X49765Y40000
X57765Y31800
X73565Y28900
X74365Y22400
X81665Y22500
X89965Y22300
X98965Y22000
X85265Y34900
X99165Y39600
X85265Y51250
X74665Y50500
X68865Y46200
X68865Y55400
X68865Y60100
X73765Y64600
X68865Y65000
X68865Y69900
X68865Y75100
X69565Y82000
X86385Y90080
X97765Y91800
X107765Y91800
X95165Y76000
X100965Y74700
X106765Y64000
X99365Y55900
X85065Y66550
X52765Y53900
X31465Y42500
X30765Y85700
X44465Y96500
X45565Y104000
X55965Y103200
X72765Y101800
X82765Y101800
X147765Y101800
X147765Y86800
X147765Y71800
X147765Y56800
X147765Y41800
X147765Y26800
M30
