G75*
%MOIN*%
%OFA0B0*%
%FSLAX25Y25*%
%IPPOS*%
%LPD*%
%AMOC8*
5,1,8,0,0,1.08239X$1,22.5*
%
%ADD10C,0.00600*%
%ADD11C,0.00875*%
%ADD12R,0.05500X0.05500*%
%ADD13R,0.09843X0.03937*%
%ADD14C,0.00750*%
%ADD15C,0.01250*%
%ADD16R,0.06299X0.01181*%
%ADD17R,0.07677X0.06299*%
%ADD18R,0.03150X0.01969*%
%ADD19R,0.03500X0.04500*%
%ADD20R,0.10000X0.02500*%
%ADD21R,0.04500X0.04000*%
D10*
X0008065Y0003100D02*
X0008065Y0129084D01*
X0165545Y0129074D01*
X0165545Y0003100D01*
X0008065Y0003100D01*
D11*
X0061252Y0024513D02*
X0063878Y0024513D01*
X0063878Y0021887D01*
X0061252Y0021887D01*
X0061252Y0024513D01*
X0061252Y0022761D02*
X0063878Y0022761D01*
X0063878Y0023635D02*
X0061252Y0023635D01*
X0061252Y0024509D02*
X0063878Y0024509D01*
X0063878Y0030313D02*
X0061252Y0030313D01*
X0063878Y0030313D02*
X0063878Y0027687D01*
X0061252Y0027687D01*
X0061252Y0030313D01*
X0061252Y0028561D02*
X0063878Y0028561D01*
X0063878Y0029435D02*
X0061252Y0029435D01*
X0061252Y0030309D02*
X0063878Y0030309D01*
X0063878Y0036013D02*
X0061252Y0036013D01*
X0063878Y0036013D02*
X0063878Y0033387D01*
X0061252Y0033387D01*
X0061252Y0036013D01*
X0061252Y0034261D02*
X0063878Y0034261D01*
X0063878Y0035135D02*
X0061252Y0035135D01*
X0061252Y0036009D02*
X0063878Y0036009D01*
X0063878Y0041713D02*
X0061252Y0041713D01*
X0063878Y0041713D02*
X0063878Y0039087D01*
X0061252Y0039087D01*
X0061252Y0041713D01*
X0061252Y0039961D02*
X0063878Y0039961D01*
X0063878Y0040835D02*
X0061252Y0040835D01*
X0061252Y0041709D02*
X0063878Y0041709D01*
X0067252Y0041713D02*
X0069878Y0041713D01*
X0069878Y0039087D01*
X0067252Y0039087D01*
X0067252Y0041713D01*
X0067252Y0039961D02*
X0069878Y0039961D01*
X0069878Y0040835D02*
X0067252Y0040835D01*
X0067252Y0041709D02*
X0069878Y0041709D01*
X0069878Y0036013D02*
X0067252Y0036013D01*
X0069878Y0036013D02*
X0069878Y0033387D01*
X0067252Y0033387D01*
X0067252Y0036013D01*
X0067252Y0034261D02*
X0069878Y0034261D01*
X0069878Y0035135D02*
X0067252Y0035135D01*
X0067252Y0036009D02*
X0069878Y0036009D01*
X0069878Y0030313D02*
X0067252Y0030313D01*
X0069878Y0030313D02*
X0069878Y0027687D01*
X0067252Y0027687D01*
X0067252Y0030313D01*
X0067252Y0028561D02*
X0069878Y0028561D01*
X0069878Y0029435D02*
X0067252Y0029435D01*
X0067252Y0030309D02*
X0069878Y0030309D01*
X0069878Y0024513D02*
X0067252Y0024513D01*
X0069878Y0024513D02*
X0069878Y0021887D01*
X0067252Y0021887D01*
X0067252Y0024513D01*
X0067252Y0022761D02*
X0069878Y0022761D01*
X0069878Y0023635D02*
X0067252Y0023635D01*
X0067252Y0024509D02*
X0069878Y0024509D01*
X0068178Y0081813D02*
X0065552Y0081813D01*
X0068178Y0081813D02*
X0068178Y0079187D01*
X0065552Y0079187D01*
X0065552Y0081813D01*
X0065552Y0080061D02*
X0068178Y0080061D01*
X0068178Y0080935D02*
X0065552Y0080935D01*
X0065552Y0081809D02*
X0068178Y0081809D01*
X0062178Y0081813D02*
X0059552Y0081813D01*
X0062178Y0081813D02*
X0062178Y0079187D01*
X0059552Y0079187D01*
X0059552Y0081813D01*
X0059552Y0080061D02*
X0062178Y0080061D01*
X0062178Y0080935D02*
X0059552Y0080935D01*
X0059552Y0081809D02*
X0062178Y0081809D01*
X0062178Y0090513D02*
X0059552Y0090513D01*
X0062178Y0090513D02*
X0062178Y0087887D01*
X0059552Y0087887D01*
X0059552Y0090513D01*
X0059552Y0088761D02*
X0062178Y0088761D01*
X0062178Y0089635D02*
X0059552Y0089635D01*
X0059552Y0090509D02*
X0062178Y0090509D01*
X0062178Y0096213D02*
X0059552Y0096213D01*
X0062178Y0096213D02*
X0062178Y0093587D01*
X0059552Y0093587D01*
X0059552Y0096213D01*
X0059552Y0094461D02*
X0062178Y0094461D01*
X0062178Y0095335D02*
X0059552Y0095335D01*
X0059552Y0096209D02*
X0062178Y0096209D01*
X0065552Y0096213D02*
X0068178Y0096213D01*
X0068178Y0093587D01*
X0065552Y0093587D01*
X0065552Y0096213D01*
X0065552Y0094461D02*
X0068178Y0094461D01*
X0068178Y0095335D02*
X0065552Y0095335D01*
X0065552Y0096209D02*
X0068178Y0096209D01*
X0068178Y0090513D02*
X0065552Y0090513D01*
X0068178Y0090513D02*
X0068178Y0087887D01*
X0065552Y0087887D01*
X0065552Y0090513D01*
X0065552Y0088761D02*
X0068178Y0088761D01*
X0068178Y0089635D02*
X0065552Y0089635D01*
X0065552Y0090509D02*
X0068178Y0090509D01*
X0044552Y0107287D02*
X0044552Y0109913D01*
X0047178Y0109913D01*
X0047178Y0107287D01*
X0044552Y0107287D01*
X0044552Y0108161D02*
X0047178Y0108161D01*
X0047178Y0109035D02*
X0044552Y0109035D01*
X0044552Y0109909D02*
X0047178Y0109909D01*
X0044552Y0113287D02*
X0044552Y0115913D01*
X0047178Y0115913D01*
X0047178Y0113287D01*
X0044552Y0113287D01*
X0044552Y0114161D02*
X0047178Y0114161D01*
X0047178Y0115035D02*
X0044552Y0115035D01*
X0044552Y0115909D02*
X0047178Y0115909D01*
X0046578Y0120287D02*
X0043952Y0120287D01*
X0043952Y0122913D01*
X0046578Y0122913D01*
X0046578Y0120287D01*
X0046578Y0121161D02*
X0043952Y0121161D01*
X0043952Y0122035D02*
X0046578Y0122035D01*
X0046578Y0122909D02*
X0043952Y0122909D01*
X0040578Y0120287D02*
X0037952Y0120287D01*
X0037952Y0122913D01*
X0040578Y0122913D01*
X0040578Y0120287D01*
X0040578Y0121161D02*
X0037952Y0121161D01*
X0037952Y0122035D02*
X0040578Y0122035D01*
X0040578Y0122909D02*
X0037952Y0122909D01*
X0038852Y0115913D02*
X0038852Y0113287D01*
X0038852Y0115913D02*
X0041478Y0115913D01*
X0041478Y0113287D01*
X0038852Y0113287D01*
X0038852Y0114161D02*
X0041478Y0114161D01*
X0041478Y0115035D02*
X0038852Y0115035D01*
X0038852Y0115909D02*
X0041478Y0115909D01*
X0032852Y0115913D02*
X0032852Y0113287D01*
X0032852Y0115913D02*
X0035478Y0115913D01*
X0035478Y0113287D01*
X0032852Y0113287D01*
X0032852Y0114161D02*
X0035478Y0114161D01*
X0035478Y0115035D02*
X0032852Y0115035D01*
X0032852Y0115909D02*
X0035478Y0115909D01*
X0032852Y0109913D02*
X0032852Y0107287D01*
X0032852Y0109913D02*
X0035478Y0109913D01*
X0035478Y0107287D01*
X0032852Y0107287D01*
X0032852Y0108161D02*
X0035478Y0108161D01*
X0035478Y0109035D02*
X0032852Y0109035D01*
X0032852Y0109909D02*
X0035478Y0109909D01*
X0038852Y0109913D02*
X0038852Y0107287D01*
X0038852Y0109913D02*
X0041478Y0109913D01*
X0041478Y0107287D01*
X0038852Y0107287D01*
X0038852Y0108161D02*
X0041478Y0108161D01*
X0041478Y0109035D02*
X0038852Y0109035D01*
X0038852Y0109909D02*
X0041478Y0109909D01*
X0075152Y0110687D02*
X0075152Y0113313D01*
X0077778Y0113313D01*
X0077778Y0110687D01*
X0075152Y0110687D01*
X0075152Y0111561D02*
X0077778Y0111561D01*
X0077778Y0112435D02*
X0075152Y0112435D01*
X0075152Y0113309D02*
X0077778Y0113309D01*
X0075152Y0116687D02*
X0075152Y0119313D01*
X0077778Y0119313D01*
X0077778Y0116687D01*
X0075152Y0116687D01*
X0075152Y0117561D02*
X0077778Y0117561D01*
X0077778Y0118435D02*
X0075152Y0118435D01*
X0075152Y0119309D02*
X0077778Y0119309D01*
X0096478Y0117213D02*
X0096478Y0114587D01*
X0093852Y0114587D01*
X0093852Y0117213D01*
X0096478Y0117213D01*
X0096478Y0115461D02*
X0093852Y0115461D01*
X0093852Y0116335D02*
X0096478Y0116335D01*
X0096478Y0117209D02*
X0093852Y0117209D01*
X0096478Y0111213D02*
X0096478Y0108587D01*
X0093852Y0108587D01*
X0093852Y0111213D01*
X0096478Y0111213D01*
X0096478Y0109461D02*
X0093852Y0109461D01*
X0093852Y0110335D02*
X0096478Y0110335D01*
X0096478Y0111209D02*
X0093852Y0111209D01*
X0105952Y0114787D02*
X0105952Y0117413D01*
X0108578Y0117413D01*
X0108578Y0114787D01*
X0105952Y0114787D01*
X0105952Y0115661D02*
X0108578Y0115661D01*
X0108578Y0116535D02*
X0105952Y0116535D01*
X0105952Y0117409D02*
X0108578Y0117409D01*
X0105952Y0120787D02*
X0105952Y0123413D01*
X0108578Y0123413D01*
X0108578Y0120787D01*
X0105952Y0120787D01*
X0105952Y0121661D02*
X0108578Y0121661D01*
X0108578Y0122535D02*
X0105952Y0122535D01*
X0105952Y0123409D02*
X0108578Y0123409D01*
X0113752Y0109187D02*
X0116378Y0109187D01*
X0113752Y0109187D02*
X0113752Y0111813D01*
X0116378Y0111813D01*
X0116378Y0109187D01*
X0116378Y0110061D02*
X0113752Y0110061D01*
X0113752Y0110935D02*
X0116378Y0110935D01*
X0116378Y0111809D02*
X0113752Y0111809D01*
X0119752Y0109187D02*
X0122378Y0109187D01*
X0119752Y0109187D02*
X0119752Y0111813D01*
X0122378Y0111813D01*
X0122378Y0109187D01*
X0122378Y0110061D02*
X0119752Y0110061D01*
X0119752Y0110935D02*
X0122378Y0110935D01*
X0122378Y0111809D02*
X0119752Y0111809D01*
D12*
X0069665Y0108500D03*
X0061365Y0108600D03*
X0053365Y0108600D03*
X0053365Y0121600D03*
X0061365Y0121600D03*
X0069665Y0121500D03*
D13*
X0085865Y0121606D03*
X0085865Y0110794D03*
D14*
X0102740Y0114875D02*
X0102740Y0117125D01*
X0102740Y0114875D02*
X0099990Y0114875D01*
X0099990Y0117125D01*
X0102740Y0117125D01*
X0102740Y0115624D02*
X0099990Y0115624D01*
X0099990Y0116373D02*
X0102740Y0116373D01*
X0102740Y0117122D02*
X0099990Y0117122D01*
X0102740Y0120875D02*
X0102740Y0123125D01*
X0102740Y0120875D02*
X0099990Y0120875D01*
X0099990Y0123125D01*
X0102740Y0123125D01*
X0102740Y0121624D02*
X0099990Y0121624D01*
X0099990Y0122373D02*
X0102740Y0122373D01*
X0102740Y0123122D02*
X0099990Y0123122D01*
D15*
X0095340Y0124025D02*
X0095340Y0125275D01*
X0096590Y0125275D01*
X0096590Y0124025D01*
X0095340Y0124025D01*
X0095340Y0125274D02*
X0096590Y0125274D01*
X0095340Y0121775D02*
X0095340Y0120525D01*
X0095340Y0121775D02*
X0096590Y0121775D01*
X0096590Y0120525D01*
X0095340Y0120525D01*
X0095340Y0121774D02*
X0096590Y0121774D01*
X0091540Y0077575D02*
X0090290Y0077575D01*
X0090290Y0078825D01*
X0091540Y0078825D01*
X0091540Y0077575D01*
X0091540Y0078824D02*
X0090290Y0078824D01*
X0088040Y0077575D02*
X0086790Y0077575D01*
X0086790Y0078825D01*
X0088040Y0078825D01*
X0088040Y0077575D01*
X0088040Y0078824D02*
X0086790Y0078824D01*
X0099090Y0065275D02*
X0100340Y0065275D01*
X0099090Y0065275D02*
X0099090Y0066525D01*
X0100340Y0066525D01*
X0100340Y0065275D01*
X0100340Y0066524D02*
X0099090Y0066524D01*
X0102590Y0065275D02*
X0103840Y0065275D01*
X0102590Y0065275D02*
X0102590Y0066525D01*
X0103840Y0066525D01*
X0103840Y0065275D01*
X0103840Y0066524D02*
X0102590Y0066524D01*
X0102590Y0061275D02*
X0103840Y0061275D01*
X0102590Y0061275D02*
X0102590Y0062525D01*
X0103840Y0062525D01*
X0103840Y0061275D01*
X0103840Y0062524D02*
X0102590Y0062524D01*
X0100340Y0061275D02*
X0099090Y0061275D01*
X0099090Y0062525D01*
X0100340Y0062525D01*
X0100340Y0061275D01*
X0100340Y0062524D02*
X0099090Y0062524D01*
X0098990Y0050175D02*
X0100240Y0050175D01*
X0098990Y0050175D02*
X0098990Y0051425D01*
X0100240Y0051425D01*
X0100240Y0050175D01*
X0100240Y0051424D02*
X0098990Y0051424D01*
X0102490Y0050175D02*
X0103740Y0050175D01*
X0102490Y0050175D02*
X0102490Y0051425D01*
X0103740Y0051425D01*
X0103740Y0050175D01*
X0103740Y0051424D02*
X0102490Y0051424D01*
X0102390Y0046275D02*
X0103640Y0046275D01*
X0102390Y0046275D02*
X0102390Y0047525D01*
X0103640Y0047525D01*
X0103640Y0046275D01*
X0103640Y0047524D02*
X0102390Y0047524D01*
X0100140Y0046275D02*
X0098890Y0046275D01*
X0098890Y0047525D01*
X0100140Y0047525D01*
X0100140Y0046275D01*
X0100140Y0047524D02*
X0098890Y0047524D01*
X0098790Y0032375D02*
X0100040Y0032375D01*
X0098790Y0032375D02*
X0098790Y0033625D01*
X0100040Y0033625D01*
X0100040Y0032375D01*
X0100040Y0033624D02*
X0098790Y0033624D01*
X0102290Y0032375D02*
X0103540Y0032375D01*
X0102290Y0032375D02*
X0102290Y0033625D01*
X0103540Y0033625D01*
X0103540Y0032375D01*
X0103540Y0033624D02*
X0102290Y0033624D01*
X0102190Y0028475D02*
X0103440Y0028475D01*
X0102190Y0028475D02*
X0102190Y0029725D01*
X0103440Y0029725D01*
X0103440Y0028475D01*
X0103440Y0029724D02*
X0102190Y0029724D01*
X0099940Y0028475D02*
X0098690Y0028475D01*
X0098690Y0029725D01*
X0099940Y0029725D01*
X0099940Y0028475D01*
X0099940Y0029724D02*
X0098690Y0029724D01*
X0065740Y0045775D02*
X0064490Y0045775D01*
X0064490Y0047025D01*
X0065740Y0047025D01*
X0065740Y0045775D01*
X0065740Y0047024D02*
X0064490Y0047024D01*
X0062240Y0045775D02*
X0060990Y0045775D01*
X0060990Y0047025D01*
X0062240Y0047025D01*
X0062240Y0045775D01*
X0062240Y0047024D02*
X0060990Y0047024D01*
X0060990Y0049775D02*
X0062240Y0049775D01*
X0060990Y0049775D02*
X0060990Y0051025D01*
X0062240Y0051025D01*
X0062240Y0049775D01*
X0062240Y0051024D02*
X0060990Y0051024D01*
X0064490Y0049775D02*
X0065740Y0049775D01*
X0064490Y0049775D02*
X0064490Y0051025D01*
X0065740Y0051025D01*
X0065740Y0049775D01*
X0065740Y0051024D02*
X0064490Y0051024D01*
X0064490Y0054775D02*
X0065740Y0054775D01*
X0064490Y0054775D02*
X0064490Y0056025D01*
X0065740Y0056025D01*
X0065740Y0054775D01*
X0065740Y0056024D02*
X0064490Y0056024D01*
X0062240Y0054775D02*
X0060990Y0054775D01*
X0060990Y0056025D01*
X0062240Y0056025D01*
X0062240Y0054775D01*
X0062240Y0056024D02*
X0060990Y0056024D01*
X0060990Y0059475D02*
X0062240Y0059475D01*
X0060990Y0059475D02*
X0060990Y0060725D01*
X0062240Y0060725D01*
X0062240Y0059475D01*
X0062240Y0060724D02*
X0060990Y0060724D01*
X0064490Y0059475D02*
X0065740Y0059475D01*
X0064490Y0059475D02*
X0064490Y0060725D01*
X0065740Y0060725D01*
X0065740Y0059475D01*
X0065740Y0060724D02*
X0064490Y0060724D01*
X0064490Y0064375D02*
X0065740Y0064375D01*
X0064490Y0064375D02*
X0064490Y0065625D01*
X0065740Y0065625D01*
X0065740Y0064375D01*
X0065740Y0065624D02*
X0064490Y0065624D01*
X0062240Y0064375D02*
X0060990Y0064375D01*
X0060990Y0065625D01*
X0062240Y0065625D01*
X0062240Y0064375D01*
X0062240Y0065624D02*
X0060990Y0065624D01*
X0060990Y0069275D02*
X0062240Y0069275D01*
X0060990Y0069275D02*
X0060990Y0070525D01*
X0062240Y0070525D01*
X0062240Y0069275D01*
X0062240Y0070524D02*
X0060990Y0070524D01*
X0064490Y0069275D02*
X0065740Y0069275D01*
X0064490Y0069275D02*
X0064490Y0070525D01*
X0065740Y0070525D01*
X0065740Y0069275D01*
X0065740Y0070524D02*
X0064490Y0070524D01*
X0064490Y0074475D02*
X0065740Y0074475D01*
X0064490Y0074475D02*
X0064490Y0075725D01*
X0065740Y0075725D01*
X0065740Y0074475D01*
X0065740Y0075724D02*
X0064490Y0075724D01*
X0062240Y0074475D02*
X0060990Y0074475D01*
X0060990Y0075725D01*
X0062240Y0075725D01*
X0062240Y0074475D01*
X0062240Y0075724D02*
X0060990Y0075724D01*
D16*
X0047632Y0074950D03*
X0047632Y0076919D03*
X0047632Y0078887D03*
X0047632Y0080856D03*
X0047632Y0082824D03*
X0047632Y0084793D03*
X0047632Y0086761D03*
X0047632Y0088730D03*
X0047632Y0072982D03*
X0047632Y0071013D03*
X0047632Y0069045D03*
X0047632Y0067076D03*
X0047632Y0065108D03*
X0047632Y0063139D03*
X0047632Y0061171D03*
X0047632Y0059202D03*
X0047632Y0057234D03*
X0047632Y0055265D03*
X0047632Y0053297D03*
X0047632Y0051328D03*
X0047632Y0049360D03*
X0047632Y0047391D03*
X0047632Y0045423D03*
X0047632Y0043454D03*
D17*
X0034837Y0034990D03*
X0034837Y0097194D03*
D18*
X0053765Y0028559D03*
X0053765Y0023441D03*
X0045104Y0026000D03*
D19*
X0075025Y0039200D03*
X0082505Y0039200D03*
X0087525Y0039200D03*
X0095005Y0039200D03*
X0091265Y0031200D03*
X0078765Y0031200D03*
X0078765Y0047400D03*
X0075025Y0055400D03*
X0082505Y0055400D03*
X0087525Y0055400D03*
X0095005Y0055400D03*
X0091265Y0062700D03*
X0087525Y0070700D03*
X0082605Y0070700D03*
X0075125Y0070700D03*
X0078765Y0078200D03*
X0075025Y0086200D03*
X0082505Y0086200D03*
X0095005Y0070700D03*
X0078865Y0062700D03*
X0091265Y0047400D03*
D20*
X0120565Y0044124D03*
X0120565Y0054124D03*
X0120565Y0064124D03*
X0120565Y0074124D03*
X0120565Y0084124D03*
X0120565Y0094124D03*
X0120565Y0104124D03*
X0120565Y0034124D03*
X0120565Y0024124D03*
D21*
X0113065Y0116160D03*
X0113065Y0123640D03*
X0121065Y0119900D03*
M02*
